<svg width="248" height="211" viewBox="0 0 248 211" fill="none" xmlns="http://www.w3.org/2000/svg">
<path d="M247.55 118.452C250.01 104.906 242.047 95.6014 231.689 87.8467C219.094 78.3463 203.036 77.0827 191.192 68.6291C172.478 55.3226 197.326 18.802 171.988 4.51218C157.781 -3.44964 138.033 -0.724033 127.535 11.4955C119.378 21.0146 115.788 37.9466 115.366 50.2327C114.871 63.8369 122.263 77.0391 117.089 90.619C113.863 99.1189 106.736 105.004 98.6244 109.672C99.5234 103.51 104.644 78.477 97.1849 75.1985L93.2771 78.8531C91.0064 87.8444 88.828 97.0109 86.5929 106.181C85.9565 102.418 84.7657 98.8508 82.7388 95.5934C79.4307 90.2496 74.3295 86.3932 70.4162 81.5387C66.5899 76.8798 63.1282 70.3402 61.7076 64.5087C59.8179 56.7866 62.045 48.7905 62.5029 40.8406L61.954 33.7348C59.7469 22.7233 51.6779 11.3156 42.2524 6.32283C38.809 4.50028 34.9979 3.42738 31.1419 2.83241C16.2805 0.433591 2.82058 11.7394 0.427834 26.0751C-1.19791 35.677 2.04162 45.4382 6.23058 54.2578C10.2675 62.9163 13.9542 70.7995 9.39736 79.8927C4.53868 89.5919 -0.0796262 94.2328 2.87525 106.408C3.7376 109.953 4.97242 113.565 7.17321 116.485C12.8779 124.332 23.9895 126.676 33.556 125.005C42.7522 123.363 51.4191 119.848 59.9263 116.303C64.2888 114.489 68.5941 112.575 72.9792 110.884C76.8103 109.387 79.2273 110.877 81.7814 114.353L83.7769 117.624C78.408 138.901 72.4017 160.059 63.6183 179.823C61.289 185.079 57.94 190.498 56.3317 195.978C54.0478 203.77 56.7882 211.129 65.9139 210.998C74.3413 210.872 77.7828 203.338 79.3965 196.278C82.8072 181.265 87.2979 166.594 90.8394 151.614C93.3579 140.97 95.3721 130.126 97.0744 119.302C111.294 114.732 127.308 115.226 141.055 121.368C154.854 127.521 162.5 138.216 177.54 143.484C200.399 151.522 231.467 155.46 243.654 129.969C245.653 125.738 246.914 121.971 247.55 118.452Z" fill="#54990F" fill-opacity="0.1"/>
<path d="M104.092 18.3999C103.848 19.0159 103.623 19.6198 103.417 20.1985C102.051 24.0478 101.099 28.0679 100.455 32.1025C99.592 37.5025 101.828 40.3425 102.592 45.5652C103.257 50.1132 101.268 54.6158 100.871 59.2038C100.229 66.6305 103.643 73.8212 106.684 80.3266C107.696 82.4932 108.561 84.5865 109.115 86.9332C110.169 91.4132 108.543 93.5506 107.289 97.6852C106.039 101.809 107.713 106.312 110.248 109.744C112.837 113.251 116.059 116.204 118.683 119.665C120.732 122.371 123.728 127.881 122.855 131.513C124.892 123.044 128.516 115.425 131.628 107.439C134.211 100.811 139.443 95.8092 141.349 88.7318C143.151 82.0452 142.297 74.7452 139.559 68.6012C137.675 64.3772 134.847 60.5372 133.828 56.0092C132.016 47.9518 136.284 39.6385 135.668 31.3892C134.928 21.4852 128.729 8.44518 118.303 6.28918C110.967 4.77452 106.535 12.2479 104.092 18.3999Z" fill="#71A82C"/>
<path d="M101.225 36.0345C105.424 39.2559 109.321 42.0385 112.162 44.0279C113.814 45.1865 115.088 46.0759 115.862 46.6492C116.5 46.0306 117.854 44.8972 119.862 43.5546C122.789 41.6026 126.937 39.1492 131.513 36.4106C132.961 35.5506 134.361 34.7265 135.705 33.9399C135.692 34.3145 135.673 34.6892 135.647 35.0639C134.471 35.7705 133.249 36.5012 131.988 37.2505C128.805 39.1119 125.37 41.1212 120.217 44.1359C118.225 45.3279 116.82 46.3079 116.069 46.8012C116.497 47.1252 116.722 47.3199 116.696 47.3639C116.67 47.4079 116.349 47.2679 115.8 46.9759C115.585 47.1105 115.462 47.1719 115.44 47.1452C115.422 47.1252 115.497 47.0265 115.629 46.8839C114.777 46.4239 113.462 45.6545 111.792 44.6039C108.848 42.7559 104.869 40.0492 100.65 36.8119L100.448 36.6546C100.382 36.2226 100.332 35.7786 100.305 35.3212C100.611 35.5586 100.913 35.7945 101.225 36.0345Z" fill="#689C2D"/>
<path d="M103.425 55.5959C107.236 58.2159 110.722 60.5306 113.246 62.2119C115.769 63.8919 117.321 64.9546 117.252 65.0732C117.188 65.1866 115.513 64.3333 112.892 62.7973C110.272 61.2639 106.714 59.0319 102.89 56.4026C102.412 56.0733 101.94 55.7452 101.477 55.4199C101.548 55.0799 101.621 54.7386 101.696 54.3986C102.262 54.7932 102.837 55.1906 103.425 55.5959Z" fill="#689C2D"/>
<path d="M119.718 96.2719C120.19 95.6919 121.724 94.1319 124.028 91.9185C126.886 89.1719 130.909 85.4572 135.449 81.4692C137.685 79.5052 139.837 77.6612 141.816 75.9972C141.877 76.3465 141.912 76.6999 141.961 77.0519C139.813 78.9305 137.918 80.5865 136.068 82.2038C132.754 85.1265 129.334 88.1425 124.476 92.4278C122.098 94.5198 120.448 95.9385 119.83 96.3758L119.852 96.4145L119.76 96.4265L119.552 96.5305L119.616 96.3999C118.602 96.1505 114.426 94.4065 109.154 92.0332C109.228 91.7172 109.297 91.3985 109.344 91.0719C114.772 93.6025 118.957 95.6999 119.718 96.2719Z" fill="#689C2D"/>
<path d="M117.639 31.3493C117.769 31.4933 117.841 31.5907 117.822 31.6133C117.737 31.72 116.063 30.464 113.385 28.4027C108.945 25.0093 105.962 22.7293 103.265 20.6667C103.318 20.512 103.362 20.3533 103.417 20.1986C103.473 20.04 103.542 19.868 103.601 19.7066C107.673 22.776 111.26 25.684 113.806 27.864C115.752 29.5293 117.094 30.7586 117.601 31.304C117.838 30.8466 123.408 26.988 130.375 22.4613C131.289 21.868 132.183 21.292 133.047 20.7373C133.169 21.0333 133.303 21.3253 133.416 21.624C132.599 22.1627 131.752 22.716 130.883 23.28C123.967 27.7747 118.216 31.2733 117.639 31.3493Z" fill="#689C2D"/>
<path d="M121.032 61.2839C118.594 63.3212 117.057 64.5506 116.969 64.4493C116.884 64.3506 118.264 62.9385 120.593 60.7652C122.921 58.5919 126.202 55.6626 129.912 52.5306C131.142 51.4932 132.321 50.5199 133.468 49.5826C133.436 50.0039 133.416 50.4239 133.401 50.8426C132.357 51.7252 131.416 52.5199 130.516 53.2786C128.074 55.3386 125.326 57.6586 121.032 61.2839Z" fill="#689C2D"/>
<path d="M120.264 74.024C122.916 71.4573 126.678 68.1013 130.846 64.372C132.417 62.9733 133.937 61.6306 135.37 60.3733C135.504 60.6639 135.637 60.9533 135.778 61.2413C134.417 62.4706 132.973 63.7653 131.47 65.1026C128.504 67.7026 125.356 70.4613 120.722 74.524C118.93 76.104 117.86 77.5066 117.293 78.2746C118.241 78.7853 118.773 79.1093 118.742 79.1746C118.712 79.2426 118.094 79.0333 117.044 78.6119C116.904 78.8013 116.817 78.9093 116.789 78.8919C116.762 78.8839 116.796 78.7533 116.88 78.5466C114.269 77.492 109.17 75.228 103.242 72.4746C103.081 72.0506 102.934 71.6213 102.784 71.1919C109.082 74.1359 114.461 76.7653 117.065 78.152C117.505 77.2813 118.496 75.74 120.264 74.024Z" fill="#689C2D"/>
<path d="M109.474 108.607C109.212 108.195 108.968 107.769 108.734 107.336C116.517 110.159 122.357 112.455 122.28 112.679C122.205 112.893 116.76 111.151 109.474 108.607Z" fill="#689C2D"/>
<path d="M126.017 109.64C127.824 108.313 130.189 106.624 132.846 104.771C132.569 105.311 132.324 105.872 132.078 106.433C129.918 107.893 127.952 109.201 126.381 110.216C123.946 111.789 122.405 112.705 122.336 112.592C122.265 112.48 123.677 111.359 126.017 109.64Z" fill="#689C2D"/>
<path d="M118.508 27.2012C118.393 27.1799 118.011 28.8772 117.413 31.9785C117.131 33.5319 116.912 35.4492 116.605 37.6732C116.407 39.9039 116.117 42.4479 116.016 45.2692C115.707 50.9092 115.768 57.6452 116.255 65.0879C116.719 72.5332 117.617 80.6799 118.648 89.2012C120.687 106.231 122.737 121.667 122.123 132.841C121.856 138.421 121.017 142.879 120.249 145.907C119.468 148.935 118.855 150.565 118.989 150.619C119.043 150.64 119.248 150.255 119.591 149.495C119.947 148.741 120.379 147.591 120.879 146.087C121.851 143.076 122.885 138.571 123.307 132.915C124.233 121.567 122.349 106.017 120.315 89.0012C119.285 80.4839 118.344 72.3759 117.797 64.9799C117.231 57.5879 117.047 50.9119 117.203 45.3119C117.228 42.5105 117.432 39.9825 117.54 37.7585C117.756 35.5452 117.879 33.6279 118.061 32.0705C118.456 28.9585 118.621 27.2225 118.508 27.2012Z" fill="#557C2A"/>
<path d="M181.33 43.4252C181.338 44.0172 181.334 44.5919 181.321 45.1413C181.238 48.7853 180.756 52.4399 180.013 56.0066C179.02 60.7812 176.256 62.4279 173.964 66.5332C171.966 70.1079 172.196 74.4973 171.07 78.4439C169.25 84.8359 164.126 89.7279 159.53 94.1706C158 95.6492 156.614 97.1159 155.41 98.8919C153.11 102.285 153.788 104.588 153.521 108.433C153.253 112.269 150.43 115.483 147.23 117.528C143.962 119.616 140.342 121.041 137.06 123.083C134.494 124.677 130.252 128.305 129.828 131.609C130.816 123.903 130.214 116.392 130.156 108.743C130.106 102.392 127.336 96.5466 127.992 90.0399C128.613 83.8932 131.638 78.0879 135.869 73.8493C138.777 70.9359 142.35 68.6452 144.634 65.2012C148.7 59.0719 147.781 50.7786 150.912 44.1053C154.669 36.0946 163.968 27.2239 173.336 28.7773C179.926 29.8706 181.246 37.5172 181.33 43.4252Z" fill="#6FC42D"/>
<path d="M178.124 59.0332C173.605 60.3679 169.477 61.4346 166.48 62.1799C164.736 62.6132 163.393 62.9452 162.566 63.1732C162.232 62.4545 161.464 61.0759 160.217 59.3119C158.397 56.7465 155.721 53.3719 152.78 49.6213C151.846 48.4413 150.941 47.3039 150.072 46.2186C149.964 46.5333 149.86 46.8519 149.764 47.1719C150.52 48.1399 151.305 49.1399 152.117 50.1679C154.178 52.7412 156.401 55.5173 159.737 59.6826C161.017 61.3159 161.877 62.5825 162.346 63.2345C161.886 63.3665 161.637 63.4572 161.646 63.5026C161.653 63.5466 161.965 63.5332 162.516 63.4666C162.652 63.6479 162.733 63.7386 162.761 63.7226C162.781 63.7119 162.75 63.6065 162.686 63.4452C163.542 63.3345 164.881 63.1159 166.605 62.7785C169.644 62.1839 173.816 61.2066 178.356 59.8666L178.574 59.7999C178.766 59.4612 178.949 59.1079 179.117 58.7359C178.786 58.8346 178.46 58.9346 178.124 59.0332Z" fill="#689C2D"/>
<path d="M170.088 74.6199C166.082 75.5772 162.445 76.3866 159.809 76.9759C157.174 77.5666 155.546 77.9519 155.565 78.0732C155.584 78.1879 157.249 78.0159 159.918 77.5773C162.588 77.1413 166.258 76.4252 170.277 75.4639C170.78 75.3426 171.277 75.2212 171.766 75.0985C171.814 74.7919 171.862 74.4853 171.908 74.1773C171.31 74.3239 170.706 74.4706 170.088 74.6199Z" fill="#689C2D"/>
<path d="M143.616 103.267C143.408 102.631 142.625 100.839 141.408 98.2559C139.899 95.0506 137.727 90.6653 135.209 85.8853C133.969 83.5319 132.763 81.3052 131.643 79.2839C131.48 79.5546 131.34 79.8386 131.187 80.1159C132.38 82.3693 133.433 84.3572 134.461 86.2999C136.293 89.7972 138.185 93.4079 140.872 98.5372C142.189 101.043 143.115 102.755 143.489 103.317L143.46 103.343L143.533 103.381L143.673 103.535L143.661 103.405C144.584 103.523 148.616 103.411 153.76 103.127C153.797 102.84 153.843 102.553 153.907 102.267C148.583 102.631 144.432 103.033 143.616 103.267Z" fill="#689C2D"/>
<path d="M165.94 49.8613C165.786 49.94 165.694 49.9974 165.702 50.0214C165.741 50.1387 167.533 49.6293 170.417 48.7733C175.192 47.372 178.398 46.4307 181.3 45.58C181.305 45.4334 181.318 45.288 181.321 45.1414C181.325 44.9907 181.321 44.8253 181.324 44.6707C176.96 45.92 173.049 47.1907 170.237 48.1893C168.089 48.9507 166.58 49.544 165.986 49.836C165.933 49.3787 162.518 44.3774 158.152 38.3694C157.578 37.5814 157.017 36.8147 156.473 36.076C156.277 36.2827 156.073 36.484 155.884 36.6947C156.394 37.4067 156.924 38.14 157.469 38.888C161.804 44.852 165.482 49.6133 165.94 49.8613Z" fill="#689C2D"/>
<path d="M153.62 73.7039C155.004 76.1839 155.893 77.7013 156 77.6439C156.101 77.5893 155.4 75.9706 154.149 73.4119C152.9 70.8546 151.096 67.3613 149 63.5613C148.304 62.3026 147.63 61.1132 146.973 59.9652C146.866 60.3252 146.75 60.6813 146.629 61.0359C147.218 62.1053 147.752 63.0706 148.258 63.9906C149.638 66.4906 151.192 69.3052 153.62 73.7039Z" fill="#689C2D"/>
<path d="M150.218 84.5612C148.824 81.5719 146.754 77.5679 144.466 73.1225C143.601 71.4545 142.761 69.8479 141.965 68.3412C141.762 68.5399 141.56 68.7385 141.352 68.9332C142.096 70.3932 142.888 71.9358 143.714 73.5318C145.361 76.6505 147.106 79.9585 149.678 84.8305C150.669 86.7212 151.116 88.2332 151.344 89.0546C150.392 89.1759 149.848 89.2745 149.852 89.3398C149.856 89.4065 150.436 89.4292 151.445 89.4159C151.501 89.6186 151.54 89.7359 151.568 89.7305C151.593 89.7332 151.606 89.6132 151.602 89.4145C154.112 89.3732 159.076 89.1252 164.886 88.7359C165.156 88.4345 165.413 88.1226 165.676 87.8159C159.494 88.2439 154.181 88.7065 151.574 89.0252C151.482 88.1599 151.148 86.5572 150.218 84.5612Z" fill="#689C2D"/>
<path d="M148.236 116.828C148.585 116.569 148.924 116.293 149.254 116.008C141.877 115.86 136.285 115.896 136.28 116.108C136.273 116.311 141.361 116.608 148.236 116.828Z" fill="#689C2D"/>
<path d="M134.13 112.377C133.046 110.692 131.612 108.525 129.986 106.128C130.046 106.668 130.072 107.213 130.1 107.76C131.434 109.671 132.658 111.391 133.644 112.74C135.173 114.832 136.166 116.089 136.26 116.019C136.354 115.947 135.533 114.56 134.13 112.377Z" fill="#689C2D"/>
<path d="M166.531 46.1266C166.207 46.0586 165.214 52.2092 161.815 61.6052C158.578 71.0599 152.531 83.4893 145.342 96.9826C138.247 110.507 131.75 122.868 128.938 132.629C127.505 137.481 126.947 141.569 126.814 144.388C126.693 147.213 126.895 148.768 126.986 148.764C127.127 148.763 127.146 147.209 127.465 144.443C127.797 141.68 128.519 137.707 130.073 132.981C133.114 123.495 139.727 111.297 146.829 97.7639C154.021 84.2666 159.961 71.6279 162.939 61.9879C163.746 59.6026 164.307 57.3892 164.845 55.4666C165.29 53.5159 165.711 51.8466 165.963 50.4612C166.438 47.6852 166.646 46.1479 166.531 46.1266Z" fill="#557C2A"/>
<path d="M66.2465 37.5413C66.1865 38.1506 66.1398 38.7412 66.1052 39.3065C65.8692 43.0639 66.0438 46.8612 66.4945 50.5892C67.0972 55.5812 69.7959 57.4972 71.7932 61.9026C73.5332 65.7399 72.9118 70.2359 73.7212 74.3879C75.0318 81.1079 79.8732 86.5506 84.2105 91.4892C85.6558 93.1332 86.9518 94.7519 88.0345 96.6759C90.1011 100.351 89.2025 102.664 89.1398 106.643C89.0771 110.609 91.6985 114.141 94.8105 116.5C97.9892 118.911 101.587 120.667 104.785 123.029C107.284 124.873 111.329 128.947 111.476 132.38C111.136 124.372 112.415 116.693 113.149 108.828C113.757 102.3 117.123 96.5079 117.019 89.7625C116.92 83.3879 114.318 77.1732 110.34 72.4759C107.602 69.2465 104.129 66.6039 102.081 62.8773C98.4385 56.2479 100.113 47.7892 97.4798 40.6732C94.3185 32.1319 85.5318 22.2626 75.7585 23.1119C68.8825 23.7092 66.8518 31.4706 66.2465 37.5413Z" fill="#6FC42D"/>
<path d="M68.1714 53.8547C72.7034 55.5893 76.8568 57.016 79.8741 58.0226C81.6301 58.6093 82.9821 59.0573 83.8128 59.3586C84.2208 58.6453 85.1314 57.2879 86.5687 55.5733C88.6661 53.0799 91.7154 49.8226 95.0727 46.2C96.1367 45.0586 97.1674 43.9626 98.1568 42.9146C98.2408 43.248 98.3194 43.5827 98.3901 43.9213C97.5274 44.8547 96.6327 45.8213 95.7061 46.8146C93.3594 49.2973 90.8287 51.9747 87.0301 55.9933C85.5687 57.5707 84.574 58.804 84.034 59.4386C84.4954 59.6106 84.7434 59.7239 84.7314 59.7706C84.7194 59.8146 84.3994 59.776 83.8394 59.664C83.6834 59.8386 83.5914 59.9253 83.5647 59.908C83.5434 59.8946 83.5847 59.788 83.6661 59.628C82.7954 59.4466 81.4368 59.1133 79.6928 58.628C76.6194 57.7746 72.4127 56.4347 67.8607 54.6933L67.6408 54.6066C67.4728 54.2439 67.3168 53.8653 67.1768 53.4693C67.5074 53.5973 67.8354 53.7253 68.1714 53.8547Z" fill="#689C2D"/>
<path d="M75.0692 70.5307C79.1052 71.8373 82.7772 72.96 85.4358 73.7773C88.0945 74.5947 89.7358 75.1227 89.7052 75.2467C89.6758 75.3627 87.9785 75.052 85.2705 74.388C82.5625 73.7253 78.8492 72.6946 74.7998 71.384C74.2932 71.22 73.7932 71.0546 73.2998 70.8893C73.2772 70.5706 73.2558 70.252 73.2358 69.932C73.8372 70.1293 74.4465 70.3293 75.0692 70.5307Z" fill="#689C2D"/>
<path d="M99.7825 102.119C100.053 101.483 101.016 99.7013 102.494 97.1413C104.33 93.964 106.949 89.6266 109.958 84.9106C111.441 82.5893 112.878 80.3946 114.209 78.4039C114.352 78.6959 114.472 79 114.605 79.2973C113.178 81.52 111.921 83.4799 110.693 85.3959C108.5 88.8479 106.236 92.4106 103.021 97.4733C101.445 99.9453 100.344 101.632 99.9078 102.18L99.9358 102.209L99.8585 102.243L99.6998 102.389L99.7238 102.257C98.7638 102.305 94.6265 101.868 89.3598 101.164C89.3452 100.867 89.3252 100.567 89.2852 100.267C94.7292 101.068 98.9638 101.813 99.7825 102.119Z" fill="#689C2D"/>
<path d="M81.5132 45.3933C81.6652 45.4866 81.7532 45.5533 81.7425 45.5773C81.6932 45.6946 79.8945 45.0279 77.0038 43.9159C72.2145 42.0919 68.9972 40.8679 66.0879 39.7599C66.0959 39.6093 66.0945 39.4572 66.1052 39.3066C66.1145 39.1519 66.1319 38.9826 66.1439 38.8239C70.5239 40.4573 74.4345 42.0772 77.2398 43.3292C79.3825 44.2852 80.8825 45.0159 81.4678 45.3639C81.5625 44.8972 85.5159 40.0252 90.5359 34.1946C91.1945 33.4292 91.8398 32.6853 92.4652 31.9693C92.6478 32.1973 92.8399 32.4199 93.0159 32.6532C92.4279 33.3439 91.8199 34.0559 91.1932 34.7826C86.2079 40.5706 82.0052 45.1746 81.5132 45.3933Z" fill="#689C2D"/>
<path d="M92.0904 70.9053C90.4491 73.3467 89.3997 74.836 89.2971 74.7693C89.1957 74.7053 90.0611 73.096 91.5718 70.564C93.0811 68.0333 95.2451 64.584 97.7357 60.8426C98.5624 59.6026 99.3597 58.4333 100.137 57.304C100.214 57.684 100.304 58.06 100.397 58.4333C99.6957 59.4867 99.0638 60.436 98.4598 61.3426C96.8198 63.804 94.9744 66.576 92.0904 70.9053Z" fill="#689C2D"/>
<path d="M94.6344 82.3466C96.3331 79.3839 98.8144 75.4306 101.558 71.0413C102.596 69.3932 103.601 67.8093 104.552 66.3213C104.742 66.5426 104.934 66.7626 105.132 66.9786C104.237 68.4226 103.286 69.9453 102.296 71.5213C100.328 74.5986 98.2411 77.8612 95.1677 82.6679C93.9824 84.5345 93.3891 86.0533 93.0825 86.8799C94.0505 87.0813 94.6024 87.2266 94.5918 87.2919C94.5824 87.3612 93.9838 87.3386 92.9465 87.2439C92.8705 87.4479 92.8211 87.5652 92.7918 87.5586C92.7664 87.5586 92.7625 87.4332 92.7851 87.2306C90.2065 86.9879 85.1224 86.3346 79.1784 85.4692C78.9278 85.1372 78.6904 84.7972 78.4478 84.4586C84.7678 85.3946 90.1931 86.2959 92.8478 86.8319C93.0184 85.9479 93.5037 84.3266 94.6344 82.3466Z" fill="#689C2D"/>
<path d="M93.8368 115.7C93.5008 115.407 93.1768 115.096 92.8608 114.775C100.464 115.213 106.213 115.697 106.201 115.916C106.189 116.125 100.929 116.023 93.8368 115.7Z" fill="#689C2D"/>
<path d="M108.74 112.249C110.002 110.603 111.669 108.489 113.552 106.152C113.444 106.704 113.368 107.263 113.292 107.823C111.75 109.68 110.341 111.352 109.208 112.661C107.45 114.692 106.32 115.907 106.228 115.825C106.137 115.744 107.104 114.383 108.74 112.249Z" fill="#689C2D"/>
<path d="M81.2331 41.504C81.1171 41.516 81.1984 43.1107 81.4464 46C81.5838 47.4427 81.8718 49.192 82.1598 51.2334C82.5438 53.2534 82.9291 55.572 83.5491 58.088C84.6944 63.1467 86.4518 69.0773 88.7638 75.5227C91.0571 81.976 93.9158 88.9347 96.9878 96.1893C103.109 110.691 108.841 123.78 111.126 133.785C112.304 138.772 112.693 142.913 112.786 145.777C112.868 148.644 112.748 150.24 112.889 150.253C112.946 150.26 113.034 149.868 113.15 149.111C113.28 148.356 113.374 147.232 113.44 145.779C113.548 142.875 113.334 138.633 112.286 133.531C110.252 123.271 104.649 110.027 98.5344 95.536C95.4637 88.2854 92.5757 81.3747 90.2171 74.9934C87.8411 68.6187 85.9838 62.7787 84.7024 57.8027C82.0384 47.8627 81.5651 41.464 81.2331 41.504Z" fill="#557C2A"/>
<path d="M148.097 160.953C147.717 159.893 147.282 158.851 146.799 157.833C142.871 149.56 136.285 146.077 128.18 142.916C118.613 139.183 107.782 138.133 98.0328 141.82C89.6862 144.976 82.5168 151.8 80.4862 160.683C78.5302 169.233 79.7048 179.591 87.0061 185.336C95.4301 191.965 106.934 194.196 111.399 205C113.281 203.108 115.452 201.503 117.813 200.259C126.03 195.929 137.216 196.192 143.013 188.251C149.073 179.952 151.647 170.845 148.097 160.953Z" fill="#921881"/>
<path d="M128.122 161.092C134.333 161.612 139.982 161.705 144.062 161.612C145.761 161.573 147.168 161.516 148.256 161.445C148.214 161.324 148.182 161.204 148.138 161.083C146.698 161.069 145.324 161.056 144.06 161.043C139.992 160.992 134.373 160.808 128.189 160.291C122.006 159.768 116.437 159.009 112.417 158.38C110.952 158.145 109.36 157.892 107.656 157.62C106.53 157.44 105.902 157.367 105.89 157.421C105.878 157.476 106.485 157.652 107.594 157.927C108.701 158.204 110.316 158.553 112.32 158.94C116.326 159.715 121.91 160.567 128.122 161.092Z" fill="#591851"/>
<path d="M124.339 151.544C124.334 151.316 122.647 151.185 120.589 150.98C118.529 150.781 116.849 150.583 116.799 150.804C116.749 151.015 118.393 151.576 120.51 151.78C122.626 151.991 124.347 151.76 124.339 151.544Z" fill="#591851"/>
<path d="M98.3781 163.148C98.3701 162.916 95.9008 162.845 92.8941 162.473C89.8861 162.115 87.4715 161.593 87.4075 161.816C87.3448 162.019 89.7155 162.903 92.7968 163.271C95.8781 163.651 98.3914 163.36 98.3781 163.148Z" fill="#591851"/>
<path d="M107.686 177.105C107.669 176.88 105.17 176.891 102.098 176.892C99.0265 176.9 96.5278 176.895 96.5118 177.121C96.4945 177.339 98.9945 177.703 102.1 177.696C105.206 177.695 107.704 177.323 107.686 177.105Z" fill="#591851"/>
<path d="M134.672 173.108C134.653 172.969 133.781 172.973 132.456 172.976C131.592 172.979 130.534 172.981 129.394 172.945C126.504 172.865 124.161 172.563 124.117 172.791C124.069 172.997 126.401 173.665 129.37 173.748C132.34 173.844 134.706 173.317 134.672 173.108Z" fill="#591851"/>
<path d="M118.436 196.532C118.38 196.308 116.33 196.664 113.793 196.868C111.257 197.084 109.177 197.068 109.158 197.299C109.134 197.511 111.244 197.889 113.86 197.668C116.476 197.457 118.494 196.737 118.436 196.532Z" fill="#591851"/>
<path d="M137.87 147.639L137.702 147.625C135.549 147.455 132.575 147.22 129.299 146.888C126.023 146.555 123.065 146.187 120.919 145.921C118.775 145.656 117.443 145.507 117.422 145.619C117.403 145.725 118.702 146.072 120.831 146.483C122.961 146.893 125.925 147.352 129.218 147.688C132.513 148.021 135.507 148.167 137.677 148.192C138.037 148.197 138.365 148.197 138.678 148.196C138.41 148.008 138.145 147.819 137.87 147.639Z" fill="#591851"/>
<path d="M100.21 149.496C97.5182 149.437 93.8022 149.311 89.7088 148.995C88.8595 148.928 88.0315 148.855 87.2222 148.779C86.9862 149.016 86.7568 149.259 86.5288 149.504C87.5341 149.612 88.5755 149.712 89.6475 149.796C93.7648 150.113 97.5089 150.152 100.213 150.064C102.917 149.977 104.581 149.795 104.577 149.691C104.573 149.573 102.902 149.555 100.21 149.496Z" fill="#591851"/>
<path d="M144.91 184.22C141.27 184.529 136.226 184.787 130.657 184.625C125.088 184.456 120.068 183.901 116.452 183.376C112.834 182.853 110.609 182.425 110.582 182.548C110.569 182.603 111.113 182.769 112.108 183.025C113.101 183.288 114.554 183.603 116.36 183.937C119.97 184.609 125.022 185.259 130.633 185.429C136.244 185.591 141.325 185.241 144.969 184.785C145.094 184.769 145.204 184.753 145.325 184.739C145.44 184.544 145.55 184.349 145.66 184.153C145.413 184.176 145.173 184.197 144.91 184.22Z" fill="#591851"/>
<path d="M112.581 170.503C110.98 170.58 109.491 170.651 108.136 170.716C104.384 170.888 99.1972 171.028 93.4705 170.897C88.1825 170.771 83.3799 170.436 79.7266 170.112C79.7412 170.315 79.7465 170.519 79.7639 170.721C83.4039 171.167 88.1866 171.575 93.4519 171.701C99.2066 171.832 104.417 171.601 108.172 171.284C110.049 171.125 111.565 170.963 112.609 170.813C113.653 170.669 114.228 170.564 114.223 170.508C114.217 170.453 113.632 170.453 112.581 170.503Z" fill="#591851"/>
<path d="M114.181 192.237C114.188 192.127 112.575 191.936 109.963 191.707C105.328 191.313 102.375 191.063 99.7679 190.84C98.0826 190.676 96.4653 190.52 94.96 190.36C95.5493 190.684 96.1359 191.009 96.7226 191.332C97.6813 191.439 98.6746 191.541 99.6946 191.641C103.685 192.007 107.307 192.187 109.929 192.275C112.551 192.359 114.175 192.348 114.181 192.237Z" fill="#591851"/>
<path d="M111.4 205C111.213 204.551 110.998 204.137 110.788 203.716C110.793 203.707 110.798 203.699 110.804 203.689C111.014 204.112 111.213 204.549 111.4 205C113.281 203.108 115.452 201.503 117.813 200.259C126.03 195.929 137.216 196.192 143.013 188.251C137.216 196.192 126.03 195.929 117.813 200.259C115.452 201.503 113.281 203.108 111.4 205ZM148.206 161.263C148.19 161.217 148.176 161.172 148.16 161.127C148.176 161.172 148.19 161.217 148.206 161.263ZM148.061 160.855C147.689 159.828 147.268 158.819 146.8 157.833C147.268 158.819 147.689 159.828 148.061 160.855ZM128.082 142.877C128.08 142.876 128.076 142.875 128.073 142.873C128.076 142.875 128.08 142.876 128.082 142.877Z" fill="#E4A6C7"/>
<path d="M111.4 205C111.213 204.549 111.014 204.112 110.804 203.689C112.065 201.564 113.49 199.525 114.996 197.541C117.037 197.252 118.485 196.707 118.436 196.532C118.424 196.481 118.309 196.461 118.112 196.461C117.661 196.461 116.772 196.571 115.65 196.691C116.666 195.381 117.712 194.095 118.764 192.823C120.852 190.293 122.982 187.776 124.844 185.081C126.674 185.245 128.617 185.368 130.633 185.429C131.585 185.457 132.522 185.469 133.44 185.469C137.928 185.469 141.944 185.164 144.969 184.785C145.094 184.769 145.204 184.753 145.325 184.739C145.44 184.544 145.55 184.349 145.66 184.153C145.413 184.176 145.173 184.197 144.91 184.22C142.042 184.464 138.302 184.675 134.122 184.675C132.996 184.675 131.838 184.66 130.657 184.625C128.814 184.569 127.033 184.472 125.342 184.347C125.912 183.488 126.452 182.612 126.952 181.711C128.342 179.208 129.404 176.528 130.125 173.76C132.732 173.755 134.702 173.299 134.672 173.108C134.656 172.992 134.044 172.976 133.068 172.976C132.877 172.976 132.673 172.976 132.456 172.976C132.238 172.977 132.008 172.977 131.766 172.977C131.318 172.977 130.833 172.976 130.322 172.967C131.221 169.16 131.484 165.201 131.088 161.312C134.802 161.552 138.24 161.644 141.16 161.644C142.196 161.644 143.166 161.632 144.062 161.612C145.761 161.573 147.168 161.516 148.256 161.445C148.214 161.324 148.182 161.204 148.138 161.083C146.698 161.069 145.324 161.056 144.06 161.043C140.617 161 136.064 160.861 130.997 160.507C130.766 158.671 130.388 156.853 129.858 155.079C129.052 152.377 127.9 149.787 126.454 147.369C127.34 147.483 128.265 147.591 129.218 147.688C132.513 148.021 135.508 148.167 137.677 148.192C137.928 148.196 138.162 148.196 138.388 148.196C138.486 148.196 138.582 148.196 138.678 148.196C138.41 148.008 138.145 147.819 137.87 147.639L137.702 147.625C135.549 147.455 132.576 147.22 129.3 146.888C128.129 146.769 127 146.645 125.933 146.524C124.621 144.464 123.094 142.541 121.388 140.795C123.661 141.336 125.9 142.032 128.073 142.873C128.076 142.875 128.08 142.876 128.082 142.877C128.114 142.891 128.148 142.903 128.18 142.916C136.285 146.077 142.87 149.56 146.8 157.833C147.268 158.819 147.689 159.828 148.061 160.855C148.073 160.887 148.085 160.92 148.097 160.953C148.118 161.011 148.138 161.069 148.16 161.127C148.176 161.172 148.19 161.217 148.206 161.263C151.594 171.036 149.009 180.039 143.013 188.251C137.216 196.192 126.03 195.929 117.813 200.259C115.452 201.503 113.281 203.108 111.4 205Z" fill="#7B186B"/>
<path d="M141.16 161.644C138.24 161.644 134.802 161.552 131.088 161.312C131.061 161.043 131.03 160.775 130.997 160.507C136.064 160.861 140.617 161 144.06 161.043C145.324 161.056 146.698 161.069 148.138 161.083C148.182 161.204 148.214 161.324 148.256 161.445C147.168 161.516 145.761 161.573 144.062 161.612C143.166 161.632 142.196 161.644 141.16 161.644Z" fill="#4B1442"/>
<path d="M130.125 173.76C130.194 173.496 130.26 173.232 130.322 172.967C130.833 172.976 131.318 172.977 131.766 172.977C132.008 172.977 132.238 172.977 132.456 172.976C132.673 172.976 132.877 172.976 133.068 172.976C134.044 172.976 134.656 172.992 134.672 173.108C134.702 173.299 132.732 173.755 130.125 173.76Z" fill="#4B1442"/>
<path d="M114.996 197.541C115.213 197.257 115.43 196.973 115.65 196.691C116.772 196.571 117.661 196.461 118.112 196.461C118.309 196.461 118.424 196.481 118.436 196.532C118.485 196.707 117.037 197.252 114.996 197.541Z" fill="#4B1442"/>
<path d="M138.388 148.196C138.162 148.196 137.928 148.196 137.677 148.192C135.508 148.167 132.513 148.021 129.218 147.688C128.265 147.591 127.34 147.483 126.454 147.369C126.285 147.085 126.11 146.803 125.933 146.524C127 146.645 128.129 146.769 129.3 146.888C132.576 147.22 135.549 147.455 137.702 147.625L137.87 147.639C138.145 147.819 138.41 148.008 138.678 148.196C138.582 148.196 138.486 148.196 138.388 148.196Z" fill="#4B1442"/>
<path d="M133.44 185.469C132.522 185.469 131.585 185.457 130.633 185.429C128.617 185.368 126.674 185.245 124.844 185.081C125.012 184.837 125.178 184.592 125.342 184.347C127.033 184.472 128.814 184.569 130.657 184.625C131.838 184.66 132.996 184.675 134.122 184.675C138.302 184.675 142.042 184.464 144.91 184.22C145.173 184.197 145.413 184.176 145.66 184.153C145.55 184.349 145.44 184.544 145.325 184.739C145.204 184.753 145.094 184.769 144.969 184.785C141.944 185.164 137.928 185.469 133.44 185.469Z" fill="#4B1442"/>
<path d="M94.5263 177.219C93.3329 177.219 92.1556 176.953 91.1142 176.365C89.2729 175.327 88.1329 173.488 87.4929 171.436C89.3769 171.559 91.3769 171.652 93.4516 171.701C94.5796 171.727 95.6863 171.739 96.7663 171.739C99.2689 171.739 101.622 171.675 103.742 171.573C102.361 173.435 100.716 175.128 98.6636 176.187C97.3956 176.841 95.9489 177.219 94.5263 177.219ZM98.0516 170.949C96.5783 170.949 95.0449 170.933 93.4702 170.897C91.3089 170.845 89.2289 170.759 87.2756 170.653C87.0489 169.736 86.9142 168.793 86.8529 167.871C86.4702 162.131 89.0569 155.141 92.8316 150.769C93.0569 150.508 93.2956 150.259 93.5422 150.023C94.9782 150.08 96.3302 150.105 97.5622 150.105C98.5249 150.105 99.4143 150.091 100.213 150.064C102.917 149.977 104.581 149.795 104.577 149.691C104.573 149.573 102.902 149.555 100.21 149.496C98.5943 149.461 96.6102 149.401 94.3982 149.291C96.1662 147.933 98.2769 147.201 100.297 147.201C103.466 147.201 106.406 149.007 107.424 153.036C107.83 154.647 108.084 156.197 108.177 157.703C108.004 157.675 107.83 157.648 107.656 157.62C106.774 157.479 106.197 157.404 105.984 157.404C105.924 157.404 105.893 157.409 105.89 157.421C105.878 157.476 106.485 157.652 107.594 157.927C107.781 157.973 107.981 158.023 108.197 158.073C108.396 162.556 107.156 166.657 104.294 170.801C104.281 170.821 104.268 170.84 104.253 170.86C102.364 170.913 100.276 170.949 98.0516 170.949ZM87.6276 161.763C87.4942 161.763 87.4183 161.779 87.4076 161.816C87.3449 162.019 89.7156 162.903 92.7969 163.271C93.8836 163.405 94.8996 163.455 95.7596 163.455C97.3369 163.455 98.3876 163.285 98.3782 163.148C98.3702 162.916 95.9009 162.845 92.8942 162.473C90.3889 162.175 88.2942 161.763 87.6276 161.763Z" fill="#AD2096"/>
<path d="M108.197 158.073C107.981 158.023 107.781 157.973 107.594 157.927C106.485 157.652 105.878 157.476 105.89 157.421C105.893 157.409 105.924 157.404 105.984 157.404C106.197 157.404 106.774 157.479 107.656 157.62C107.83 157.648 108.004 157.675 108.177 157.703C108.185 157.827 108.19 157.949 108.197 158.073Z" fill="#781B6F"/>
<path d="M95.7595 163.455C94.8995 163.455 93.8835 163.405 92.7968 163.271C89.7155 162.903 87.3448 162.019 87.4075 161.816C87.4181 161.779 87.4941 161.763 87.6275 161.763C88.2941 161.763 90.3888 162.175 92.8941 162.473C95.9008 162.845 98.3701 162.916 98.3781 163.148C98.3874 163.285 97.3368 163.455 95.7595 163.455Z" fill="#781B6F"/>
<path d="M97.5625 150.105C96.3305 150.105 94.9785 150.08 93.5425 150.023C93.8158 149.761 94.1025 149.517 94.3985 149.291C96.6105 149.401 98.5945 149.461 100.211 149.496C102.903 149.555 104.573 149.573 104.577 149.691C104.581 149.795 102.917 149.977 100.213 150.064C99.4145 150.091 98.5251 150.105 97.5625 150.105Z" fill="#781B6F"/>
<path d="M96.7661 171.739C95.6861 171.739 94.5794 171.727 93.4514 171.701C91.3768 171.652 89.3768 171.559 87.4928 171.436C87.4128 171.177 87.3394 170.916 87.2754 170.653C89.2287 170.759 91.3087 170.845 93.4701 170.897C95.0447 170.933 96.5781 170.949 98.0514 170.949C100.275 170.949 102.363 170.913 104.253 170.86C104.087 171.1 103.917 171.337 103.742 171.573C101.622 171.675 99.2687 171.739 96.7661 171.739Z" fill="#781B6F"/>
</svg>
