<svg width="248" height="211" viewBox="0 0 248 211" fill="none" xmlns="http://www.w3.org/2000/svg">
<path d="M247.55 118.452C250.01 104.906 242.047 95.6014 231.689 87.8467C219.094 78.3463 203.036 77.0827 191.192 68.6291C172.478 55.3226 197.326 18.802 171.988 4.51218C157.781 -3.44964 138.033 -0.724033 127.535 11.4955C119.378 21.0146 115.788 37.9466 115.366 50.2327C114.871 63.8369 122.263 77.0391 117.089 90.619C113.863 99.1189 106.736 105.004 98.6244 109.672C99.5234 103.51 104.644 78.477 97.1849 75.1985L93.2771 78.8531C91.0064 87.8444 88.828 97.0109 86.5929 106.181C85.9565 102.418 84.7657 98.8508 82.7388 95.5934C79.4307 90.2496 74.3295 86.3932 70.4162 81.5387C66.5899 76.8798 63.1282 70.3402 61.7076 64.5087C59.8179 56.7866 62.045 48.7905 62.5029 40.8406L61.954 33.7348C59.7469 22.7233 51.6779 11.3156 42.2524 6.32283C38.809 4.50028 34.9979 3.42738 31.1419 2.83241C16.2805 0.433591 2.82058 11.7394 0.427834 26.0751C-1.19791 35.677 2.04162 45.4382 6.23058 54.2578C10.2675 62.9163 13.9542 70.7995 9.39736 79.8927C4.53868 89.5919 -0.0796262 94.2328 2.87525 106.408C3.7376 109.953 4.97242 113.565 7.17321 116.485C12.8779 124.332 23.9895 126.676 33.556 125.005C42.7522 123.363 51.4191 119.848 59.9263 116.303C64.2888 114.489 68.5941 112.575 72.9792 110.884C76.8103 109.387 79.2273 110.877 81.7814 114.353L83.7769 117.624C78.408 138.901 72.4017 160.059 63.6183 179.823C61.289 185.079 57.94 190.498 56.3317 195.978C54.0478 203.77 56.7882 211.129 65.9139 210.998C74.3413 210.872 77.7828 203.338 79.3965 196.278C82.8072 181.265 87.2979 166.594 90.8394 151.614C93.3579 140.97 95.3721 130.126 97.0744 119.302C111.294 114.732 127.308 115.226 141.055 121.368C154.854 127.521 162.5 138.216 177.54 143.484C200.399 151.522 231.467 155.46 243.654 129.969C245.653 125.738 246.914 121.971 247.55 118.452Z" fill="#54990F" fill-opacity="0.1"/>
<path d="M74.2517 92.1561C76.889 84.8161 84.773 79.7322 92.5477 80.3587L116.648 163.545C108.756 168.649 97.189 166.953 91.0957 159.797C88.369 156.596 86.7503 152.62 85.2637 148.686C81.9343 139.884 79.0423 130.914 76.5997 121.825C74.9663 115.747 73.529 109.58 73.1063 103.3C72.8543 99.5467 72.981 95.6957 74.2517 92.1561Z" fill="#A11830"/>
<path d="M157.007 78.8811C152.179 72.7561 143.089 70.4333 135.915 73.4931L139.437 160.031C148.541 162.368 158.972 157.09 162.483 148.372C164.052 144.472 164.327 140.186 164.491 135.986C164.855 126.581 164.755 117.157 164.188 107.762C163.811 101.48 163.219 95.1759 161.627 89.0853C160.676 85.4467 159.335 81.8347 157.007 78.8811Z" fill="#A11830"/>
<path d="M107.696 50.6946C107.445 52.9453 107.366 55.2279 107.341 57.4893C107.288 62.1973 107.448 66.9066 107.821 71.5989C107.84 71.8348 107.87 72.0946 108.046 72.252C108.224 72.4093 108.488 72.4093 108.725 72.3989C111.644 72.2624 114.548 71.8358 117.382 71.129C116.312 71.3957 115.53 57.7306 115.616 56.4906C115.917 52.0986 115.745 47.7346 117.964 43.7093C119.524 40.8786 122.492 38.58 125.717 38.788C127.621 38.9106 129.59 39.864 131.35 39.128C132.426 38.6786 133.204 37.5906 133.282 36.428C133.456 33.8826 129.998 32.184 127.941 31.4893C125.521 30.6706 122.92 30.9426 120.562 31.836C115.81 33.6386 111.574 37.848 109.649 42.544C108.584 45.1453 108.006 47.896 107.696 50.6946Z" fill="#49BD4A"/>
<path d="M141.723 85.2972C140.149 78.9478 138.428 69.8801 131.292 68.2972C125.891 67.0999 119.833 67.0827 114.345 67.4931C103.817 68.28 90.884 72.4092 90.7986 85.0399C90.7413 93.6024 91.4559 102.216 92.6612 110.688C95.0586 127.525 99.6932 144.205 107.259 159.478C108.631 162.247 110.297 164.986 112.816 166.776C117.088 169.811 122.803 169.502 128.024 169.068C132.581 168.689 137.481 168.171 140.915 165.15C144.689 161.829 145.659 156.408 146.2 151.409C148.588 129.337 147.065 106.847 141.723 85.2972Z" fill="#D61E25"/>
<path d="M101.449 132.171C102.127 133.874 103.413 135.207 105.119 135.207C105.247 135.207 105.379 135.199 105.512 135.183C110.109 134.645 109.676 124.945 104.633 124.945C104.523 124.945 104.411 124.95 104.296 124.96C100.917 125.24 100.289 129.25 101.449 132.171Z" fill="#EE243B"/>
<path d="M100.369 117.135C101.379 118.664 102.563 119.356 103.633 119.356C105.072 119.356 106.309 118.111 106.663 115.961C107.129 113.129 106.891 110.146 106.66 107.263C106.623 106.79 106.585 106.32 106.551 105.853C106.096 99.6374 106.724 93.3931 107.571 87.2186C108.033 83.8494 106.997 77.868 103.724 77.868C102.863 77.868 101.847 78.2811 100.663 79.2639C97.5574 81.8442 97.0921 87.3014 96.9054 90.8732C96.7521 93.7956 96.7268 96.7238 96.8268 99.6494C97.0121 105.064 97.2761 112.45 100.369 117.135Z" fill="#EE243B"/>
<path d="M131.292 68.2974C131.265 68.2906 131.24 68.2854 131.214 68.2802C131.24 68.2854 131.265 68.2922 131.292 68.2974ZM131.197 68.276C131.177 68.2719 131.158 68.2682 131.138 68.264C131.158 68.2682 131.177 68.2719 131.197 68.276ZM131.112 68.2572C131.096 68.2547 131.081 68.2504 131.066 68.2479C131.081 68.2504 131.097 68.2547 131.112 68.2572ZM131.029 68.24C131.018 68.2375 131.008 68.2359 130.997 68.2334C131.008 68.2359 131.018 68.2375 131.029 68.24ZM130.948 68.2228C130.944 68.2214 130.941 68.2214 130.938 68.2198C130.941 68.2214 130.944 68.2214 130.948 68.2228Z" fill="#F9A8B0"/>
<path d="M127.386 169.117C128.087 156.508 132.883 144.443 135.076 131.972C138.978 109.796 134.119 86.2529 122.047 67.2775C125.066 67.3467 128.088 67.6186 130.939 68.2196C130.942 68.2212 130.944 68.2212 130.948 68.2227C130.964 68.2264 130.98 68.229 130.998 68.2332C131.008 68.2357 131.019 68.2374 131.03 68.2399C131.042 68.2425 131.054 68.2451 131.067 68.2477C131.082 68.2503 131.096 68.2545 131.112 68.2571C131.122 68.2597 131.131 68.2612 131.139 68.2639C131.159 68.268 131.178 68.2718 131.198 68.2759C131.203 68.2775 131.208 68.2784 131.215 68.28C131.24 68.2852 131.266 68.2904 131.292 68.2972C138.428 69.88 140.15 78.9477 141.723 85.2972C145.427 100.238 147.295 115.633 147.296 131.026C147.298 137.833 146.932 144.641 146.2 151.409C145.659 156.408 144.69 161.829 140.915 165.15C137.482 168.171 132.582 168.689 128.024 169.068C127.814 169.085 127.598 169.1 127.386 169.117Z" fill="#C61E25"/>
</svg>
