<svg width="16" height="16" viewBox="0 0 16 16" fill="none" xmlns="http://www.w3.org/2000/svg">
<path fill-rule="evenodd" clip-rule="evenodd" d="M0 7.99998C0 12.4183 3.58172 16 8 16C12.4183 16 16 12.4183 16 8.00002C16 3.58173 12.4182 0 8 0C3.58172 0 0 3.58169 0 7.99998ZM8 1.31507C8.02322 1.31507 8.04644 1.31507 8.06926 1.3155C11.7291 1.35278 14.6849 4.33139 14.6849 7.99998C14.6849 11.668 11.7301 14.6462 8.07112 14.6845L8.06926 14.6845C8.04647 14.6849 8.02322 14.6849 8 14.6849C4.30816 14.6849 1.3151 11.6918 1.3151 7.99999C1.3151 4.30818 4.30816 1.31507 8 1.31507Z" fill="#FBCD18"/>
<path d="M8.70178 3.39941C8.88853 3.37311 9.08358 3.38363 9.27735 3.43536C10.0533 3.64358 10.5135 4.44053 10.3053 5.21594C10.2461 5.43822 10.1378 5.63413 9.99623 5.79634L8.05493 7.9989L8.0548 7.99913L8.05477 7.99908L8.05477 7.99917H8.05496L10.7886 6.92844C10.9895 6.85076 11.2107 6.8159 11.4399 6.83615C12.2399 6.906 12.8313 7.61109 12.7614 8.41109C12.722 8.86205 12.4808 9.24652 12.1341 9.48392L12.1341 9.484C12.1972 9.7094 12.2058 9.94858 12.1559 10.1804L12.1558 10.1806C12.1166 10.365 12.0401 10.5446 11.9252 10.709C11.4642 11.3669 10.5579 11.5268 9.90036 11.0659C9.71182 10.9343 9.56468 10.7656 9.46071 10.577L8.38356 8.60194V9.8683C8.38356 10.8095 8.5259 11.737 8.80657 12.6249C8.86127 12.7981 8.76532 12.9828 8.59224 13.0374C8.55925 13.0479 8.52586 13.0528 8.49302 13.0528C8.35344 13.0528 8.22396 12.9633 8.17963 12.8231C7.87862 11.871 7.72603 10.8768 7.72603 9.8683V8.60186L6.64883 10.577C6.54486 10.7656 6.39772 10.9343 6.20918 11.0659C5.55165 11.5268 4.64535 11.3669 4.18431 10.709C4.06946 10.5446 3.99289 10.365 3.95373 10.1805L3.95366 10.1804C3.90376 9.94858 3.91237 9.7094 3.9754 9.484L3.97546 9.48392C3.62875 9.24652 3.38752 8.86205 3.3481 8.41109C3.27829 7.61109 3.86967 6.906 4.66966 6.83615C4.89883 6.8159 5.12002 6.85076 5.32091 6.92844L8.05458 7.99917H8.05477L6.11351 5.79646C5.97179 5.63422 5.86338 5.43835 5.80409 5.21603C5.5961 4.44038 6.0564 3.64351 6.83204 3.43553C7.26923 3.31835 7.71313 3.41355 8.05476 3.65815L8.0548 3.65808C8.24505 3.52175 8.46685 3.43192 8.70177 3.39946L8.70178 3.39941Z" fill="#FBCD18"/>
</svg>
