<svg width="248" height="211" viewBox="0 0 248 211" fill="none" xmlns="http://www.w3.org/2000/svg">
<path d="M247.55 118.452C250.01 104.906 242.047 95.6014 231.689 87.8467C219.094 78.3463 203.036 77.0827 191.192 68.6291C172.478 55.3226 197.326 18.802 171.988 4.51218C157.781 -3.44964 138.033 -0.724033 127.535 11.4955C119.378 21.0146 115.788 37.9466 115.366 50.2327C114.871 63.8369 122.263 77.0391 117.089 90.619C113.863 99.1189 106.736 105.004 98.6244 109.672C99.5234 103.51 104.644 78.477 97.1849 75.1985L93.2771 78.8531C91.0064 87.8444 88.828 97.0109 86.5929 106.181C85.9565 102.418 84.7657 98.8508 82.7388 95.5934C79.4307 90.2496 74.3295 86.3932 70.4162 81.5387C66.5899 76.8798 63.1282 70.3402 61.7076 64.5087C59.8179 56.7866 62.045 48.7905 62.5029 40.8406L61.954 33.7348C59.7469 22.7233 51.6779 11.3156 42.2524 6.32283C38.809 4.50028 34.9979 3.42738 31.1419 2.83241C16.2805 0.433591 2.82058 11.7394 0.427834 26.0751C-1.19791 35.677 2.04162 45.4382 6.23058 54.2578C10.2675 62.9163 13.9542 70.7995 9.39736 79.8927C4.53868 89.5919 -0.0796262 94.2328 2.87525 106.408C3.7376 109.953 4.97242 113.565 7.17321 116.485C12.8779 124.332 23.9895 126.676 33.556 125.005C42.7522 123.363 51.4191 119.848 59.9263 116.303C64.2888 114.489 68.5941 112.575 72.9792 110.884C76.8103 109.387 79.2273 110.877 81.7814 114.353L83.7769 117.624C78.408 138.901 72.4017 160.059 63.6183 179.823C61.289 185.079 57.94 190.498 56.3317 195.978C54.0478 203.77 56.7882 211.129 65.9139 210.998C74.3413 210.872 77.7828 203.338 79.3965 196.278C82.8072 181.265 87.2979 166.594 90.8394 151.614C93.3579 140.97 95.3721 130.126 97.0744 119.302C111.294 114.732 127.308 115.226 141.055 121.368C154.854 127.521 162.5 138.216 177.54 143.484C200.399 151.522 231.467 155.46 243.654 129.969C245.653 125.738 246.914 121.971 247.55 118.452Z" fill="#54990F" fill-opacity="0.1"/>
<g clip-path="url(#clip0_26_797)">
<path d="M100.774 67.4146C100.635 68.8493 100.358 70.2742 100.325 71.715C100.221 76.3052 101.915 80.6044 105.35 83.6528C107.482 85.5454 109.923 87.086 111.916 89.126C113.799 91.0527 115.244 93.4044 116.114 95.9547C116.289 92.7163 117.171 89.5194 118.681 86.6488C120.75 82.7138 124.04 79.2099 124.548 74.7926C125.177 69.3121 120.179 65.4489 120.488 60.4215C120.64 57.9467 121.573 54.7948 122.357 52.4272C123.798 48.0781 125.75 43.6973 125.39 39.129C124.976 33.8592 121.632 29.5381 118.936 25.2097C116.722 21.6559 113.88 18.3981 113.435 14.1147C113.043 10.3454 113.916 6.16919 111.805 3.02094C109.202 -0.859276 104.292 -0.699738 100.76 1.79329C96.4955 4.80148 94.718 10.7911 95.5111 15.7857C96.0495 19.1799 97.7212 22.4512 97.3808 25.8711C97.0362 29.3347 94.677 32.0092 93.7344 35.2622C91.2034 43.9982 94.7932 51.4931 99.0132 58.8772C100.339 61.1973 100.965 63.9046 100.836 66.5743C100.822 66.8544 100.801 67.1357 100.774 67.4146Z" fill="#71A82C"/>
<path d="M100.512 74.5258L100.488 74.3667C100.442 74.0509 100.395 73.735 100.37 73.4139C100.826 73.6879 101.268 73.9546 101.695 74.2128L104.735 75.9967C106.183 76.847 107.862 77.8326 109.964 79.0661C111.385 79.8995 112.438 80.5318 112.959 80.8907C113.485 80.4769 114.753 79.6185 116.523 78.4205C116.638 78.3424 116.756 78.2629 116.875 78.1819C118.937 76.7862 121.608 74.9508 124.544 72.839C124.582 73.1751 124.599 73.5174 124.598 73.8645C121.805 75.8216 119.242 77.4767 117.213 78.7056C115.261 79.8892 113.812 80.6901 113.127 81.0109C113.27 81.1176 113.338 81.1862 113.324 81.2132C113.307 81.2463 113.159 81.2107 112.897 81.1128C112.773 81.1627 112.703 81.1793 112.692 81.1609C112.683 81.1457 112.706 81.1118 112.76 81.0599C112.148 80.818 111.069 80.3186 109.666 79.6142C107.465 78.5108 104.472 76.8909 101.243 74.9703C101.082 74.8742 100.928 74.78 100.773 74.6853C100.687 74.6325 100.6 74.5795 100.512 74.5258Z" fill="#638528"/>
<path d="M100.778 63.2511L100.776 63.2502C100.71 63.2087 100.643 63.1675 100.576 63.1263C100.65 63.5039 100.71 63.8851 100.753 64.2675C103.377 65.8727 105.83 67.1941 107.656 68.0795C109.552 68.999 110.769 69.4728 110.822 69.368C110.885 69.2408 109.513 68.4404 107.357 67.182C105.611 66.1633 103.35 64.8443 100.92 63.3395C100.872 63.3099 100.825 63.2804 100.778 63.2511Z" fill="#638528"/>
<path d="M94.4167 49.3569C94.5542 49.7478 94.6946 50.1388 94.847 50.5261C95.5215 50.8573 96.2109 51.1923 96.9258 51.5308C100.16 53.0581 103.141 54.3271 105.325 55.1784C107.509 56.0297 108.892 56.4743 108.937 56.3647C108.985 56.249 107.688 55.601 105.572 54.6048L103.432 53.603C100.825 52.3828 98.9671 51.513 97.3029 50.7331C96.8087 50.4979 96.2948 50.2527 95.7493 49.9925L95.7311 49.9838C95.3132 49.7844 94.8768 49.5762 94.4167 49.3569Z" fill="#638528"/>
<path d="M93.2225 37.5112C93.2559 37.2972 93.2893 37.0831 93.3345 36.8671C94.1718 37.2837 95.0387 37.7184 95.9308 38.1703C102.299 41.3989 107.372 44.1928 107.261 44.4095C107.151 44.6276 101.899 42.1857 95.5314 38.957C94.7249 38.5478 93.9405 38.1471 93.1836 37.7562C93.197 37.6745 93.2097 37.5928 93.2225 37.5112Z" fill="#638528"/>
<path d="M97.3972 24.3388C97.4191 24.72 97.4144 25.1024 97.3924 25.4873L97.5958 25.662C97.7358 25.7824 97.8767 25.9034 98.0193 26.0256C102.337 29.7244 105.966 32.573 106.124 32.3879C106.283 32.204 102.911 29.0557 98.5939 25.357C98.1874 25.0075 97.7895 24.6701 97.3972 24.3388Z" fill="#638528"/>
<path d="M96.8809 13.3927C96.3653 13.0152 95.864 12.6474 95.3738 12.2869C95.3489 12.6401 95.3361 12.9932 95.3347 13.3452C95.6698 13.5961 96.0097 13.8494 96.3582 14.1039C101.21 17.6687 105.407 20.1739 105.535 19.9754C105.646 19.8065 103.092 17.9383 99.566 15.3599L99.5644 15.3588C98.718 14.7398 97.8157 14.0799 96.8809 13.3927Z" fill="#638528"/>
<path d="M105.436 20.7498C105.355 20.6548 106.368 19.6464 108.034 18.0558C109.933 16.2445 111.382 14.8617 112.604 13.6954L113.354 12.9796C113.372 13.3596 113.395 13.7384 113.435 14.111C111.552 15.8672 109.819 17.386 108.449 18.5222C106.672 19.9971 105.514 20.8399 105.436 20.7498Z" fill="#638528"/>
<path d="M117.183 22.5437C117.106 22.4271 117.029 22.3105 116.951 22.1942L114.714 23.9656C113.076 25.2625 111.237 26.7182 108.959 28.5212C106.729 30.2847 105.364 31.4003 105.437 31.5013C105.507 31.5976 107.002 30.6598 109.333 29.0217C111.485 27.5091 114.345 25.3863 117.442 22.9335C117.355 22.8038 117.269 22.6737 117.183 22.5437Z" fill="#638528"/>
<path d="M106.974 43.6571C106.901 43.5536 108.39 42.3868 110.8 40.5137C113.21 38.6418 116.53 36.0477 120.129 33.0979C120.974 32.405 121.794 31.7254 122.588 31.0616C122.64 31.153 122.692 31.2438 122.745 31.3346C122.84 31.4977 122.935 31.6606 123.024 31.8265C122.271 32.4683 121.494 33.1199 120.689 33.78C117.076 36.7407 113.682 39.2678 111.17 41.0155C108.658 42.7656 107.041 43.7533 106.974 43.6571Z" fill="#638528"/>
<path d="M112.572 52.2628C110.018 54.3941 108.457 55.7398 108.533 55.8373C108.607 55.931 110.303 54.7595 112.96 52.7511C115.617 50.7428 119.227 47.8881 123.125 44.6278C123.838 44.031 124.529 43.4464 125.209 42.8667C125.274 42.4465 125.317 42.0239 125.353 41.6013C124.487 42.3292 123.645 43.038 122.808 43.7422L122.559 43.9519C119.588 46.423 116.61 48.9014 112.572 52.2628Z" fill="#638528"/>
<path d="M113.641 66.2253C115.437 65.0746 117.888 63.5046 120.529 61.6735C120.562 61.9974 120.615 62.3177 120.685 62.6344C118.118 64.3845 115.709 65.8253 113.897 66.802C111.977 67.8396 110.738 68.3792 110.681 68.2769C110.619 68.1616 111.778 67.4189 113.641 66.2253Z" fill="#638528"/>
<path d="M106.507 72.8795C106.188 72.5404 105.87 72.2012 105.564 71.8513C105.4 71.665 105.239 71.4738 105.085 71.2789C103.612 69.424 102.663 67.1527 102.418 64.7973C101.639 57.3048 100.349 50.0559 94.0112 45.0735C93.0332 44.3047 91.9312 43.7332 90.8309 43.1625C89.2767 42.3565 87.7258 41.5521 86.5323 40.1958C85.2491 38.7388 84.5857 36.9023 83.9192 35.057C83.5406 34.0087 83.1609 32.9575 82.6659 31.9714C80.6542 27.967 76.2795 24.5739 71.6549 24.6092C67.8233 24.6385 64.207 27.0584 64.3392 31.1956C64.4148 33.5522 65.812 35.5141 67.2144 37.4835C67.8088 38.318 68.404 39.1539 68.9001 40.0217C70.3934 42.6344 70.484 45.5567 70.5749 48.4902C70.5993 49.2775 70.6237 50.0656 70.6753 50.8487C70.7215 51.5505 70.7563 52.2603 70.7913 52.9736C70.9812 56.842 71.1762 60.8165 73.2244 64.2005C74.962 67.0705 77.7699 69.0353 80.547 70.9785C81.1297 71.3862 81.711 71.793 82.2809 72.2069C84.0693 73.5052 86.37 75.2931 87.7585 76.9957C89.1068 78.6485 89.445 80.7356 89.7892 82.8597C90.1653 85.1807 90.5486 87.5458 92.2647 89.4365C94.0978 91.4561 96.6657 92.4726 99.2415 93.4923C100.386 93.9453 101.532 94.3989 102.615 94.9413C105.186 96.2287 107.473 98.0738 109.273 100.315C108.581 98.0299 108.406 95.5905 108.765 93.2314C108.989 91.7615 109.414 90.3359 109.839 88.9094C110.137 87.913 110.434 86.9161 110.663 85.9034C111.56 81.9355 110.557 77.9663 108.109 74.7158C107.62 74.0663 107.064 73.473 106.507 72.8795Z" fill="#6FC42D"/>
<path d="M115.714 71.383C115.854 70.9428 115.995 70.5026 116.12 70.0585C116.187 69.8186 116.25 69.5775 116.305 69.3351C116.837 67.0272 116.715 64.5683 115.922 62.3371C113.399 55.2392 111.442 48.1401 115.018 40.918C115.57 39.8033 116.318 38.8133 117.066 37.8248C118.121 36.4288 119.175 35.0358 119.668 33.2989C120.199 31.4322 120.007 29.4893 119.815 27.5374C119.705 26.4278 119.595 25.3153 119.617 24.2122C119.709 19.7315 122.197 14.7881 126.387 12.831C129.858 11.2099 134.164 11.8384 135.826 15.6297C136.773 17.7899 136.356 20.1609 135.938 22.5412C135.761 23.5507 135.584 24.5618 135.51 25.5592C135.287 28.5598 136.463 31.2364 137.644 33.9233C137.961 34.6443 138.278 35.3661 138.569 36.0952C138.829 36.7484 139.103 37.4038 139.379 38.0626C140.873 41.6366 142.409 45.3081 142.017 49.2435C141.685 52.5816 139.997 55.5613 138.327 58.5083C137.976 59.1277 137.626 59.7457 137.289 60.3653C136.234 62.3079 134.927 64.9105 134.407 67.0442C133.902 69.1159 134.495 71.1454 135.099 73.2107C135.758 75.4677 136.431 77.7675 135.696 80.2121C134.911 82.8239 133.03 84.8458 131.144 86.874C130.306 87.7749 129.467 88.677 128.723 89.6325C126.957 91.9002 125.687 94.5504 125.026 97.3466C124.668 94.9864 123.776 92.7101 122.435 90.7347C121.6 89.5038 120.602 88.3992 119.603 87.2938C118.907 86.5224 118.209 85.7505 117.567 84.9351C115.049 81.7394 114.245 77.724 115.055 73.739C115.217 72.9394 115.465 72.1612 115.714 71.383Z" fill="#6FC42D"/>
<path d="M103.989 87.8615C104.055 87.8712 104.089 87.8836 104.09 87.8993C104.092 87.9184 104.033 87.9425 103.918 87.9706C103.78 88.1764 103.692 88.2784 103.662 88.2636C103.638 88.2513 103.651 88.1666 103.699 88.0163C103.04 88.1385 101.583 88.3099 99.5668 88.4656C97.4713 88.6288 94.7708 88.7603 91.7484 88.7944C91.5681 88.5448 91.4033 88.289 91.2577 88.0284C94.4618 88.032 97.3333 87.9736 99.5387 87.9139L99.9157 87.9037C101.809 87.8526 103.165 87.8159 103.758 87.8426C103.948 87.3148 104.378 86.3165 104.971 84.9838L108.414 77.221C108.543 76.9219 108.674 76.6149 108.809 76.3005L108.955 75.9617C109.101 76.2022 109.229 76.4496 109.357 76.6973L109.428 76.8349C109.388 76.9291 109.349 77.0217 109.31 77.1142L109.309 77.1154C109.251 77.2532 109.193 77.3909 109.131 77.5328C107.799 80.5824 106.482 83.2934 105.469 85.2238C104.823 86.4553 104.305 87.3715 103.989 87.8615Z" fill="#689C2D"/>
<path d="M103.489 68.6629C103.631 68.9734 103.785 69.2779 103.952 69.5763C102.893 72.0864 101.81 74.3029 100.953 75.8838C100.064 77.5243 99.4324 78.4937 99.3405 78.445C99.2297 78.3858 99.802 77.1046 100.702 75.0896C101.433 73.4542 102.379 71.3353 103.352 68.9941L103.489 68.6629Z" fill="#689C2D"/>
<path d="M100.805 55.5718C100.909 55.9237 101.009 56.2782 101.1 56.6362C100.786 57.2232 100.463 57.82 100.123 58.4314C98.5847 61.2009 97.0948 63.6537 95.9627 65.3941C94.8307 67.1345 94.0648 68.1684 93.9753 68.1124C93.8815 68.054 94.4808 66.9177 95.4891 65.1091L96.4647 63.3663C97.7346 61.0978 98.6344 59.4903 99.4397 58.0526L100.805 55.5718Z" fill="#689C2D"/>
<path d="M95.5381 46.4242C95.405 46.2892 95.2717 46.1541 95.1291 46.0234C94.7416 46.7554 94.3427 47.5154 93.9343 48.3021C91.019 53.9129 88.8117 58.5434 89.003 58.642C89.1948 58.7419 91.7135 54.2734 94.6283 48.6614C94.9973 47.9513 95.3542 47.2571 95.6975 46.5849C95.644 46.5315 95.591 46.4778 95.5381 46.4242Z" fill="#689C2D"/>
<path d="M85.7287 39.1022C85.9096 39.3884 86.111 39.6612 86.3253 39.9267L86.2981 40.0395C86.2504 40.2374 86.2025 40.4364 86.1528 40.638C84.9571 45.529 83.8174 49.4531 83.6076 49.4019C83.3976 49.3508 84.1974 45.3439 85.3931 40.4528C85.506 39.9925 85.6178 39.5431 85.7287 39.1022Z" fill="#689C2D"/>
<path d="M80.443 30.957C80.6186 30.4187 80.789 29.895 80.9556 29.3822C81.1565 29.6234 81.3479 29.8718 81.5307 30.1239C81.4193 30.4771 81.305 30.8352 81.1866 31.1981C79.5367 36.2694 77.8109 40.2385 77.6153 40.163C77.4479 40.098 78.3266 37.4186 79.5375 33.7256C79.8239 32.8524 80.1289 31.9224 80.443 30.957Z" fill="#689C2D"/>
<path d="M78.0869 40.6684C78.0964 40.5588 76.8464 40.3554 74.8246 40.0716C72.2746 39.7124 70.3936 39.4476 68.8145 39.2254L68.3721 39.1631C68.5554 39.4469 68.7334 39.7306 68.8986 40.0193C71.1612 40.3116 73.1939 40.5101 74.7666 40.6209C76.8088 40.7658 78.0779 40.7732 78.0869 40.6684Z" fill="#689C2D"/>
<path d="M70.5578 47.9873C70.5536 47.8759 70.5493 47.7646 70.5454 47.6532C73.0504 47.7726 75.7676 47.9017 79.5681 48.0819C82.0855 48.2 83.644 48.2975 83.6435 48.4083C83.6435 48.5143 82.0825 48.6105 79.5576 48.6348C77.2275 48.6568 74.0715 48.6056 70.5741 48.4387C70.5694 48.2883 70.5636 48.1377 70.5578 47.9873Z" fill="#689C2D"/>
<path d="M88.8208 57.9516C88.8194 57.8395 87.1447 57.7677 84.4423 57.6641C81.7394 57.5618 78.0087 57.4072 73.8935 57.1429C72.9276 57.0796 71.9856 57.0138 71.0716 56.9456C71.0805 57.0305 71.0886 57.1154 71.0968 57.2002C71.1135 57.3747 71.1302 57.549 71.153 57.7226C72.0265 57.7945 72.9224 57.8627 73.843 57.9223C77.9745 58.1891 81.7237 58.2548 84.4352 58.2171C87.1472 58.1793 88.8218 58.0551 88.8208 57.9516Z" fill="#689C2D"/>
<path d="M89.2397 67.0357C92.1797 67.2513 93.9985 67.4145 93.9942 67.5241C93.99 67.6301 92.1635 67.6617 89.2125 67.5874C86.2621 67.5131 82.1882 67.3231 77.6969 66.9882C76.8758 66.9273 76.075 66.8628 75.2872 66.797C75.0226 66.5279 74.7736 66.2465 74.5289 65.9603C75.3417 66.0234 76.1368 66.0845 76.9252 66.145L76.9451 66.1466L76.9464 66.1467L77.7549 66.2088L81.407 66.4716C83.7249 66.6384 86.2254 66.8184 89.2397 67.0357Z" fill="#689C2D"/>
<path d="M95.6924 77.6386C93.8041 77.7377 91.2265 77.8728 88.3765 77.9177C88.5192 78.1686 88.6468 78.4268 88.7601 78.6898C91.5126 78.6253 93.9913 78.4182 95.8002 78.1868C97.7186 77.942 98.8901 77.6899 98.8776 77.5876C98.8631 77.4724 97.647 77.5362 95.6924 77.6386Z" fill="#689C2D"/>
<path d="M120.046 21.1393C120.417 21.5302 120.796 21.9297 121.187 22.3401C121.878 23.0684 122.547 23.7692 123.176 24.4279C125.869 27.2512 127.827 29.3028 127.703 29.4332C127.559 29.5866 124.292 26.7465 120.62 22.8784C120.356 22.6008 120.099 22.3267 119.846 22.0551C119.902 21.7495 119.969 21.4438 120.046 21.1393Z" fill="#689C2D"/>
<path d="M119.923 31.9668C119.883 32.3017 119.818 32.6355 119.739 32.9667C119.843 33.0956 119.948 33.2238 120.053 33.3535L120.201 33.5355C123.387 37.4364 126.105 40.4884 126.272 40.352C126.439 40.2144 123.993 36.9419 120.807 33.041C120.507 32.6732 120.213 32.3163 119.923 31.9668Z" fill="#689C2D"/>
<path d="M114.22 42.7987C114.282 42.6182 114.345 42.4374 114.418 42.2565C115.082 42.7498 115.77 43.2649 116.477 43.7984C121.524 47.6104 125.511 50.8402 125.381 51.0132C125.25 51.1849 121.053 48.2339 116.006 44.4219C115.367 43.9396 114.745 43.4671 114.146 43.008L114.175 42.9258L114.22 42.7987Z" fill="#689C2D"/>
<path d="M113.405 53.3162C113.463 53.6792 113.525 54.0421 113.597 54.4038C114.133 54.7984 114.681 55.1979 115.252 55.6046C117.833 57.4437 120.234 59.016 122.005 60.0999C123.777 61.1838 124.913 61.7879 124.97 61.699C125.029 61.6064 123.999 60.8379 122.31 59.6383C119.283 57.4973 117.372 56.1466 115.706 54.9689C115.006 54.4659 114.256 53.9276 113.405 53.3162Z" fill="#689C2D"/>
<path d="M127.495 30.0935C127.439 29.9985 128.48 29.2775 130.183 28.1522C131.688 27.1556 132.917 26.3427 133.976 25.6426L135.617 24.557C135.573 24.8919 135.534 25.2244 135.509 25.5569C133.593 26.793 131.844 27.8465 130.472 28.6223C128.69 29.6319 127.549 30.1849 127.495 30.0935Z" fill="#689C2D"/>
<path d="M137.433 33.4384L137.348 33.2409L137.31 33.155C135.826 33.9511 134.257 34.7922 132.37 35.8037L129.35 37.4225C127.129 38.6111 125.764 39.3699 125.812 39.4698C125.858 39.5635 127.308 38.9802 129.598 37.9169C131.711 36.9341 134.538 35.5311 137.623 33.876C137.559 33.7304 137.496 33.5843 137.433 33.4384Z" fill="#689C2D"/>
<path d="M125.248 50.3104C125.2 50.2093 126.681 49.4238 129.076 48.1681C131.472 46.9125 134.773 45.1697 138.374 43.1614C139.219 42.6888 140.04 42.2236 140.836 41.7693C140.868 41.8582 140.9 41.9468 140.932 42.0353C140.989 42.1917 141.046 42.3478 141.097 42.5049C140.34 42.947 139.56 43.394 138.755 43.8434C135.141 45.8602 131.785 47.5324 129.321 48.6638C126.856 49.7964 125.291 50.4042 125.248 50.3104Z" fill="#689C2D"/>
<path d="M116.887 66.5279L116.619 66.2867C116.624 66.629 116.617 66.97 116.595 67.311C118.632 69.1208 120.564 70.6565 122.018 71.7149C123.527 72.8134 124.515 73.4175 124.576 73.3335C124.651 73.2326 123.581 72.3206 121.899 70.8868C120.536 69.7252 118.77 68.2209 116.887 66.5279Z" fill="#689C2D"/>
<path d="M114.777 76.2188L114.779 76.1452L114.783 76.0502C114.791 75.7763 114.8 75.5021 114.828 75.2262C115.163 75.5216 115.49 75.8082 115.806 76.0851L115.858 76.1311C117.528 77.5621 119.399 79.1648 122.309 81.6567C123.418 82.6061 124.236 83.322 124.635 83.7169C125.158 83.4382 126.398 82.8881 128.128 82.1204C128.241 82.0702 128.356 82.0191 128.474 81.9671C130.491 81.0719 133.107 79.8894 135.998 78.5083C135.979 78.8066 135.94 79.1075 135.885 79.4107C133.142 80.6798 130.648 81.7223 128.686 82.4774C126.799 83.2035 125.409 83.6751 124.762 83.848C124.87 83.9635 124.919 84.0343 124.902 84.0559C124.882 84.0817 124.759 84.0274 124.546 83.9007C124.43 83.9249 124.366 83.9286 124.359 83.9108C124.354 83.8962 124.379 83.8701 124.434 83.8332C123.939 83.5262 123.076 82.9219 121.963 82.0878C120.217 80.781 117.86 78.9006 115.345 76.7206C115.222 76.6142 115.105 76.5102 114.988 76.4057C114.918 76.344 114.848 76.2815 114.777 76.2188Z" fill="#689C2D"/>
<path d="M128.781 58.6908C126.22 60.1498 124.648 61.0791 124.7 61.1765C124.749 61.2703 126.412 60.514 129.043 59.1768C131.675 57.8419 135.27 55.9177 139.18 53.684C139.895 53.276 140.59 52.8729 141.273 52.4747C141.396 52.1178 141.499 51.7573 141.598 51.3932L140.805 51.849L140.801 51.8513C140.123 52.241 139.456 52.6243 138.792 53.0057C135.815 54.6961 132.83 56.3914 128.781 58.6908Z" fill="#689C2D"/>
<path d="M124.625 72.3605C124.588 72.2501 125.714 71.7842 127.525 71.0353C129.272 70.3128 131.655 69.3269 134.246 68.1429C134.225 68.4303 134.22 68.7177 134.232 69.0052C131.719 70.1293 129.392 71.0086 127.66 71.5774C125.823 72.1814 124.657 72.4591 124.625 72.3605Z" fill="#689C2D"/>
<path d="M115.552 116.072C115.678 116.024 115.345 114.806 114.634 112.642C113.93 110.476 112.807 107.378 111.335 103.584C108.396 95.9912 103.948 85.6428 98.38 74.527C92.8033 63.4162 87.1714 53.6621 82.8452 46.7652C80.6841 43.3149 78.8737 40.5612 77.5584 38.7003C76.2498 36.8357 75.4729 35.8407 75.3586 35.9125C75.1539 36.0437 76.9165 39.1401 79.8672 44.324L79.8686 44.3264C80.4244 45.3027 81.0222 46.3531 81.657 47.4715C85.6666 54.528 91.0805 64.3418 96.632 75.4027C102.174 86.4685 106.8 96.6769 110.058 104.111C110.574 105.289 111.058 106.396 111.508 107.426L111.509 107.427C113.898 112.893 115.325 116.158 115.552 116.072Z" fill="#557C2A"/>
<path d="M120.732 114.532C120.863 114.498 120.631 113.092 120.1 110.583C119.407 107.376 118.649 103.865 117.808 99.9713C115.877 91.0161 113.382 78.6119 111.177 64.8168C108.985 51.0193 107.501 38.4543 106.553 29.3432C106.244 26.3643 105.958 23.6062 105.691 21.0344L105.433 18.5453C105.158 15.9951 104.941 14.5872 104.807 14.5945C104.671 14.6018 104.631 16.0243 104.674 18.5941C104.708 21.1638 104.874 24.8772 105.176 29.4613C105.773 38.6272 107.045 51.2714 109.247 65.1237C111.46 78.9748 114.181 91.3888 116.462 100.287C117.6 104.737 118.597 108.319 119.363 110.772C120.122 113.228 120.602 114.568 120.732 114.532Z" fill="#557C2A"/>
<path d="M126.072 104.738C126.269 110.694 126.386 114.25 126.144 114.271C126.01 114.281 125.785 113.039 125.496 110.78C125.199 108.521 124.879 105.242 124.574 101.183C123.957 93.0658 123.517 81.8125 123.757 69.3839C124.007 56.9565 124.89 45.7287 125.825 37.6419C126.291 33.5985 126.739 30.3345 127.125 28.09C127.504 25.8442 127.776 24.6117 127.911 24.6275C128.152 24.6572 127.894 28.2131 127.462 34.1662C127.381 35.2852 127.293 36.4889 127.202 37.7698C126.621 45.8639 125.96 57.0514 125.711 69.4228C125.472 81.7942 125.693 92.9988 125.954 101.11C125.995 102.4 126.035 103.612 126.072 104.738Z" fill="#557C2A"/>
<path d="M148.98 185.679C148.826 181.525 148.468 177.431 148.367 173.728C147.992 160.009 147.008 146.307 145.463 132.669C144.452 123.739 141.629 114.5 132.828 110.551C124.232 106.695 112.028 110.309 106.044 117.099C99.711 124.283 102.9 135.262 105.23 143.466C108.714 155.739 113.008 167.784 118.118 179.475C120.755 185.509 123.609 191.448 126.674 197.276C130.194 203.968 138.538 217.401 145.245 206.536C148.876 200.655 149.253 193.073 148.98 185.679Z" fill="#F36827"/>
<path d="M137.377 113.482C137.01 113.158 136.623 112.852 136.223 112.553C135.075 112.882 133.85 113.218 132.575 113.542C125.775 115.308 120.109 116.112 120.149 116.492C120.172 116.829 125.985 116.598 132.9 114.804C134.502 114.396 136.004 113.942 137.377 113.482Z" fill="#CE581E"/>
<path d="M129.543 202.207C129.306 201.841 129.076 201.477 128.854 201.114C130.56 200.799 132.45 200.406 134.433 199.898C138.611 198.858 142.217 197.561 144.54 196.725C146.22 196.121 147.229 195.758 147.301 195.907C147.468 196.188 142.116 199.323 134.752 201.161C132.918 201.63 131.156 201.969 129.543 202.207Z" fill="#CE581E"/>
<path d="M133.389 189.742C135.385 189.218 136.913 188.817 137.046 189.113C137.195 189.43 135.391 190.568 132.878 191.222C130.368 191.886 128.239 191.78 128.212 191.43C128.182 191.108 129.707 190.708 131.7 190.185C131.975 190.113 132.258 190.038 132.548 189.961C132.834 189.887 133.114 189.814 133.385 189.743L133.387 189.742L133.388 189.742L133.389 189.742Z" fill="#CE581E"/>
<path d="M133.584 174.677C133.493 174.382 131.81 174.643 129.548 174.992L129.547 174.992C129.104 175.061 128.639 175.132 128.159 175.204C127.682 175.278 127.219 175.347 126.777 175.412C124.51 175.751 122.821 176.002 122.822 176.311C122.817 176.662 125.316 176.958 128.355 176.491C131.395 176.036 133.693 175.01 133.584 174.677Z" fill="#CE581E"/>
<path d="M127.932 147.405C129.68 146.826 130.776 146.463 130.859 146.637C131.021 146.933 127.05 149.267 121.592 150.684C116.142 152.13 111.536 152.047 111.531 151.71C111.519 151.517 112.652 151.295 114.46 150.941C116.228 150.594 118.642 150.121 121.262 149.425C123.887 148.745 126.222 147.971 127.932 147.405Z" fill="#CE581E"/>
<path d="M127.441 130.488C129.243 130.224 130.534 130.035 130.623 130.302C130.741 130.63 128.628 131.658 125.79 132.038C122.954 132.431 120.643 132.005 120.668 131.657C120.682 131.376 121.979 131.213 123.787 130.986C124.354 130.915 124.971 130.837 125.614 130.747C126.259 130.662 126.874 130.571 127.44 130.488L127.441 130.488Z" fill="#CE581E"/>
<path d="M145.917 137.08C145.901 136.93 145.886 136.78 145.871 136.629C145.853 136.448 145.834 136.267 145.815 136.087C142.884 137.168 138.938 138.561 134.482 139.788C128.954 141.342 123.947 142.274 120.816 142.857C118.699 143.251 117.439 143.486 117.456 143.645C117.472 143.812 119.447 143.812 122.616 143.456C125.783 143.104 130.137 142.345 134.831 141.042C139.205 139.823 143.068 138.354 145.917 137.08Z" fill="#CE581E"/>
<path d="M113.62 125.637C117.569 124.692 120.302 124.038 120.38 124.315C120.47 124.617 115.289 126.626 108.572 128.164C106.331 128.662 104.207 128.994 102.365 129.181L102.361 129.071C102.347 128.73 102.334 128.388 102.335 128.049C104.1 127.756 106.13 127.373 108.291 126.893C110.203 126.455 112.011 126.022 113.618 125.638L113.62 125.637Z" fill="#CE581E"/>
<path d="M147.543 156.304C147.533 156.153 147.525 156.002 147.516 155.851C147.506 155.67 147.495 155.489 147.483 155.307C145.135 156.276 141.865 157.559 138.121 158.624C133.65 159.929 129.584 160.608 127.068 161.027C125.416 161.303 124.432 161.467 124.443 161.623C124.428 161.946 130.895 162.086 138.481 159.876C142.141 158.833 145.281 157.469 147.543 156.304Z" fill="#CE581E"/>
<path d="M148.642 179.327C146.302 180.358 143.411 181.531 140.197 182.591C136.059 183.952 132.169 184.766 129.324 185.063C126.477 185.371 124.703 185.26 124.697 185.101C124.689 184.965 125.495 184.822 126.882 184.576C127.53 184.461 128.306 184.323 129.185 184.153C131.947 183.628 135.712 182.694 139.792 181.353C142.911 180.325 145.765 179.263 148.128 178.384L148.579 178.216C148.588 178.377 148.597 178.537 148.606 178.696C148.618 178.905 148.629 179.114 148.642 179.327Z" fill="#CE581E"/>
<path d="M118.755 170.669C117.395 170.912 116.116 171.111 115.022 171.281L114.718 171.329C114.803 171.542 114.89 171.755 114.977 171.968C115.034 172.108 115.092 172.248 115.149 172.388C116.274 172.334 117.584 172.202 118.982 171.952C123.069 171.239 126.153 169.841 126.033 169.515C125.952 169.279 124.5 169.566 122.361 169.988C121.3 170.197 120.071 170.44 118.755 170.669Z" fill="#CE581E"/>
<path d="M145.245 206.536C148.877 200.654 149.253 193.073 148.98 185.679C149.253 193.073 148.877 200.653 145.245 206.536ZM148.359 173.406C147.977 159.794 146.996 146.2 145.463 132.669C146.996 146.2 147.977 159.794 148.359 173.406ZM132.828 110.551C132.809 110.544 132.791 110.535 132.771 110.527C132.791 110.535 132.81 110.544 132.828 110.551Z" fill="#FABE95"/>
<path d="M139.579 210.631C138.819 210.631 138.059 210.45 137.309 210.125C136.985 206.949 136.965 203.747 137 200.545C143.178 198.696 147.451 196.158 147.301 195.907C147.29 195.885 147.257 195.874 147.205 195.874C146.529 195.874 142.483 197.641 137.017 199.206C137.03 198.32 137.044 197.433 137.054 196.548C137.083 194.101 137.08 191.651 137.046 189.2C137.057 189.166 137.057 189.137 137.046 189.113C137.046 189.111 137.045 189.11 137.045 189.109C137.018 187.266 136.973 185.42 136.909 183.576C137.977 183.287 139.078 182.96 140.197 182.591C143.411 181.531 146.301 180.358 148.642 179.327C148.767 181.398 148.901 183.531 148.98 185.679C149.253 193.073 148.877 200.654 145.246 206.536C143.434 209.471 141.503 210.631 139.579 210.631ZM136.86 182.266C136.575 175.069 135.996 167.875 135.081 160.737C136.175 160.501 137.315 160.216 138.481 159.876C142.141 158.833 145.281 157.469 147.543 156.304C147.522 155.972 147.505 155.64 147.483 155.307C145.135 156.276 141.865 157.559 138.12 158.624C137.022 158.945 135.949 159.228 134.916 159.478C134.122 153.544 133.093 147.649 131.804 141.822C132.791 141.588 133.803 141.328 134.832 141.042C139.205 139.823 143.068 138.354 145.917 137.08C145.883 136.749 145.85 136.418 145.815 136.087C142.885 137.168 138.938 138.561 134.482 139.788C133.476 140.07 132.487 140.333 131.525 140.576C130.809 137.435 130.016 134.313 129.144 131.216C130.117 130.849 130.685 130.476 130.623 130.302C130.593 130.21 130.422 130.173 130.14 130.173C129.837 130.173 129.405 130.216 128.878 130.285C127.531 125.597 126 120.97 124.268 116.412C126.556 116.16 129.603 115.66 132.9 114.804C134.502 114.396 136.004 113.942 137.377 113.483C137.01 113.159 136.623 112.852 136.223 112.553C135.075 112.882 133.85 113.218 132.575 113.542C129.238 114.409 126.173 115.044 123.923 115.512C123.111 113.411 122.257 111.327 121.359 109.259C122.571 109.081 123.789 108.989 124.993 108.989C127.722 108.989 130.385 109.467 132.772 110.527C132.791 110.535 132.809 110.544 132.828 110.551C141.63 114.5 144.453 123.738 145.464 132.669C146.996 146.2 147.978 159.794 148.359 173.407C148.362 173.514 148.365 173.621 148.367 173.728C148.407 175.171 148.486 176.674 148.576 178.217C146.13 179.127 143.111 180.26 139.792 181.353C138.793 181.682 137.812 181.985 136.86 182.266Z" fill="#F2582B"/>
<path d="M129.144 131.216C129.056 130.906 128.967 130.594 128.878 130.285C129.405 130.216 129.837 130.173 130.14 130.173C130.422 130.173 130.592 130.21 130.623 130.302C130.685 130.476 130.117 130.849 129.144 131.216Z" fill="#D34A1F"/>
<path d="M137.046 189.2C137.046 189.169 137.045 189.141 137.045 189.109C137.045 189.11 137.046 189.111 137.046 189.112C137.057 189.137 137.057 189.166 137.046 189.2Z" fill="#D34A1F"/>
<path d="M137.017 199.206C137.01 199.652 137.005 200.098 137 200.545C143.178 198.696 147.45 196.158 147.3 195.907C147.289 195.885 147.257 195.874 147.205 195.874C146.908 195.874 145.966 196.213 144.541 196.726C142.712 197.383 140.089 198.327 137.017 199.206Z" fill="#D34A1F"/>
<path d="M136.909 183.576C136.894 183.139 136.877 182.703 136.86 182.266C137.812 181.985 138.793 181.682 139.792 181.353C142.909 180.326 145.762 179.264 148.124 178.385L148.576 178.217C148.597 178.585 148.619 178.955 148.642 179.327C146.301 180.358 143.411 181.531 140.197 182.591C139.078 182.96 137.977 183.287 136.909 183.576Z" fill="#D34A1F"/>
<path d="M134.916 159.478C134.973 159.899 135.027 160.315 135.081 160.737C136.175 160.501 137.315 160.216 138.481 159.876C142.141 158.833 145.281 157.469 147.543 156.304C147.533 156.153 147.525 156.002 147.516 155.851C147.506 155.67 147.495 155.489 147.483 155.307C145.135 156.276 141.865 157.559 138.12 158.624C137.022 158.945 135.949 159.228 134.916 159.478Z" fill="#D34A1F"/>
<path d="M131.804 141.822C131.713 141.408 131.619 140.99 131.525 140.576C132.488 140.333 133.476 140.07 134.482 139.788C138.938 138.561 142.885 137.168 145.815 136.087C145.834 136.267 145.853 136.448 145.871 136.629L145.871 136.63C145.886 136.78 145.902 136.93 145.917 137.08C143.068 138.354 139.205 139.823 134.832 141.042C133.803 141.328 132.791 141.588 131.804 141.822Z" fill="#D34A1F"/>
<path d="M124.268 116.412C124.154 116.112 124.038 115.81 123.923 115.512L124.011 115.493C126.252 115.028 129.281 114.398 132.575 113.542C133.85 113.218 135.075 112.882 136.223 112.553C136.623 112.852 137.01 113.159 137.377 113.483C136.004 113.942 134.501 114.396 132.9 114.804C129.603 115.66 126.556 116.16 124.268 116.412Z" fill="#D34A1F"/>
<path d="M119.129 162.192C117.229 162.191 115.54 158.571 114.776 157.204C113.81 155.473 112.93 153.695 112.138 151.879C112.386 151.902 112.705 151.916 113.086 151.916C114.749 151.916 117.585 151.664 120.79 150.888C121.121 152.845 121.397 154.809 121.577 156.788C121.71 158.249 121.749 159.844 120.893 161.034C120.299 161.86 119.704 162.192 119.129 162.192ZM111.965 151.478C109.792 146.39 108.311 141.007 107.587 135.523C107.309 133.417 107.18 130.779 107.584 128.375C107.91 128.309 108.24 128.239 108.571 128.164C111.646 127.46 114.399 126.658 116.472 125.965C116.664 126.548 116.791 127.18 116.833 127.846C117.167 133.001 118.227 138.069 119.282 143.146C118.106 143.375 117.443 143.529 117.456 143.645C117.462 143.713 117.792 143.753 118.392 143.753C118.672 143.753 119.011 143.745 119.403 143.727C119.809 145.683 120.21 147.641 120.566 149.607C116.554 150.627 113.138 151.13 111.965 151.478ZM107.89 126.982C108.09 126.257 108.352 125.571 108.688 124.949C109.713 123.047 111.03 122.253 112.306 122.253C113.808 122.253 115.253 123.355 116.096 125.049C113.99 125.543 111.266 126.212 108.29 126.893C108.156 126.923 108.023 126.953 107.89 126.982Z" fill="#F6891D"/>
<path d="M118.393 143.753C117.792 143.753 117.462 143.713 117.456 143.645C117.444 143.529 118.107 143.374 119.282 143.145C119.323 143.339 119.363 143.533 119.403 143.726C119.011 143.745 118.673 143.753 118.393 143.753Z" fill="#E57318"/>
<path d="M112.138 151.879C112.386 151.902 112.705 151.916 113.086 151.916C114.749 151.916 117.585 151.664 120.79 150.888C120.717 150.46 120.643 150.033 120.566 149.607C118.221 150.203 116.08 150.623 114.471 150.938C113.327 151.162 112.453 151.334 111.965 151.479C112.023 151.613 112.08 151.745 112.138 151.879Z" fill="#E57318"/>
<path d="M107.89 126.982C107.766 127.432 107.665 127.9 107.584 128.375C107.911 128.309 108.24 128.238 108.572 128.164C111.646 127.46 114.399 126.658 116.472 125.965C116.366 125.643 116.24 125.337 116.096 125.049C115.35 125.224 114.527 125.421 113.642 125.632C112.029 126.018 110.213 126.453 108.29 126.893C108.169 126.92 108.047 126.947 107.926 126.974L107.89 126.982Z" fill="#E57318"/>
</g>
<defs>
<clipPath id="clip0_26_797">
<rect width="85" height="211" fill="white" transform="translate(64)"/>
</clipPath>
</defs>
</svg>
