<svg width="260" height="82" viewBox="0 0 260 82" fill="none" xmlns="http://www.w3.org/2000/svg">
    <path d="M237.27 66.4414C178.378 62.8453 169.455 80.8256 123.054 80.8256C98.0696 80.8256 87.362 84.4217 42.7464 79.0276C-32.2077 70.0374 23.1156 61.0472 14.1924 57.4515C-9.00769 52.0574 -5.43845 39.4712 37.3925 30.4805C244.409 -12.6719 296.163 70.0374 237.27 66.4414Z" fill="black" fill-opacity="0.15" />
    <path d="M58.9684 65.3108C96.5519 59.1723 103.453 70.6699 133.248 67.7343C149.292 66.1535 156.402 67.8885 184.701 61.4471C212.037 57.0161 248.356 43.8196 174.949 26.4824C39.2044 10.631 21.3849 71.4493 58.9684 65.3108Z" fill="black" fill-opacity="0.15" />
    <path d="M152.034 18.7454C148.539 15.6363 143.873 16.4042 139.69 18.2772L138.891 18.3521C133.593 19.2699 129.893 22.6224 127.514 27.2674C124.8 32.5678 127.644 37.5686 131.641 40.9774C136.158 44.7982 142.293 46.409 148.111 46.1655C152.833 45.9595 158.726 41.8764 159.172 36.782C159.73 30.2828 156.83 23.072 152.034 18.7454Z" fill="#5F3913" />
    <path d="M238.272 41.4833C237.659 40.0786 236.785 39.1608 235.8 38.4866L235.614 38.3554L234.963 37.9247C232.547 36.5012 228.754 36.7072 226.393 37.1006C220.538 38.0932 216.281 41.2773 216.504 47.7389C216.708 53.9759 223.754 55.0622 228.438 53.7511C232.937 52.4588 240.931 47.3269 238.272 41.4833Z" fill="#5F3913" />
    <path d="M212.99 16.966C207.283 8.10695 194.53 -3.26188 183.023 0.877348C180.811 1.70145 178.692 2.7503 176.628 3.91153C175.699 4.09883 174.769 4.37977 173.84 4.86674C162.091 11.0849 149.766 23.9896 143.669 35.8641C129.485 63.4902 180.848 64.0708 195.962 62.3664C202.059 61.6734 224.627 59.4821 226.17 51.0163C228.624 37.7184 219.645 27.3047 212.99 16.966Z" fill="#8A5D3B" />
    <path d="M184.399 62.9284C177.279 62.9284 168.784 62.3665 161.218 60.6996C161.403 60.5497 161.571 60.3999 161.738 60.2126C163.541 58.0587 162.705 52.8893 161.534 50.5856C159.768 47.1019 157.481 44.7045 153.689 43.7493C153.094 43.5995 152.499 43.5433 151.923 43.5433C151.476 43.5433 151.03 43.5808 150.584 43.6557C150.268 42.663 149.785 41.7078 149.134 40.8088C147.758 38.8984 146.123 36.7258 144.301 34.6842C147.498 28.8219 152.183 22.7722 157.481 17.4343C157.239 18.5956 157.053 19.7755 156.979 20.9742C155.808 37.4937 168.449 47.3079 183.339 50.4732C186.648 51.185 190.013 51.5596 193.285 51.5596C206.019 51.5596 217.266 45.7909 219.013 31.1256C219.218 29.3276 219.162 27.6232 218.957 25.9375C223.847 33.5043 227.899 41.5018 226.189 50.9602C226.189 50.9789 226.189 50.9977 226.17 51.0164C225.947 52.2151 225.315 53.2827 224.367 54.2379C218.586 60.0628 201.204 61.7672 195.962 62.3665C193.155 62.6849 189.065 62.9284 184.399 62.9284Z" fill="#7E5131" />
    <path d="M59.9739 46.3445C55.8284 41.9617 51.4226 42.4113 47.2957 44.5651C46.1431 44.7712 45.0091 45.0521 43.9681 45.408C40.12 46.7565 27.5719 53.1058 33.8553 58.8745C37.1456 61.8712 41.4213 61.89 45.6412 62.1897C50.2329 62.5081 56.5162 62.5455 60.7919 60.7287C68.5624 57.3949 64.2868 50.8957 59.9739 46.3445Z" fill="#5F3913" />
    <path d="M50.2328 62.3583C48.6155 62.3583 47.054 62.2834 45.6412 62.1897C41.4213 61.8901 37.1456 61.8713 33.8552 58.8746C33.5392 58.5749 33.2603 58.2752 33.0373 57.9756C33.2603 58.2752 33.5392 58.5749 33.8552 58.8746C37.1456 61.8713 41.4213 61.8901 45.6412 62.1897C47.054 62.2834 48.6155 62.3583 50.2328 62.3583C53.895 62.3583 57.8361 61.9837 60.7919 60.7288C63.9335 59.3803 65.1047 57.5073 65.1047 55.4658C65.1047 57.5073 63.9335 59.3803 60.7919 60.7288C57.8361 61.9837 53.895 62.3583 50.2328 62.3583ZM32.1821 54.8665C32.2007 54.7541 32.2193 54.6417 32.2379 54.5481C32.2193 54.6604 32.2007 54.7541 32.1821 54.8665ZM59.9739 46.3445C59.8252 46.176 59.6765 46.0261 59.5278 45.895C59.6765 46.0261 59.8252 46.176 59.9739 46.3445Z" fill="#748535" />
    <path d="M50.2331 62.358C48.6157 62.358 47.0542 62.2831 45.6414 62.1895C41.4215 61.8898 37.1458 61.8711 33.8554 58.8743C33.5394 58.5747 33.2606 58.275 33.0375 57.9753C32.2567 56.9452 32.015 55.8963 32.1824 54.8662C32.2009 54.7538 32.2195 54.6602 32.2381 54.5478C35.1381 58.3312 42.4068 60.1292 48.6343 60.1292C52.2036 60.1292 55.4568 59.5486 57.3158 58.3874C62.428 55.2408 60.4389 48.0299 56.1818 43.6472C57.3158 44.1155 58.4312 44.8272 59.528 45.8948C59.6767 46.0259 59.8254 46.1757 59.9741 46.3443C62.5395 49.0601 65.1049 52.4688 65.1049 55.4656C65.1049 57.5071 63.9338 59.38 60.7921 60.7286C57.8363 61.9834 53.8953 62.358 50.2331 62.358Z" fill="#532F11" />
    <path d="M161.533 50.5852C159.767 47.1015 157.481 44.7041 153.688 43.7489C149.766 42.775 145.806 45.3971 142.479 47.2701C141.754 47.4948 141.047 47.7758 140.397 48.1691C137.069 50.2106 137.088 53.9378 139.727 56.5974C142.553 59.4256 147.293 59.3507 151.011 59.8563C153.911 60.2497 159.358 63.0591 161.738 60.2122C163.541 58.0583 162.704 52.889 161.533 50.5852Z" fill="#5F3913" />
    <path d="M111.077 28.5327C108.772 28.3828 100.072 30.2745 100.778 33.8893L100.871 34.0579L100.091 34.9944C97.6368 39.4707 100.964 44.9959 105.761 45.4829C108.363 45.7451 111.728 45.1645 114.126 44.1344C116.598 43.0668 117.77 41.9992 118.253 39.2272C118.978 34.9569 115.669 28.7949 111.077 28.5327Z" fill="#5F3913" />
    <path d="M91.6511 25.8167C84.9587 23.1196 77.783 29.394 73.6189 35.2938C70.9048 38.0283 68.7298 41.306 67.4285 44.5087C60.9407 60.4289 101.857 58.9305 105.724 45.1643C107.88 37.4664 97.8972 28.3077 91.6511 25.8167Z" fill="#744B27" />
    <path d="M148.833 40.3698C145.115 35.2192 139.556 28.1394 132.734 27.3153C127.77 26.6972 123.03 32.3536 119.182 36.3804C115.148 38.9276 111.541 41.606 108.772 45.9887C106.801 49.1352 103.362 57.8445 108.047 60.6539C114.256 64.3436 122.379 65.5985 129.481 64.8306C134.965 64.2312 142.345 62.5456 146.081 58.088C149.929 53.5179 152.811 45.8763 148.833 40.3698Z" fill="#744B27" />
    <path d="M105.63 45.4639C105.668 45.3702 105.686 45.2766 105.723 45.1642C106.058 43.9468 106.095 42.6919 105.891 41.437C106.095 42.6919 106.058 43.9468 105.723 45.1642C105.686 45.2766 105.668 45.3702 105.63 45.4639Z" fill="#543010" />
    <path d="M82.2814 55.9714C73.9903 55.9714 66.7217 53.3493 66.7403 47.7117C66.7403 46.7378 66.9448 45.6702 67.4281 44.5089C67.7441 43.741 68.0973 42.9731 68.5063 42.2052C72.1127 47.6555 82.0955 49.7158 89.5128 49.7158C91.1859 49.7158 92.7102 49.6034 94.0301 49.4161C101.689 48.2736 103.883 41.0814 102.451 34.3201C104.199 36.5489 105.5 39.0025 105.89 41.4373C106.095 42.6922 106.058 43.9471 105.723 45.1645C105.686 45.2769 105.667 45.3705 105.63 45.4641C103.437 52.2442 92.134 55.9714 82.2814 55.9714Z" fill="#67401F" />
    <path d="M125.392 65.0365C119.406 65.0365 113.085 63.6506 108.047 60.6538C106.318 59.6237 105.686 57.7882 105.705 55.7092C105.705 52.1881 107.527 47.9739 108.772 45.9886C109.609 44.6775 110.538 43.5538 111.505 42.5049C111.319 44.4153 111.431 46.3257 111.951 48.2736C113.922 55.3721 121.097 57.3574 127.845 57.3574C130.225 57.3574 132.567 57.114 134.594 56.7394C136.322 56.4397 138.051 55.8591 139.687 55.035C139.762 55.1099 139.836 55.2035 139.929 55.2785C141.583 56.9267 143.907 57.526 146.268 57.8631C146.212 57.9381 146.138 58.013 146.082 58.0879C142.346 62.5455 134.965 64.2312 129.481 64.8305C128.143 64.9616 126.786 65.0365 125.392 65.0365Z" fill="#67401F" />
</svg>