<svg width="260" height="249" viewBox="0 0 260 249" fill="none" xmlns="http://www.w3.org/2000/svg">
<path d="M237.27 233.441C178.378 229.845 169.455 247.826 123.054 247.826C98.0696 247.826 87.362 251.422 42.7464 246.028C-32.2077 237.037 23.1156 228.047 14.1924 224.452C-9.00769 219.057 -5.43845 206.471 37.3925 197.481C244.409 154.328 296.163 237.037 237.27 233.441Z" fill="black" fill-opacity="0.15"/>
<path d="M58.9684 232.311C96.5519 226.172 103.453 237.67 133.248 234.734C149.292 233.153 156.402 234.888 184.701 228.447C212.037 224.016 248.356 210.819 174.949 193.482C39.2044 177.631 21.3849 238.449 58.9684 232.311Z" fill="black" fill-opacity="0.15"/>
<path d="M152.034 185.745C148.539 182.636 143.873 183.404 139.69 185.277L138.891 185.352C133.593 186.27 129.893 189.622 127.514 194.267C124.8 199.568 127.644 204.568 131.641 207.977C136.158 211.798 142.293 213.409 148.111 213.165C152.833 212.959 158.726 208.876 159.172 203.782C159.73 197.283 156.83 190.072 152.034 185.745Z" fill="#5F3913"/>
<path d="M238.272 208.483C237.659 207.078 236.785 206.161 235.8 205.486L235.614 205.355L234.963 204.924C232.547 203.501 228.754 203.707 226.393 204.1C220.538 205.093 216.281 208.277 216.504 214.739C216.708 220.976 223.754 222.062 228.438 220.751C232.937 219.459 240.931 214.327 238.272 208.483Z" fill="#5F3913"/>
<path d="M212.99 183.966C207.283 175.107 194.53 163.738 183.023 167.877C180.811 168.701 178.692 169.75 176.628 170.912C175.699 171.099 174.769 171.38 173.84 171.867C162.091 178.085 149.766 190.99 143.669 202.864C129.485 230.49 180.848 231.071 195.962 229.366C202.059 228.673 224.627 226.482 226.17 218.016C228.624 204.718 219.645 194.305 212.99 183.966Z" fill="#8A5D3B"/>
<path d="M184.399 229.928C177.279 229.928 168.784 229.367 161.218 227.7C161.403 227.55 161.571 227.4 161.738 227.213C163.541 225.059 162.705 219.889 161.534 217.586C159.768 214.102 157.481 211.705 153.689 210.749C153.094 210.599 152.499 210.543 151.923 210.543C151.476 210.543 151.03 210.581 150.584 210.656C150.268 209.663 149.785 208.708 149.134 207.809C147.758 205.898 146.123 203.726 144.301 201.684C147.498 195.822 152.183 189.772 157.481 184.434C157.239 185.596 157.053 186.776 156.979 187.974C155.808 204.494 168.449 214.308 183.339 217.473C186.648 218.185 190.013 218.56 193.285 218.56C206.019 218.56 217.266 212.791 219.013 198.126C219.218 196.328 219.162 194.623 218.957 192.938C223.847 200.504 227.899 208.502 226.189 217.96C226.189 217.979 226.189 217.998 226.17 218.016C225.947 219.215 225.315 220.283 224.367 221.238C218.586 227.063 201.204 228.767 195.962 229.367C193.155 229.685 189.065 229.928 184.399 229.928Z" fill="#7E5131"/>
<path d="M59.9739 213.344C55.8284 208.962 51.4226 209.411 47.2957 211.565C46.1431 211.771 45.0091 212.052 43.9681 212.408C40.12 213.757 27.5719 220.106 33.8553 225.875C37.1456 228.871 41.4213 228.89 45.6412 229.19C50.2329 229.508 56.5162 229.546 60.7919 227.729C68.5624 224.395 64.2868 217.896 59.9739 213.344Z" fill="#5F3913"/>
<path d="M50.2328 229.358C48.6155 229.358 47.054 229.283 45.6412 229.19C41.4213 228.89 37.1456 228.871 33.8552 225.875C33.5392 225.575 33.2603 225.275 33.0373 224.976C33.2603 225.275 33.5392 225.575 33.8552 225.875C37.1456 228.871 41.4213 228.89 45.6412 229.19C47.054 229.283 48.6155 229.358 50.2328 229.358C53.895 229.358 57.8361 228.984 60.7919 227.729C63.9335 226.38 65.1047 224.507 65.1047 222.466C65.1047 224.507 63.9335 226.38 60.7919 227.729C57.8361 228.984 53.895 229.358 50.2328 229.358ZM32.1821 221.866C32.2007 221.754 32.2193 221.642 32.2379 221.548C32.2193 221.66 32.2007 221.754 32.1821 221.866ZM59.9739 213.345C59.8252 213.176 59.6765 213.026 59.5278 212.895C59.6765 213.026 59.8252 213.176 59.9739 213.345Z" fill="#748535"/>
<path d="M50.2331 229.358C48.6157 229.358 47.0542 229.283 45.6414 229.189C41.4215 228.89 37.1458 228.871 33.8554 225.874C33.5394 225.575 33.2606 225.275 33.0375 224.975C32.2567 223.945 32.015 222.896 32.1824 221.866C32.2009 221.754 32.2195 221.66 32.2381 221.548C35.1381 225.331 42.4068 227.129 48.6343 227.129C52.2036 227.129 55.4568 226.549 57.3158 225.387C62.428 222.241 60.4389 215.03 56.1818 210.647C57.3158 211.115 58.4312 211.827 59.528 212.895C59.6767 213.026 59.8254 213.176 59.9741 213.344C62.5395 216.06 65.1049 219.469 65.1049 222.466C65.1049 224.507 63.9338 226.38 60.7921 227.729C57.8363 228.983 53.8953 229.358 50.2331 229.358Z" fill="#532F11"/>
<path d="M161.533 217.585C159.767 214.102 157.481 211.704 153.688 210.749C149.766 209.775 145.806 212.397 142.479 214.27C141.754 214.495 141.047 214.776 140.397 215.169C137.069 217.211 137.088 220.938 139.727 223.597C142.553 226.426 147.293 226.351 151.011 226.856C153.911 227.25 159.358 230.059 161.738 227.212C163.541 225.058 162.704 219.889 161.533 217.585Z" fill="#5F3913"/>
<path d="M111.077 195.533C108.772 195.383 100.072 197.275 100.778 200.889L100.871 201.058L100.091 201.994C97.6368 206.471 100.964 211.996 105.761 212.483C108.363 212.745 111.728 212.165 114.126 211.134C116.598 210.067 117.77 208.999 118.253 206.227C118.978 201.957 115.669 195.795 111.077 195.533Z" fill="#5F3913"/>
<g clip-path="url(#clip0_19_3330)">
<path d="M142.901 156.19C144.107 156.072 145.515 155.763 147.148 155.174C147.148 155.174 144.769 153.843 144.171 153.609C144.171 153.609 150.613 152.768 153.912 150.574C153.912 150.574 151.403 150.144 150.927 149.388C150.927 149.388 150.977 148.31 155.04 146.649C159.107 144.983 163.823 144.097 163.823 144.097C163.823 144.097 154.649 142.666 148.104 145.601L148.253 143.376C148.253 143.376 143.081 145.751 142.644 148.644C142.644 148.644 142.018 146.265 141.485 145.582C141.485 145.582 134.328 148.988 136.564 154.074C136.361 154.025 136.157 153.977 135.954 153.931C134.453 153.597 132.938 153.34 131.407 153.16C129.868 152.984 128.361 152.861 126.757 152.865L126.853 154.913C128.265 154.829 129.776 154.86 131.242 154.948C131.468 154.962 131.695 154.978 131.921 154.995C128.214 155.742 125.655 160.381 125.655 160.381C126.38 161.014 128.955 161.862 128.955 161.862C125.739 162.157 122.774 167.705 122.774 167.705L125.241 167.686C121.569 174.719 122.54 184.948 122.54 184.948C122.54 184.948 123.833 179.795 125.935 175.417C128.041 171.039 129.235 171.055 129.235 171.055C130.04 171.63 130.344 174.431 130.344 174.431C132.983 170.932 134.338 163.876 134.338 163.876C134.56 164.551 135.869 167.264 135.869 167.264C139.418 159.015 135.857 155.784 135.508 155.592C135.333 155.497 135.16 155.412 134.987 155.337C135.212 155.371 135.437 155.406 135.662 155.443C138.578 155.93 141.459 156.721 144.164 157.941C144.654 158.165 145.136 158.402 145.611 158.654C141.146 158.245 137.906 164.122 137.906 164.122C138.624 164.755 141.206 165.599 141.206 165.599C137.983 165.898 135.025 171.446 135.025 171.446L137.484 171.427C133.816 178.459 133.387 187.307 133.387 187.307C133.387 187.307 136.08 183.532 138.186 179.154C140.293 174.776 141.482 174.795 141.482 174.795C142.284 175.371 142.591 178.172 142.591 178.172C145.235 174.673 146.585 167.617 146.585 167.617C146.808 168.292 148.116 171.005 148.116 171.005C150.434 165.615 149.721 162.368 148.848 160.712C149.207 160.988 149.556 161.278 149.895 161.579C150.27 162.536 151.14 163.927 153.094 165.179C153.911 166.385 154.588 167.691 155.127 169.056C155.05 169.069 154.973 169.083 154.895 169.098C154.895 169.098 151.423 177.033 152.984 183.893L155.287 182.155C155.287 182.155 154.972 190.776 156.572 192.955L159.599 188.24C159.599 188.24 161.425 196.105 163.862 200.107C163.862 200.107 167.729 190.906 166.563 186.954C166.563 186.954 168.899 187.526 169.882 188.363C169.882 188.363 170.553 182.132 166.363 179.059C166.363 179.059 168.251 179.35 169.333 179.104C169.333 179.104 164.409 167.583 155.234 169.039C154.839 167.837 154.336 166.666 153.721 165.554C155.027 166.283 156.742 166.941 158.993 167.406C158.993 167.406 157.516 164.781 157.09 164.209C157.09 164.209 163.648 167.145 168.029 166.983C168.029 166.983 165.907 165.13 165.896 164.14C165.896 164.14 166.567 163.154 171.359 163.937C176.155 164.72 180.79 164.674 180.79 164.674C180.79 164.674 173.293 159.958 165.428 158.938L166.855 156.927C166.855 156.927 160.609 156.175 158.522 158.646C158.522 158.646 159.308 156.049 159.201 155.093C159.201 155.093 150.322 154.146 149.632 160.423C149.631 160.431 149.63 160.442 149.63 160.455C149.263 160.123 148.884 159.805 148.492 159.502C147.28 158.562 145.975 157.737 144.621 157.016C144.056 156.722 143.482 156.447 142.901 156.19Z" fill="#248C3A"/>
<path d="M176.67 25.91C176.67 34.0478 169.771 40.6471 161.261 40.6471C152.755 40.6471 145.853 34.0478 145.853 25.91C145.853 17.7684 152.755 11.1692 161.261 11.1692C169.771 11.1692 176.67 17.7684 176.67 25.91Z" fill="#D62E00"/>
<path d="M183.959 40.735C183.959 48.8766 177.064 55.4719 168.554 55.4719C160.044 55.4719 153.142 48.8766 153.142 40.735C153.142 32.5933 160.044 25.9979 168.554 25.9979C177.064 25.9979 183.959 32.5933 183.959 40.735Z" fill="#E33D00"/>
<path d="M173.565 54.67C171.992 55.1918 170.308 55.4719 168.551 55.4719C160.041 55.4719 153.142 48.8727 153.142 40.735C153.142 32.5933 160.041 25.9979 168.551 25.9979L169.487 26.0286C163.444 28.0199 159.108 33.5065 159.108 39.9638C159.108 47.7984 165.496 54.2058 173.565 54.67Z" fill="#D62E00"/>
<path d="M180.012 40.3011C180.668 39.8906 181.082 39.1731 181.286 38.425C181.623 37.1512 181.374 35.7316 180.591 34.6688C179.041 32.5509 174.936 32.0827 174.748 35.3939C174.614 37.8302 177.115 42.1159 180.012 40.3011Z" fill="#F2540C"/>
<path d="M152.114 26.903C152.77 26.4925 153.184 25.775 153.384 25.0268C153.725 23.7568 153.472 22.3335 152.693 21.2707C151.143 19.1566 147.034 18.6847 146.85 21.9958C146.712 24.4321 149.217 28.7178 152.114 26.903Z" fill="#F2540C"/>
<path d="M157.248 25.91C157.248 34.0478 150.349 40.6471 141.839 40.6471C133.325 40.6471 126.427 34.0478 126.427 25.91C126.427 17.7684 133.325 11.1692 141.839 11.1692C150.349 11.1692 157.248 17.7684 157.248 25.91Z" fill="#E33D00"/>
<path d="M146.85 39.8446C145.277 40.3626 143.593 40.6427 141.836 40.6427C133.326 40.6427 126.427 34.0434 126.427 25.9056C126.427 17.764 133.326 11.1725 141.836 11.1725L142.768 11.1994C136.729 13.1907 132.393 18.6772 132.393 25.1344C132.393 32.9729 138.781 39.3765 146.85 39.8446Z" fill="#D62E00"/>
<path d="M152.114 26.3201C152.77 25.9057 153.184 25.1883 153.384 24.4401C153.725 23.1663 153.472 21.7467 152.693 20.6839C151.143 18.566 147.034 18.0979 146.85 21.409C146.712 23.8453 149.217 28.131 152.114 26.3201Z" fill="#F2540C"/>
<path d="M86.1018 111.5C86.1018 119.641 79.1994 126.24 70.6895 126.24C62.1796 126.24 55.281 119.641 55.281 111.5C55.281 103.362 62.1796 96.7627 70.6895 96.7627C79.1994 96.7627 86.1018 103.362 86.1018 111.5Z" fill="#D62E00"/>
<path d="M208.461 150.386C208.461 158.524 201.562 165.123 193.052 165.123C184.542 165.123 177.644 158.524 177.644 150.386C177.644 142.244 184.542 135.645 193.052 135.645C201.562 135.645 208.461 142.244 208.461 150.386Z" fill="#D62E00"/>
<path d="M113.593 33.8206C111.72 33.2757 109.695 32.8844 107.707 32.5928C105.704 32.3051 103.686 32.1362 101.661 32.0902C97.6167 31.9904 93.542 32.4163 89.6477 33.5443C89.1643 33.6978 88.673 33.8206 88.1973 33.997L86.7701 34.515C85.8416 34.9178 84.9016 35.3015 84.0115 35.7926C82.2159 36.7326 80.497 37.8415 78.9546 39.1767L78.3637 39.664L77.8112 40.1934C77.4506 40.5502 77.0707 40.8917 76.7177 41.2639C76.0463 42.0312 75.3327 42.7679 74.7418 43.6043C73.4604 45.2081 72.4436 47.0036 71.4729 48.8146C72.3669 46.9653 73.3107 45.1198 74.5346 43.4546C75.0948 42.5837 75.7855 41.8087 76.4339 41.0068C76.7754 40.6116 77.1474 40.251 77.4965 39.8712L78.0375 39.3109L78.6131 38.7892C80.1286 37.3657 81.8397 36.1571 83.643 35.1173C84.5331 34.5764 85.4808 34.1428 86.4247 33.6901L87.8674 33.0915C88.3508 32.892 88.8495 32.7424 89.3406 32.5621C93.304 31.2384 97.49 30.6207 101.664 30.5516C103.752 30.5133 105.843 30.6015 107.926 30.8087C110.017 31.0312 112.054 31.3305 114.161 31.8484L113.593 33.8206Z" fill="#248C3A"/>
<path fill-rule="evenodd" clip-rule="evenodd" d="M186.031 170.691C183.209 173.731 179.091 175.647 174.506 175.647C165.996 175.647 159.097 169.048 159.097 160.91C159.097 152.769 165.996 146.173 174.506 146.173C180.992 146.173 186.543 150.005 188.815 155.434C191.638 152.392 195.756 150.475 200.341 150.475C208.855 150.475 215.753 157.078 215.753 165.216C215.753 173.353 208.855 179.953 200.341 179.953C193.854 179.953 188.304 176.118 186.031 170.691Z" fill="#E33D00"/>
<path d="M103.701 30.099C103.386 30.5326 98.5097 34.6762 88.2349 28.568C88.2349 28.568 92.037 27.3096 92.9694 27.1293C92.9694 27.1293 83.8917 24.1328 79.7211 20.0428C79.7211 20.0428 83.4735 20.1196 84.3713 19.1604C84.3713 19.1604 84.6014 17.5911 79.1878 14.0536C73.7702 10.5238 67.1902 7.93018 67.1902 7.93018C67.1902 7.93018 80.8568 8.40978 89.5049 14.4642L89.9039 11.2105C89.9039 11.2105 96.7179 16.0756 96.5568 20.3766C96.5568 20.3766 98.1145 17.1192 99.0737 16.2713C99.0737 16.2713 108.654 23.3118 103.701 30.099Z" fill="#29A143"/>
<path d="M67.7556 42.7834C80.9809 42.5954 83.1793 35.8696 83.2253 35.2788C83.9696 26.0168 70.8671 24.9195 70.8671 24.9195C70.4527 26.2739 70.8671 30.2526 70.8671 30.2526C68.5305 26.0974 59.2916 25.4566 59.2916 25.4566L60.8033 28.7524C49.1472 28.0503 37 32.7886 37 32.7886C37 32.7886 43.6875 34.1392 50.8354 34.3349C57.9833 34.5344 58.6777 36.1496 58.6777 36.1496C58.3861 37.5731 54.8065 39.668 54.8065 39.668C61.0988 41.1106 71.3928 38.6896 71.3928 38.6896C70.6139 39.3956 67.7556 42.7834 67.7556 42.7834Z" fill="#29A143"/>
<path d="M86.2297 34.3077C85.6618 34.488 79.6189 38.1674 82.4658 51.0781C82.4658 51.0781 85.1094 47.5214 85.6197 46.6044C85.6197 46.6044 85.6197 57.1786 88.4665 62.9721C88.4665 62.9721 89.6828 59.0087 91.0065 58.3986C91.0065 58.3986 92.733 58.7056 94.5669 65.6194C96.3932 72.5294 99.2402 78.7297 99.2402 78.7297C99.2402 78.7297 101.07 65.819 97.7169 54.6387L101.274 55.3484C101.274 55.3484 98.5303 46.5047 93.953 45.181C93.953 45.181 97.9202 44.6746 99.1403 43.9609C99.1403 43.9609 95.0696 31.4569 86.2297 34.3077Z" fill="#29A143"/>
<path d="M73.2058 46.3594C73.2058 46.3594 76.0296 58.7943 71.8667 68.2826L69.0199 65.1288C69.0199 65.1288 67.0862 77.675 64.1741 80.3876L61.1007 72.7294C61.1007 72.7294 56.2742 83.5914 51.6471 88.7058C51.6471 88.7058 48.6084 74.3333 51.3901 68.9426C51.3901 68.9426 47.8602 69.1191 46.1951 70.0591C46.1951 70.0591 46.9547 60.8624 53.8723 57.5896C53.8723 57.5896 51.0601 57.486 49.5599 56.8261C49.5599 56.8261 60.1263 41.1567 73.2058 46.3594Z" fill="#29A143"/>
<path d="M101.208 49.0682C98.3611 36.1575 104.404 32.4742 104.972 32.2939C113.812 29.4508 117.883 41.951 117.883 41.951C116.659 42.6646 112.695 43.1711 112.695 43.1711C117.272 44.4947 120.016 53.3385 120.016 53.3385L116.459 52.6249C119.812 63.8091 115.573 78.3274 115.573 78.3274C115.573 78.3274 115.135 70.5195 113.305 63.6057C111.475 56.6918 109.749 56.3887 109.749 56.3887C108.425 56.9987 107.209 60.9622 107.209 60.9622C104.358 55.1687 104.358 44.5945 104.358 44.5945C103.851 45.5115 101.208 49.0682 101.208 49.0682Z" fill="#29A143"/>
<path d="M184.592 109.562C184.592 109.562 187.108 103.52 191.667 100.784L191.924 102.948C191.924 102.948 196.455 98.2671 198.484 98.0024L197.495 102.119C197.495 102.119 202.739 99.0037 206.196 98.2364C206.196 98.2364 203.2 105.158 200.434 106.589C200.434 106.589 201.968 107.564 202.943 107.663C202.943 107.663 199.892 111.289 196.025 110.606C196.025 110.606 197.172 111.485 197.602 112.206C197.602 112.206 188.524 115.625 184.592 109.562Z" fill="#29A143"/>
<path d="M183.832 116.415C178.864 111.734 175.637 113.438 175.407 113.641C171.8 116.806 176.266 121.917 176.266 121.917C176.903 121.564 178.181 119.941 178.181 119.941C177.552 122.32 180.744 125.876 180.744 125.876L181.369 124.111C185.432 128.558 191.636 131.167 191.636 131.167C191.636 131.167 189.645 128.267 187.067 125.623C184.488 122.983 184.811 122.135 184.811 122.135C185.432 121.713 187.512 122.224 187.512 122.224C185.701 119.427 181.016 116.626 181.016 116.626C181.553 116.645 183.832 116.415 183.832 116.415Z" fill="#29A143"/>
<path d="M163.953 117.201C164.18 117.002 167.41 115.298 172.379 119.979C172.379 119.979 170.1 120.205 169.559 120.19C169.559 120.19 174.243 122.991 176.058 125.784C176.058 125.784 173.979 125.274 173.357 125.7C173.357 125.7 173.035 126.548 175.613 129.187C178.192 131.831 180.183 134.731 180.183 134.731C180.183 134.731 173.979 132.122 169.912 127.676L169.286 129.441C169.286 129.441 166.094 125.884 166.723 123.505C166.723 123.505 165.446 125.128 164.809 125.477C164.809 125.477 160.347 120.367 163.953 117.201Z" fill="#29A143"/>
<path d="M159.57 115.843C158.184 121.41 155.211 121.744 154.965 121.71C151.102 121.203 151.95 115.575 151.95 115.575C152.544 115.517 154.129 116.043 154.129 116.043C152.663 114.692 153.312 110.736 153.312 110.736L154.517 111.665C155.38 106.681 159.735 101.781 159.735 101.781C159.735 101.781 158.415 104.912 157.785 107.951C157.16 110.986 157.751 111.419 157.751 111.419C158.369 111.423 159.577 110.096 159.577 110.096C159.547 112.885 157.536 117.013 157.536 117.013C157.897 116.749 159.57 115.843 159.57 115.843Z" fill="#29A143"/>
<path d="M166.041 115.885C166.287 115.916 169.256 115.586 170.645 110.019C170.645 110.019 168.972 110.924 168.608 111.193C168.608 111.193 170.618 107.057 170.653 104.275C170.653 104.275 169.437 105.599 168.827 105.595C168.827 105.595 168.236 105.161 168.861 102.126C169.487 99.0877 170.81 95.9569 170.81 95.9569C170.81 95.9569 166.456 100.856 165.588 105.837L164.388 104.908C164.388 104.908 163.735 108.868 165.205 110.222C165.205 110.222 163.62 109.692 163.022 109.75C163.022 109.75 162.178 115.379 166.041 115.885Z" fill="#29A143"/>
<path d="M182.888 107.418C179.201 111.815 176.385 110.809 176.178 110.671C172.924 108.519 176.158 103.834 176.158 103.834C176.719 104.045 177.912 105.215 177.912 105.215C177.187 103.354 179.508 100.082 179.508 100.082L180.179 101.444C183.145 97.3462 189.207 94.8599 189.207 94.8599C189.207 94.8599 186.648 97.0929 184.749 99.5446C182.853 102 183.195 102.649 183.195 102.649C183.744 102.921 185.417 102.261 185.417 102.261C184.166 104.751 180.544 107.579 180.544 107.579C180.989 107.502 182.888 107.418 182.888 107.418Z" fill="#29A143"/>
<path d="M84.8329 133.155C84.8329 141.296 77.9384 147.896 69.4246 147.896C60.9147 147.896 54.0161 141.296 54.0161 133.155C54.0161 125.013 60.9147 118.418 69.4246 118.418C77.9384 118.418 84.8329 125.013 84.8329 133.155Z" fill="#E33D00"/>
<path d="M74.4353 147.09C72.866 147.612 71.178 147.892 69.4246 147.892C60.9147 147.892 54.0161 141.292 54.0161 133.155C54.0161 125.013 60.9147 118.418 69.4246 118.418L70.3568 118.448C64.3178 120.44 59.9785 125.926 59.9785 132.383C59.9785 140.222 66.3704 146.626 74.4353 147.09Z" fill="#D62E00"/>
<path d="M108.593 121.325C108.593 129.463 101.694 136.062 93.1844 136.062C84.6707 136.062 77.7761 129.463 77.7761 121.325C77.7761 113.188 84.6707 106.585 93.1844 106.585C101.694 106.585 108.593 113.188 108.593 121.325Z" fill="#E33D00"/>
<path d="M98.1953 135.261C96.626 135.779 94.9341 136.062 93.1807 136.062C84.6707 136.062 77.7761 129.463 77.7761 121.322C77.7761 113.18 84.6707 106.588 93.1807 106.588L94.1129 106.619C88.0738 108.61 83.7383 114.097 83.7383 120.55C83.7383 128.389 90.1266 134.792 98.1953 135.261Z" fill="#D62E00"/>
<path d="M103.866 121.855C104.526 121.445 104.944 120.723 105.14 119.975C105.477 118.705 105.228 117.286 104.453 116.223C102.899 114.105 98.7897 113.633 98.6056 116.948C98.4674 119.384 100.973 123.67 103.866 121.855Z" fill="#F2540C"/>
<path d="M77.2242 135.074C77.8803 134.663 78.2947 133.942 78.4942 133.194C78.8356 131.924 78.5863 130.5 77.8036 129.441C76.2536 127.323 72.1482 126.851 71.9602 130.166C71.826 132.603 74.3274 136.885 77.2242 135.074Z" fill="#F2540C"/>
<path d="M174.506 175.647C176.259 175.647 177.947 175.363 179.517 174.845C171.452 174.377 165.06 167.974 165.06 160.135C165.06 153.682 169.399 148.195 175.438 146.204L174.506 146.173C165.996 146.173 159.097 152.769 159.097 160.907C159.097 169.048 165.996 175.647 174.506 175.647Z" fill="#D62E00"/>
<path d="M200.341 179.953C202.095 179.953 203.783 179.669 205.356 179.155C197.287 178.683 190.895 172.279 190.895 164.444C190.895 157.987 195.234 152.501 201.274 150.509L200.341 150.479C191.831 150.479 184.933 157.07 184.933 165.212C184.933 173.353 191.831 179.953 200.341 179.953Z" fill="#D62E00"/>
<path d="M184.78 161.079C185.436 160.668 185.855 159.947 186.05 159.199C186.392 157.929 186.142 156.505 185.364 155.447C183.81 153.329 179.704 152.857 179.516 156.172C179.382 158.604 181.884 162.894 184.78 161.079Z" fill="#F2540C"/>
<path d="M211.465 165.786C212.121 165.376 212.539 164.654 212.735 163.906C213.076 162.636 212.827 161.213 212.048 160.154C210.494 158.036 206.389 157.564 206.201 160.879C206.066 163.311 208.568 167.601 211.465 165.786Z" fill="#F2540C"/>
<path fill-rule="evenodd" clip-rule="evenodd" d="M104.794 356.97C105.335 366.209 106.088 375.379 107.196 384.641L113.312 383.9C112.84 379.423 112.46 374.838 112.126 370.295L111.651 363.462L111.263 356.617C110.791 347.49 110.603 338.354 110.573 329.23C110.533 325.644 110.598 322.062 110.664 318.48C110.681 317.502 110.699 316.523 110.715 315.545C110.759 314.438 110.8 313.331 110.841 312.225L110.841 312.221C110.967 308.774 111.094 305.328 111.344 301.894C111.516 298.429 111.831 294.982 112.146 291.534L112.146 291.532C112.244 290.453 112.343 289.373 112.437 288.292C112.595 286.866 112.771 285.443 112.947 284.02C113.049 283.192 113.152 282.364 113.251 281.536C113.301 281.136 113.349 280.737 113.397 280.34L113.397 280.336C113.484 279.611 113.571 278.885 113.673 278.148C116.113 259.9 118.787 238.207 120.748 219.902L122.163 206.162L122.831 199.279C123.054 196.801 123.054 194.299 122.816 191.824C122.693 190.585 122.513 189.354 122.279 188.134C122.16 187.523 122.029 186.917 121.883 186.315L121.473 184.631L119.873 177.955C119.654 177.028 119.437 176.1 119.222 175.173C121.892 165.263 130.318 142.124 151.454 138.244C156.426 137.333 161.024 137.405 165.296 138.134C166.787 138.998 167.894 139.463 167.894 139.463C167.894 139.463 167.636 139.087 167.196 138.505C170.004 139.123 172.668 140.016 175.203 141.084C174.613 142.702 173.785 145.784 174.041 149.888C172.373 149.053 169.62 145.506 169.62 145.506C170.648 150.253 172.893 150.767 172.893 150.767C172.249 151.469 168.082 152.432 168.082 152.432C171.481 154.036 173.983 152.175 173.983 152.175C174.623 153.199 173.983 156.599 173.983 156.599C176.611 154.611 176.158 152.11 176.158 152.11C178.403 153.844 182.251 152.11 182.251 152.11C178.215 151.599 177.7 150.571 177.7 150.571C179.043 149.869 181.353 144.16 181.353 144.16C180.32 146.101 177.679 148.1 176.061 149.2C175.942 145.844 176.607 143.297 177.089 141.922C182.419 144.405 187.161 147.589 191.46 150.476L191.471 150.483C193.825 152.067 196.085 153.586 198.229 154.836C198.269 154.861 198.307 154.883 198.343 154.903C198.46 154.971 198.577 155.038 198.693 155.104C197.943 155.806 193.918 156.736 193.918 156.736C197.317 158.336 199.815 156.479 199.815 156.479C200.46 157.504 199.815 160.903 199.815 160.903C202.447 158.916 201.998 156.414 201.998 156.414C204.243 158.148 208.091 156.414 208.091 156.414C204.051 155.904 203.537 154.876 203.537 154.876C204.883 154.173 207.189 148.464 207.189 148.464C205.947 150.8 202.379 153.221 201.065 154.059C199.795 153.402 198.463 152.607 197.081 151.729C196.167 150.722 195.46 149.811 195.46 149.811C195.541 150.183 195.629 150.529 195.722 150.851C194.71 150.187 193.673 149.49 192.618 148.78L192.614 148.777C190.436 147.314 188.148 145.777 185.73 144.289C186.414 143.719 187.347 143.035 188.371 142.468C190.848 142.9 192.526 141.65 192.526 141.65C193.17 142.674 192.526 146.074 192.526 146.074C195.158 144.086 194.705 141.585 194.705 141.585C196.949 143.319 200.798 141.585 200.798 141.585C196.761 141.071 196.247 140.05 196.247 140.05C197.59 139.344 199.9 133.635 199.9 133.635C198.515 136.239 194.236 138.949 193.415 139.453C193.096 139.368 192.773 139.316 192.448 139.291C190.771 138.337 188.167 134.982 188.167 134.982C188.707 137.473 189.582 138.797 190.291 139.493C187.39 140.201 184.718 142.429 183.882 143.179C178.375 139.953 172.201 137.119 165.137 136.011C164.91 135.761 164.675 135.51 164.433 135.262C162.476 133.263 162.722 132.618 162.722 132.618C163.194 132.296 164.767 132.684 164.767 132.684C163.393 130.566 159.844 128.444 159.844 128.444C160.255 128.455 161.978 128.283 161.978 128.283C159.849 126.273 158.139 125.816 157.024 125.825C157.308 125.532 157.598 125.244 157.887 124.956C158.038 124.806 158.189 124.656 158.34 124.504C158.582 124.243 158.854 124.011 159.126 123.78C159.29 123.641 159.453 123.503 159.61 123.357C159.766 123.225 159.92 123.089 160.074 122.954C160.349 122.71 160.623 122.468 160.914 122.248L162.288 121.22L162.974 120.71L165.15 119.34L165.902 118.918L166.661 118.523L168.189 117.736L169.781 117.092C169.983 117.012 170.184 116.931 170.384 116.849C170.716 116.714 171.047 116.579 171.385 116.455L173.031 115.872C175.221 115.101 177.408 114.299 179.588 113.485C181.763 112.668 183.935 111.828 186.083 110.949L186.233 110.887C188.332 110.018 190.432 109.148 192.448 108.095C190.467 109.042 188.402 109.811 186.347 110.576L185.995 110.707C183.816 111.509 181.617 112.265 179.415 113.002C177.213 113.735 175.003 114.452 172.789 115.143L171.124 115.661C170.778 115.775 170.436 115.9 170.093 116.025C169.883 116.101 169.673 116.177 169.462 116.252L167.805 116.858L166.205 117.606L165.403 117.982L164.62 118.389L163.086 119.271L162.318 119.72L160.135 121.232C159.815 121.454 159.514 121.701 159.213 121.948C159.057 122.076 158.901 122.205 158.742 122.329C158.589 122.458 158.431 122.583 158.273 122.707C157.967 122.949 157.66 123.191 157.384 123.465C157.317 123.527 157.25 123.589 157.184 123.651C157.122 123.708 157.06 123.765 156.998 123.822C156.258 124.506 155.517 125.191 154.84 125.939C154.19 126.593 153.598 127.295 153.004 127.999L152.998 128.005C152.83 128.204 152.662 128.404 152.492 128.602L152.256 128.908C151.612 129.742 150.967 130.578 150.382 131.457C150.037 131.94 149.718 132.439 149.404 132.941C149.081 133.44 148.778 133.954 148.487 134.469C147.969 135.37 147.495 136.258 147.054 137.228C137.096 140.358 128.776 148.092 122.828 159.826C120.78 163.865 119.306 167.775 118.273 171.021C117.787 168.869 117.312 166.716 116.846 164.56C114.927 155.617 113.162 146.639 111.739 137.63C111.041 133.13 110.411 128.618 109.966 124.113C109.525 119.617 109.222 115.097 109.406 110.723C109.424 110.478 109.437 110.232 109.45 109.988C109.467 109.689 109.483 109.391 109.506 109.096L109.675 107.492C109.828 106.318 109.955 105.152 110.07 103.989C110.296 101.664 110.473 99.3546 110.626 97.0449C110.93 92.4293 111.175 87.8328 111.382 83.2402C111.42 82.4091 111.458 81.5782 111.496 80.7475L111.497 80.7341L111.497 80.7289L111.497 80.7279C111.878 72.3837 112.259 64.0566 112.852 55.7614C113.178 51.1995 113.573 46.6452 114.103 42.1217C114.628 37.5981 115.284 33.0938 116.266 28.7045C116.769 26.5214 117.341 24.3537 118.112 22.3125C118.492 21.2919 118.921 20.2982 119.42 19.3812C119.915 18.4719 120.498 17.6316 121.151 17.0062L121.404 16.7645L122.371 15.9473C122.483 15.8545 122.596 15.7611 122.709 15.6677L122.71 15.6667C123.031 15.4012 123.353 15.1348 123.679 14.8768C124.558 14.1747 125.455 13.4917 126.361 12.828C128.176 11.5043 130.056 10.2728 131.997 9.16009C135.38 7.23538 138.998 5.66522 142.751 4.90812C141.22 7.8304 141.204 12.3484 141.339 14.8681C139.668 13.9993 136.954 10.5058 136.954 10.5058C137.979 15.2481 140.223 15.7622 140.223 15.7622C139.583 16.4681 135.416 17.4311 135.416 17.4311C138.812 19.0349 141.313 17.1741 141.313 17.1741C141.954 18.1985 141.313 21.5979 141.313 21.5979C143.941 19.6104 143.496 17.1089 143.496 17.1089C145.741 18.8393 149.585 17.1089 149.585 17.1089C145.545 16.5947 145.031 15.5703 145.031 15.5703C146.382 14.8644 148.687 9.15911 148.687 9.15911C147.648 11.1081 144.991 13.1148 143.376 14.212C143.266 10.8246 143.598 5.75035 145.768 4.48869C147.475 4.36738 149.184 4.45456 150.851 4.77458C151.906 4.98176 152.942 5.30028 153.939 5.69546C154.964 6.08681 155.846 6.58942 156.71 7.22633C157.577 7.84021 158.363 8.58837 159.089 9.40176C159.829 10.2036 160.485 11.0899 161.107 12.0107C161.156 12.0842 161.205 12.1579 161.253 12.2318C161.275 13.1859 161.252 14.1456 161.196 15.0365C159.612 14.6721 156.376 10.5058 156.376 10.5058C157.404 15.2481 159.648 15.7622 159.648 15.7622C159.008 16.4681 154.841 17.4311 154.841 17.4311C158.24 19.0349 160.738 17.1741 160.738 17.1741C161.379 18.1985 160.738 21.5979 160.738 21.5979C163.366 19.6104 162.917 17.1089 162.917 17.1089C163.295 17.3999 163.718 17.593 164.16 17.7129L164.21 17.8268L164.257 17.9347C165.143 20.0065 165.899 22.1475 166.543 24.3268C167.054 26.0593 167.507 27.8285 167.874 29.5953C166.193 28.5845 163.67 25.3311 163.67 25.3311C164.694 30.081 166.939 30.5913 166.939 30.5913C166.298 31.2972 162.131 32.2565 162.131 32.2565C165.531 33.8602 168.028 31.9994 168.028 31.9994C168.669 33.0277 168.028 36.427 168.028 36.427C170.661 34.4395 170.212 31.938 170.212 31.938C172.456 33.6684 176.304 31.938 176.304 31.938C172.26 31.4238 171.75 30.3994 171.75 30.3994C173.097 29.6935 175.403 23.9882 175.403 23.9882C174.158 26.3233 170.593 28.7413 169.279 29.5786C168.954 27.6623 168.539 25.7841 168.047 23.9086C167.51 21.8636 166.877 19.8377 166.129 17.8481C167.681 17.7065 169.01 17.1089 169.01 17.1089C167.261 16.8863 166.174 16.5681 165.503 16.2787C165.337 15.8865 165.166 15.4959 164.989 15.1075C166.332 13.5559 168.112 9.15911 168.112 9.15911C167.319 10.6422 165.592 12.1587 164.1 13.2824C163.843 12.7879 163.573 12.2983 163.29 11.8146C163.283 11.5997 163.275 11.3819 163.264 11.1622C163.06 7.29857 162.201 4.96193 160.628 4.01041C159.436 3.28956 158.005 3.43056 156.37 4.42691C152.648 2.28134 148.24 1.68931 144.087 2.14263C139.272 2.67594 134.759 4.43701 130.608 6.65082C128.529 7.76732 126.53 9.01038 124.596 10.3456C123.633 11.0132 122.681 11.7 121.757 12.4175C121.457 12.6436 121.161 12.8763 120.866 13.1089L120.864 13.1103C120.699 13.2403 120.534 13.3703 120.368 13.4994L119.689 14.052L119.351 14.3282L118.967 14.6696C117.943 15.6211 117.199 16.6993 116.573 17.7813C115.952 18.8709 115.449 19.9874 115 21.1077C114.11 23.3522 113.462 25.6274 112.886 27.9064C111.77 32.4683 111.014 37.0571 110.381 41.6459C109.752 46.2385 109.26 50.8388 108.838 55.4314C108.083 63.6261 107.54 71.8211 106.999 79.9942C106.933 80.9896 106.867 81.9846 106.801 82.9793C106.725 84.0967 106.651 85.2136 106.578 86.3298L106.578 86.3309C106.348 89.7944 106.12 93.2508 105.838 96.6919C105.748 97.8079 105.653 98.9238 105.549 100.037C103.831 98.0991 101.363 95.8878 98.0731 95.9896C92.1596 96.1544 87.3047 97.4472 83.4099 99.4047C80.7986 97.9397 77.9234 98.1209 75.7246 98.6542C76.6912 96.8454 77.5374 94.7503 77.5374 94.7503C76.0027 97.6355 70.919 100.651 70.919 100.651C69.4917 100.843 65.8085 96.1008 65.8085 96.1008C66.8291 100.843 69.0735 101.353 69.0735 101.353C68.4328 102.063 64.2661 103.022 64.2661 103.022C67.6655 104.626 70.1633 102.765 70.1633 102.765C70.804 103.794 70.1633 107.193 70.1633 107.193C72.7953 105.206 72.3464 102.704 72.3464 102.704C74.3338 104.236 77.5785 103.055 78.2958 102.764C74.3185 106.125 71.9828 110.268 71.0507 114.072C70.3734 116.832 69.5718 120.646 69.2392 122.251C67.6203 121.717 64.5424 117.751 64.5424 117.751C65.5668 122.497 67.8113 123.011 67.8113 123.011C67.1706 123.717 63 124.676 63 124.676C66.3994 126.28 68.9011 124.419 68.9011 124.419C69.5418 125.447 68.9011 128.847 68.9011 128.847C71.5293 126.859 71.0802 124.358 71.0802 124.358C73.3248 126.088 77.1732 124.358 77.1732 124.358C73.1331 123.844 72.6189 122.819 72.6189 122.819C73.9656 122.113 76.2752 116.408 76.2752 116.408C75.3625 118.117 73.2021 119.874 71.5956 121.02C71.988 119.161 72.5489 116.572 73.0422 114.56C74.4485 108.817 79.4285 102.227 89.0024 99.4143C90.3188 99.5973 91.9883 103.85 92.6693 110.277C90.9967 109.397 88.2996 105.922 88.2996 105.922C89.3279 110.668 91.5723 111.178 91.5723 111.178C90.9316 111.884 86.761 112.847 86.761 112.847C90.1565 114.451 92.6619 112.59 92.6619 112.59C93.3026 113.615 92.6619 117.014 92.6619 117.014C95.2862 115.027 94.8412 112.529 94.8412 112.529C97.0857 114.259 100.93 112.529 100.93 112.529C96.8901 112.015 96.3759 110.986 96.3759 110.986C97.7265 110.284 100.036 104.575 100.036 104.575C98.9789 106.553 96.2573 108.591 94.6501 109.676C94.4927 108.385 94.2408 106.669 93.8603 104.937C93.2349 102.068 92.4494 100.029 91.4882 98.7933C93.5194 98.3708 95.731 98.1088 98.1306 98.0423H98.2689C101.281 98.0423 103.567 100.82 105.087 102.669C105.147 102.743 105.206 102.814 105.263 102.884C105.242 103.082 105.22 103.281 105.197 103.479C105.071 104.599 104.936 105.72 104.779 106.821L104.56 108.64C104.523 109.015 104.496 109.387 104.47 109.758C104.454 109.99 104.438 110.222 104.418 110.454C104.154 115.262 104.415 119.939 104.802 124.589C105.193 129.239 105.773 133.839 106.425 138.428C107.733 147.598 109.395 156.687 111.206 165.738C112.115 170.258 113.067 174.774 114.064 179.278L115.58 186.027L115.967 187.696C116.082 188.214 116.19 188.732 116.278 189.25C116.466 190.29 116.6 191.333 116.688 192.385C116.869 194.487 116.861 196.601 116.658 198.696L115.948 205.525L114.444 219.204C112.364 237.436 109.141 262.501 106.579 280.672C106.26 282.94 106.847 278.351 106.579 280.672C106.492 281.393 106.404 282.114 106.316 282.834L106.316 282.837C106.122 284.425 105.928 286.013 105.754 287.602C105.664 288.633 105.57 289.665 105.477 290.697C105.151 294.289 104.825 297.882 104.652 301.479C104.398 305.01 104.018 325.716 103.893 329.25C103.854 330.346 103.935 328.153 103.893 329.25C103.878 330.26 103.91 328.24 103.893 329.25C103.916 338.504 104.253 347.747 104.794 356.97ZM159.561 5.76384C160.156 6.12314 160.571 7.0584 160.841 8.27955C160.774 8.20035 160.707 8.12166 160.638 8.0435C159.935 7.21985 159.173 6.43922 158.315 5.74821C158.828 5.56705 159.246 5.57226 159.561 5.76384ZM74.0545 101.357C75.8787 100.6 78.649 99.8692 81.1716 100.665C80.1633 101.299 79.2326 101.979 78.377 102.696C75.4694 102.319 74.413 101.677 74.0545 101.357ZM151.082 136.23C150.582 136.321 150.087 136.424 149.595 136.537C149.781 136.152 149.977 135.77 150.175 135.397C150.436 134.891 150.704 134.392 151 133.905C151.28 133.41 151.568 132.918 151.879 132.447C152.429 131.549 153.039 130.698 153.65 129.844L153.808 129.623C153.961 129.43 154.113 129.237 154.264 129.044L154.266 129.042C154.355 128.928 154.443 128.815 154.532 128.702C154.647 130.625 156.241 132.453 156.241 132.453C156.725 132.185 157.692 130.957 157.692 130.957C157.22 132.756 159.637 135.454 159.637 135.454L160.113 134.119C160.603 134.654 161.134 135.155 161.68 135.618C158.345 135.381 154.819 135.544 151.082 136.23Z" fill="#248C3A"/>
</g>
<path d="M91.6511 192.817C84.9587 190.12 77.783 196.394 73.6189 202.294C70.9048 205.028 68.7298 208.306 67.4285 211.509C60.9407 227.429 101.857 225.93 105.724 212.164C107.88 204.466 97.8972 195.308 91.6511 192.817Z" fill="#744B27"/>
<path d="M148.833 207.37C145.115 202.219 139.556 195.139 132.734 194.315C127.77 193.697 123.03 199.354 119.182 203.38C115.148 205.928 111.541 208.606 108.772 212.989C106.801 216.135 103.362 224.844 108.047 227.654C114.256 231.344 122.379 232.599 129.481 231.831C134.965 231.231 142.345 229.546 146.081 225.088C149.929 220.518 152.811 212.876 148.833 207.37Z" fill="#744B27"/>
<path d="M105.63 212.464C105.668 212.37 105.686 212.277 105.723 212.164C106.058 210.947 106.095 209.692 105.891 208.437C106.095 209.692 106.058 210.947 105.723 212.164C105.686 212.277 105.668 212.37 105.63 212.464Z" fill="#543010"/>
<path d="M82.2814 222.971C73.9903 222.971 66.7217 220.349 66.7403 214.712C66.7403 213.738 66.9448 212.67 67.4281 211.509C67.7441 210.741 68.0973 209.973 68.5063 209.205C72.1127 214.655 82.0955 216.716 89.5128 216.716C91.1859 216.716 92.7102 216.603 94.0301 216.416C101.689 215.274 103.883 208.081 102.451 201.32C104.199 203.549 105.5 206.002 105.89 208.437C106.095 209.692 106.058 210.947 105.723 212.164C105.686 212.277 105.667 212.371 105.63 212.464C103.437 219.244 92.134 222.971 82.2814 222.971Z" fill="#67401F"/>
<path d="M125.392 232.037C119.406 232.037 113.085 230.651 108.047 227.654C106.318 226.624 105.686 224.788 105.705 222.709C105.705 219.188 107.527 214.974 108.772 212.989C109.609 211.678 110.538 210.554 111.505 209.505C111.319 211.415 111.431 213.326 111.951 215.274C113.922 222.372 121.097 224.357 127.845 224.357C130.225 224.357 132.567 224.114 134.594 223.739C136.322 223.44 138.051 222.859 139.687 222.035C139.762 222.11 139.836 222.204 139.929 222.278C141.583 223.927 143.907 224.526 146.268 224.863C146.212 224.938 146.138 225.013 146.082 225.088C142.346 229.546 134.965 231.231 129.481 231.831C128.143 231.962 126.786 232.037 125.392 232.037Z" fill="#67401F"/>
<defs>
<clipPath id="clip0_19_3330">
<rect width="201" height="213" fill="white" transform="translate(25)"/>
</clipPath>
</defs>
</svg>
