<svg width="260" height="150" viewBox="0 0 260 150" fill="none" xmlns="http://www.w3.org/2000/svg">
<path d="M237.27 134.441C178.378 130.845 169.455 148.826 123.054 148.826C98.0696 148.826 87.362 152.422 42.7464 147.028C-32.2077 138.038 23.1156 129.047 14.1924 125.452C-9.00769 120.058 -5.43845 107.471 37.3925 98.4806C244.409 55.3282 296.163 138.038 237.27 134.441Z" fill="black" fill-opacity="0.15"/>
<path d="M58.9684 133.311C96.5519 127.172 103.453 138.67 133.248 135.734C149.292 134.153 156.402 135.888 184.701 129.447C212.037 125.016 248.356 111.819 174.949 94.4823C39.2044 78.6309 21.3849 139.449 58.9684 133.311Z" fill="black" fill-opacity="0.15"/>
<path d="M152.034 86.7453C148.539 83.6362 143.873 84.4041 139.69 86.2771L138.891 86.352C133.593 87.2697 129.893 90.6223 127.514 95.2673C124.8 100.568 127.644 105.569 131.641 108.977C136.158 112.798 142.293 114.409 148.111 114.165C152.833 113.959 158.726 109.876 159.172 104.782C159.73 98.2827 156.83 91.0718 152.034 86.7453Z" fill="#5F3913"/>
<path d="M238.272 109.483C237.659 108.078 236.785 107.161 235.8 106.486L235.614 106.355L234.963 105.925C232.547 104.501 228.754 104.707 226.393 105.1C220.538 106.093 216.281 109.277 216.504 115.739C216.708 121.976 223.754 123.062 228.438 121.751C232.937 120.459 240.931 115.327 238.272 109.483Z" fill="#5F3913"/>
<g clip-path="url(#clip0_26_691)">
<path d="M120.234 73.8046C120.083 75.3753 119.78 76.9353 119.744 78.5126C119.63 83.5379 121.483 88.2446 125.242 91.5819C127.575 93.6539 130.245 95.3406 132.426 97.5739C134.486 99.6833 136.067 102.258 137.018 105.05C137.21 101.505 138.176 98.0046 139.827 94.8619C142.091 90.5539 145.691 86.7179 146.246 81.8819C146.935 75.8819 141.466 71.6526 141.804 66.1486C141.97 63.4393 142.991 59.9886 143.85 57.3966C145.426 52.6352 147.562 47.8393 147.168 42.8379C146.715 37.0686 143.056 32.3379 140.106 27.5992C137.684 23.7086 134.575 20.1419 134.087 15.4526C133.658 11.3259 134.614 6.75392 132.304 3.30726C129.456 -0.940743 124.084 -0.766086 120.219 1.96325C115.554 5.25658 113.609 11.8139 114.477 17.2819C115.066 20.9979 116.895 24.5793 116.522 28.3233C116.145 32.1153 113.564 35.0433 112.533 38.6046C109.764 48.1686 113.691 56.3739 118.308 64.4579C119.76 66.9979 120.444 69.9619 120.303 72.8846C120.288 73.1913 120.264 73.4993 120.234 73.8046" fill="#71A82C"/>
<path d="M119.948 81.5898L119.922 81.4156C119.871 81.0699 119.82 80.7241 119.793 80.3725C120.292 80.6725 120.776 80.9645 121.243 81.2472L124.568 83.2002C126.153 84.1311 127.99 85.21 130.29 86.5605C131.845 87.4729 132.997 88.1651 133.567 88.5581C134.142 88.105 135.529 87.1653 137.466 85.8537C137.592 85.7682 137.721 85.6811 137.852 85.5925C140.108 84.0645 143.03 82.0551 146.242 79.7431C146.284 80.1111 146.303 80.4858 146.301 80.8658C143.245 83.0085 140.441 84.8205 138.221 86.1658C136.086 87.4616 134.5 88.3385 133.751 88.6896C133.907 88.8064 133.981 88.8816 133.966 88.9112C133.947 88.9473 133.785 88.9084 133.499 88.8011C133.363 88.8558 133.287 88.874 133.275 88.8538C133.265 88.8372 133.29 88.8001 133.349 88.7433C132.679 88.4784 131.499 87.9317 129.964 87.1605C127.556 85.9525 124.281 84.1792 120.749 82.0765C120.571 81.9712 120.403 81.8682 120.234 81.7645C120.14 81.7066 120.045 81.6486 119.948 81.5898Z" fill="#638528"/>
<path d="M120.239 69.2464L120.237 69.2454C120.164 69.2 120.092 69.1549 120.018 69.1098C120.099 69.5232 120.165 69.9405 120.212 70.3592C123.083 72.1165 125.767 73.5632 127.765 74.5325C129.839 75.5392 131.171 76.0578 131.228 75.9432C131.298 75.8039 129.797 74.9276 127.437 73.55C125.527 72.4347 123.054 70.9906 120.395 69.3432C120.343 69.3108 120.291 69.2785 120.239 69.2464Z" fill="#638528"/>
<path d="M113.279 54.0352C113.43 54.4632 113.583 54.8913 113.75 55.3153C114.488 55.6779 115.242 56.0446 116.025 56.4153C119.563 58.0873 122.825 59.4766 125.214 60.4086C127.604 61.3406 129.117 61.8273 129.167 61.7073C129.219 61.5806 127.799 60.8713 125.484 59.7806L123.143 58.6838C120.291 57.3479 118.258 56.3957 116.437 55.5419C115.896 55.2845 115.334 55.016 114.737 54.7311L114.717 54.7216C114.26 54.5033 113.783 54.2753 113.279 54.0352Z" fill="#638528"/>
<path d="M111.973 41.0667C112.009 40.8324 112.046 40.5981 112.095 40.3616C113.011 40.8176 113.96 41.2936 114.936 41.7883C121.903 45.323 127.454 48.3816 127.333 48.619C127.212 48.8576 121.466 46.1843 114.499 42.6496C113.617 42.2016 112.758 41.763 111.93 41.3349C111.945 41.2455 111.959 41.1561 111.973 41.0667Z" fill="#638528"/>
<path d="M116.54 26.6458C116.564 27.0631 116.559 27.4818 116.535 27.9031L116.758 28.0944C116.911 28.2262 117.065 28.3587 117.221 28.4925C121.945 32.5418 125.915 35.6605 126.089 35.4578C126.262 35.2565 122.573 31.8098 117.85 27.7605C117.405 27.3778 116.97 27.0085 116.54 26.6458Z" fill="#638528"/>
<path d="M115.975 14.6622C115.411 14.2488 114.863 13.8461 114.326 13.4515C114.299 13.8381 114.285 14.2248 114.284 14.6101C114.65 14.8848 115.022 15.1621 115.404 15.4408C120.712 19.3435 125.304 22.0861 125.444 21.8688C125.565 21.6839 122.771 19.6386 118.913 16.8158L118.912 16.8146C117.985 16.1369 116.998 15.4144 115.975 14.6622Z" fill="#638528"/>
<path d="M125.336 22.7166C125.247 22.6126 126.355 21.5085 128.179 19.7672C130.256 17.7843 131.841 16.2703 133.178 14.9935L133.999 14.2099C134.018 14.6259 134.044 15.0406 134.087 15.4486C132.027 17.3712 130.131 19.0339 128.633 20.2779C126.688 21.8926 125.421 22.8152 125.336 22.7166Z" fill="#638528"/>
<path d="M138.188 24.6806C138.104 24.5529 138.019 24.4252 137.934 24.2979L135.487 26.2372C133.695 27.657 131.683 29.2507 129.191 31.2246C126.75 33.1552 125.257 34.3766 125.337 34.4872C125.414 34.5926 127.049 33.5659 129.599 31.7726C131.954 30.1166 135.083 27.7926 138.471 25.1072C138.376 24.9652 138.282 24.8229 138.188 24.6806Z" fill="#638528"/>
<path d="M127.018 47.7952C126.939 47.6819 128.567 46.4045 131.204 44.3539C133.842 42.3045 137.474 39.4645 141.412 36.2352C142.336 35.4765 143.233 34.7325 144.102 34.0058C144.159 34.1059 144.216 34.2053 144.274 34.3046C144.378 34.4832 144.481 34.6615 144.579 34.8432C143.755 35.5458 142.905 36.2592 142.025 36.9818C138.071 40.2232 134.357 42.9898 131.61 44.9032C128.861 46.8192 127.092 47.9005 127.018 47.7952Z" fill="#638528"/>
<path d="M133.143 57.2166C130.349 59.5499 128.641 61.0232 128.725 61.1299C128.805 61.2325 130.661 59.9499 133.568 57.7512C136.475 55.5526 140.425 52.4272 144.69 48.8579C145.47 48.2046 146.226 47.5645 146.969 46.9299C147.041 46.4699 147.088 46.0072 147.128 45.5446C146.18 46.3414 145.258 47.1174 144.343 47.8884L144.07 48.1179C140.82 50.8232 137.561 53.5366 133.143 57.2166Z" fill="#638528"/>
<path d="M134.313 72.5026C136.278 71.2428 138.96 69.524 141.849 67.5193C141.886 67.8739 141.943 68.2246 142.02 68.5713C139.211 70.4873 136.575 72.0646 134.594 73.1339C132.493 74.2699 131.136 74.8606 131.075 74.7486C131.006 74.6223 132.275 73.8093 134.313 72.5026Z" fill="#638528"/>
<path d="M126.507 79.7875C126.159 79.4163 125.81 79.0449 125.476 78.6619C125.296 78.4579 125.121 78.2485 124.951 78.0352C123.34 76.0045 122.301 73.5179 122.034 70.9392C121.182 62.7365 119.77 54.8005 112.836 49.3459C111.766 48.5042 110.56 47.8785 109.356 47.2538C107.656 46.3713 105.959 45.4907 104.653 44.0059C103.249 42.4107 102.523 40.4002 101.794 38.3799C101.38 37.2322 100.964 36.0814 100.423 35.0019C98.2216 30.6179 93.4352 26.9032 88.3753 26.9419C84.183 26.9739 80.2264 29.6232 80.371 34.1526C80.4537 36.7326 81.9824 38.8804 83.5169 41.0364C84.1671 41.9501 84.8184 42.8652 85.3612 43.8152C86.9951 46.6756 87.0941 49.8749 87.1936 53.0864C87.2203 53.9483 87.247 54.8112 87.3034 55.6685C87.354 56.4368 87.3921 57.2139 87.4304 57.9948C87.6381 62.2299 87.8515 66.5811 90.0925 70.2859C91.9936 73.428 95.0658 75.5789 98.1043 77.7063C98.7418 78.1527 99.3779 78.598 100.001 79.0512C101.958 80.4726 104.475 82.4299 105.995 84.2939C107.47 86.1033 107.84 88.3883 108.216 90.7137C108.628 93.2547 109.047 95.8441 110.925 97.9139C112.93 100.125 115.74 101.238 118.558 102.354C119.81 102.85 121.064 103.347 122.25 103.941C125.062 105.35 127.565 107.37 129.534 109.823C128.777 107.322 128.585 104.651 128.978 102.069C129.223 100.459 129.688 98.8986 130.154 97.3369C130.479 96.246 130.804 95.1546 131.054 94.0459C132.036 89.7019 130.938 85.3565 128.261 81.7979C127.726 81.0868 127.117 80.4373 126.507 79.7875Z" fill="#6FC42D"/>
<path d="M136.581 78.1492C136.735 77.6672 136.888 77.1853 137.025 76.6992C137.098 76.4365 137.167 76.1725 137.228 75.9072C137.809 73.3805 137.676 70.6885 136.809 68.2458C134.048 60.4752 131.907 52.7032 135.819 44.7965C136.423 43.5761 137.242 42.4923 138.06 41.4102C139.215 39.8818 140.368 38.3568 140.908 36.4552C141.488 34.4116 141.278 32.2845 141.068 30.1476C140.948 28.9328 140.827 27.7148 140.852 26.5072C140.952 21.6018 143.674 16.1898 148.258 14.0472C152.056 12.2725 156.768 12.9605 158.586 17.1112C159.622 19.4762 159.166 22.072 158.709 24.6778C158.515 25.783 158.321 26.8899 158.24 27.9818C157.996 31.2669 159.283 34.1972 160.575 37.1388C160.922 37.9282 161.269 38.7184 161.587 39.5165C161.872 40.2316 162.172 40.9492 162.473 41.6705C164.109 45.5832 165.789 49.6027 165.36 53.9112C164.997 57.5657 163.149 60.8278 161.322 64.0541C160.938 64.7323 160.555 65.4089 160.187 66.0872C159.033 68.2138 157.602 71.0632 157.033 73.3992C156.48 75.6672 157.13 77.889 157.79 80.1501C158.512 82.621 159.248 85.1389 158.444 87.8152C157.585 90.6745 155.527 92.8881 153.463 95.1085C152.547 96.0948 151.629 97.0824 150.814 98.1285C148.882 100.611 147.493 103.513 146.77 106.574C146.377 103.99 145.401 101.498 143.935 99.3352C143.021 97.9876 141.929 96.7783 140.837 95.5681C140.074 94.7236 139.311 93.8786 138.608 92.9858C135.854 89.4872 134.974 85.0912 135.86 80.7285C136.037 79.8531 136.309 79.0011 136.581 78.1492Z" fill="#6FC42D"/>
<path d="M123.753 96.1895C123.825 96.2001 123.862 96.2138 123.863 96.2309C123.865 96.2518 123.801 96.2782 123.675 96.3089C123.524 96.5343 123.427 96.646 123.395 96.6298C123.369 96.6163 123.383 96.5236 123.435 96.3591C122.715 96.4928 121.12 96.6804 118.914 96.8509C116.622 97.0296 113.667 97.1736 110.36 97.2109C110.163 96.9376 109.983 96.6576 109.823 96.3722C113.329 96.3762 116.471 96.3122 118.884 96.2469L119.296 96.2358C121.368 96.1798 122.852 96.1396 123.5 96.1689C123.707 95.591 124.179 94.4981 124.827 93.0391L128.595 84.5404C128.735 84.213 128.879 83.8769 129.027 83.5327L129.186 83.1618C129.346 83.4251 129.486 83.6959 129.626 83.9671L129.704 84.1178C129.659 84.2209 129.617 84.3223 129.574 84.4235L129.574 84.4249C129.51 84.5757 129.447 84.7265 129.379 84.8818C127.922 88.2205 126.481 91.1884 125.372 93.3018C124.665 94.65 124.098 95.6531 123.753 96.1895Z" fill="#689C2D"/>
<path d="M123.206 75.1711C123.362 75.5111 123.53 75.8445 123.712 76.1711C122.553 78.9191 121.368 81.3458 120.431 83.0765C119.458 84.8725 118.767 85.9338 118.667 85.8805C118.546 85.8157 119.172 84.4131 120.157 82.207C120.956 80.4166 121.991 78.0969 123.055 75.5338L123.206 75.1711Z" fill="#689C2D"/>
<path d="M120.27 60.8392C120.383 61.2245 120.493 61.6125 120.592 62.0045C120.248 62.6472 119.895 63.3005 119.523 63.9698C117.84 67.0018 116.21 69.6872 114.971 71.5925C113.733 73.4979 112.895 74.6298 112.797 74.5685C112.694 74.5045 113.35 73.2605 114.453 71.2805L115.52 69.3725C116.91 66.889 117.894 65.1291 118.775 63.5552L120.27 60.8392Z" fill="#689C2D"/>
<path d="M114.507 50.8245C114.361 50.6768 114.215 50.5289 114.059 50.3858C113.635 51.1871 113.199 52.0191 112.752 52.8804C109.562 59.0231 107.147 64.0924 107.356 64.2004C107.566 64.3098 110.322 59.4178 113.511 53.2738C113.915 52.4964 114.305 51.7364 114.681 51.0004C114.622 50.942 114.564 50.8832 114.507 50.8245Z" fill="#689C2D"/>
<path d="M103.774 42.8085C103.972 43.1218 104.192 43.4205 104.427 43.7112L104.397 43.8347C104.345 44.0513 104.292 44.2692 104.238 44.4898C102.93 49.8445 101.683 54.1405 101.453 54.0845C101.223 54.0285 102.098 49.6418 103.407 44.2872C103.53 43.7832 103.653 43.2912 103.774 42.8085Z" fill="#689C2D"/>
<path d="M97.9907 33.8912C98.1828 33.3019 98.3693 32.7285 98.5516 32.1672C98.7713 32.4312 98.9808 32.7032 99.1808 32.9792C99.0589 33.3659 98.9339 33.7579 98.8043 34.1552C96.9991 39.7072 95.1109 44.0525 94.8969 43.9699C94.7137 43.8987 95.6751 40.9653 97 36.9223C97.3134 35.9663 97.647 34.9482 97.9907 33.8912Z" fill="#689C2D"/>
<path d="M95.4129 44.5232C95.4233 44.4032 94.0556 44.1805 91.8436 43.8698C89.0536 43.4765 86.9954 43.1867 85.2678 42.9433L84.7837 42.8752C84.9842 43.1858 85.179 43.4965 85.3598 43.8125C87.8353 44.1325 90.0593 44.3498 91.7801 44.4712C94.0145 44.6298 95.403 44.6378 95.4129 44.5232Z" fill="#689C2D"/>
<path d="M87.1752 52.5358C87.1705 52.4139 87.1658 52.292 87.1616 52.17C89.9023 52.3007 92.8752 52.442 97.0335 52.6394C99.7878 52.7687 101.493 52.8754 101.492 52.9967C101.492 53.1127 99.7846 53.218 97.022 53.2447C94.4726 53.2687 91.0195 53.2127 87.193 53.03C87.1878 52.8653 87.1815 52.7005 87.1752 52.5358Z" fill="#689C2D"/>
<path d="M107.157 63.4445C107.155 63.3219 105.323 63.2432 102.366 63.1299C99.4092 63.0179 95.3273 62.8486 90.8248 62.5592C89.768 62.4899 88.7373 62.4179 87.7373 62.3432C87.747 62.4362 87.7559 62.5291 87.7648 62.622C87.7831 62.8129 87.8014 63.0038 87.8264 63.1939C88.7821 63.2726 89.7622 63.3472 90.7696 63.4125C95.2898 63.7045 99.392 63.7765 102.359 63.7352C105.326 63.6939 107.158 63.5579 107.157 63.4445Z" fill="#689C2D"/>
<path d="M107.615 73.3898C110.832 73.6258 112.822 73.8044 112.817 73.9244C112.813 74.0404 110.814 74.0751 107.586 73.9938C104.357 73.9124 99.9002 73.7044 94.9862 73.3378C94.0878 73.2711 93.2116 73.2004 92.3496 73.1284C92.0602 72.8338 91.7878 72.5258 91.52 72.2124C92.4093 72.2815 93.2792 72.3483 94.1418 72.4146L94.1636 72.4163L94.165 72.4164L95.0496 72.4844L99.0455 72.7722C101.581 72.9548 104.317 73.1518 107.615 73.3898Z" fill="#689C2D"/>
<path d="M114.675 84.9977C112.609 85.1061 109.789 85.254 106.671 85.3032C106.827 85.5778 106.967 85.8605 107.091 86.1485C110.102 86.0779 112.814 85.8512 114.793 85.5978C116.892 85.3298 118.174 85.0538 118.16 84.9418C118.144 84.8157 116.814 84.8855 114.675 84.9977Z" fill="#689C2D"/>
<path d="M141.321 23.1429C141.727 23.5709 142.142 24.0083 142.569 24.4576C143.326 25.2549 144.058 26.0221 144.745 26.7433C147.692 29.8342 149.834 32.0803 149.699 32.223C149.542 32.391 145.967 29.2816 141.949 25.047C141.66 24.743 141.379 24.4429 141.103 24.1456C141.164 23.811 141.237 23.4763 141.321 23.1429Z" fill="#689C2D"/>
<path d="M141.186 34.9968C141.142 35.3634 141.072 35.7288 140.985 36.0915C141.099 36.2325 141.213 36.3729 141.329 36.5149L141.491 36.7141C144.976 40.9848 147.95 44.3261 148.133 44.1768C148.316 44.0261 145.639 40.4434 142.154 36.1728C141.826 35.7701 141.504 35.3794 141.186 34.9968Z" fill="#689C2D"/>
<path d="M134.946 46.8553C135.015 46.6578 135.083 46.4598 135.163 46.2618C135.89 46.8018 136.643 47.3658 137.416 47.9498C142.939 52.1231 147.3 55.6591 147.158 55.8485C147.015 56.0365 142.423 52.8058 136.901 48.6325C136.201 48.1045 135.521 47.5871 134.866 47.0845L134.898 46.9945L134.946 46.8553Z" fill="#689C2D"/>
<path d="M134.055 58.3698C134.119 58.7672 134.186 59.1645 134.265 59.5605C134.852 59.9925 135.452 60.4298 136.076 60.8752C138.9 62.8885 141.527 64.6098 143.465 65.7965C145.403 66.9832 146.646 67.6445 146.708 67.5472C146.773 67.4458 145.646 66.6045 143.799 65.2912C140.486 62.9472 138.396 61.4685 136.572 60.1792C135.807 59.6285 134.987 59.0392 134.055 58.3698Z" fill="#689C2D"/>
<path d="M149.471 32.9459C149.41 32.8419 150.549 32.0526 152.412 30.8206C154.059 29.7295 155.404 28.8395 156.562 28.0731L158.357 26.8846C158.309 27.2513 158.267 27.6152 158.24 27.9793C156.143 29.3326 154.229 30.4859 152.728 31.3352C150.779 32.4406 149.53 33.0459 149.471 32.9459Z" fill="#689C2D"/>
<path d="M160.344 36.6078L160.251 36.3917L160.21 36.2976C158.586 37.1691 156.869 38.09 154.805 39.1973L151.501 40.9696C149.07 42.2709 147.577 43.1016 147.63 43.2109C147.68 43.3136 149.267 42.6749 151.772 41.5109C154.084 40.4349 157.177 38.8989 160.552 37.0869C160.482 36.9275 160.413 36.7676 160.344 36.6078Z" fill="#689C2D"/>
<path d="M147.012 55.0791C146.96 54.9684 148.581 54.1084 151.201 52.7337C153.822 51.3591 157.434 49.4511 161.374 47.2524C162.298 46.7351 163.197 46.2258 164.068 45.7284C164.102 45.8258 164.138 45.9228 164.173 46.0197C164.235 46.1909 164.297 46.3618 164.354 46.5337C163.525 47.0177 162.672 47.5071 161.791 47.9991C157.836 50.2071 154.165 52.0378 151.469 53.2764C148.772 54.5164 147.06 55.1818 147.012 55.0791Z" fill="#689C2D"/>
<path d="M137.864 72.8338L137.571 72.5698C137.577 72.9444 137.569 73.3178 137.545 73.6911C139.774 75.6725 141.888 77.3538 143.478 78.5125C145.13 79.7151 146.21 80.3765 146.278 80.2845C146.36 80.174 145.189 79.1756 143.348 77.6059C141.857 76.3341 139.925 74.6873 137.864 72.8338Z" fill="#689C2D"/>
<path d="M135.556 83.4432L135.559 83.3627L135.562 83.2587C135.572 82.9588 135.581 82.6586 135.612 82.3566C135.979 82.68 136.336 82.9938 136.682 83.2969L136.739 83.3472C138.567 84.9139 140.613 86.6686 143.797 89.3966C145.01 90.436 145.906 91.2198 146.342 91.6521C146.914 91.3469 148.271 90.7447 150.164 89.9043C150.288 89.8493 150.414 89.7934 150.542 89.7364C152.749 88.7564 155.612 87.4617 158.774 85.9497C158.753 86.2764 158.711 86.6057 158.651 86.9377C155.65 88.3271 152.921 89.4684 150.774 90.2951C148.71 91.09 147.189 91.6063 146.481 91.7956C146.599 91.9221 146.653 91.9996 146.634 92.0233C146.612 92.0515 146.477 91.992 146.244 91.8534C146.117 91.8798 146.048 91.8838 146.04 91.8644C146.034 91.8484 146.062 91.8199 146.122 91.7794C145.58 91.4434 144.636 90.7818 143.418 89.8686C141.508 88.4379 138.93 86.3793 136.178 83.9926C136.043 83.8762 135.915 83.7623 135.787 83.6479C135.711 83.5803 135.634 83.5119 135.556 83.4432Z" fill="#689C2D"/>
<path d="M150.878 64.2539C148.076 65.8512 146.357 66.8685 146.413 66.9752C146.467 67.0778 148.286 66.2499 151.165 64.7859C154.044 63.3245 157.977 61.2178 162.256 58.7725C163.038 58.3258 163.798 57.8845 164.546 57.4485C164.681 57.0579 164.794 56.6632 164.901 56.2645L164.033 56.7636L164.029 56.7661C163.288 57.1927 162.558 57.6123 161.832 58.0298C158.574 59.8805 155.308 61.7365 150.878 64.2539Z" fill="#689C2D"/>
<path d="M146.331 79.2192C146.29 79.0984 147.523 78.5883 149.504 77.7684C151.415 76.9774 154.023 75.8981 156.857 74.6019C156.834 74.9165 156.829 75.2312 156.842 75.5459C154.093 76.7765 151.547 77.7392 149.652 78.3619C147.642 79.0232 146.366 79.3272 146.331 79.2192Z" fill="#689C2D"/>
<path d="M136.404 127.074C136.542 127.022 136.178 125.689 135.4 123.319C134.629 120.947 133.401 117.557 131.79 113.402C128.574 105.09 123.707 93.7606 117.616 81.5912C111.514 69.4272 105.352 58.7485 100.619 51.1979C98.2544 47.4205 96.2736 44.4059 94.8346 42.3685C93.4028 40.3272 92.5528 39.2379 92.4278 39.3166C92.2038 39.4602 94.1323 42.8501 97.3607 48.5253L97.3623 48.528C97.9703 49.5968 98.6244 50.7467 99.319 51.9712C103.706 59.6965 109.629 70.4405 115.703 82.5499C121.767 94.6645 126.829 105.841 130.392 113.979C130.958 115.269 131.487 116.481 131.98 117.608L131.98 117.609C134.594 123.594 136.155 127.168 136.404 127.074Z" fill="#557C2A"/>
<path d="M142.072 125.389C142.215 125.351 141.961 123.811 141.38 121.065C140.622 117.554 139.793 113.71 138.873 109.447C136.76 99.6432 134.03 86.0632 131.618 70.9606C129.219 55.8552 127.595 42.0992 126.558 32.1245C126.22 28.8632 125.907 25.8438 125.615 23.0282L125.333 20.3032C125.031 17.5112 124.794 15.9699 124.647 15.9779C124.499 15.9859 124.456 17.5432 124.502 20.3566C124.539 23.1699 124.721 27.2352 125.051 32.2539C125.705 42.2886 127.097 56.1312 129.506 71.2965C131.927 86.4605 134.904 100.051 137.4 109.793C138.645 114.665 139.735 118.586 140.574 121.271C141.404 123.961 141.929 125.427 142.072 125.389Z" fill="#557C2A"/>
<path d="M147.914 114.666C148.129 121.186 148.258 125.079 147.993 125.102C147.846 125.114 147.601 123.754 147.284 121.281C146.959 118.807 146.609 115.218 146.275 110.774C145.6 101.887 145.118 89.5672 145.381 75.9605C145.654 62.3552 146.621 50.0632 147.644 41.2098C148.153 36.7832 148.644 33.2098 149.067 30.7525C149.481 28.2938 149.779 26.9445 149.926 26.9619C150.19 26.9944 149.907 30.8873 149.435 37.4047C149.346 38.6298 149.251 39.9475 149.151 41.3498C148.515 50.2112 147.792 62.4592 147.519 76.0032C147.258 89.5472 147.499 101.814 147.785 110.694C147.83 112.106 147.874 113.433 147.914 114.666Z" fill="#557C2A"/>
</g>
<path d="M212.99 84.966C207.283 76.107 194.53 64.7381 183.023 68.8773C180.811 69.7014 178.692 70.7503 176.628 71.9115C175.699 72.0988 174.769 72.3798 173.84 72.8667C162.091 79.0849 149.766 91.9896 143.669 103.864C129.485 131.49 180.848 132.071 195.962 130.366C202.059 129.673 224.627 127.482 226.17 119.016C228.624 105.718 219.645 95.3047 212.99 84.966Z" fill="#8A5D3B"/>
<path d="M184.399 130.928C177.279 130.928 168.784 130.366 161.218 128.7C161.403 128.55 161.571 128.4 161.738 128.213C163.541 126.059 162.705 120.889 161.534 118.586C159.768 115.102 157.481 112.704 153.689 111.749C153.094 111.599 152.499 111.543 151.923 111.543C151.476 111.543 151.03 111.581 150.584 111.656C150.268 110.663 149.785 109.708 149.134 108.809C147.758 106.898 146.123 104.726 144.301 102.684C147.498 96.8218 152.183 90.7722 157.481 85.4343C157.239 86.5955 157.053 87.7755 156.979 88.9741C155.808 105.494 168.449 115.308 183.339 118.473C186.648 119.185 190.013 119.559 193.285 119.559C206.019 119.559 217.266 113.791 219.013 99.1256C219.218 97.3275 219.162 95.6231 218.957 93.9375C223.847 101.504 227.899 109.502 226.189 118.96C226.189 118.979 226.189 118.998 226.17 119.016C225.947 120.215 225.315 121.283 224.367 122.238C218.586 128.063 201.204 129.767 195.962 130.366C193.155 130.685 189.065 130.928 184.399 130.928Z" fill="#7E5131"/>
<path d="M59.9739 114.345C55.8284 109.962 51.4226 110.411 47.2957 112.565C46.1431 112.771 45.0091 113.052 43.9681 113.408C40.12 114.757 27.5719 121.106 33.8553 126.875C37.1456 129.871 41.4213 129.89 45.6412 130.19C50.2329 130.508 56.5162 130.546 60.7919 128.729C68.5624 125.395 64.2868 118.896 59.9739 114.345Z" fill="#5F3913"/>
<path d="M50.2328 130.358C48.6155 130.358 47.054 130.284 45.6412 130.19C41.4213 129.89 37.1456 129.872 33.8552 126.875C33.5392 126.575 33.2603 126.275 33.0373 125.976C33.2603 126.275 33.5392 126.575 33.8552 126.875C37.1456 129.872 41.4213 129.89 45.6412 130.19C47.054 130.284 48.6155 130.358 50.2328 130.358C53.895 130.358 57.8361 129.984 60.7919 128.729C63.9335 127.38 65.1047 125.508 65.1047 123.466C65.1047 125.508 63.9335 127.38 60.7919 128.729C57.8361 129.984 53.895 130.358 50.2328 130.358ZM32.1821 122.867C32.2007 122.754 32.2193 122.642 32.2379 122.548C32.2193 122.661 32.2007 122.754 32.1821 122.867ZM59.9739 114.345C59.8252 114.176 59.6765 114.026 59.5278 113.895C59.6765 114.026 59.8252 114.176 59.9739 114.345Z" fill="#748535"/>
<path d="M50.2331 130.358C48.6157 130.358 47.0542 130.283 45.6414 130.189C41.4215 129.89 37.1458 129.871 33.8554 126.874C33.5394 126.575 33.2606 126.275 33.0375 125.975C32.2567 124.945 32.015 123.896 32.1824 122.866C32.2009 122.754 32.2195 122.66 32.2381 122.548C35.1381 126.331 42.4068 128.129 48.6343 128.129C52.2036 128.129 55.4568 127.549 57.3158 126.387C62.428 123.241 60.4389 116.03 56.1818 111.647C57.3158 112.115 58.4312 112.827 59.528 113.895C59.6767 114.026 59.8254 114.176 59.9741 114.344C62.5395 117.06 65.1049 120.469 65.1049 123.466C65.1049 125.507 63.9338 127.38 60.7921 128.729C57.8363 129.983 53.8953 130.358 50.2331 130.358Z" fill="#532F11"/>
<path d="M161.533 118.585C159.767 115.102 157.481 112.704 153.688 111.749C149.766 110.775 145.806 113.397 142.479 115.27C141.754 115.495 141.047 115.776 140.397 116.169C137.069 118.211 137.088 121.938 139.727 124.597C142.553 127.426 147.293 127.351 151.011 127.856C153.911 128.25 159.358 131.059 161.738 128.212C163.541 126.058 162.704 120.889 161.533 118.585Z" fill="#5F3913"/>
<path d="M111.077 96.5327C108.772 96.3828 100.072 98.2745 100.778 101.889L100.871 102.058L100.091 102.994C97.6368 107.471 100.964 112.996 105.761 113.483C108.363 113.745 111.728 113.165 114.126 112.134C116.598 111.067 117.77 109.999 118.253 107.227C118.978 102.957 115.669 96.7949 111.077 96.5327Z" fill="#5F3913"/>
<path d="M91.6511 93.8167C84.9587 91.1197 77.783 97.3941 73.6189 103.294C70.9048 106.028 68.7298 109.306 67.4285 112.509C60.9407 128.429 101.857 126.931 105.724 113.164C107.88 105.466 97.8972 96.3077 91.6511 93.8167Z" fill="#744B27"/>
<path d="M148.833 108.37C145.115 103.219 139.556 96.1395 132.734 95.3154C127.77 94.6973 123.03 100.354 119.182 104.38C115.148 106.928 111.541 109.606 108.772 113.989C106.801 117.135 103.362 125.845 108.047 128.654C114.256 132.344 122.379 133.599 129.481 132.831C134.965 132.231 142.345 130.546 146.081 126.088C149.929 121.518 152.811 113.876 148.833 108.37Z" fill="#744B27"/>
<path d="M105.63 113.464C105.668 113.37 105.686 113.277 105.723 113.164C106.058 111.947 106.095 110.692 105.891 109.437C106.095 110.692 106.058 111.947 105.723 113.164C105.686 113.277 105.668 113.37 105.63 113.464Z" fill="#543010"/>
<path d="M82.2814 123.971C73.9903 123.971 66.7217 121.349 66.7403 115.712C66.7403 114.738 66.9448 113.67 67.4281 112.509C67.7441 111.741 68.0973 110.973 68.5063 110.205C72.1127 115.656 82.0955 117.716 89.5128 117.716C91.1859 117.716 92.7102 117.603 94.0301 117.416C101.689 116.274 103.883 109.081 102.451 102.32C104.199 104.549 105.5 107.003 105.89 109.437C106.095 110.692 106.058 111.947 105.723 113.165C105.686 113.277 105.667 113.371 105.63 113.464C103.437 120.244 92.134 123.971 82.2814 123.971Z" fill="#67401F"/>
<path d="M125.392 133.037C119.406 133.037 113.085 131.651 108.047 128.654C106.318 127.624 105.686 125.788 105.705 123.709C105.705 120.188 107.527 115.974 108.772 113.989C109.609 112.678 110.538 111.554 111.505 110.505C111.319 112.415 111.431 114.326 111.951 116.274C113.922 123.372 121.097 125.357 127.845 125.357C130.225 125.357 132.567 125.114 134.594 124.739C136.322 124.44 138.051 123.859 139.687 123.035C139.762 123.11 139.836 123.204 139.929 123.279C141.583 124.927 143.907 125.526 146.268 125.863C146.212 125.938 146.138 126.013 146.082 126.088C142.346 130.546 134.965 132.231 129.481 132.831C128.143 132.962 126.786 133.037 125.392 133.037Z" fill="#67401F"/>
<defs>
<clipPath id="clip0_26_691">
<rect width="93" height="112" fill="white" transform="translate(80)"/>
</clipPath>
</defs>
</svg>
