<svg width="260" height="288" viewBox="0 0 260 288" fill="none" xmlns="http://www.w3.org/2000/svg">
    <path d="M237.27 272.442C178.378 268.846 169.455 286.827 123.054 286.827C98.0696 286.827 87.362 290.423 42.7464 285.029C-32.2077 276.039 23.1156 267.048 14.1924 263.453C-9.00769 258.059 -5.43845 245.472 37.3925 236.482C244.409 193.329 296.163 276.039 237.27 272.442Z" fill="black" fill-opacity="0.15"/>
    <path d="M58.9684 271.312C96.5519 265.173 103.453 276.671 133.248 273.735C149.292 272.154 156.402 273.889 184.701 267.448C212.037 263.017 248.356 249.82 174.949 232.483C39.2044 216.632 21.3849 277.45 58.9684 271.312Z" fill="black" fill-opacity="0.15"/>
    <path d="M152.034 224.746C148.539 221.637 143.873 222.405 139.69 224.278L138.891 224.353C133.593 225.271 129.893 228.623 127.514 233.268C124.8 238.569 127.644 243.569 131.641 246.978C136.158 250.799 142.293 252.41 148.111 252.166C152.833 251.96 158.726 247.877 159.172 242.783C159.73 236.284 156.83 229.073 152.034 224.746Z" fill="#5F3913"/>
    <path d="M238.272 247.484C237.659 246.079 236.785 245.162 235.8 244.487L235.614 244.356L234.963 243.926C232.547 242.502 228.754 242.708 226.393 243.101C220.538 244.094 216.281 247.278 216.504 253.74C216.708 259.977 223.754 261.063 228.438 259.752C232.937 258.46 240.931 253.328 238.272 247.484Z" fill="#5F3913"/>
    <path d="M212.99 222.967C207.283 214.108 194.53 202.739 183.023 206.878C180.811 207.702 178.692 208.751 176.628 209.913C175.699 210.1 174.769 210.381 173.84 210.868C162.091 217.086 149.766 229.991 143.668 241.865C129.484 269.491 180.848 270.072 195.962 268.367C202.059 267.674 224.627 265.483 226.17 257.017C228.624 243.719 219.645 233.306 212.99 222.967Z" fill="#8A5D3B"/>
    <path d="M184.399 268.929C177.279 268.929 168.784 268.367 161.218 266.701C161.403 266.551 161.571 266.401 161.738 266.214C163.541 264.06 162.705 258.89 161.534 256.587C159.768 253.103 157.481 250.706 153.689 249.75C153.094 249.6 152.499 249.544 151.923 249.544C151.476 249.544 151.03 249.582 150.584 249.657C150.268 248.664 149.785 247.709 149.134 246.81C147.758 244.899 146.123 242.727 144.301 240.685C147.498 234.823 152.183 228.773 157.481 223.435C157.239 224.597 157.053 225.776 156.979 226.975C155.808 243.495 168.449 253.309 183.339 256.474C186.648 257.186 190.013 257.561 193.285 257.561C206.019 257.561 217.266 251.792 219.013 237.127C219.218 235.329 219.162 233.624 218.957 231.939C223.847 239.505 227.899 247.503 226.189 256.961C226.189 256.98 226.189 256.999 226.17 257.017C225.947 258.216 225.315 259.284 224.367 260.239C218.586 266.064 201.204 267.768 195.962 268.367C193.155 268.686 189.065 268.929 184.399 268.929Z" fill="#7E5131"/>
    <path d="M59.9739 252.346C55.8284 247.963 51.4226 248.412 47.2957 250.566C46.1431 250.772 45.0091 251.053 43.9681 251.409C40.12 252.758 27.5719 259.107 33.8553 264.876C37.1456 267.872 41.4213 267.891 45.6412 268.191C50.2329 268.509 56.5162 268.547 60.7919 266.73C68.5624 263.396 64.2868 256.897 59.9739 252.346Z" fill="#5F3913"/>
    <path d="M50.2328 268.359C48.6155 268.359 47.054 268.284 45.6412 268.191C41.4213 267.891 37.1456 267.872 33.8552 264.876C33.5392 264.576 33.2603 264.276 33.0373 263.977C33.2603 264.276 33.5392 264.576 33.8552 264.876C37.1456 267.872 41.4213 267.891 45.6412 268.191C47.054 268.284 48.6155 268.359 50.2328 268.359C53.895 268.359 57.8361 267.985 60.7919 266.73C63.9335 265.381 65.1047 263.508 65.1047 261.467C65.1047 263.508 63.9335 265.381 60.7919 266.73C57.8361 267.985 53.895 268.359 50.2328 268.359ZM32.1821 260.868C32.2007 260.755 32.2193 260.643 32.2379 260.549C32.2193 260.662 32.2007 260.755 32.1821 260.868ZM59.9739 252.346C59.8252 252.177 59.6765 252.027 59.5278 251.896C59.6765 252.027 59.8252 252.177 59.9739 252.346Z" fill="#748535"/>
    <path d="M50.2331 268.359C48.6157 268.359 47.0542 268.284 45.6414 268.19C41.4215 267.891 37.1458 267.872 33.8554 264.875C33.5394 264.576 33.2606 264.276 33.0375 263.976C32.2567 262.946 32.015 261.897 32.1824 260.867C32.2009 260.755 32.2195 260.661 32.2381 260.549C35.1381 264.332 42.4068 266.13 48.6343 266.13C52.2036 266.13 55.4568 265.55 57.3158 264.388C62.428 261.242 60.4389 254.031 56.1818 249.648C57.3158 250.116 58.4312 250.828 59.528 251.896C59.6767 252.027 59.8254 252.177 59.9741 252.345C62.5395 255.061 65.1049 258.47 65.1049 261.467C65.1049 263.508 63.9338 265.381 60.7921 266.73C57.8363 267.984 53.8953 268.359 50.2331 268.359Z" fill="#532F11"/>
    <path d="M161.533 256.586C159.767 253.102 157.481 250.705 153.688 249.75C149.766 248.776 145.806 251.398 142.479 253.271C141.754 253.496 141.047 253.777 140.397 254.17C137.069 256.212 137.088 259.939 139.727 262.598C142.553 265.427 147.293 265.352 151.011 265.857C153.911 266.251 159.358 269.06 161.738 266.213C163.541 264.059 162.704 258.89 161.533 256.586Z" fill="#5F3913"/>
    <path d="M111.077 234.534C108.772 234.384 100.072 236.275 100.778 239.89L100.871 240.059L100.091 240.995C97.6368 245.472 100.964 250.997 105.761 251.484C108.363 251.746 111.728 251.165 114.126 250.135C116.598 249.068 117.77 248 118.253 245.228C118.978 240.958 115.669 234.796 111.077 234.534Z" fill="#5F3913"/>
    <path d="M89.74 111.798C87.1258 109.943 83.9775 109.038 80.8942 108.162C80.726 110.814 81.1139 112.731 82.7518 114.827C85.3225 118.117 88.9536 120.994 93.127 121.067C93.4361 121.072 94.2361 120.831 94.0788 120.563L94.152 119.868C94.369 116.671 92.3514 113.653 89.74 111.798Z" fill="#1F7A32"/>
    <path d="M116.093 103.188C113.761 106.943 111.361 110.778 107.909 113.541C104.457 116.304 99.6866 117.837 95.5294 116.332C95.2257 116.223 94.9274 116.098 94.6318 115.974C94.2196 116.079 94.2007 114.924 94.3254 114.517C96.0067 109.007 101.205 105.281 106.545 103.12C109.945 101.74 112.635 101.954 116.093 103.188Z" fill="#1F7A32"/>
    <path d="M118.02 84.2194C115.634 87.94 113.175 91.7392 109.679 94.4482C106.184 97.1545 101.389 98.6135 97.2566 97.0434C96.956 96.9297 96.6609 96.7997 96.3658 96.6697L96.3644 96.6691C95.9495 96.7722 95.9495 95.6143 96.0823 95.2102C97.8477 89.727 103.103 86.0851 108.475 84.0052C111.897 82.6791 114.585 82.9368 118.02 84.2194Z" fill="#1F7A32"/>
    <path d="M85.7267 132.567L85.6968 132.586C85.3307 132.252 86.4588 133.372 85.1002 131.653L85.0975 131.656L85.1138 131.645L85.1843 131.601L85.3308 131.501L85.6236 131.298L86.2039 130.861C86.5836 130.566 86.9578 130.256 87.3211 129.934C88.0479 129.291 88.7394 128.605 89.3821 127.881C90.6702 126.43 91.7793 124.814 92.5902 123.057C93.4037 121.299 93.9054 119.399 94.0084 117.462L94.2307 111.526C94.426 107.567 94.7406 103.559 95.8849 99.73C96.4544 97.8237 97.2733 95.9743 98.4394 94.3554C99.5973 92.731 101.17 91.4212 102.952 90.5562C101.189 91.4646 99.6597 92.8042 98.5506 94.4367C97.4361 96.0637 96.6686 97.9105 96.1507 99.8087C95.1066 103.619 94.8843 107.6 94.7839 111.545L94.6998 117.495C94.6375 119.523 94.1575 121.535 93.3467 123.396C92.5386 125.259 91.4186 126.972 90.1143 128.515C89.4607 129.288 88.7584 130.015 88.0154 130.704C87.6439 131.048 87.2642 131.379 86.871 131.699L86.269 132.171L85.9598 132.401L85.7999 132.513L85.7158 132.57L85.6914 132.586L85.6697 132.599C84.3003 130.888 85.45 131.995 85.0867 131.661L85.1355 131.631L85.7267 132.567Z" fill="#29A143"/>
    <path d="M124.805 154.172C125.475 160.715 123.715 163.774 123.715 163.774C123.715 163.774 123.466 166.155 120.304 167.478C120.304 167.478 119.913 168.368 119.132 169.19L119.124 169.2L119.1 169.219C118.563 169.786 117.839 170.315 116.939 170.499C114.704 170.958 113.11 169.751 113.11 169.751C113.11 169.751 109.63 170.714 107.45 168.463C107.45 168.463 105.555 169.095 103.141 166.283C100.725 163.465 95.9631 155.802 95.1523 151.859C94.5963 149.152 95.3231 147.335 96.7251 146.066L96.7278 146.064C97.3678 145.486 98.1433 145.02 99.0029 144.635C99.2768 144.51 98.1433 142.541 101.831 140.19C105.517 137.842 109.099 138.27 109.633 139.078C109.633 139.078 109.845 137.134 112.564 136.64C115.284 136.141 118.031 135.946 119.642 137.454C121.256 138.962 124.136 147.626 124.805 154.172" fill="#E33D00"/>
    <path d="M116.939 170.499C117.839 170.315 118.563 169.786 119.1 169.219C118.896 169.393 117.657 170.193 113.964 168.072C109.877 165.724 101.598 155.191 101.598 155.191C99.5914 155.343 97.8423 152.669 97.8423 152.669C95.0655 151.593 95.8546 148.238 96.7251 146.066C95.3231 147.335 94.5963 149.152 95.1523 151.859C95.9631 155.801 100.725 163.465 103.141 166.282C105.555 169.095 107.45 168.463 107.45 168.463C109.63 170.713 113.11 169.751 113.11 169.751C113.11 169.751 114.704 170.958 116.939 170.499Z" fill="#D62E00"/>
    <path d="M105.739 147.409L105.812 146.099L107.04 142.595C107.919 140.863 111.813 140.912 111.813 140.912C113.562 140.304 113.513 144.198 113.513 144.198C111.192 145.454 110.33 147.61 110.33 147.61C109.126 147.257 108.057 148.076 108.057 148.076C106.897 148.103 105.739 147.409 105.739 147.409Z" fill="#D62E00"/>
    <path d="M113.579 151.132C113.579 151.132 119.187 162.191 120.304 167.478C120.304 167.478 113.983 152.87 113.579 151.132Z" fill="#D62E00"/>
    <path d="M123.715 163.774C123.715 163.774 122.484 151.316 120.876 146.519L123.715 163.774Z" fill="#D62E00"/>
    <path d="M116.277 164.458C115.301 161.325 113.782 158.394 112.272 155.482C112.112 155.169 111.949 154.855 111.787 154.541C111.677 154.33 111.568 154.118 111.458 153.906C111.425 153.842 111.394 153.781 111.365 153.723C111.128 153.251 111.004 153.003 110.42 153.334C108.85 154.223 109.143 155.178 110.013 156.58C110.529 157.414 111.108 158.204 111.688 158.995C112.233 159.738 112.778 160.481 113.27 161.26C113.348 161.384 113.426 161.51 113.504 161.637C114.227 162.805 114.993 164.042 116.277 164.458Z" fill="#F2540C"/>
    <path d="M119.561 144.651C120.451 143.951 120.855 142.747 120.765 141.616C120.708 140.863 120.445 140.158 120.093 139.49C120.053 139.415 120.009 139.32 119.961 139.216C119.792 138.85 119.572 138.372 119.295 138.216C118.297 137.663 118.159 139.951 118.159 140.488C118.156 141.112 118.154 141.739 118.249 142.351C118.258 142.415 118.269 142.478 118.279 142.541C118.322 142.8 118.365 143.06 118.343 143.319C118.297 143.794 118.029 144.217 117.755 144.605C116.982 145.692 116.066 146.679 115.04 147.531C114.942 147.612 114.843 147.693 114.743 147.774C114.035 148.349 113.309 148.938 112.993 149.782C114.487 150.099 116.131 149.565 117.153 148.431C117.483 149.377 117.794 150.333 118.106 151.29C119.222 154.719 120.341 158.157 122.341 161.136C122.598 159.769 122.444 158.359 122.235 156.981C121.63 152.984 120.572 149.071 119.387 145.204L119.366 144.863L119.561 144.651Z" fill="#F2540C"/>
    <path d="M105.739 147.409C103.469 143.187 99.3118 138.24 95.7974 137.839C92.649 137.478 91.2145 139.962 91.2037 139.989L91.2877 139.691L88.3699 139.249C88.5516 138.051 91.3284 134.363 96.1309 134.91C100.616 135.42 107.114 139.16 109.858 144.266C109.858 144.266 110.026 145.09 108.136 146.53C106.243 147.97 105.739 147.409 105.739 147.409" fill="#29A143"/>
    <path d="M99.8817 95.5027C100.413 100.704 99.014 103.136 99.014 103.136C99.014 103.136 98.8133 105.032 96.3022 106.081C96.3022 106.081 95.9877 106.789 95.3694 107.443L95.3612 107.451L95.3449 107.467C94.9165 107.914 94.3416 108.337 93.6257 108.484C91.8495 108.847 90.5804 107.887 90.5804 107.887C90.5804 107.887 87.8144 108.655 86.0816 106.862C86.0816 106.862 84.5738 107.367 82.6539 105.132C80.7312 102.892 76.9456 96.7989 76.3029 93.6641C75.8636 91.511 76.4385 90.0683 77.5557 89.0568L77.5585 89.0541C78.0628 88.5931 78.6839 88.2243 79.3645 87.9179C79.5842 87.8176 78.6811 86.2529 81.6125 84.3845C84.544 82.5188 87.394 82.8578 87.8144 83.5032C87.8144 83.5032 87.9852 81.9547 90.1465 81.5615C92.3105 81.1656 94.4962 81.011 95.7761 82.2096C97.0561 83.4082 99.3475 90.2961 99.8817 95.5027" fill="#E33D00"/>
    <path d="M95.3449 107.467C94.9165 107.915 94.3416 108.338 93.6257 108.484C91.8495 108.847 90.5804 107.887 90.5804 107.887C90.5804 107.887 87.8144 108.655 86.0816 106.862C86.0816 106.862 84.5738 107.367 82.6539 105.132C80.7312 102.892 76.9456 96.7991 76.3029 93.6643C75.8636 91.5112 76.4385 90.0685 77.5557 89.057C76.8615 90.7844 76.2324 93.4528 78.4398 94.307C78.4398 94.307 79.8309 96.433 81.4282 96.3137C81.4282 96.3137 88.0123 104.688 91.261 106.556C94.1951 108.24 95.1822 107.605 95.3449 107.467Z" fill="#D62E00"/>
    <path d="M84.7799 89.0843L84.7202 90.1257C84.7202 90.1257 85.6422 90.6761 86.5642 90.6545C86.5642 90.6545 87.413 90.0037 88.3702 90.2857C88.3702 90.2857 89.0563 88.5719 90.903 87.5739C90.903 87.5739 90.941 84.4771 89.5498 84.957C89.5498 84.957 86.453 84.9191 85.7533 86.2993L84.7799 89.0843Z" fill="#D62E00"/>
    <path d="M90.9548 93.0867C90.9548 93.0867 95.413 101.876 96.3024 106.081C96.3024 106.081 91.2775 94.4669 90.9548 93.0867Z" fill="#D62E00"/>
    <path d="M99.0143 103.136C99.0143 103.136 98.0353 93.2331 96.7554 89.4176L99.0143 103.136Z" fill="#D62E00"/>
    <path d="M93.1001 103.679C92.3218 101.192 91.1151 98.8604 89.9165 96.5445C89.808 96.3357 89.7003 96.1269 89.5925 95.9181C89.4847 95.7093 89.3769 95.5005 89.2684 95.2917C89.2429 95.2424 89.2194 95.1951 89.1971 95.1503C89.0087 94.7716 88.9094 94.5718 88.4413 94.8361C87.1912 95.5439 87.4271 96.3032 88.1186 97.4177C88.5259 98.0743 88.9827 98.697 89.4395 99.3197C89.8769 99.9159 90.3144 100.512 90.7083 101.138C90.7689 101.235 90.8294 101.332 90.8902 101.431C91.467 102.362 92.0772 103.348 93.1001 103.679Z" fill="#F2540C"/>
    <path d="M95.7082 87.9346C96.4187 87.376 96.7386 86.4188 96.6681 85.5185C96.6193 84.9192 96.4132 84.3579 96.1339 83.8318C96.0996 83.7676 96.062 83.6865 96.0209 83.5979C95.8867 83.3081 95.7153 82.938 95.4994 82.8176C94.7048 82.3756 94.5963 84.1951 94.5936 84.6236L94.5936 84.6729C94.5935 85.1503 94.5934 85.6323 94.6668 86.1042C94.6745 86.1559 94.6831 86.2076 94.6917 86.2594C94.7255 86.4634 94.7595 86.6684 94.7401 86.8717C94.7048 87.2513 94.4933 87.5849 94.2736 87.8967C93.6581 88.7618 92.9313 89.5455 92.1151 90.2234C92.0365 90.2885 91.9566 90.3532 91.8763 90.4183C91.3144 90.8736 90.7372 91.3413 90.488 92.0104C91.6758 92.2626 92.9828 91.8369 93.7964 90.9366C94.0567 91.6836 94.3024 92.4389 94.5483 93.1948C95.437 95.9269 96.3279 98.6659 97.921 101.041C98.1243 99.9532 98.0023 98.8306 97.8369 97.735C97.3569 94.5568 96.5136 91.4464 95.5726 88.374L95.5536 88.1001L95.7082 87.9346Z" fill="#F2540C"/>
    <path d="M84.7204 90.1251C82.9171 86.7653 79.6087 82.8332 76.8156 82.5159C74.3127 82.2312 73.1737 84.2053 73.1629 84.2243L72.9026 84.2921L71.7446 83.804C71.8911 82.8549 73.2632 79.7499 77.0814 80.1865C80.6473 80.5933 85.8132 83.5654 87.9962 87.6249C87.9962 87.6249 88.1291 88.2784 86.6268 89.4255C85.1218 90.5726 84.7204 90.1251 84.7204 90.1251" fill="#29A143"/>
    <path d="M106.953 201.316C105.598 207.751 102.986 210.129 102.986 210.129C102.986 210.129 102.024 212.321 98.6094 212.616C98.6094 212.616 97.964 213.346 96.9715 213.891L96.9606 213.899L96.9335 213.91C96.2474 214.284 95.396 214.566 94.4848 214.468C92.2151 214.224 91.0652 212.586 91.0652 212.586C91.0652 212.586 87.4559 212.443 86.0675 209.636C86.0675 209.636 84.0689 209.66 82.6289 206.246C81.1835 202.827 78.9844 194.076 79.4182 190.073C79.7111 187.329 80.9585 185.821 82.6805 185.038L82.6859 185.035C83.4696 184.677 84.3509 184.471 85.2865 184.365C85.5848 184.33 85.1075 182.109 89.3352 180.997C93.5601 179.885 96.8413 181.382 97.1016 182.318C97.1016 182.318 97.8989 180.528 100.638 180.889C103.382 181.241 106.059 181.895 107.135 183.82C108.209 185.748 108.312 194.879 106.953 201.316" fill="#E33D00"/>
    <path d="M96.9335 213.91C96.2474 214.284 95.396 214.566 94.4848 214.468C92.2151 214.224 91.0652 212.586 91.0652 212.586C91.0652 212.586 87.4559 212.443 86.0675 209.636C86.0675 209.636 84.0689 209.66 82.6289 206.246C81.1835 202.827 78.9844 194.076 79.4182 190.073C79.7111 187.329 80.9585 185.821 82.6805 185.038C81.189 186.838 79.4128 189.794 81.7314 191.665C81.7314 191.665 82.5801 194.746 84.5407 195.212C84.5407 195.212 89.2131 207.768 92.3913 211.249C95.2603 214.398 96.684 214.013 96.9335 213.91" fill="#D62E00"/>
    <path d="M91.3291 187.838L90.8545 189.061C90.8545 189.061 91.7467 190.075 92.8612 190.403C92.8612 190.403 94.1276 189.948 95.1662 190.653C95.1662 190.653 96.6468 188.863 99.242 188.375C99.242 188.375 100.473 184.682 98.6264 184.725C98.6264 184.725 94.9276 183.491 93.5608 184.874L91.3291 187.838" fill="#D62E00"/>
    <path d="M97.1888 195C97.1888 195 99.1575 207.238 98.6097 212.616C98.6097 212.616 97.045 196.779 97.1888 195Z" fill="#D62E00"/>
    <path d="M102.987 210.129C102.987 210.129 105.612 197.891 105.544 192.828L102.987 210.129Z" fill="#D62E00"/>
    <path d="M94.6184 198.745C95.1662 201.978 95.7167 205.232 95.6977 208.513C94.4801 207.64 94.1791 205.999 93.8076 204.551C93.3303 202.71 92.5927 200.947 92.1317 199.1C91.7303 197.5 91.7412 196.502 93.5065 196.134C94.2469 195.979 94.2116 196.343 94.3228 196.996C94.4204 197.576 94.5181 198.162 94.6184 198.745" fill="#F2540C"/>
    <path d="M106.935 188.126C106.674 189.229 105.923 190.254 104.86 190.65L104.611 190.791L104.527 191.125C104.478 195.165 104.293 199.217 103.651 203.209C103.428 204.581 103.144 205.972 102.485 207.198C101.21 202.788 101.533 198.102 101.416 193.514C100.098 194.284 98.3683 194.29 97.0422 193.533C97.6768 192.725 98.7235 192.399 99.6753 192.014C100.912 191.515 102.086 190.854 103.155 190.056C103.537 189.769 103.919 189.446 104.106 189.007C104.234 188.709 104.261 188.381 104.312 188.061C104.41 187.445 104.603 186.851 104.795 186.26C104.961 185.745 105.79 183.608 106.569 184.44C106.848 184.739 106.872 185.517 106.94 185.899C107.073 186.637 107.108 187.391 106.935 188.126" fill="#F2540C"/>
    <path d="M96.9854 187.803C95.9279 183.125 95.8302 176.666 98.222 174.06C100.364 171.725 103.073 172.663 103.1 172.674L104.622 173.303L104.752 170.258C103.833 169.474 99.3149 168.504 96.0472 172.067C92.9937 175.394 90.5368 182.477 91.8114 188.129C91.8114 188.129 92.2263 188.863 94.5991 188.712C96.9719 188.56 96.9854 187.803 96.9854 187.803" fill="#29A143"/>
    <path d="M83.6597 212.562C87.6758 213.123 91.7896 213.682 95.7623 212.871C99.735 212.057 103.616 209.592 104.996 205.777C105.096 205.5 105.183 205.218 105.27 204.936C105.584 204.706 104.782 204.014 104.421 203.865C99.5479 201.818 93.8749 203.295 89.2134 205.79C86.2494 207.379 84.8203 209.402 83.6597 212.562" fill="#248C3A"/>
    <path d="M102.271 226.657C99.3642 230.38 95.2992 232.992 91.3129 235.53C89.9543 231.853 89.6913 228.981 91.1204 225.328C93.363 219.598 97.2788 213.999 103.144 212.13C103.576 211.992 104.812 211.997 104.704 212.439C104.712 212.459 104.721 212.479 104.729 212.499C104.856 212.796 104.982 213.092 105.097 213.394C106.756 217.817 105.181 222.934 102.271 226.657Z" fill="#248C3A"/>
    <path d="M118.967 206.769C121.423 209.996 122.706 213.942 123.945 217.803C120.596 218.131 118.153 217.722 115.433 215.74C111.162 212.626 107.366 208.157 107.094 202.88C107.073 202.49 107.347 201.465 107.691 201.652C107.981 201.606 108.274 201.562 108.567 201.533C112.602 201.118 116.51 203.542 118.967 206.769Z" fill="#248C3A"/>
    <path d="M81.2953 42.3141C83.3752 46.2137 85.4905 50.2135 86.1494 54.5849C86.8057 58.9562 85.7372 63.851 82.3502 66.6957C82.1035 66.9018 81.8458 67.097 81.5882 67.2895C81.4743 67.7017 80.4656 67.1377 80.1754 66.8258C76.2542 62.6036 75.6413 56.2418 76.4467 50.5362C76.9592 46.9052 78.4968 44.6842 81.2953 42.3141" fill="#1F7A32"/>
    <path d="M99.543 167.338C98.5966 164.385 97.6176 161.367 95.7356 158.899C93.8564 156.431 90.8707 154.576 87.7847 154.894L87.1122 154.986C86.8492 154.842 86.6404 155.626 86.6567 155.924C86.8655 159.962 89.7671 163.379 93.0347 165.76C95.1146 167.275 96.9831 167.587 99.543 167.338Z" fill="#1F7A32"/>
    <path d="M64.6152 136.594C65.7352 139.488 66.8959 142.441 68.9215 144.792C70.9445 147.143 74.0359 148.813 77.0975 148.314L77.7619 148.181C78.033 148.309 78.193 147.514 78.1605 147.216C77.713 143.2 74.6081 139.962 71.2048 137.782C69.0381 136.391 67.1562 136.193 64.6152 136.594" fill="#1F7A32"/>
    <path d="M51.9128 141.22C53.0355 144.111 54.1934 147.064 56.2191 149.415C58.2421 151.766 61.3362 153.437 64.3977 152.938L65.0622 152.805C65.3306 152.932 65.4933 152.138 65.4608 151.839C65.0106 147.823 61.9084 144.585 58.5051 142.405C56.3357 141.017 54.4538 140.816 51.9128 141.22" fill="#1F7A32"/>
    <path d="M58.3106 170.06C60.7159 168.103 63.1701 166.09 64.7836 163.441C66.3971 160.794 67.037 157.337 65.6188 154.576L65.2879 153.985C65.3259 153.689 64.5205 153.779 64.2467 153.904C60.5641 155.566 58.438 159.514 57.4102 163.425C56.754 165.914 57.1445 167.766 58.3106 170.06Z" fill="#1F7A32"/>
    <path d="M28.4563 152.26C32.646 155.094 36.9441 157.982 41.8415 159.256C46.739 160.528 52.4418 159.899 56.0837 156.384C56.3468 156.127 56.6017 155.858 56.8512 155.59C57.3339 155.508 56.8132 154.294 56.4905 153.925C52.1571 148.954 44.9872 147.493 38.3976 147.726C34.2025 147.875 31.4908 149.355 28.4563 152.26" fill="#1F7A32"/>
    <path d="M75.3262 179.068C72.2456 182.48 68.121 184.731 64.0778 186.919C63.0121 183.255 62.9551 180.451 64.5957 177.01C67.1692 171.6 71.3535 166.44 77.1729 165.032C77.6068 164.929 78.8027 165.022 78.6671 165.442C78.7783 165.756 78.8894 166.074 78.9843 166.394C80.2887 170.8 78.4067 175.654 75.3262 179.068Z" fill="#248C3A"/>
    <path d="M75.8202 152.648C78.8438 153.345 81.5257 155.04 84.1426 156.705C82.3311 158.535 80.696 159.49 78.1279 159.653C74.0955 159.91 69.6754 159.137 66.9365 156.168C66.7331 155.948 66.3941 155.211 66.687 155.154L67.1453 154.655C69.3147 152.437 72.7966 151.954 75.8202 152.648Z" fill="#248C3A"/>
    <path d="M89.8944 140.26C89.3683 145.952 87.565 151.449 84.9373 156.45C83.6167 158.953 82.0845 161.339 80.3436 163.56C78.6026 165.778 76.6583 167.839 74.5024 169.648C76.5986 167.769 78.467 165.653 80.1239 163.392C81.7781 161.13 83.2208 158.717 84.4438 156.203C86.879 151.175 88.4627 145.714 88.7935 140.179L89.8944 140.26" fill="#29A143"/>
    <path d="M89.4546 140.391C86.9191 143.187 83.9605 145.603 80.6928 147.468C77.4279 149.348 73.8999 150.687 70.3312 151.764C66.7544 152.849 63.0908 153.597 59.4109 154.153C55.7256 154.712 52.0241 155.083 48.3198 155.422C52.0132 154.994 55.704 154.527 59.3648 153.882C63.023 153.234 66.6486 152.398 70.1657 151.238C73.6829 150.077 77.1268 148.67 80.2698 146.752C83.4181 144.852 86.2303 142.435 88.6275 139.656L89.4546 140.391" fill="#29A143"/>
    <path d="M76.9944 128.876C75.6385 135.311 73.027 137.689 73.027 137.689C73.027 137.689 72.0644 139.881 68.6503 140.179C68.6503 140.179 68.0049 140.906 67.0096 141.451L66.9988 141.456L66.9716 141.47C66.2856 141.844 65.4368 142.126 64.523 142.028C62.2532 141.784 61.1034 140.146 61.1034 140.146C61.1034 140.146 57.4968 140.003 56.1084 137.193C56.1084 137.193 54.1097 137.22 52.6671 133.806C51.2244 130.387 49.0252 121.636 49.4564 117.633C49.752 114.889 50.9967 113.378 52.7214 112.597L52.7241 112.595C53.5078 112.237 54.3918 112.033 55.3246 111.925C55.6256 111.89 55.1457 109.669 59.3733 108.557C63.5983 107.442 66.8822 108.942 67.1425 109.875C67.1425 109.875 67.9398 108.088 70.676 108.446C73.4203 108.801 76.0968 109.455 77.1733 111.377C78.2472 113.308 78.353 122.436 76.9944 128.876" fill="#E33D00"/>
    <path d="M64.523 142.028C65.4368 142.126 66.2856 141.844 66.9716 141.47C66.7222 141.573 65.2985 141.955 62.4294 138.809C59.254 135.327 54.5789 122.772 54.5789 122.772C52.621 122.306 51.7695 119.225 51.7695 119.225C49.4537 117.357 51.2299 114.398 52.7214 112.597C50.9967 113.378 49.752 114.889 49.4564 117.633C49.0252 121.636 51.2244 130.387 52.6671 133.806C54.1098 137.22 56.1084 137.193 56.1084 137.193C57.4968 140.003 61.1034 140.146 61.1034 140.146C61.1034 140.146 62.2532 141.784 64.523 142.028Z" fill="#D62E00"/>
    <path d="M60.8943 116.622L61.3661 115.396L63.6006 112.438C64.9674 111.052 68.6635 112.286 68.6635 112.286C70.5129 112.24 69.279 115.939 69.279 115.939C66.6866 116.424 65.2033 118.214 65.2033 118.214C64.1674 117.509 62.8983 117.964 62.8983 117.964C61.7865 117.636 60.8943 116.622 60.8943 116.622Z" fill="#D62E00"/>
    <path d="M67.2266 122.558C67.2266 122.558 69.198 134.799 68.6503 140.179C68.6503 140.179 67.0829 124.337 67.2266 122.558Z" fill="#D62E00"/>
    <path d="M73.0266 137.69C73.0266 137.69 75.6516 125.449 75.5838 120.392L73.0266 137.69Z" fill="#D62E00"/>
    <path d="M65.7354 136.07C65.7571 132.792 65.2066 129.538 64.6562 126.303C64.6029 125.984 64.5487 125.666 64.4947 125.348C64.4498 125.084 64.4049 124.82 64.3605 124.556C64.3484 124.485 64.3381 124.417 64.3283 124.353C64.2484 123.83 64.2066 123.556 63.547 123.691C61.7789 124.06 61.7681 125.058 62.1694 126.661C62.4062 127.604 62.7145 128.525 63.0227 129.446C63.318 130.328 63.6131 131.21 63.8453 132.111C63.8823 132.254 63.9186 132.399 63.9551 132.545C64.288 133.876 64.6406 135.286 65.7354 136.07Z" fill="#F2540C"/>
    <path d="M74.8981 118.209C75.9611 117.813 76.7123 116.79 76.9726 115.687C77.1461 114.949 77.1109 114.201 76.9807 113.458C76.9655 113.372 76.9523 113.265 76.9378 113.149C76.8881 112.749 76.8235 112.23 76.6092 112.001C75.8282 111.169 74.9984 113.306 74.833 113.818C74.6404 114.412 74.4507 115.006 74.3503 115.622C74.3402 115.684 74.331 115.748 74.3219 115.811C74.2843 116.069 74.2467 116.328 74.1442 116.568C73.9571 117.007 73.5748 117.33 73.1924 117.615C72.1267 118.417 70.9525 119.076 69.7132 119.575C69.5949 119.623 69.4752 119.67 69.3551 119.716C68.5082 120.047 67.6382 120.386 67.0801 121.091C68.4061 121.851 70.1362 121.842 71.4568 121.075C71.4821 122.068 71.4866 123.066 71.4911 124.065C71.5075 127.679 71.524 131.304 72.5226 134.759C73.1843 133.533 73.4662 132.144 73.6886 130.77C74.3313 126.778 74.5157 122.726 74.5672 118.686L74.6486 118.35L74.8981 118.209Z" fill="#F2540C"/>
    <path d="M67.0235 115.364C65.9686 110.686 65.8682 104.227 68.26 101.621C70.4023 99.2857 73.1114 100.224 73.1385 100.235L72.8809 100.064L74.0714 97.7292C73.1521 96.9455 69.3556 96.0642 66.0879 99.6247C63.0344 102.952 60.5776 110.035 61.8522 115.689C61.8522 115.689 62.2643 116.421 64.6371 116.272C67.0099 116.12 67.0235 115.364 67.0235 115.364" fill="#29A143"/>
    <path d="M69.4319 72.0054C72.808 71.0644 76.0839 69.7655 79.2214 68.1819C82.3643 66.5982 85.3662 64.7325 88.2569 62.7068C91.1477 60.6811 93.9327 58.4955 96.6661 56.2474C99.3969 53.9994 102.082 51.6862 104.753 49.3649C102.141 51.7567 99.5216 54.1377 96.8451 56.4589C94.1686 58.7829 91.4352 61.0445 88.5797 63.157C85.7269 65.2667 82.7466 67.2273 79.6064 68.9168C76.4662 70.6062 73.1633 72.0163 69.7411 73.0685L69.4319 72.0054" fill="#29A143"/>
    <path d="M72.769 96.1888C72.1752 96.0533 71.6599 95.8743 71.1338 95.6871C70.6105 95.5 70.0952 95.2994 69.5854 95.0906C68.5631 94.6702 67.557 94.2201 66.5699 93.7103C66.0791 93.4499 65.591 93.1788 65.1164 92.8534L64.7639 92.5903L64.4276 92.2703L63.8772 91.69C63.1179 90.9388 62.3043 90.2311 61.4094 89.6345C60.5172 89.0406 59.579 88.5037 58.5838 88.0888C57.5886 87.6766 56.5554 87.3376 55.4951 87.1261C54.4321 86.9254 53.3501 86.8196 52.2599 86.8359C51.1752 86.8712 50.0933 87.0203 49.033 87.2834C50.0797 86.9742 51.1617 86.779 52.2546 86.6977C53.3501 86.6353 54.4538 86.6949 55.5439 86.8549C56.6313 87.023 57.6998 87.3241 58.7384 87.701C59.7743 88.0861 60.764 88.5959 61.7105 89.1708C62.6596 89.7484 63.5328 90.4453 64.3571 91.1937L64.9591 91.7741L65.2276 92.0073L65.5368 92.2215C65.9788 92.4954 66.456 92.7367 66.9387 92.9672C67.9123 93.4201 68.9183 93.8187 69.9325 94.1875C70.4396 94.3692 70.9521 94.5455 71.4619 94.7027C71.9718 94.8627 72.4979 95.0174 72.9751 95.1014L72.769 96.1888" fill="#29A143"/>
    <path d="M72.227 79.7506C70.4671 83.9457 68.3845 85.2202 68.3845 85.2202C68.3845 85.2202 67.4462 86.5815 65.087 86.3375C65.087 86.3375 64.5527 86.7496 63.807 86.991L63.7989 86.9937L63.7799 86.9991C63.2647 87.1645 62.6491 87.2459 62.0416 87.0588C60.5339 86.5978 59.9645 85.3368 59.9645 85.3368C59.9645 85.3368 57.5347 84.7674 56.9544 82.6793C56.9544 82.6793 55.5958 82.4379 55.0616 79.9295C54.5246 77.4184 54.1721 71.1896 54.9856 68.5266C55.5443 66.6989 56.5856 65.8392 57.8574 65.5301H57.8601C58.4404 65.3891 59.0668 65.3647 59.7149 65.4108C59.9237 65.4271 59.8858 63.8569 62.904 63.6535C65.9194 63.4447 67.956 64.8928 68.0102 65.5599C68.0102 65.5599 68.7831 64.4508 70.5973 65.0501C72.4142 65.6494 74.147 66.4385 74.627 67.8866C75.107 69.3374 73.987 75.5528 72.227 79.7506" fill="#E33D00"/>
    <path d="M62.0416 87.0588C62.6491 87.2459 63.2647 87.1646 63.7799 86.9992C63.5982 87.0344 62.5786 87.1103 61.041 84.5992C59.3353 81.8224 57.795 72.6838 57.795 72.6838C56.5259 72.1116 56.3497 69.9096 56.3497 69.9096C55.0209 68.3368 56.61 66.5606 57.8574 65.5302C56.5856 65.8393 55.5443 66.6989 54.9856 68.5267C54.1721 71.1896 54.5246 77.4185 55.0616 79.9296C55.5958 82.438 56.9544 82.6793 56.9544 82.6793C57.5347 84.7674 59.9645 85.3369 59.9645 85.3369C59.9645 85.3369 60.5339 86.5978 62.0416 87.0588Z" fill="#D62E00"/>
    <path d="M62.8855 69.3287L63.3682 68.5585L65.2691 66.8365C66.3783 66.0745 68.7294 67.3951 68.7294 67.3951C69.993 67.6039 68.6724 69.955 68.6724 69.955C66.8473 69.9469 65.6081 70.9693 65.6081 70.9693C64.9953 70.3564 64.0732 70.5001 64.0732 70.5001C63.36 70.134 62.8855 69.3287 62.8855 69.3287Z" fill="#D62E00"/>
    <path d="M66.416 74.1857C66.416 74.1857 66.1583 82.7576 65.0872 86.3371C65.0872 86.3371 66.0851 75.3761 66.416 74.1857Z" fill="#D62E00"/>
    <path d="M68.385 85.2199C68.385 85.2199 71.7611 77.2473 72.374 73.8007L68.385 85.2199Z" fill="#D62E00"/>
    <path d="M64.1812 76.4022L64.1813 76.3961C64.1854 76.1889 64.1902 75.9818 64.195 75.775C64.1997 75.573 64.2043 75.3714 64.2084 75.1705C64.2095 75.1226 64.2113 75.0771 64.213 75.034C64.2275 74.664 64.2351 74.4689 63.7664 74.4762C62.519 74.4979 62.3806 75.1732 62.4457 76.3148C62.4833 76.9887 62.5731 77.6575 62.6629 78.3269C62.7481 78.9612 62.8333 79.5961 62.8742 80.236C62.8805 80.3365 62.8862 80.4383 62.8919 80.5407C62.9445 81.488 63.0005 82.4947 63.6416 83.1702C64.0833 80.9485 64.1324 78.6672 64.1812 76.4022Z" fill="#F2540C"/>
    <path d="M72.1946 72.2301C72.9675 72.0999 73.6102 71.5033 73.9302 70.7874C74.1444 70.3075 74.2203 69.795 74.2257 69.2743C74.2264 69.2124 74.2313 69.1364 74.2367 69.0532C74.2548 68.7754 74.2781 68.4172 74.1634 68.2357C73.7403 67.5686 72.8997 68.9136 72.7207 69.239C72.5119 69.6187 72.3058 69.9956 72.1567 70.3997L71.8936 71.018C71.7092 71.2919 71.4082 71.46 71.1126 71.6037C70.2828 72.0077 69.3988 72.306 68.4931 72.4823C68.4033 72.5001 68.3126 72.5171 68.2216 72.5341C67.6062 72.6492 66.9758 72.7671 66.5081 73.1711C67.308 73.8572 68.4849 74.0795 69.4829 73.727C69.3703 74.4076 69.2429 75.0887 69.1154 75.7703C68.6561 78.2257 68.1955 80.6885 68.4226 83.1613C69.0327 82.4155 69.407 81.507 69.7351 80.604C70.6923 77.9763 71.3459 75.2483 71.9045 72.5094L72.0048 72.2925L72.1946 72.2301Z" fill="#F2540C"/>
    <path d="M67.2161 69.2722C67.1076 65.9584 67.8804 61.5572 69.8437 60.0983C71.6037 58.7912 73.323 59.7809 73.3392 59.7918L73.1847 59.6427L74.7764 58.3654C74.2531 57.7119 71.3108 56.4672 68.6289 58.4603C66.1205 60.3233 63.528 64.814 63.6609 68.8193C63.6609 68.8193 63.8426 69.3725 65.4751 69.5786C67.1076 69.7847 67.2161 69.2722 67.2161 69.2722" fill="#29A143"/>
    <path d="M25.7344 83.9884C31.6867 81.7783 37.7854 79.5384 44.1337 79.4435C50.4846 79.3486 57.2451 81.8135 60.6402 87.1801C60.873 87.5485 61.0888 87.9289 61.3037 88.3077L61.3425 88.3761C61.9038 88.6201 60.9059 89.9461 60.4069 90.2987C53.6465 95.0686 44.4699 94.7188 36.5055 92.4735C31.4345 91.0417 28.5709 88.4275 25.7344 83.9884Z" fill="#248C3A"/>
    <path d="M126.24 38.911C122.376 44.9284 118.4 51.0678 112.749 55.4501C107.095 59.8295 99.3421 62.1861 92.6549 59.6479C92.1708 59.464 91.6947 59.2557 91.2187 59.0475L91.2177 59.0471L91.2149 59.0459C90.5451 59.2086 90.5451 57.3402 90.7539 56.6839C93.6148 47.8137 102.113 41.9238 110.802 38.5585C116.334 36.4162 120.684 36.8311 126.24 38.911Z" fill="#248C3A"/>
    <path d="M57.9062 29.4032C62.405 31.5021 66.9961 33.6633 70.5322 37.1425C74.0683 40.6217 76.4086 45.7334 75.2859 50.5631C75.2138 50.878 75.1268 51.1865 75.0399 51.4943L75.0066 51.6125C75.1802 52.0572 73.8948 52.2308 73.4229 52.1467C67.0611 51.0051 62.2207 45.7117 59.1021 40.0496C57.1144 36.4429 56.9951 33.4193 57.9062 29.4032Z" fill="#248C3A"/>
    <path d="M83.039 0.00012207C85.4525 6.25073 87.8985 12.6532 88.0856 19.3486C88.2727 26.0466 85.7671 33.2111 80.151 36.8639C79.7937 37.0958 79.4261 37.3111 79.059 37.5261L78.8982 37.6204C78.6514 38.217 77.2359 37.1839 76.859 36.6605C71.7337 29.5964 71.9777 19.9126 74.2366 11.4818C75.6766 6.11246 78.3938 3.05627 83.039 0.00012207Z" fill="#248C3A"/>
    <path d="M90.488 76.9142C94.0323 79.5609 98.3467 80.914 102.569 82.2238C102.892 78.5711 102.422 75.9108 100.231 72.9685C96.7901 68.3477 91.8791 64.2556 86.1221 64.0143C85.6963 63.998 84.5818 64.3044 84.7906 64.6787C84.7445 64.9959 84.6983 65.3159 84.6712 65.6359C84.2618 70.0398 86.9437 74.2702 90.488 76.9142Z" fill="#248C3A"/>
    <path d="M77.9167 37.7289C78.6028 33.8212 79.2266 29.8972 79.777 25.9652C80.0455 23.9992 80.295 22.0278 80.5011 20.0536C80.5933 19.0665 80.6854 18.0767 80.7397 17.0869C80.802 16.0971 80.8211 15.1046 80.7695 14.1094C80.859 15.0992 80.878 16.0971 80.8536 17.0896C80.8373 18.0875 80.7804 19.08 80.7262 20.0725C80.596 22.0575 80.4197 24.0399 80.2245 26.0195C79.8231 29.9787 79.3486 33.927 78.8089 37.8699L77.9167 37.7289" fill="#29A143"/>
    <path d="M203.918 186.968C204.341 193.533 202.467 196.524 202.467 196.524C202.467 196.524 202.131 198.894 198.92 200.098C198.92 200.098 198.495 200.972 197.684 201.763L197.676 201.774L197.654 201.793C197.095 202.338 196.35 202.837 195.444 202.989C193.193 203.363 191.645 202.097 191.645 202.097C191.645 202.097 188.133 202.93 186.039 200.597C186.039 200.597 184.122 201.161 181.815 198.26C179.504 195.356 175.035 187.519 174.373 183.546C173.921 180.823 174.712 179.036 176.163 177.819L176.166 177.813C176.822 177.26 177.619 176.823 178.49 176.471C178.769 176.357 177.709 174.348 181.484 172.137C185.253 169.927 188.819 170.489 189.318 171.318C189.318 171.318 189.605 169.382 192.342 168.989C195.075 168.593 197.83 168.501 199.384 170.066C200.941 171.636 203.495 180.4 203.918 186.968" fill="#E33D00"/>
    <path d="M195.444 202.989C196.35 202.837 197.095 202.339 197.654 201.793C197.442 201.959 196.173 202.713 192.564 200.454C188.567 197.954 180.689 187.12 180.689 187.12C178.677 187.196 177.028 184.457 177.028 184.457C174.292 183.28 175.209 179.953 176.163 177.819C174.712 179.036 173.921 180.823 174.373 183.546C175.035 187.519 179.504 195.356 181.815 198.26C184.122 201.162 186.039 200.598 186.039 200.598C188.133 202.93 191.645 202.097 191.645 202.097C191.645 202.097 193.193 203.364 195.444 202.989Z" fill="#D62E00"/>
    <path d="M185.117 179.497L185.242 178.19L186.598 174.735C187.542 173.035 191.433 173.228 191.433 173.228C193.201 172.688 193.009 176.579 193.009 176.579C190.641 177.745 189.698 179.869 189.698 179.869C188.51 179.47 187.409 180.248 187.409 180.248C186.251 180.232 185.117 179.497 185.117 179.497Z" fill="#D62E00"/>
    <path d="M192.813 183.51C192.813 183.51 198.004 194.769 198.92 200.098C198.92 200.098 193.152 185.262 192.813 183.51Z" fill="#D62E00"/>
    <path d="M202.468 196.524C202.468 196.524 201.706 184.028 200.277 179.174L202.468 196.524Z" fill="#D62E00"/>
    <path d="M195.01 196.925C194.15 193.761 192.743 190.775 191.344 187.808C191.094 187.274 190.842 186.74 190.587 186.206C190.558 186.143 190.531 186.083 190.506 186.026C190.287 185.539 190.173 185.282 189.573 185.593C187.967 186.423 188.228 187.388 189.044 188.82C189.527 189.667 190.074 190.473 190.62 191.28C191.141 192.048 191.662 192.816 192.127 193.62C192.2 193.746 192.273 193.873 192.346 194.002C193.024 195.197 193.742 196.462 195.01 196.925Z" fill="#F2540C"/>
    <path d="M199.031 177.257C199.948 176.593 200.395 175.402 200.352 174.269C200.319 173.512 200.086 172.799 199.758 172.121C199.722 172.044 199.682 171.948 199.639 171.843C199.485 171.47 199.283 170.982 199.01 170.817C198.033 170.228 197.808 172.509 197.787 173.048C197.762 173.669 197.738 174.293 197.808 174.911C197.816 174.978 197.824 175.045 197.833 175.112C197.865 175.369 197.898 175.626 197.865 175.88C197.8 176.354 197.521 176.766 197.228 177.143C196.417 178.201 195.465 179.155 194.405 179.969C194.302 180.048 194.197 180.127 194.092 180.206C193.369 180.75 192.622 181.312 192.276 182.138C193.757 182.51 195.422 182.038 196.485 180.942C196.777 181.893 197.05 182.853 197.323 183.814C198.313 187.29 199.305 190.777 201.195 193.837C201.502 192.478 201.401 191.063 201.244 189.68C200.791 185.664 199.88 181.713 198.839 177.805L198.828 177.461L199.031 177.257Z" fill="#F2540C"/>
    <path d="M180.937 113.669C183.057 112.234 185.007 110.536 186.81 108.692C188.616 106.846 190.279 104.853 191.843 102.783C194.973 98.6399 197.706 94.1954 200.41 89.7481C197.866 94.2903 195.293 98.8297 192.291 103.109C190.788 105.246 189.183 107.32 187.412 109.259C185.647 111.201 183.713 113.012 181.571 114.574L180.937 113.669" fill="#29A143"/>
    <path d="M179.524 124.128C177.927 130.509 175.228 132.787 175.228 132.787C175.228 132.787 174.184 134.94 170.765 135.108C170.765 135.108 170.092 135.811 169.078 136.32L169.067 136.323L169.037 136.334C168.338 136.684 167.481 136.933 166.572 136.803C164.314 136.475 163.223 134.794 163.223 134.794C163.223 134.794 159.622 134.517 158.342 131.656C158.342 131.656 156.344 131.607 155.031 128.142C153.716 124.671 151.848 115.844 152.428 111.86C152.824 109.129 154.128 107.668 155.877 106.949H155.883C156.677 106.621 157.567 106.448 158.508 106.377C158.806 106.353 158.413 104.115 162.678 103.164C166.941 102.209 170.168 103.828 170.391 104.772C170.391 104.772 171.253 103.014 173.978 103.475C176.706 103.934 179.358 104.685 180.359 106.648C181.362 108.617 181.124 117.745 179.524 124.128" fill="#E33D00"/>
    <path d="M166.572 136.803C167.481 136.933 168.338 136.684 169.037 136.334C168.785 136.429 167.348 136.76 164.598 133.511C161.556 129.91 157.355 117.189 157.355 117.189C155.414 116.649 154.679 113.539 154.679 113.539C152.436 111.584 154.321 108.693 155.877 106.949C154.128 107.668 152.824 109.129 152.428 111.86C151.848 115.844 153.716 124.671 155.031 128.142C156.344 131.607 158.342 131.656 158.342 131.656C159.622 134.517 163.223 134.794 163.223 134.794C163.223 134.794 164.314 136.475 166.572 136.803Z" fill="#D62E00"/>
    <path d="M163.893 111.28L164.414 110.073L166.757 107.196C168.175 105.865 171.82 107.237 171.82 107.237C173.672 107.261 172.3 110.908 172.3 110.908C169.691 111.296 168.145 113.029 168.145 113.029C167.134 112.289 165.848 112.695 165.848 112.695C164.75 112.324 163.893 111.28 163.893 111.28Z" fill="#D62E00"/>
    <path d="M170 117.449C170 117.449 171.51 129.755 170.764 135.108C170.764 135.108 169.788 119.22 170 117.449Z" fill="#D62E00"/>
    <path d="M175.228 132.787C175.228 132.787 178.311 120.652 178.434 115.595L175.228 132.787Z" fill="#D62E00"/>
    <path d="M168.004 130.896C168.15 127.618 167.722 124.348 167.291 121.093C167.215 120.508 167.139 119.922 167.06 119.336C167.051 119.267 167.044 119.201 167.037 119.139C166.977 118.609 166.946 118.33 166.279 118.444C164.5 118.745 164.454 119.743 164.793 121.356C164.994 122.308 165.267 123.24 165.541 124.171C165.803 125.065 166.065 125.958 166.263 126.867C166.294 127.009 166.325 127.154 166.355 127.299C166.639 128.643 166.939 130.067 168.004 130.896Z" fill="#F2540C"/>
    <path d="M177.831 113.39C178.908 113.035 179.697 112.04 179.998 110.947C180.199 110.217 180.193 109.463 180.088 108.72C180.076 108.635 180.068 108.53 180.058 108.415C180.025 108.013 179.982 107.488 179.773 107.248C179.025 106.388 178.116 108.493 177.929 109C177.715 109.585 177.501 110.171 177.379 110.781C177.369 110.833 177.36 110.884 177.351 110.936C177.303 111.206 177.256 111.476 177.137 111.722C176.934 112.153 176.543 112.46 176.147 112.731C175.052 113.493 173.853 114.109 172.598 114.562C172.473 114.606 172.347 114.65 172.221 114.694C171.368 114.991 170.489 115.297 169.91 115.977C171.207 116.785 172.934 116.842 174.285 116.123C174.272 117.112 174.239 118.105 174.207 119.098C174.087 122.716 173.967 126.343 174.838 129.837C175.543 128.638 175.876 127.261 176.15 125.894C176.945 121.929 177.281 117.889 177.479 113.854L177.574 113.523L177.831 113.39Z" fill="#F2540C"/>
    <path d="M170.068 110.252C169.189 105.536 169.33 99.0765 171.817 96.5627C174.046 94.312 176.72 95.3479 176.747 95.3614L178.241 96.0475L178.488 93.0076C177.596 92.1886 173.121 91.0525 169.721 94.4883C166.545 97.699 163.825 104.684 164.888 110.382C164.888 110.382 165.271 111.13 167.649 111.068C170.024 111.006 170.068 110.252 170.068 110.252" fill="#29A143"/>
    <path d="M173.886 135.084C171.48 136.548 169.026 138.053 167.247 140.236C165.471 142.422 164.468 145.454 165.406 148.109L165.628 148.681C165.558 148.944 166.293 148.963 166.556 148.887C170.073 147.843 172.473 144.554 173.878 141.164C174.773 139.005 174.65 137.289 173.886 135.084" fill="#1F7A32"/>
    <path d="M127.125 191.515C127.873 195.499 127.252 199.602 126.626 203.61C123.485 202.4 121.487 200.941 119.941 197.95C117.522 193.253 116.131 187.556 118.252 182.715C118.409 182.358 119.114 181.563 119.336 181.886L119.457 181.925C119.699 182.004 119.94 182.082 120.174 182.17C123.968 183.61 126.373 187.526 127.125 191.515Z" fill="#248C3A"/>
    <path d="M134.025 159.677C130.716 162.025 127.343 164.438 125.011 167.758C122.676 171.077 121.548 175.532 123.164 179.253C123.281 179.524 123.411 179.787 123.544 180.053C123.468 180.438 124.528 180.389 124.894 180.251C129.843 178.396 132.954 173.425 134.63 168.414C135.698 165.222 135.348 162.771 134.025 159.677Z" fill="#248C3A"/>
    <path d="M156.032 161.271C152.024 161.908 147.929 162.573 144.366 164.509C140.803 166.445 137.809 169.938 137.605 173.986C137.589 174.282 137.589 174.578 137.589 174.873C137.351 175.185 138.324 175.611 138.712 175.651C143.97 176.186 148.968 173.116 152.696 169.368C155.069 166.985 155.845 164.634 156.032 161.271Z" fill="#248C3A"/>
    <path d="M143.916 189.525C143.173 186.816 142.402 184.05 140.797 181.745C139.192 179.44 136.559 177.645 133.755 177.813L133.147 177.87C132.914 177.731 132.393 178.729 132.396 179C132.431 182.659 135.222 185.568 138.088 187.849C139.91 189.3 141.589 189.655 143.916 189.525Z" fill="#248C3A"/>
    <path d="M158.396 170.456C160.886 169.138 163.427 167.779 165.333 165.707C167.237 163.633 168.416 160.669 167.641 157.96L167.454 157.374C167.538 157.117 166.805 157.054 166.542 157.117C162.968 157.946 160.376 161.087 158.768 164.384C157.745 166.486 157.764 168.205 158.396 170.456Z" fill="#248C3A"/>
    <path d="M155.687 141.527C155.085 144.011 154.48 146.554 154.787 149.19C155.093 151.826 156.5 154.619 158.941 155.994L159.481 156.279L160.24 155.88C161.87 153.046 161.222 149.239 159.841 145.947C158.963 143.851 157.707 142.676 155.687 141.527Z" fill="#248C3A"/>
    <path d="M167.616 124.489C165.208 125.953 162.754 127.458 160.975 129.644C159.196 131.827 158.196 134.856 159.134 137.514L159.356 138.086C159.286 138.349 160.023 138.368 160.281 138.289C163.801 137.248 166.201 133.959 167.608 130.569C168.503 128.41 168.381 126.696 167.616 124.489Z" fill="#248C3A"/>
    <path d="M142.858 134.805C144.992 136.643 147.18 138.517 149.805 139.537C152.43 140.556 155.622 140.575 157.862 138.867L158.339 138.479C158.608 138.466 158.399 137.758 158.244 137.535C156.173 134.509 152.303 133.237 148.645 132.942C146.315 132.754 144.721 133.397 142.858 134.805Z" fill="#248C3A"/>
    <path d="M154.122 105.26C152.254 109.46 150.358 113.761 150.003 118.344C149.648 122.924 151.117 127.919 154.841 130.612C155.091 130.797 155.353 130.967 155.614 131.137L155.67 131.173C155.822 131.591 156.826 130.932 157.105 130.588C160.853 125.921 161.018 119.28 159.757 113.428C158.954 109.699 157.2 107.511 154.122 105.26Z" fill="#248C3A"/>
    <path d="M128.71 142.65C131.308 145.912 133.979 149.242 137.521 151.449C141.063 153.659 145.7 154.568 149.428 152.699C149.702 152.561 149.968 152.412 150.231 152.263C150.63 152.32 150.521 151.232 150.358 150.863C148.175 145.887 142.89 142.97 137.651 141.53C134.31 140.616 131.813 141.112 128.71 142.65Z" fill="#248C3A"/>
    <path d="M174.285 158.06C163.929 158.931 153.383 155.544 145.559 148.938C153.616 155.256 164.156 158.172 174.171 156.959L174.285 158.06" fill="#29A143"/>
    <path d="M174.065 157.678C171.147 155.847 168.593 153.504 166.404 150.89C164.216 148.271 162.383 145.38 160.845 142.356C159.313 139.33 158.066 136.173 156.986 132.974C155.902 129.771 154.985 126.522 154.096 123.265C155.075 126.495 156.081 129.719 157.244 132.881C158.41 136.043 159.736 139.148 161.336 142.101C162.936 145.049 164.821 147.848 167.034 150.348C169.244 152.848 171.79 155.05 174.64 156.734L174.065 157.678" fill="#29A143"/>
    <path d="M185.381 208.936C188.014 212.176 189.457 216.192 190.856 220.125C187.42 220.569 184.898 220.228 182.037 218.275C177.547 215.211 173.498 210.739 173.048 205.318C173.018 204.92 173.265 203.857 173.623 204.038C173.924 203.981 174.222 203.927 174.52 203.887C178.658 203.331 182.753 205.698 185.381 208.936Z" fill="#1F7A32"/>
    <path d="M169.916 202.959C168.058 205.077 166.16 207.247 165.116 209.861C164.069 212.475 164.018 215.667 165.702 217.923L166.087 218.403C166.098 218.674 166.808 218.473 167.033 218.321C170.081 216.277 171.388 212.423 171.722 208.768C171.931 206.441 171.304 204.839 169.916 202.959Z" fill="#1F7A32"/>
    <path d="M158.691 204.521C159.738 201.907 161.634 199.735 163.494 197.622C164.885 199.499 165.511 201.101 165.3 203.428C164.966 207.081 163.659 210.937 160.611 212.982C160.386 213.133 159.678 213.334 159.665 213.063L159.28 212.583C157.596 210.327 157.647 207.135 158.691 204.521Z" fill="#1F7A32"/>
    <path d="M181.951 190.718C179.168 191.155 176.324 191.613 173.848 192.955C171.372 194.298 169.292 196.719 169.146 199.531L169.135 200.147C168.972 200.361 169.645 200.66 169.913 200.687C173.563 201.064 177.034 198.935 179.627 196.337C181.278 194.683 181.818 193.053 181.951 190.718Z" fill="#1F7A32"/>
    <path d="M173.723 186.507C170.941 186.946 168.096 187.405 165.62 188.747C163.144 190.089 161.064 192.508 160.921 195.32L160.907 195.936C160.742 196.153 161.414 196.448 161.685 196.478C165.338 196.852 168.809 194.726 171.399 192.128C173.048 190.474 173.593 188.842 173.723 186.507Z" fill="#1F7A32"/>
    <path d="M148.175 216.09C150.925 215.485 153.737 214.858 156.128 213.37C158.52 211.881 160.451 209.34 160.427 206.525L160.402 205.91C160.554 205.685 159.863 205.427 159.594 205.416C155.928 205.259 152.59 207.591 150.157 210.341C148.609 212.09 148.169 213.752 148.175 216.09" fill="#248C3A"/>
    <path d="M165.325 239.679C163.497 243.896 160.308 247.348 157.179 250.713C154.998 247.584 154.049 244.945 154.502 241.16C155.21 235.213 157.523 228.987 162.589 225.792C162.963 225.556 164.123 225.258 164.129 225.703C164.338 225.966 164.544 226.229 164.736 226.503C167.383 230.261 167.15 235.462 165.325 239.679Z" fill="#248C3A"/>
    <path d="M150.668 228.146C153.415 227.541 156.227 226.915 158.618 225.426C161.01 223.937 162.941 221.399 162.919 218.582L162.892 217.966C163.044 217.741 162.355 217.486 162.081 217.473C158.418 217.318 155.077 219.65 152.647 222.397C151.101 224.146 150.659 225.808 150.668 228.146Z" fill="#248C3A"/>
    <path d="M177.433 226.432C176.009 223.999 174.547 221.518 172.397 219.701C170.244 217.882 167.234 216.827 164.562 217.713L163.985 217.928C163.722 217.855 163.689 218.589 163.765 218.85C164.741 222.386 167.987 224.845 171.35 226.312C173.492 227.248 175.209 227.156 177.433 226.432Z" fill="#248C3A"/>
    <path d="M142.421 220.024C139.639 223.848 137.225 224.643 137.225 224.643C137.225 224.643 135.951 225.8 133.621 224.99C133.621 224.99 132.984 225.28 132.171 225.345H132.141C131.579 225.391 130.939 225.326 130.37 224.992C128.952 224.168 128.675 222.755 128.675 222.755C128.675 222.755 126.351 221.6 126.262 219.346C126.262 219.346 124.944 218.777 125.003 216.111C125.058 213.443 126.186 207.054 127.645 204.551C128.645 202.834 129.906 202.211 131.268 202.205L131.27 202.203C131.891 202.2 132.531 202.322 133.174 202.528C133.38 202.593 133.719 200.993 136.824 201.506C139.926 202.016 141.637 203.965 141.534 204.654C141.534 204.654 142.584 203.716 144.276 204.754C145.974 205.793 147.538 207.008 147.679 208.589C147.82 210.173 145.203 216.195 142.421 220.024Z" fill="#E33D00"/>
    <path d="M137.865 213.006C137.865 213.006 135.56 221.621 133.621 224.99C133.621 224.99 137.247 214.132 137.865 213.006Z" fill="#D62E00"/>
    <path d="M132.141 225.345C131.579 225.391 130.939 225.326 130.37 224.992C128.952 224.168 128.675 222.755 128.675 222.755C128.675 222.755 126.351 221.6 126.262 219.346C126.262 219.346 124.944 218.777 125.003 216.111C125.058 213.443 126.186 207.054 127.645 204.551C128.645 202.835 129.906 202.211 131.268 202.205C129.76 202.948 127.726 204.367 128.697 206.276C128.697 206.276 128.35 208.548 129.5 209.43C129.5 209.43 128.876 219.045 129.942 222.264C130.899 225.174 131.948 225.339 132.141 225.345Z" fill="#D62E00"/>
    <path d="M136.119 206.582L135.452 207.247C135.452 207.247 135.739 208.177 136.374 208.719C136.374 208.719 137.339 208.792 137.814 209.557C137.814 209.557 139.313 208.82 141.157 209.262C141.157 209.262 143.053 207.198 141.827 206.683C141.827 206.683 139.761 204.787 138.459 205.294L136.119 206.582Z" fill="#D62E00"/>
    <path d="M137.225 224.642C137.225 224.642 142.546 217.38 143.988 214.037L137.225 224.642Z" fill="#D62E00"/>
    <path d="M144.178 212.404C144.994 212.456 145.789 212.005 146.282 211.357C146.611 210.923 146.811 210.422 146.941 209.896C146.957 209.834 146.979 209.76 147.004 209.679C147.089 209.402 147.199 209.044 147.126 208.83C146.857 208.054 145.686 209.212 145.425 209.502L145.421 209.508C145.124 209.837 144.822 210.171 144.579 210.544L144.167 211.105C143.912 211.338 143.568 211.436 143.234 211.512C142.299 211.723 141.333 211.813 140.376 211.778C140.281 211.774 140.185 211.77 140.089 211.765C139.437 211.734 138.768 211.702 138.199 212C138.847 212.887 139.986 213.391 141.076 213.275C140.8 213.936 140.509 214.595 140.218 215.254C139.169 217.629 138.117 220.011 137.757 222.57C138.551 221.96 139.145 221.131 139.696 220.293C141.29 217.863 142.603 215.257 143.82 212.618L143.975 212.423L144.178 212.404Z" fill="#F2540C"/>
    <path d="M132.917 221.44C133.893 219.292 134.489 216.995 135.075 214.709C135.093 214.639 135.112 214.57 135.13 214.5C135.22 214.158 135.31 213.818 135.398 213.475C135.41 213.428 135.422 213.383 135.434 213.341C135.536 212.968 135.59 212.772 135.116 212.667C133.844 212.391 133.546 213.044 133.34 214.213C133.217 214.905 133.148 215.604 133.079 216.303C133.014 216.966 132.949 217.628 132.838 218.283C132.82 218.391 132.8 218.501 132.781 218.61C132.609 219.579 132.427 220.604 132.917 221.44Z" fill="#F2540C"/>
    <path d="M119.121 270.864L119.012 270.511L118.942 270.237L118.814 269.722C118.733 269.383 118.66 269.052 118.597 268.73C118.459 268.073 118.345 267.428 118.231 266.783C118.012 265.495 117.816 264.215 117.64 262.937C117.282 260.38 116.992 257.831 116.726 255.282C116.198 250.184 115.783 245.088 115.411 239.996L114.888 232.381C114.695 229.865 114.473 227.348 114.202 224.837C113.662 219.812 112.984 214.801 112.149 209.814C110.484 199.84 108.266 189.95 105.378 180.266C103.932 175.423 102.324 170.632 100.518 165.919C98.7012 161.211 96.6864 156.582 94.4302 152.078C93.3102 149.822 92.0981 147.614 90.8534 145.428C89.5735 143.267 88.2664 141.114 86.8427 139.048L85.7797 137.48L84.6977 135.856C84.6381 135.766 84.5778 135.675 84.5176 135.585C84.3971 135.405 84.2765 135.225 84.1608 135.042L83.6591 134.207L82.6585 132.534C82.4588 132.177 82.2666 131.817 82.0745 131.458C81.9614 131.246 81.8483 131.034 81.7337 130.823C81.6531 130.671 81.5713 130.52 81.4893 130.369C81.2624 129.95 81.0354 129.531 80.8362 129.098C80.6949 128.8 80.5515 128.504 80.4082 128.207C79.9875 127.337 79.5671 126.467 79.201 125.573C77.1427 120.825 75.5211 115.903 74.3198 110.894C73.1131 105.888 72.2751 100.804 71.7355 95.6974C70.6616 85.4768 70.8054 75.1721 71.8955 64.9921C72.9856 54.8095 75.0655 44.7271 78.2844 35L79.6484 35.4447C76.5868 45.0959 74.6506 55.0996 73.6961 65.1738C72.7442 75.2507 72.728 85.4252 73.9076 95.4561C74.4988 100.47 75.3828 105.443 76.6194 110.322C77.8559 115.2 79.4911 119.968 81.5385 124.537C81.9025 125.399 82.3193 126.233 82.7361 127.067C82.8781 127.352 83.0202 127.636 83.1601 127.921C83.3414 128.304 83.5463 128.672 83.7512 129.04C83.8497 129.217 83.9482 129.394 84.0441 129.573C84.1453 129.754 84.2456 129.937 84.3459 130.119C84.5467 130.483 84.7474 130.848 84.9553 131.208L85.9342 132.802L86.4251 133.597C86.5325 133.765 86.6455 133.929 86.7584 134.092C86.8221 134.185 86.8858 134.277 86.9484 134.37L88.0033 135.913L89.1043 137.491C90.5958 139.601 91.9598 141.789 93.2994 143.988C94.6038 146.212 95.8702 148.455 97.0417 150.749C99.4036 155.318 101.513 160.012 103.42 164.782C105.315 169.555 107.01 174.406 108.537 179.304C111.593 189.101 113.96 199.097 115.772 209.187C116.683 214.234 117.434 219.31 118.042 224.406C118.348 226.952 118.608 229.504 118.833 232.064L119.449 239.681C119.877 244.739 120.355 249.791 120.938 254.816C121.006 255.404 121.076 255.992 121.148 256.579C121.2 256.147 121.254 255.714 121.31 255.282C121.903 250.67 122.741 246.087 123.831 241.558C124.954 237.037 126.288 232.555 128.019 228.205C129.749 223.858 131.785 219.609 134.315 215.625C136.843 211.653 139.831 207.921 143.313 204.692L145.724 202.332C145.865 202.194 146.006 202.057 146.147 201.919C146.811 201.274 147.475 200.628 148.086 199.924C148.434 199.538 148.786 199.154 149.138 198.769C150.307 197.494 151.476 196.217 152.541 194.848L154.678 192.226L156.687 189.498C157.73 188.14 158.675 186.709 159.62 185.277L159.621 185.275C159.921 184.821 160.221 184.366 160.524 183.914C161.076 183.119 161.57 182.289 162.064 181.459C162.148 181.317 162.232 181.176 162.317 181.034L164.058 178.122C164.432 177.458 164.792 176.787 165.152 176.114L165.153 176.113L165.153 176.112C165.327 175.787 165.501 175.463 165.677 175.139L166.482 173.645L166.883 172.896L167.255 172.134C171.296 164.031 174.544 155.519 176.798 146.747L177.546 143.435L177.923 141.781L178.216 140.114L178.796 136.77L179.393 131.723L179.49 130.034C179.511 129.626 179.536 129.217 179.561 128.809C179.605 128.093 179.649 127.376 179.669 126.655C179.724 124.394 179.678 122.126 179.588 119.862C179.385 115.331 178.907 110.805 178.295 106.284C178.043 104.383 177.767 102.482 177.491 100.577C177.111 97.9513 176.729 95.3183 176.407 92.6686C175.857 88.1047 175.474 83.473 175.751 78.8223C176.014 74.1798 177.012 69.54 178.88 65.2608L180.139 65.7977C178.4 69.9467 177.503 74.4075 177.31 78.9036C177.107 83.4106 177.535 87.9366 178.143 92.4462C178.501 95.0826 178.92 97.7179 179.34 100.36L179.34 100.362C179.639 102.241 179.939 104.124 180.217 106.013C180.895 110.555 181.448 115.138 181.717 119.751C181.844 122.059 181.92 124.372 181.899 126.688C181.888 127.407 181.854 128.127 181.82 128.848C181.799 129.287 181.778 129.727 181.763 130.167L181.684 131.908L181.508 133.641L181.145 137.098L180.597 140.531L180.32 142.248L179.238 147.343C177.058 156.344 173.869 165.078 169.853 173.417L169.484 174.203L168.283 176.511C168.096 176.866 167.912 177.222 167.727 177.578L167.726 177.579C167.378 178.251 167.03 178.923 166.667 179.586L164.926 182.593C164.836 182.749 164.746 182.904 164.656 183.059L164.653 183.064C164.166 183.91 163.677 184.757 163.133 185.568C162.836 186.026 162.541 186.486 162.246 186.946L162.245 186.949C161.289 188.441 160.333 189.934 159.274 191.355L157.249 194.186L156.558 195.058C165.976 197.869 174.198 204.257 179.179 212.585C173.821 204.316 165.27 198.282 155.843 195.96L155.8 196.014C157.605 198.454 159.019 201.156 160.096 203.965C161.317 207.151 162.111 210.481 162.58 213.841C163.047 217.201 163.201 220.591 163.185 223.967C163.166 227.349 162.979 230.722 162.762 234.087C162.889 230.717 162.982 227.34 162.908 223.97C162.832 220.602 162.586 217.236 162.032 213.923C161.479 210.614 160.606 207.357 159.326 204.271C158.234 201.637 156.839 199.128 155.113 196.881L155.085 196.917C153.988 198.362 152.782 199.718 151.575 201.074L151.574 201.075C151.235 201.456 150.896 201.838 150.559 202.221C149.931 202.964 149.242 203.653 148.554 204.342C148.418 204.477 148.283 204.613 148.148 204.748L145.68 207.227C142.488 210.275 139.758 213.784 137.423 217.562C132.791 225.16 129.778 233.732 127.769 242.485C126.774 246.873 126.023 251.32 125.513 255.797C125.255 258.032 125.054 260.277 124.916 262.52C124.843 263.643 124.8 264.763 124.764 265.88C124.751 266.436 124.737 266.994 124.735 267.545L124.737 268.361L124.748 268.746L124.754 268.909V268.944L123.222 269.148L123.259 269.28L123.291 269.386L119.121 270.864Z" fill="#29A143"/>
    <path d="M139.845 208.223C140.526 204.841 142.359 200.57 144.694 199.561C146.787 198.658 148.292 200.071 148.303 200.085L149.12 200.947L150.101 198.986C149.727 198.2 147.048 196.237 143.856 197.614C140.87 198.902 137.18 202.829 136.355 206.916C136.355 206.916 136.409 207.518 138.012 208.117C139.612 208.714 139.845 208.223 139.845 208.223" fill="#29A143"/>
    <path d="M196.592 150.329C199.393 152.591 202.867 153.824 206.262 155.02C206.636 152.054 206.335 149.876 204.643 147.414C201.983 143.547 198.11 140.068 193.43 139.696C193.085 139.666 192.169 139.883 192.326 140.195C192.28 140.453 192.234 140.71 192.199 140.971C191.732 144.542 193.788 148.067 196.592 150.329Z" fill="#248C3A"/>
    <path d="M215.365 132.415C220.1 129.02 223.522 124.145 226.849 119.364C222.391 117.503 218.866 117.032 214.294 118.607C207.121 121.08 200.024 125.617 197.427 132.746C197.231 133.275 197.177 134.796 197.728 134.682C198.11 134.87 198.49 135.054 198.883 135.219C204.247 137.489 210.63 135.808 215.365 132.415Z" fill="#248C3A"/>
    <path d="M188.47 121.183C190.046 124.421 191.646 127.743 192.047 131.322C192.448 134.899 191.431 138.853 188.587 141.063L187.949 141.524C187.844 141.855 187.041 141.364 186.813 141.101C183.749 137.546 183.442 132.347 184.272 127.729C184.801 124.79 186.122 123.03 188.47 121.183Z" fill="#248C3A"/>
    <path d="M206.966 112.408C203.842 112.432 200.645 112.443 197.692 111.421C194.739 110.398 192.022 108.123 191.355 105.07L191.233 104.397C191.01 104.194 191.696 103.744 191.986 103.665C195.916 102.594 200.103 104.297 203.408 106.675C205.515 108.188 206.399 109.878 206.966 112.408Z" fill="#248C3A"/>
    <path d="M214.126 77.7953C212.813 82.6765 211.452 87.6634 208.583 91.8287C205.714 95.9885 200.995 99.2372 195.949 98.9606C195.583 98.9417 195.214 98.9037 194.848 98.863C194.433 99.1179 194.031 97.8569 194.034 97.3715C194.059 90.7846 198.522 84.9951 203.653 80.8678C206.92 78.2401 209.936 77.5865 214.126 77.7953Z" fill="#248C3A"/>
    <path d="M182.021 91.8174C184.258 94.0004 186.541 96.2403 187.922 99.047C189.302 101.851 189.63 105.376 187.957 108.015L187.575 108.582C187.585 108.883 186.783 108.717 186.52 108.571C182.975 106.567 181.197 102.412 180.519 98.3989C180.085 95.8417 180.643 94.0167 182.021 91.8174Z" fill="#248C3A"/>
    <path d="M182.767 47.635C184.96 54.0131 187.179 60.5403 187.114 67.2844C187.051 74.0259 184.261 81.1388 178.474 84.599C178.089 84.8298 177.693 85.0425 177.296 85.2557L177.186 85.3149C176.915 85.9034 175.532 84.8105 175.171 84.2709C170.284 76.9708 170.895 67.241 173.484 58.8481C175.136 53.5032 177.983 50.5312 182.767 47.635Z" fill="#248C3A"/>
    <path d="M185.118 179.497C183.008 175.19 179.036 170.092 175.54 169.561C172.408 169.083 170.884 171.513 170.871 171.538L170.965 171.242L168.069 170.689C168.294 169.501 171.207 165.916 175.985 166.646C180.451 167.324 186.802 171.304 189.351 176.508C189.351 176.508 189.49 177.338 187.545 178.708C185.601 180.077 185.118 179.497 185.118 179.497" fill="#29A143"/>
    <path d="M176.638 85.3827C176.47 83.4926 176.415 81.6323 176.418 79.7558C176.426 77.8847 176.502 76.0136 176.676 74.1506C176.863 72.2903 177.129 70.4354 177.538 68.6131C177.969 66.7935 178.531 65.0065 179.311 63.317C178.615 65.0444 178.145 66.845 177.809 68.6673C177.495 70.4951 177.324 72.3418 177.226 74.1885C177.148 76.0379 177.164 77.8901 177.245 79.7368C177.335 81.5808 177.484 83.4384 177.736 85.2444L176.638 85.3827" fill="#29A143"/>
    <path d="M107.236 201.386C107.562 197.98 108.313 194.569 110.265 191.824L109.349 191.203C108.362 192.703 107.64 194.382 107.206 196.101C106.751 197.817 106.542 199.575 106.412 201.316C106.355 202.064 106.314 202.812 106.274 203.558C106.22 204.544 106.167 205.525 106.076 206.498C105.929 208.209 105.604 209.885 105.048 211.506C103.939 214.752 102.084 217.722 99.9064 220.398C97.7289 223.083 95.234 225.504 92.7473 227.915C95.2964 225.572 97.8536 223.218 100.118 220.574C102.38 217.941 104.343 214.988 105.569 211.693C106.181 210.05 106.569 208.309 106.762 206.571C106.882 205.574 106.962 204.578 107.042 203.587C107.102 202.85 107.161 202.117 107.236 201.386Z" fill="#29A143"/>
    <path d="M110.232 180.606C109.278 180.259 108.399 179.738 107.868 178.976L106.97 179.621C107.716 180.633 108.82 181.219 109.885 181.585C110.428 181.766 110.975 181.907 111.518 182.013C112.057 182.13 112.605 182.214 113.156 182.287C115.347 182.577 117.565 182.518 119.74 182.246C121.915 181.972 124.054 181.484 126.132 180.834C128.22 180.213 130.251 179.413 132.236 178.526C133.046 178.172 133.834 177.778 134.623 177.384C134.806 177.293 134.989 177.201 135.173 177.11C135.349 177.014 135.527 176.918 135.704 176.822C136.481 176.402 137.259 175.981 138.015 175.524C139.883 174.42 141.708 173.243 143.462 171.972C146.988 169.45 150.296 166.643 153.463 163.695C150.234 166.575 146.871 169.309 143.305 171.746C141.526 172.975 139.688 174.108 137.808 175.163C137.01 175.625 136.187 176.046 135.366 176.465C135.228 176.536 135.09 176.606 134.953 176.676C134.787 176.755 134.621 176.834 134.455 176.912C133.647 177.296 132.841 177.679 132.013 178.019C130.031 178.854 128.008 179.602 125.936 180.169C123.875 180.768 121.768 181.2 119.645 181.422C117.524 181.642 115.379 181.65 113.286 181.33C112.765 181.248 112.245 181.154 111.732 181.031C111.214 180.92 110.712 180.782 110.232 180.606Z" fill="#29A143"/>
    <path d="M179.271 144.74C184.798 143.338 190.007 140.797 194.861 137.741C199.726 134.679 204.271 131.113 208.748 127.488C204.39 131.254 199.962 134.967 195.165 138.202C192.768 139.821 190.278 141.312 187.678 142.609C185.08 143.905 182.368 144.998 179.564 145.808L179.271 144.74" fill="#29A143"/>
    <path d="M91.6511 231.818C84.9587 229.121 77.783 235.395 73.6189 241.295C70.9048 244.029 68.7298 247.307 67.4285 250.51C60.9407 266.43 101.857 264.931 105.724 251.165C107.88 243.467 97.8972 234.309 91.6511 231.818Z" fill="#744B27"/>
    <path d="M148.833 246.371C145.115 241.22 139.556 234.14 132.734 233.316C127.77 232.698 123.03 238.355 119.182 242.381C115.148 244.929 111.541 247.607 108.772 251.99C106.801 255.136 103.362 263.845 108.047 266.655C114.256 270.345 122.379 271.599 129.481 270.832C134.965 270.232 142.345 268.547 146.081 264.089C149.929 259.519 152.811 251.877 148.833 246.371Z" fill="#744B27"/>
    <path d="M105.63 251.465C105.668 251.371 105.686 251.278 105.723 251.165C106.058 249.948 106.095 248.693 105.891 247.438C106.095 248.693 106.058 249.948 105.723 251.165C105.686 251.278 105.668 251.371 105.63 251.465Z" fill="#543010"/>
    <path d="M82.2814 261.972C73.9903 261.972 66.7217 259.35 66.7403 253.713C66.7403 252.739 66.9448 251.671 67.4281 250.51C67.7441 249.742 68.0973 248.974 68.5063 248.206C72.1127 253.656 82.0955 255.717 89.5128 255.717C91.1859 255.717 92.7102 255.604 94.0301 255.417C101.689 254.275 103.883 247.082 102.451 240.321C104.199 242.55 105.5 245.003 105.89 247.438C106.095 248.693 106.058 249.948 105.723 251.165C105.686 251.278 105.667 251.371 105.63 251.465C103.437 258.245 92.134 261.972 82.2814 261.972Z" fill="#67401F"/>
    <path d="M125.392 271.038C119.406 271.038 113.085 269.652 108.047 266.655C106.318 265.625 105.686 263.789 105.705 261.71C105.705 258.189 107.527 253.975 108.772 251.99C109.609 250.679 110.538 249.555 111.505 248.506C111.319 250.416 111.431 252.327 111.951 254.275C113.922 261.373 121.097 263.358 127.845 263.358C130.225 263.358 132.567 263.115 134.594 262.74C136.322 262.441 138.051 261.86 139.687 261.036C139.762 261.111 139.836 261.205 139.929 261.279C141.583 262.928 143.907 263.527 146.268 263.864C146.212 263.939 146.138 264.014 146.082 264.089C142.346 268.546 134.965 270.232 129.481 270.832C128.143 270.963 126.786 271.038 125.392 271.038Z" fill="#67401F"/>
</svg>