<svg width="260" height="162" viewBox="0 0 260 162" fill="none" xmlns="http://www.w3.org/2000/svg">
    <path d="M237.27 146.442C178.378 142.846 169.455 160.826 123.054 160.826C98.0696 160.826 87.362 164.422 42.7464 159.028C-32.2077 150.038 23.1156 141.047 14.1924 137.452C-9.00769 132.058 -5.43845 119.471 37.3925 110.481C244.409 67.3284 296.163 150.038 237.27 146.442Z" fill="black" fill-opacity="0.15"/>
    <path d="M58.9684 145.311C96.5519 139.172 103.453 150.67 133.248 147.734C149.292 146.154 156.402 147.889 184.701 141.447C212.037 137.016 248.356 123.82 174.949 106.482C39.2044 90.631 21.3849 151.449 58.9684 145.311Z" fill="black" fill-opacity="0.15"/>
    <path d="M152.034 98.7454C148.539 95.6363 143.873 96.4042 139.69 98.2772L138.891 98.3521C133.593 99.2699 129.893 102.622 127.514 107.267C124.8 112.568 127.644 117.569 131.641 120.977C136.158 124.798 142.293 126.409 148.111 126.165C152.833 125.959 158.726 121.876 159.172 116.782C159.73 110.283 156.83 103.072 152.034 98.7454Z" fill="#5F3913"/>
    <path d="M238.272 121.483C237.659 120.079 236.785 119.161 235.8 118.487L235.614 118.355L234.963 117.925C232.547 116.501 228.754 116.707 226.393 117.101C220.538 118.093 216.281 121.277 216.504 127.739C216.708 133.976 223.754 135.062 228.438 133.751C232.937 132.459 240.931 127.327 238.272 121.483Z" fill="#5F3913"/>
    <path d="M116.429 56.0343C116.429 56.0343 99.6646 64.1774 84.7777 61.3989L88.3228 56.3009C88.3228 56.3009 69.8224 57.7094 64.9953 54.464L74.8771 47.5498C74.8771 47.5498 57.8148 44.2822 49 39.3923C49 39.3923 68.4509 30.3007 77.0468 32.4722C77.0468 32.4722 75.6249 27.5065 73.7346 25.4482C73.7346 25.4482 87.0777 23.4793 94.0307 32.2403C94.0307 32.2403 93.2454 28.2031 93.6872 25.849C93.6872 25.849 119.496 35.6921 116.429 56.0343Z" fill="#29A143"/>
    <path d="M137.903 70.5749C137.458 69.8265 130.217 62.4455 112.783 70.7793C112.783 70.7793 118.723 73.3625 120.197 73.7848C120.197 73.7848 105.145 77.2915 97.8426 83.265C97.8426 83.265 103.888 83.6818 105.195 85.3635C105.195 85.3635 105.331 87.9227 96.0975 92.826C86.8671 97.7171 78.9855 103.826 78.9855 103.826C78.9855 103.826 97.9703 102.149 112.773 93.6679L112.942 98.9657C112.942 98.9657 124.621 92.128 124.987 85.174C124.987 85.174 127.024 90.6528 128.444 92.1528C128.444 92.1528 144.893 82.2118 137.903 70.5749Z" fill="#29A143"/>
    <path d="M135.525 66.6208C134.668 66.7512 124.365 65.8527 119.711 47.0907C119.711 47.0907 125.482 50.0357 126.745 50.9101C126.745 50.9101 119.885 37.061 119.851 27.6264C119.851 27.6264 124.021 32.0267 126.143 31.9697C126.143 31.9697 128.212 30.4456 126.126 20.2054C124.034 9.96658 123.738 0 123.738 0C123.738 0 134.512 15.7184 137.378 32.542L141.568 29.2973C141.568 29.2973 143.72 42.66 138.58 47.3638C138.58 47.3638 144.107 45.4546 146.172 45.5952C146.172 45.5952 148.956 64.6086 135.525 66.6208Z" fill="#29A143"/>
    <path d="M149.689 94.0471C148.967 93.743 141.452 88.1762 146.739 71.5257C146.739 71.5257 149.791 76.5202 150.357 77.7874C150.357 77.7874 151.612 63.8729 156.05 56.5803C156.05 56.5803 157.186 61.9468 158.849 62.9066C158.849 62.9066 161.159 62.7137 164.399 53.8349C167.627 44.9533 169.136 34.7273 169.136 34.7273C169.136 34.7273 172.986 54.3388 167.236 68.656L172 68.1449C172 68.1449 167.335 79.4571 161.159 80.6541C161.159 80.6541 166.312 81.7911 167.838 82.8752C167.838 82.8752 160.993 98.8464 149.689 94.0471Z" fill="#29A143"/>
    <path d="M146.986 96.5838C146.541 95.8353 139.294 88.4556 121.86 96.7894C121.86 96.7894 127.8 99.3725 129.273 99.7893C129.273 99.7893 114.221 103.296 106.92 109.275C106.92 109.275 112.965 109.692 114.272 111.373C114.272 111.373 114.413 113.931 105.179 118.829C95.9443 123.727 84.9752 126.939 84.9752 126.939C84.9752 126.939 107.048 128.159 121.856 119.677L122.019 124.976C122.019 124.976 133.698 118.138 134.064 111.184C134.064 111.184 136.1 116.657 137.522 118.163C137.522 118.163 153.965 108.223 146.986 96.5838Z" fill="#29A143"/>
    <path d="M147.336 109.65C147.49 106.81 147.375 103.803 147.132 100.883C146.877 97.9427 146.449 95.0201 145.844 92.1271C144.647 86.3495 142.694 80.7023 139.802 75.5436C139.424 74.9076 139.088 74.2505 138.679 73.6331L137.471 71.7771C136.592 70.5915 135.735 69.3832 134.743 68.2813C132.814 66.0417 130.669 63.9669 128.262 62.2178L127.375 61.5397L126.44 60.9302C125.813 60.5359 125.203 60.1093 124.557 59.7311C123.245 59.0313 121.962 58.2614 120.578 57.6989C117.876 56.4093 114.989 55.5593 112.095 54.7798C115.018 55.4376 117.952 56.1675 120.722 57.355C122.145 57.8625 123.474 58.5872 124.828 59.2428C125.503 59.5971 126.138 60.0062 126.793 60.3764L127.768 60.9596L128.7 61.6044C131.223 63.2861 133.507 65.3169 135.581 67.5343C136.644 68.6197 137.573 69.8225 138.529 71.0134L139.856 72.8647C140.3 73.4854 140.677 74.1444 141.096 74.7823C144.288 79.9743 146.551 85.7162 148.031 91.6232C148.776 94.5755 149.343 97.5749 149.738 100.603C150.114 103.647 150.364 106.64 150.325 109.804L147.336 109.65Z" fill="#248C3A"/>
    <path d="M212.99 96.9663C207.283 88.1072 194.53 76.7384 183.023 80.8776C180.811 81.7017 178.692 82.7505 176.628 83.9118C175.699 84.0991 174.769 84.38 173.84 84.867C162.091 91.0852 149.766 103.99 143.669 115.864C129.485 143.49 180.848 144.071 195.962 142.367C202.059 141.674 224.627 139.482 226.17 131.017C228.624 117.719 219.645 107.305 212.99 96.9663Z" fill="#8A5D3B"/>
    <path d="M184.399 142.928C177.279 142.928 168.784 142.367 161.218 140.7C161.403 140.55 161.571 140.4 161.738 140.213C163.541 138.059 162.705 132.889 161.534 130.586C159.768 127.102 157.481 124.705 153.689 123.749C153.094 123.599 152.499 123.543 151.923 123.543C151.476 123.543 151.03 123.581 150.584 123.656C150.268 122.663 149.785 121.708 149.134 120.809C147.758 118.898 146.123 116.726 144.301 114.684C147.498 108.822 152.183 102.772 157.481 97.4343C157.239 98.5956 157.053 99.7755 156.979 100.974C155.808 117.494 168.449 127.308 183.339 130.473C186.648 131.185 190.013 131.56 193.285 131.56C206.019 131.56 217.266 125.791 219.013 111.126C219.218 109.328 219.162 107.623 218.957 105.938C223.847 113.504 227.899 121.502 226.189 130.96C226.189 130.979 226.189 130.998 226.17 131.016C225.947 132.215 225.315 133.283 224.367 134.238C218.586 140.063 201.204 141.767 195.962 142.367C193.155 142.685 189.065 142.928 184.399 142.928Z" fill="#7E5131"/>
    <path d="M59.9739 126.345C55.8284 121.962 51.4226 122.411 47.2957 124.565C46.1431 124.771 45.0091 125.052 43.9681 125.408C40.12 126.757 27.5719 133.106 33.8553 138.875C37.1456 141.871 41.4213 141.89 45.6412 142.19C50.2329 142.508 56.5162 142.546 60.7919 140.729C68.5624 137.395 64.2868 130.896 59.9739 126.345Z" fill="#5F3913"/>
    <path d="M50.2328 142.359C48.6155 142.359 47.054 142.284 45.6412 142.19C41.4213 141.89 37.1456 141.872 33.8552 138.875C33.5392 138.575 33.2603 138.275 33.0373 137.976C33.2603 138.275 33.5392 138.575 33.8552 138.875C37.1456 141.872 41.4213 141.89 45.6412 142.19C47.054 142.284 48.6155 142.359 50.2328 142.359C53.895 142.359 57.8361 141.984 60.7919 140.729C63.9335 139.381 65.1047 137.508 65.1047 135.466C65.1047 137.508 63.9335 139.381 60.7919 140.729C57.8361 141.984 53.895 142.359 50.2328 142.359ZM32.1821 134.867C32.2007 134.754 32.2193 134.642 32.2379 134.548C32.2193 134.661 32.2007 134.754 32.1821 134.867ZM59.9739 126.345C59.8252 126.176 59.6765 126.026 59.5278 125.895C59.6765 126.026 59.8252 126.176 59.9739 126.345Z" fill="#748535"/>
    <path d="M50.2331 142.358C48.6157 142.358 47.0542 142.283 45.6414 142.19C41.4215 141.89 37.1458 141.871 33.8554 138.875C33.5394 138.575 33.2606 138.275 33.0375 137.976C32.2567 136.945 32.015 135.897 32.1824 134.866C32.2009 134.754 32.2195 134.66 32.2381 134.548C35.1381 138.331 42.4068 140.129 48.6343 140.129C52.2036 140.129 55.4568 139.549 57.3158 138.388C62.428 135.241 60.4389 128.03 56.1818 123.647C57.3158 124.116 58.4312 124.827 59.528 125.895C59.6767 126.026 59.8254 126.176 59.9741 126.345C62.5395 129.06 65.1049 132.469 65.1049 135.466C65.1049 137.507 63.9338 139.38 60.7921 140.729C57.8363 141.984 53.8953 142.358 50.2331 142.358Z" fill="#532F11"/>
    <path d="M161.533 130.585C159.767 127.102 157.48 124.704 153.688 123.749C149.766 122.775 145.806 125.397 142.478 127.27C141.753 127.495 141.047 127.776 140.396 128.169C137.069 130.211 137.087 133.938 139.727 136.598C142.553 139.426 147.293 139.351 151.011 139.857C153.911 140.25 159.358 143.059 161.738 140.212C163.541 138.059 162.704 132.889 161.533 130.585Z" fill="#5F3913"/>
    <path d="M111.077 108.533C108.772 108.383 100.072 110.275 100.778 113.89L100.871 114.058L100.09 114.995C97.6366 119.471 100.964 124.996 105.76 125.483C108.363 125.745 111.728 125.165 114.126 124.135C116.598 123.067 117.769 121.999 118.253 119.227C118.978 114.957 115.669 108.795 111.077 108.533Z" fill="#5F3913"/>
    <path d="M91.6508 105.817C84.9585 103.12 77.7828 109.394 73.6187 115.294C70.9046 118.029 68.7296 121.306 67.4283 124.509C60.9404 140.429 101.857 138.931 105.723 125.165C107.88 117.467 97.897 108.308 91.6508 105.817Z" fill="#744B27"/>
    <path d="M148.832 120.37C145.114 115.219 139.556 108.14 132.734 107.316C127.77 106.697 123.03 112.354 119.182 116.381C115.148 118.928 111.541 121.606 108.771 125.989C106.801 129.135 103.362 137.845 108.046 140.654C114.255 144.344 122.379 145.599 129.48 144.831C134.964 144.231 142.345 142.546 146.081 138.088C149.929 133.518 152.811 125.877 148.832 120.37Z" fill="#744B27"/>
    <path d="M105.63 125.464C105.668 125.37 105.686 125.277 105.723 125.164C106.058 123.947 106.095 122.692 105.891 121.437C106.095 122.692 106.058 123.947 105.723 125.164C105.686 125.277 105.668 125.37 105.63 125.464Z" fill="#543010"/>
    <path d="M82.2811 135.972C73.9901 135.972 66.7214 133.35 66.74 127.712C66.74 126.738 66.9445 125.67 67.4278 124.509C67.7439 123.741 68.0971 122.973 68.5061 122.205C72.1125 127.656 82.0952 129.716 89.5126 129.716C91.1856 129.716 92.71 129.604 94.0299 129.416C101.689 128.274 103.882 121.082 102.451 114.32C104.199 116.549 105.5 119.003 105.89 121.438C106.095 122.692 106.057 123.947 105.723 125.165C105.686 125.277 105.667 125.371 105.63 125.464C103.436 132.244 92.1337 135.972 82.2811 135.972Z" fill="#67401F"/>
    <path d="M125.391 145.037C119.405 145.037 113.085 143.651 108.047 140.654C106.318 139.624 105.686 137.788 105.705 135.709C105.705 132.188 107.527 127.974 108.772 125.989C109.609 124.678 110.538 123.554 111.505 122.505C111.319 124.416 111.43 126.326 111.951 128.274C113.921 135.372 121.097 137.358 127.845 137.358C130.225 137.358 132.567 137.114 134.593 136.74C136.322 136.44 138.051 135.859 139.687 135.035C139.761 135.11 139.836 135.204 139.929 135.279C141.583 136.927 143.907 137.526 146.268 137.863C146.212 137.938 146.138 138.013 146.082 138.088C142.345 142.546 134.965 144.231 129.481 144.831C128.143 144.962 126.786 145.037 125.391 145.037Z" fill="#67401F"/>
</svg>