<svg width="260" height="224" viewBox="0 0 260 224" fill="none" xmlns="http://www.w3.org/2000/svg">
<path d="M237.27 208.448C178.378 204.853 169.455 222.826 123.054 222.826C98.0696 222.826 87.362 226.421 42.7464 221.029C-32.2077 212.042 23.1156 203.056 14.1924 199.462C-9.00769 194.07 -5.43845 181.489 37.3925 172.502C244.409 129.367 296.163 212.042 237.27 208.448Z" fill="black" fill-opacity="0.15"/>
<path d="M58.9684 207.318C96.5519 201.182 103.453 212.675 133.248 209.74C149.292 208.16 156.402 209.894 184.701 203.455C212.037 199.026 248.356 185.835 174.949 168.505C39.2044 152.66 21.3849 213.454 58.9684 207.318Z" fill="black" fill-opacity="0.15"/>
<path d="M152.034 160.771C148.539 157.663 143.873 158.431 139.69 160.303L138.891 160.378C133.593 161.295 129.893 164.647 127.514 169.29C124.8 174.588 127.644 179.587 131.641 182.994C136.158 186.813 142.293 188.423 148.111 188.18C152.833 187.974 158.726 183.893 159.172 178.8C159.73 172.304 156.83 165.096 152.034 160.771Z" fill="#5F3913"/>
<path d="M238.272 183.5C237.659 182.096 236.785 181.178 235.8 180.504L235.614 180.373L234.963 179.943C232.547 178.52 228.754 178.726 226.393 179.119C220.538 180.111 216.281 183.294 216.504 189.753C216.708 195.987 223.754 197.073 228.438 195.763C232.937 194.471 240.931 189.341 238.272 183.5Z" fill="#5F3913"/>
<path d="M212.99 158.992C207.283 150.137 194.53 138.773 183.023 142.91C180.811 143.734 178.692 144.783 176.628 145.943C175.699 146.13 174.769 146.411 173.84 146.898C162.091 153.114 149.766 166.013 143.669 177.883C129.485 205.498 180.848 206.078 195.962 204.374C202.059 203.682 224.627 201.491 226.17 193.029C228.624 179.736 219.645 169.327 212.99 158.992Z" fill="#8A5D3B"/>
<path d="M184.399 204.936C177.279 204.936 168.784 204.374 161.218 202.708C161.403 202.558 161.571 202.409 161.738 202.221C163.541 200.068 162.705 194.901 161.534 192.598C159.768 189.116 157.481 186.72 153.689 185.765C153.094 185.615 152.499 185.559 151.923 185.559C151.476 185.559 151.03 185.596 150.584 185.671C150.268 184.679 149.785 183.724 149.134 182.825C147.758 180.916 146.123 178.744 144.301 176.703C147.498 170.843 152.183 164.796 157.481 159.46C157.239 160.621 157.053 161.801 156.979 162.999C155.808 179.512 168.449 189.322 183.339 192.486C186.648 193.197 190.013 193.572 193.285 193.572C206.019 193.572 217.266 187.805 219.013 173.146C219.218 171.349 219.162 169.645 218.957 167.96C223.847 175.524 227.899 183.518 226.189 192.973C226.189 192.991 226.189 193.01 226.17 193.029C225.947 194.227 225.315 195.294 224.367 196.249C218.586 202.072 201.204 203.775 195.962 204.374C193.155 204.693 189.065 204.936 184.399 204.936Z" fill="#7E5131"/>
<path d="M118.312 12.3714C118.066 12.9906 117.84 13.5976 117.633 14.1792C116.258 18.0481 115.301 22.0885 114.653 26.1437C113.786 31.5711 116.035 34.4255 116.803 39.6747C117.472 44.2458 115.471 48.7713 115.072 53.3826C114.427 60.847 117.86 68.0742 120.919 74.6126C121.936 76.7902 122.807 78.8942 123.363 81.2527C124.424 85.7555 122.788 87.9037 121.527 92.0594C120.269 96.2043 121.954 100.73 124.503 104.179C127.107 107.704 130.347 110.672 132.986 114.151C135.048 116.87 138.061 122.409 137.183 126.059C139.232 117.547 142.877 109.889 146.007 101.862C148.604 95.2005 153.866 90.1738 155.784 83.0605C157.596 76.3399 156.737 69.0028 153.983 62.8276C152.088 58.5822 149.244 54.7227 148.219 50.1717C146.397 42.0735 150.689 33.7179 150.07 25.4267C149.326 15.4724 143.091 2.3662 132.604 0.199256C125.226 -1.3231 120.768 6.18819 118.312 12.3714" fill="#71A82C"/>
<path d="M123.725 103.036C123.461 102.622 123.216 102.195 122.981 101.759C130.809 104.596 136.682 106.904 136.605 107.129C136.529 107.345 131.053 105.593 123.725 103.036Z" fill="#689C2D"/>
<path d="M134.029 90.6387C134.503 90.0557 136.045 88.4878 138.363 86.2633C141.238 83.5027 145.284 79.7691 149.85 75.7609C152.099 73.7869 154.263 71.9335 156.253 70.2611C156.293 70.4881 156.322 70.7169 156.351 70.9459C156.366 71.0706 156.382 71.1964 156.4 71.3211C154.239 73.2093 152.334 74.8737 150.472 76.4992C148.459 78.2735 146.407 80.0819 144.021 82.185L138.813 86.7752C136.422 88.8778 134.762 90.3036 134.141 90.7432L134.163 90.7821L134.07 90.7942L133.861 90.8987L133.925 90.7673C132.906 90.5167 128.706 88.7639 123.404 86.3785C123.477 86.0609 123.547 85.7406 123.594 85.4123C129.053 87.9558 133.263 90.0638 134.029 90.6387Z" fill="#689C2D"/>
<path d="M126.898 55.9924L126.897 55.9917C124.422 54.3448 121.17 52.1805 117.641 49.7561C117.05 49.3487 116.472 48.9493 115.902 48.5527C115.827 48.8944 115.753 49.2375 115.682 49.5792C116.147 49.9062 116.622 50.2359 117.103 50.5669C120.949 53.2096 124.527 55.4529 127.162 56.994C129.799 58.5378 131.483 59.3954 131.548 59.2815C131.617 59.1623 130.056 58.0942 127.519 56.4057L126.898 55.9924Z" fill="#689C2D"/>
<path d="M126.429 38.1299C123.571 36.1305 119.651 33.3336 115.428 30.096C115.17 29.8976 114.919 29.702 114.667 29.5061L114.503 29.3791C114.53 29.8387 114.581 30.285 114.647 30.7192L114.85 30.8772C119.093 34.131 123.095 36.8514 126.056 38.7088C127.736 39.7648 129.059 40.5381 129.916 41.0004C129.783 41.1438 129.708 41.2429 129.725 41.263C129.748 41.2898 129.871 41.2282 130.087 41.0928C130.64 41.3863 130.963 41.5271 130.988 41.4828C131.015 41.4386 130.789 41.2429 130.358 40.9173C130.516 40.8139 130.701 40.6894 130.915 40.546C131.728 40.0016 132.944 39.1868 134.53 38.2385L136.292 37.2083C140.524 34.7347 143.545 32.9686 146.369 31.3181C147.637 30.565 148.866 29.8306 150.048 29.1204C150.075 28.7438 150.094 28.3672 150.107 27.9907C148.756 28.7813 147.348 29.6095 145.891 30.4739C145.365 30.7885 144.845 31.0994 144.331 31.4062C140.351 33.7836 136.78 35.9165 134.173 37.6542C132.154 39.0037 130.791 40.1428 130.15 40.7646C129.45 40.247 128.346 39.4732 126.925 38.4772L126.429 38.1299Z" fill="#689C2D"/>
<path d="M132.122 25.6521C132.14 25.6293 132.068 25.5315 131.937 25.3868C132.517 25.3104 138.301 21.7939 145.257 17.2765C146.131 16.7096 146.983 16.1535 147.805 15.6121C147.731 15.4173 147.649 15.2253 147.566 15.0332C147.521 14.9293 147.477 14.8253 147.433 14.7208C146.565 15.2783 145.666 15.8573 144.746 16.4536C137.739 21.0033 132.138 24.8815 131.899 25.3412C131.389 24.7931 130.039 23.5575 128.082 21.8837C125.521 19.6926 121.914 16.7699 117.818 13.6849C117.792 13.7568 117.764 13.8308 117.735 13.9048C117.7 13.9976 117.664 14.0908 117.633 14.1794C117.604 14.2618 117.578 14.3452 117.552 14.4286C117.529 14.5026 117.505 14.5768 117.48 14.6498C120.193 16.723 123.193 19.0146 127.659 22.4251C130.351 24.4969 132.036 25.7593 132.122 25.6521Z" fill="#689C2D"/>
<path d="M135.349 55.4732C132.898 57.5209 131.352 58.7565 131.263 58.6547C131.177 58.5555 132.565 57.1363 134.908 54.9519C137.25 52.7675 140.55 49.8234 144.281 46.6755C145.518 45.6329 146.704 44.6546 147.857 43.7125C147.825 44.136 147.805 44.5581 147.79 44.9789C146.74 45.866 145.793 46.6647 144.888 47.4272C142.921 49.0863 140.755 50.9131 137.75 53.4482L135.349 55.4732Z" fill="#689C2D"/>
<path d="M144.597 59.1345C140.654 62.6595 137.111 65.8272 134.577 68.2784C132.799 70.0031 131.802 71.5523 131.36 72.4273C128.741 71.0336 123.331 68.3909 116.996 65.432L117.084 65.6847C117.206 66.0318 117.327 66.3782 117.457 66.7212C123.419 69.4885 128.548 71.764 131.173 72.824C131.089 73.0317 131.055 73.163 131.082 73.1711C131.11 73.1885 131.197 73.0799 131.338 72.8896C132.395 73.3131 133.016 73.5235 133.047 73.4552C133.077 73.3895 132.542 73.0639 131.589 72.5506C132.159 71.7787 133.236 70.3689 135.038 68.7809C139.283 65.061 142.289 62.4288 145.046 60.014L145.848 59.3117C147.359 57.9676 148.812 56.6664 150.181 55.4308C150.039 55.1413 149.905 54.8505 149.771 54.5584C148.329 55.8221 146.8 57.1716 145.221 58.5774L144.597 59.1345Z" fill="#689C2D"/>
<path d="M147.232 99.1809C144.559 101.044 142.18 102.742 140.363 104.075C138.01 105.802 136.589 106.929 136.661 107.042C136.73 107.156 138.28 106.235 140.729 104.654C142.309 103.634 144.287 102.319 146.459 100.852C146.706 100.288 146.953 99.7236 147.232 99.1809Z" fill="#689C2D"/>
<path d="M195.996 37.5239C196.004 38.1189 196 38.6965 195.987 39.2486C195.904 42.9111 195.418 46.5843 194.671 50.1691C193.672 54.968 190.892 56.623 188.587 60.7492C186.578 64.342 186.809 68.7536 185.677 72.7204C183.846 79.1448 178.693 84.0616 174.07 88.5268C172.531 90.013 171.137 91.4871 169.926 93.2722C167.613 96.6827 168.294 98.9971 168.026 102.862C167.757 106.717 164.918 109.947 161.699 112.003C158.412 114.101 154.772 115.534 151.47 117.586C148.89 119.188 144.623 122.835 144.196 126.156C145.19 118.41 144.585 110.861 144.526 103.173C144.476 96.79 141.69 90.9149 142.35 84.3752C142.974 78.1973 146.017 72.3626 150.272 68.1024C153.197 65.1742 156.791 62.8719 159.088 59.4104C163.177 53.25 162.253 44.9145 165.402 38.2073C169.181 30.156 178.533 21.2403 187.955 22.8015C194.584 23.9004 195.912 31.5859 195.996 37.5239" fill="#6FC42D"/>
<path d="M162.71 111.3C163.062 111.039 163.402 110.762 163.735 110.475C156.315 110.326 150.691 110.362 150.685 110.576C150.679 110.779 155.796 111.078 162.71 111.3Z" fill="#689C2D"/>
<path d="M158.064 97.6693C157.855 97.0301 157.067 95.229 155.843 92.6332C154.325 89.4116 152.14 85.004 149.609 80.1997C148.361 77.8344 147.148 75.5964 146.021 73.5648C145.917 73.7384 145.822 73.9174 145.727 74.0966C145.673 74.1983 145.619 74.3002 145.563 74.4011L146.585 76.3306C147.382 77.834 148.126 79.2366 148.856 80.6165L151.12 84.9337C152.331 87.2451 153.672 89.8021 155.304 92.9159C156.629 95.434 157.56 97.1547 157.936 97.7202L157.907 97.7457L157.981 97.7845L158.121 97.9386L158.109 97.8087C159.037 97.9266 163.093 97.8141 168.266 97.5286C168.304 97.2405 168.349 96.9523 168.414 96.6642C163.059 97.0301 158.885 97.4348 158.064 97.6693Z" fill="#689C2D"/>
<path d="M174.796 71.1454C177.405 70.5628 180.881 69.7864 184.688 68.877C185.311 68.7269 185.918 68.5795 186.519 68.4321C186.474 68.7397 186.426 69.0459 186.378 69.3522L186.377 69.3581C185.885 69.4814 185.384 69.6033 184.879 69.7253C180.837 70.6915 177.145 71.4112 174.46 71.8494C171.776 72.2903 170.101 72.4631 170.082 72.3479C170.063 72.2259 171.701 71.8386 174.35 71.2449L174.796 71.1454Z" fill="#689C2D"/>
<path d="M181.06 56.3741C184.074 55.625 188.226 54.5529 192.771 53.2115C192.98 53.15 193.186 53.088 193.391 53.0262L193.52 52.9874C193.603 52.9624 193.687 52.9375 193.77 52.9126C193.601 53.2865 193.417 53.6416 193.224 53.982L193.004 54.049C188.438 55.3958 184.242 56.3781 181.186 56.9758C179.452 57.3148 178.105 57.5346 177.244 57.6458C177.309 57.808 177.34 57.9139 177.319 57.9246C177.291 57.9407 177.209 57.8496 177.073 57.6673C176.519 57.7343 176.205 57.7477 176.198 57.7035C176.189 57.6579 176.44 57.5668 176.902 57.4341C176.803 57.2957 176.685 57.1298 176.55 56.9387C176.046 56.2247 175.293 55.1591 174.278 53.8641L170.096 48.6453C168.803 47.0325 167.687 45.6395 166.614 44.3011C165.797 43.2679 165.007 42.2628 164.247 41.2899C164.344 40.9683 164.448 40.648 164.557 40.3317C165.431 41.4226 166.342 42.5657 167.28 43.7517C167.634 44.2017 167.983 44.6463 168.328 45.0848C170.869 48.3196 173.149 51.221 174.761 53.4915C176.015 55.2645 176.787 56.6501 177.124 57.3725C177.901 57.1581 179.133 56.8524 180.724 56.4575L181.06 56.3741Z" fill="#689C2D"/>
<path d="M180.278 44.1536C180.27 44.1295 180.362 44.0719 180.517 43.9928C180.057 43.7435 176.357 38.9581 171.997 32.9638C171.449 32.212 170.916 31.4749 170.403 30.7593C170.525 30.6231 170.654 30.4908 170.782 30.3585C170.854 30.285 170.925 30.2116 170.995 30.1375C171.542 30.8799 172.107 31.6505 172.684 32.4425C177.076 38.481 180.51 43.5077 180.564 43.9673C181.16 43.6739 182.678 43.0775 184.839 42.3123C187.667 41.3086 191.6 40.0314 195.989 38.7757C195.988 38.8462 195.988 38.9189 195.989 38.9915C195.989 39.0787 195.989 39.1663 195.987 39.2488C195.985 39.333 195.98 39.4167 195.975 39.5004C195.971 39.5634 195.968 39.6265 195.965 39.6897C193.458 40.4244 190.724 41.2264 186.957 42.3311L185.02 42.8993C182.119 43.7596 180.317 44.2716 180.278 44.1536Z" fill="#689C2D"/>
<path d="M168.125 67.9564C169.517 70.449 170.412 71.974 170.519 71.9164C170.621 71.8615 169.916 70.2346 168.658 67.6629C167.401 65.0926 165.587 61.5815 163.479 57.7622C162.779 56.4972 162.101 55.3018 161.44 54.1479C161.333 54.5098 161.216 54.8676 161.094 55.2241C161.362 55.7102 161.619 56.175 161.867 56.6239L161.87 56.6299C162.169 57.171 162.455 57.6894 162.733 58.1938L168.125 67.9564Z" fill="#689C2D"/>
<path d="M159.284 68.0802C161.439 72.2645 163.376 76.0237 164.704 78.8686C165.639 80.8747 165.976 82.4855 166.068 83.3553C168.69 83.035 174.034 82.57 180.251 82.1398C180.166 82.2381 180.083 82.337 179.999 82.4359C179.82 82.647 179.641 82.8582 179.457 83.0645C173.613 83.4558 168.62 83.705 166.096 83.7466C166.1 83.9462 166.087 84.0669 166.061 84.0642C166.033 84.0695 165.994 83.9516 165.938 83.7479C164.923 83.7613 164.339 83.7385 164.335 83.6715C164.331 83.6058 164.879 83.5067 165.836 83.3848C165.607 82.5593 165.157 81.0396 164.161 79.1393C162.9 76.7522 161.837 74.7386 160.886 72.9386L160.851 72.8726C159.866 71.0076 159.002 69.371 158.163 67.7832C157.331 66.1791 156.535 64.6287 155.786 63.1612C155.995 62.9665 156.198 62.7677 156.4 62.569L156.403 62.5662C157.204 64.0806 158.049 65.6954 158.919 67.3718L159.284 68.0802Z" fill="#689C2D"/>
<path d="M144.356 100.545C145.99 102.955 147.433 105.132 148.524 106.826C149.934 109.02 150.761 110.414 150.665 110.486C150.571 110.557 149.572 109.293 148.034 107.191C147.043 105.834 145.812 104.106 144.47 102.185C144.468 102.147 144.466 102.11 144.464 102.072C144.438 101.56 144.412 101.05 144.356 100.545Z" fill="#689C2D"/>
<path d="M80.2479 31.61C80.1876 32.2224 80.1406 32.816 80.1058 33.3842C79.8684 37.1607 80.0441 40.9773 80.4973 44.7242C81.1035 49.7416 83.8178 51.6673 85.8266 56.095C87.5767 59.9518 86.9517 64.4707 87.7657 68.6438C89.084 75.3979 93.9532 80.8681 98.3156 85.8319C99.7693 87.4842 101.073 89.1111 102.162 91.0449C104.24 94.7382 103.336 97.0633 103.273 101.062C103.21 105.049 105.847 108.599 108.977 110.97C112.174 113.392 115.792 115.157 119.009 117.532C121.522 119.385 125.591 123.479 125.738 126.93C125.396 118.882 126.682 111.164 127.421 103.259C128.033 96.6975 131.418 90.876 131.313 84.0964C131.214 77.6894 128.597 71.4432 124.596 66.722C121.843 63.4763 118.349 60.8202 116.289 57.0746C112.626 50.4116 114.31 41.91 111.662 34.7579C108.482 26.1732 99.6446 16.2537 89.8148 17.1074C82.8991 17.7077 80.8568 25.5085 80.2479 31.61" fill="#6FC42D"/>
<path d="M107.998 110.166C107.66 109.871 107.334 109.558 107.016 109.235C114.663 109.676 120.445 110.163 120.433 110.383C120.421 110.593 115.131 110.49 107.998 110.166Z" fill="#689C2D"/>
<path d="M113.977 96.5153C114.25 95.8761 115.218 94.0857 116.705 91.5127C118.552 88.3192 121.185 83.9598 124.212 79.2199C125.703 76.8868 127.149 74.6809 128.487 72.6802C128.578 72.8657 128.66 73.056 128.741 73.2465C128.789 73.3573 128.836 73.4681 128.886 73.578C127.451 75.812 126.186 77.7819 124.951 79.7076L124.114 81.0235C122.158 84.1008 120.062 87.3973 117.235 91.8463C115.65 94.3309 114.542 96.0261 114.103 96.5769L114.132 96.6064L114.054 96.6399L113.894 96.7873L113.918 96.6547C112.953 96.7029 108.792 96.2633 103.495 95.5557C103.48 95.2569 103.46 94.9554 103.419 94.6539C108.895 95.4593 113.154 96.2084 113.977 96.5153Z" fill="#689C2D"/>
<path d="M98.9141 67.8355C96.3045 67.0342 92.8689 65.9794 89.1213 64.7669C88.5103 64.5695 87.9121 64.3733 87.3217 64.1797L87.2773 64.1652C87.2975 64.4868 87.3189 64.8071 87.3417 65.1274C87.8379 65.2936 88.3408 65.4597 88.8504 65.6246C92.9231 66.9419 96.6578 67.9778 99.3814 68.6438C102.105 69.3112 103.812 69.6235 103.842 69.5069C103.873 69.3822 102.222 68.8515 99.5478 68.0301L98.9141 67.8355Z" fill="#689C2D"/>
<path d="M93.954 52.1954C90.9192 51.1836 86.7419 49.7497 82.1838 48.0062C81.971 47.9244 81.7615 47.8431 81.5524 47.762L81.1833 47.6189C81.3242 48.0169 81.4811 48.3975 81.65 48.762L81.8713 48.8492C86.4496 50.5993 90.6805 51.9461 93.7716 52.8038C95.5257 53.2916 96.8922 53.6266 97.7678 53.8088C97.686 53.9697 97.6444 54.0769 97.6659 54.0903C97.6927 54.1077 97.7853 54.0206 97.9422 53.845C98.5054 53.9576 98.8272 53.9964 98.8393 53.9522C98.8514 53.9053 98.6019 53.7914 98.1379 53.6186C98.2485 53.4887 98.378 53.3339 98.5265 53.1564L98.5273 53.1555C99.1085 52.4608 99.9812 51.4179 101.151 50.1558L109.877 40.9304C110.809 39.9321 111.709 38.9605 112.577 38.0225C112.506 37.6821 112.427 37.3457 112.342 37.0106C111.347 38.064 110.31 39.1655 109.24 40.3127C108.863 40.7196 108.489 41.122 108.121 41.5192L108.111 41.5301C105.184 44.6823 102.559 47.5103 100.687 49.7336C99.2416 51.4569 98.3257 52.8212 97.9154 53.5381C97.1819 53.2723 96.0444 52.8928 94.5825 52.4051L93.954 52.1954Z" fill="#689C2D"/>
<path d="M95.8334 39.6871C95.8441 39.663 95.7556 39.596 95.6027 39.5022C96.0976 39.2824 100.325 34.655 105.339 28.8376C105.969 28.1073 106.58 27.3916 107.172 26.6975C107.058 26.5467 106.938 26.4004 106.817 26.2542C106.75 26.173 106.683 26.0918 106.618 26.01C105.989 26.7297 105.34 27.4774 104.677 28.2466C99.6285 34.1069 95.6523 39.0037 95.5571 39.4727C94.9684 39.1229 93.4597 38.3885 91.3047 37.4277C88.4832 36.1693 84.55 34.5411 80.1447 32.8995C80.1399 32.9627 80.1343 33.0275 80.1287 33.0924C80.1201 33.1914 80.1115 33.2907 80.1058 33.3846C80.0998 33.4697 80.0976 33.5553 80.0953 33.6408C80.0936 33.7074 80.0919 33.774 80.0884 33.8403C81.3609 34.3246 82.6921 34.8309 84.1864 35.3994L84.2078 35.4075C86.1443 36.1442 88.3552 36.9852 91.0673 38.0174C93.9747 39.135 95.7837 39.805 95.8334 39.6871Z" fill="#689C2D"/>
<path d="M106.241 65.1436C104.59 67.5973 103.535 69.0942 103.431 69.0272C103.329 68.9629 104.2 67.3454 105.719 64.8005C107.237 62.257 109.414 58.7901 111.919 55.0298C112.75 53.7835 113.552 52.6082 114.334 51.4731C114.412 51.8551 114.502 52.233 114.595 52.6082L114.172 53.2432C113.632 54.0541 113.131 54.8068 112.647 55.5323C111.809 56.7894 110.917 58.1271 109.863 59.7098L109.846 59.7346C108.829 61.2608 107.66 63.0149 106.241 65.1436Z" fill="#689C2D"/>
<path d="M115.29 66.038C112.719 70.1461 110.41 73.8365 108.8 76.6427C107.663 78.6327 107.175 80.2623 107.003 81.1508C104.333 80.612 98.8763 79.7062 92.5198 78.7654C92.5804 78.8499 92.6407 78.9346 92.7009 79.0191C92.8832 79.275 93.0652 79.5305 93.2547 79.7812C99.233 80.6509 104.346 81.3076 106.94 81.5515C106.917 81.7552 106.921 81.8811 106.947 81.8811C106.976 81.8878 107.026 81.7699 107.102 81.5649C108.145 81.66 108.748 81.6828 108.757 81.6131C108.768 81.5475 108.213 81.4014 107.239 81.199C107.547 80.3682 108.144 78.8418 109.336 76.9656C111.885 72.9817 113.759 70.0532 115.448 67.4141L116.505 65.7624C117.502 64.1784 118.458 62.648 119.358 61.1966C119.159 60.9795 118.966 60.7585 118.774 60.536C117.818 62.0316 116.807 63.6236 115.764 65.2799L115.29 66.038Z" fill="#689C2D"/>
<path d="M127.826 100.569C125.933 102.918 124.256 105.042 122.986 106.697C121.341 108.841 120.369 110.21 120.46 110.291C120.552 110.373 121.689 109.152 123.457 107.111C124.597 105.795 126.014 104.115 127.565 102.248C127.641 101.685 127.717 101.124 127.826 100.569Z" fill="#689C2D"/>
<path d="M132.811 21.2172C132.695 21.1958 132.311 22.9018 131.71 26.0188C131.51 27.1135 131.343 28.388 131.154 29.8225L131.154 29.8236C131.074 30.4347 130.989 31.0748 130.897 31.7424C130.853 32.2382 130.804 32.7493 130.754 33.2755C130.578 35.1288 130.384 37.1684 130.304 39.377C129.993 45.0456 130.055 51.8159 130.544 59.2963C131.011 66.7795 131.915 74.9674 132.952 83.532C133.13 85.0176 133.308 86.491 133.484 87.9507C135.34 103.309 137.011 117.137 136.446 127.394C136.178 133.002 135.335 137.482 134.562 140.525C134.196 141.942 133.867 143.055 133.633 143.845C133.365 144.751 133.223 145.233 133.295 145.261C133.349 145.283 133.555 144.895 133.9 144.132C134.258 143.374 134.692 142.218 135.195 140.706C136.173 137.68 137.213 133.152 137.637 127.467C138.559 116.183 136.714 100.764 134.693 83.8743L134.628 83.331C133.593 74.7705 132.646 66.6213 132.096 59.1878C131.526 51.7582 131.341 45.0483 131.498 39.4199C131.516 37.4108 131.626 35.5417 131.727 33.8236C131.767 33.1341 131.806 32.4683 131.837 31.8282C131.931 30.8698 132.007 29.9666 132.078 29.1238C132.172 28.0103 132.257 27.0022 132.362 26.1113C132.758 22.9835 132.925 21.2387 132.811 21.2172Z" fill="#557C2A"/>
<path d="M181.112 40.2387C180.991 40.2135 180.779 41.0426 180.386 42.5751C179.716 45.1875 178.523 49.8439 176.368 55.796C173.112 65.2987 167.031 77.7911 159.8 91.353L159.685 91.5728C152.594 105.08 146.114 117.423 143.301 127.181C141.86 132.057 141.299 136.166 141.165 138.999C141.043 141.839 141.247 143.401 141.338 143.397C141.418 143.396 141.459 142.907 141.535 141.989C141.596 141.267 141.678 140.279 141.819 139.054C142.153 136.277 142.88 132.284 144.443 127.534C147.223 118.868 152.971 107.95 159.359 95.8197C159.999 94.6044 160.645 93.3769 161.295 92.1383C168.529 78.5724 174.503 65.8696 177.499 56.1806C178.133 54.3067 178.616 52.5385 179.055 50.9328C179.178 50.4842 179.297 50.0481 179.415 49.6262C179.545 49.0572 179.673 48.512 179.796 47.9907C180.095 46.7158 180.361 45.5837 180.54 44.5954C181.018 41.8053 181.227 40.2602 181.112 40.2387Z" fill="#557C2A"/>
<path d="M95.5356 40.1118C95.2862 37.2078 95.2044 35.605 95.321 35.5929C95.4432 35.5782 95.5844 36.4299 95.8456 38.0053C96.2983 40.7355 97.1114 45.6394 98.8104 51.9744C100.099 56.9757 101.967 62.8453 104.357 69.2524C106.729 75.6661 109.634 82.6118 112.722 89.8993L112.834 90.1641C118.94 104.625 124.52 117.837 126.554 128.087C127.608 133.215 127.822 137.478 127.714 140.397C127.648 141.858 127.553 142.988 127.423 143.746C127.306 144.507 127.217 144.901 127.16 144.894C127.081 144.887 127.083 144.392 127.086 143.463C127.089 142.714 127.093 141.682 127.056 140.396C126.963 137.517 126.571 133.355 125.387 128.343C123.292 119.179 118.319 107.442 112.794 94.4018C112.256 93.1318 111.713 91.8495 111.167 90.5559C108.077 83.2644 105.202 76.2704 102.895 69.7843C100.57 63.3063 98.8024 57.3455 97.6504 52.2612C97.1599 50.2718 96.8154 48.4051 96.5027 46.7108C96.4179 46.2515 96.3355 45.8047 96.2531 45.3717C96.1693 44.7779 96.0854 44.2087 96.0053 43.6644C95.8084 42.3281 95.6338 41.1421 95.5356 40.1118Z" fill="#557C2A"/>
<path d="M162.571 155.649C162.188 154.583 161.751 153.535 161.266 152.513C157.315 144.197 150.69 140.697 142.538 137.52C132.916 133.767 122.023 132.713 112.218 136.418C103.823 139.59 96.612 146.449 94.5696 155.377C92.6023 163.971 93.7838 174.381 101.127 180.155C109.6 186.818 121.17 189.06 125.661 199.919C127.554 198.017 129.737 196.404 132.112 195.154C140.377 190.802 151.626 191.066 157.457 183.085C163.552 174.744 166.142 165.591 162.571 155.649Z" fill="#921881"/>
<path d="M112.565 157.854C112.557 157.621 110.073 157.55 107.049 157.176C104.024 156.815 101.595 156.291 101.531 156.515C101.468 156.719 103.852 157.607 106.951 157.977C110.051 158.359 112.578 158.067 112.565 157.854Z" fill="#591851"/>
<path d="M132.739 191.408C132.682 191.182 130.621 191.54 128.069 191.745C125.518 191.963 123.426 191.947 123.408 192.179C123.384 192.392 125.505 192.772 128.136 192.55C130.767 192.338 132.798 191.614 132.739 191.408Z" fill="#591851"/>
<path d="M159.366 179.034C155.705 179.344 150.632 179.603 145.03 179.441C139.429 179.271 134.38 178.713 130.743 178.185C127.105 177.66 124.866 177.23 124.84 177.353C124.826 177.408 125.373 177.575 126.374 177.833C127.373 178.097 128.835 178.413 130.65 178.749C134.282 179.425 139.363 180.077 145.006 180.249C150.649 180.411 155.76 180.06 159.425 179.602C159.551 179.586 159.661 179.57 159.783 179.555C159.898 179.359 160.009 179.163 160.119 178.967C159.871 178.989 159.63 179.011 159.366 179.034" fill="#591851"/>
<path d="M121.927 171.883C121.911 171.665 119.591 171.666 116.67 171.668L116.307 171.668L115.868 171.669C112.983 171.676 110.703 171.682 110.688 171.899C110.671 172.117 113.185 172.483 116.308 172.477C119.433 172.475 121.945 172.101 121.927 171.883Z" fill="#591851"/>
<path d="M114.408 144.133C111.7 144.074 107.963 143.947 103.846 143.629C102.991 143.562 102.159 143.488 101.345 143.412C101.107 143.65 100.877 143.894 100.647 144.141C101.658 144.25 102.706 144.35 103.784 144.435C107.925 144.754 111.691 144.793 114.41 144.704C117.13 144.617 118.803 144.433 118.799 144.329C118.796 144.225 117.501 144.198 115.354 144.153L115.35 144.153C115.052 144.147 114.737 144.14 114.408 144.133Z" fill="#591851"/>
<path d="M124.346 165.366L124.341 165.366C123.66 165.399 123.005 165.43 122.379 165.46C118.605 165.633 113.389 165.774 107.629 165.643C102.31 165.515 97.4801 165.179 93.8057 164.853C93.8121 164.942 93.8168 165.032 93.8214 165.121C93.8274 165.236 93.8334 165.351 93.8432 165.466C97.5042 165.914 102.314 166.324 107.61 166.451C113.398 166.583 118.639 166.351 122.415 166.031C124.303 165.872 125.828 165.708 126.878 165.558C127.928 165.413 128.506 165.308 128.501 165.251C128.495 165.196 127.907 165.196 126.85 165.246C125.981 165.288 125.145 165.328 124.346 165.366Z" fill="#591851"/>
<path d="M146.902 167.732C148.2 167.73 149.05 167.728 149.068 167.865C149.103 168.076 146.723 168.605 143.736 168.509C140.75 168.425 138.404 167.754 138.452 167.546C138.479 167.409 139.336 167.463 140.645 167.546C141.519 167.601 142.595 167.669 143.76 167.701C144.907 167.738 145.97 167.735 146.839 167.732L146.902 167.732Z" fill="#591851"/>
<path d="M142.481 155.788C148.727 156.31 154.409 156.404 158.513 156.31C160.221 156.271 161.636 156.214 162.73 156.143C162.722 156.118 162.714 156.094 162.706 156.07C162.697 156.041 162.688 156.013 162.68 155.984C162.658 155.916 162.637 155.847 162.612 155.778C161.164 155.765 159.781 155.751 158.51 155.738C154.419 155.687 148.768 155.502 142.548 154.982C136.33 154.457 130.728 153.694 126.685 153.062C125.722 152.908 124.706 152.746 123.639 152.576L121.896 152.298C120.764 152.117 120.133 152.043 120.121 152.098C120.108 152.153 120.719 152.33 121.834 152.606C122.947 152.885 124.571 153.236 126.587 153.625C130.617 154.403 136.233 155.26 142.481 155.788Z" fill="#591851"/>
<path d="M138.676 146.192C138.672 145.992 137.382 145.866 135.68 145.701L135.676 145.7L135.673 145.7C135.425 145.676 135.167 145.651 134.904 145.624C134.642 145.599 134.386 145.574 134.139 145.55C132.431 145.381 131.136 145.253 131.093 145.448C131.042 145.659 132.695 146.224 134.825 146.429C136.953 146.641 138.684 146.409 138.676 146.192Z" fill="#591851"/>
<path d="M152.285 142.266L152.029 142.246C149.871 142.075 146.916 141.841 143.665 141.512C140.459 141.186 137.555 140.827 135.413 140.562L135.236 140.54C133.08 140.274 131.74 140.123 131.719 140.236C131.7 140.343 133.006 140.692 135.148 141.104C137.289 141.517 140.27 141.978 143.583 142.316C146.896 142.651 149.908 142.797 152.09 142.822C152.452 142.828 152.782 142.828 153.097 142.826L152.962 142.731C152.738 142.574 152.515 142.417 152.285 142.266Z" fill="#591851"/>
<path d="M128.459 187.092C128.466 186.98 126.843 186.789 124.216 186.558C119.555 186.162 116.585 185.91 113.963 185.687C112.268 185.522 110.641 185.365 109.127 185.204C109.72 185.53 110.31 185.857 110.9 186.181C111.864 186.288 112.863 186.392 113.889 186.492C117.903 186.86 121.545 187.041 124.183 187.129C126.819 187.214 128.453 187.203 128.459 187.092Z" fill="#591851"/>
<path d="M125.662 199.919C125.474 199.467 125.258 199.052 125.046 198.628C125.052 198.619 125.057 198.611 125.062 198.602C125.274 199.026 125.474 199.466 125.662 199.919C127.554 198.017 129.737 196.404 132.112 195.154C140.377 190.802 151.627 191.066 157.457 183.085C151.627 191.066 140.377 190.802 132.112 195.154C129.737 196.404 127.554 198.017 125.662 199.919ZM162.681 155.96C162.665 155.914 162.65 155.868 162.634 155.823C162.65 155.868 162.665 155.914 162.681 155.96ZM162.535 155.549C162.16 154.518 161.737 153.503 161.266 152.513C161.737 153.503 162.16 154.518 162.535 155.549ZM142.441 137.481C142.438 137.48 142.434 137.478 142.431 137.477C142.434 137.478 142.438 137.48 142.441 137.481Z" fill="#E4A6C7"/>
<path d="M125.662 199.919C125.474 199.466 125.274 199.026 125.062 198.602C126.331 196.465 127.765 194.416 129.279 192.422C131.332 192.132 132.788 191.584 132.739 191.408C132.727 191.357 132.611 191.337 132.413 191.337C131.959 191.337 131.065 191.447 129.937 191.567C130.959 190.251 132.01 188.958 133.068 187.68C135.169 185.138 137.311 182.607 139.184 179.899C141.025 180.064 142.979 180.187 145.006 180.249C145.964 180.277 146.907 180.289 147.829 180.289C152.343 180.289 156.382 179.982 159.425 179.602C159.551 179.586 159.661 179.569 159.783 179.555C159.898 179.359 160.01 179.163 160.12 178.966C159.872 178.989 159.63 179.011 159.366 179.033C156.482 179.279 152.72 179.49 148.516 179.49C147.383 179.49 146.219 179.476 145.03 179.441C143.177 179.385 141.386 179.287 139.685 179.161C140.258 178.298 140.801 177.417 141.304 176.511C142.702 173.996 143.77 171.302 144.495 168.52C147.117 168.515 149.099 168.057 149.068 167.865C149.052 167.748 148.437 167.732 147.455 167.732C147.263 167.732 147.058 167.732 146.839 167.732C146.621 167.734 146.389 167.734 146.146 167.734C145.696 167.734 145.207 167.732 144.694 167.723C145.598 163.897 145.862 159.918 145.464 156.009C149.2 156.25 152.657 156.343 155.594 156.343C156.636 156.343 157.612 156.331 158.513 156.311C160.222 156.272 161.636 156.214 162.731 156.143C162.689 156.021 162.657 155.901 162.613 155.779C161.164 155.765 159.782 155.752 158.51 155.738C155.048 155.696 150.468 155.556 145.372 155.2C145.14 153.354 144.76 151.528 144.227 149.744C143.416 147.029 142.257 144.425 140.804 141.996C141.694 142.11 142.625 142.218 143.583 142.316C146.897 142.651 149.909 142.797 152.091 142.822C152.343 142.827 152.579 142.827 152.806 142.827C152.905 142.827 153.002 142.827 153.098 142.827C152.829 142.638 152.562 142.447 152.285 142.266L152.116 142.253C149.951 142.081 146.96 141.846 143.665 141.512C142.488 141.393 141.352 141.268 140.279 141.146C138.96 139.076 137.424 137.143 135.708 135.388C137.994 135.932 140.246 136.631 142.432 137.477C142.434 137.478 142.438 137.48 142.441 137.481C142.473 137.494 142.507 137.506 142.539 137.52C150.691 140.697 157.314 144.197 161.266 152.513C161.737 153.503 162.161 154.518 162.535 155.549C162.547 155.582 162.559 155.615 162.571 155.649C162.593 155.706 162.613 155.765 162.634 155.823C162.65 155.868 162.665 155.914 162.681 155.96C166.089 165.782 163.488 174.831 157.458 183.085C151.627 191.066 140.377 190.802 132.112 195.154C129.737 196.404 127.554 198.017 125.662 199.919" fill="#7B186B"/>
<path d="M129.278 192.422C129.497 192.136 129.715 191.851 129.937 191.567C131.064 191.446 131.958 191.336 132.411 191.336C132.61 191.336 132.725 191.356 132.737 191.407C132.787 191.583 131.331 192.131 129.278 192.422" fill="#4B1442"/>
<path d="M145.006 180.249C145.964 180.277 146.906 180.289 147.829 180.289C152.343 180.289 156.382 179.982 159.425 179.602C159.478 179.595 159.528 179.588 159.578 179.581C159.646 179.572 159.712 179.563 159.783 179.555C159.898 179.359 160.01 179.163 160.12 178.966C159.871 178.989 159.63 179.01 159.366 179.033C156.481 179.278 152.72 179.49 148.516 179.49C147.382 179.49 146.218 179.476 145.03 179.441C143.177 179.384 141.385 179.287 139.685 179.16C139.52 179.407 139.352 179.654 139.183 179.899C141.025 180.064 142.978 180.187 145.006 180.249Z" fill="#4B1442"/>
<path d="M144.694 167.723C144.631 167.99 144.565 168.255 144.495 168.52C147.117 168.515 149.099 168.057 149.068 167.865C149.052 167.748 148.436 167.732 147.455 167.732H146.839C146.621 167.733 146.389 167.733 146.146 167.733C145.695 167.733 145.207 167.732 144.694 167.723Z" fill="#4B1442"/>
<path d="M145.463 156.009C149.199 156.25 152.657 156.343 155.593 156.343C156.635 156.343 157.612 156.331 158.513 156.311C160.221 156.272 161.636 156.214 162.73 156.143C162.712 156.09 162.696 156.037 162.68 155.984C162.659 155.916 162.637 155.847 162.612 155.778C161.164 155.765 159.781 155.752 158.51 155.738C155.048 155.695 150.468 155.556 145.372 155.199C145.406 155.469 145.436 155.738 145.463 156.009Z" fill="#4B1442"/>
<path d="M152.806 142.827C152.579 142.827 152.343 142.827 152.091 142.823C149.909 142.797 146.897 142.651 143.583 142.316C142.625 142.218 141.694 142.109 140.803 141.995C140.633 141.71 140.457 141.426 140.279 141.145C141.352 141.267 142.488 141.392 143.665 141.511C146.916 141.841 149.871 142.075 152.029 142.246L152.285 142.266C152.515 142.417 152.739 142.574 152.963 142.731L153.098 142.827H152.806Z" fill="#4B1442"/>
<path d="M108.691 171.997C107.491 171.997 106.307 171.73 105.259 171.139C103.407 170.095 102.261 168.247 101.617 166.185C103.512 166.308 105.523 166.402 107.61 166.451C108.745 166.477 109.858 166.489 110.944 166.489C113.461 166.489 115.828 166.425 117.96 166.323C116.571 168.194 114.916 169.895 112.852 170.959C111.577 171.617 110.122 171.997 108.691 171.997V171.997ZM112.237 165.696C110.755 165.696 109.213 165.679 107.629 165.643C105.455 165.591 103.363 165.504 101.398 165.398C101.17 164.476 101.035 163.529 100.973 162.601C100.588 156.832 103.19 149.807 106.986 145.413C107.213 145.15 107.453 144.9 107.701 144.663C109.145 144.72 110.505 144.746 111.744 144.746C112.713 144.746 113.607 144.731 114.41 144.704C117.13 144.617 118.804 144.433 118.8 144.329C118.796 144.211 117.115 144.192 114.408 144.133C112.782 144.098 110.787 144.038 108.562 143.927C110.34 142.563 112.463 141.827 114.495 141.827C117.682 141.827 120.639 143.641 121.663 147.691C122.072 149.31 122.326 150.869 122.42 152.382C122.246 152.353 122.072 152.327 121.896 152.299C121.01 152.156 120.429 152.081 120.214 152.081C120.154 152.081 120.123 152.087 120.12 152.099C120.108 152.154 120.719 152.331 121.834 152.607C122.022 152.654 122.223 152.703 122.44 152.754C122.64 157.26 121.393 161.382 118.515 165.547C118.502 165.567 118.488 165.586 118.474 165.606C116.573 165.659 114.473 165.696 112.237 165.696V165.696ZM101.752 156.462C101.618 156.462 101.542 156.478 101.531 156.516C101.468 156.72 103.852 157.608 106.952 157.978C108.044 158.113 109.066 158.163 109.931 158.163C111.518 158.163 112.574 157.993 112.565 157.855C112.557 157.621 110.073 157.55 107.049 157.177C104.53 156.876 102.423 156.462 101.752 156.462" fill="#AD2096"/>
<path d="M107.61 166.451C108.744 166.477 109.857 166.489 110.944 166.489C113.461 166.489 115.828 166.424 117.96 166.322C118.136 166.085 118.307 165.846 118.474 165.605C116.573 165.659 114.473 165.695 112.236 165.695C110.755 165.695 109.212 165.679 107.629 165.643C105.455 165.59 103.363 165.503 101.398 165.397C101.463 165.661 101.536 165.924 101.617 166.184C103.512 166.308 105.523 166.401 107.61 166.451Z" fill="#781B6F"/>
<path d="M106.951 157.978C108.044 158.113 109.066 158.163 109.931 158.163C111.518 158.163 112.574 157.992 112.565 157.854C112.56 157.714 111.656 157.632 110.276 157.507C109.366 157.425 108.25 157.325 107.049 157.176C105.851 157.033 104.746 156.864 103.844 156.727C102.85 156.575 102.104 156.461 101.752 156.461C101.618 156.461 101.542 156.477 101.531 156.515C101.468 156.719 103.852 157.608 106.951 157.978Z" fill="#781B6F"/>
<path d="M121.834 152.606C122.022 152.653 122.223 152.703 122.44 152.754L122.434 152.631C122.429 152.548 122.425 152.465 122.42 152.381C122.325 152.366 122.23 152.351 122.136 152.336C122.056 152.324 121.976 152.311 121.896 152.298C121.009 152.156 120.429 152.081 120.214 152.081C120.154 152.081 120.123 152.086 120.121 152.098C120.108 152.153 120.718 152.33 121.834 152.606Z" fill="#781B6F"/>
<path d="M111.745 144.746C110.505 144.746 109.146 144.72 107.701 144.663C107.976 144.4 108.265 144.155 108.562 143.927C110.787 144.038 112.783 144.098 114.408 144.133C114.739 144.14 115.055 144.147 115.354 144.153C117.501 144.198 118.796 144.225 118.8 144.329C118.804 144.434 117.13 144.617 114.411 144.704C113.607 144.731 112.713 144.746 111.745 144.746Z" fill="#781B6F"/>
<path d="M59.9739 188.359C55.8284 183.978 51.4226 184.427 47.2957 186.58C46.1431 186.786 45.0091 187.067 43.9681 187.423C40.12 188.771 27.5719 195.118 33.8553 200.884C37.1456 203.88 41.4213 203.898 45.6412 204.198C50.2329 204.516 56.5162 204.554 60.7919 202.738C68.5624 199.405 64.2868 192.909 59.9739 188.359Z" fill="#5F3913"/>
<path d="M50.2328 204.366C48.6155 204.366 47.054 204.291 45.6412 204.198C41.4213 203.898 37.1456 203.88 33.8552 200.884C33.5392 200.585 33.2603 200.285 33.0373 199.985C33.2603 200.285 33.5392 200.585 33.8552 200.884C37.1456 203.88 41.4213 203.898 45.6412 204.198C47.054 204.291 48.6155 204.366 50.2328 204.366C53.895 204.366 57.8361 203.992 60.7919 202.738C63.9335 201.39 65.1047 199.517 65.1047 197.477C65.1047 199.517 63.9335 201.39 60.7919 202.738C57.8361 203.992 53.895 204.366 50.2328 204.366ZM32.1821 196.878C32.2007 196.765 32.2193 196.653 32.2379 196.559C32.2193 196.672 32.2007 196.765 32.1821 196.878ZM59.9739 188.359C59.8252 188.191 59.6765 188.041 59.5278 187.91C59.6765 188.041 59.8252 188.191 59.9739 188.359Z" fill="#748535"/>
<path d="M50.2331 204.366C48.6157 204.366 47.0542 204.291 45.6414 204.197C41.4215 203.898 37.1458 203.879 33.8554 200.884C33.5394 200.584 33.2606 200.285 33.0375 199.985C32.2567 198.955 32.015 197.907 32.1824 196.877C32.2009 196.765 32.2195 196.671 32.2381 196.559C35.1381 200.341 42.4068 202.138 48.6343 202.138C52.2036 202.138 55.4568 201.558 57.3158 200.397C62.428 197.252 60.4389 190.044 56.1818 185.663C57.3158 186.131 58.4312 186.842 59.528 187.909C59.6767 188.04 59.8254 188.19 59.9741 188.359C62.5395 191.073 65.1049 194.481 65.1049 197.476C65.1049 199.517 63.9338 201.389 60.7921 202.737C57.8363 203.992 53.8953 204.366 50.2331 204.366Z" fill="#532F11"/>
<path d="M161.533 192.598C159.767 189.116 157.481 186.719 153.688 185.764C149.766 184.791 145.806 187.412 142.479 189.284C141.754 189.509 141.047 189.79 140.397 190.183C137.069 192.224 137.088 195.949 139.727 198.608C142.553 201.435 147.293 201.36 151.011 201.865C153.911 202.259 159.358 205.067 161.738 202.221C163.541 200.068 162.704 194.901 161.533 192.598Z" fill="#5F3913"/>
<path d="M111.077 170.554C108.772 170.405 100.072 172.296 100.778 175.909L100.871 176.077L100.091 177.013C97.6368 181.488 100.964 187.011 105.761 187.498C108.363 187.76 111.728 187.179 114.126 186.15C116.598 185.083 117.77 184.015 118.253 181.245C118.978 176.976 115.669 170.817 111.077 170.554Z" fill="#5F3913"/>
<path d="M91.6511 167.839C84.9587 165.144 77.783 171.415 73.6189 177.313C70.9048 180.046 68.7298 183.323 67.4285 186.524C60.9407 202.438 101.857 200.94 105.724 187.179C107.88 179.485 97.8972 170.329 91.6511 167.839Z" fill="#744B27"/>
<path d="M148.833 182.387C145.115 177.238 139.556 170.161 132.734 169.338C127.77 168.72 123.03 174.374 119.182 178.399C115.148 180.945 111.541 183.622 108.772 188.003C106.801 191.149 103.362 199.854 108.047 202.663C114.256 206.351 122.379 207.605 129.481 206.838C134.965 206.238 142.345 204.553 146.081 200.098C149.929 195.53 152.811 187.891 148.833 182.387Z" fill="#744B27"/>
<path d="M105.63 187.479C105.668 187.385 105.686 187.291 105.723 187.179C106.058 185.962 106.095 184.708 105.891 183.453C106.095 184.708 106.058 185.962 105.723 187.179C105.686 187.291 105.668 187.385 105.63 187.479Z" fill="#543010"/>
<path d="M82.2814 197.982C73.9903 197.982 66.7217 195.361 66.7403 189.726C66.7403 188.752 66.9448 187.685 67.4281 186.524C67.7441 185.757 68.0973 184.989 68.5063 184.221C72.1127 189.67 82.0955 191.729 89.5128 191.729C91.1859 191.729 92.7102 191.617 94.0301 191.429C101.689 190.287 103.883 183.098 102.451 176.339C104.199 178.567 105.5 181.02 105.89 183.454C106.095 184.708 106.058 185.963 105.723 187.179C105.686 187.292 105.667 187.385 105.63 187.479C103.437 194.256 92.134 197.982 82.2814 197.982Z" fill="#67401F"/>
<path d="M125.392 207.044C119.406 207.044 113.085 205.658 108.047 202.663C106.318 201.633 105.686 199.798 105.705 197.72C105.705 194.2 107.527 189.988 108.772 188.003C109.609 186.693 110.538 185.569 111.505 184.521C111.319 186.431 111.431 188.34 111.951 190.287C113.922 197.383 121.097 199.368 127.845 199.368C130.225 199.368 132.567 199.124 134.594 198.75C136.322 198.45 138.051 197.87 139.687 197.046C139.762 197.121 139.836 197.214 139.929 197.289C141.583 198.937 143.907 199.536 146.268 199.873C146.212 199.948 146.138 200.023 146.082 200.098C142.346 204.553 134.965 206.238 129.481 206.838C128.143 206.969 126.786 207.044 125.392 207.044Z" fill="#67401F"/>
</svg>
