<svg width="260" height="213" viewBox="0 0 260 213" fill="none" xmlns="http://www.w3.org/2000/svg">
<path d="M237.27 197.448C178.378 193.853 169.455 211.826 123.054 211.826C98.0696 211.826 87.362 215.421 42.7464 210.029C-32.2077 201.043 23.1156 192.056 14.1924 188.462C-9.00769 183.07 -5.43845 170.489 37.3925 161.502C244.409 118.367 296.163 201.042 237.27 197.448Z" fill="black" fill-opacity="0.15"/>
<path d="M58.9684 196.318C96.5519 190.182 103.453 201.675 133.248 198.74C149.292 197.16 156.402 198.894 184.701 192.455C212.037 188.026 248.356 174.835 174.949 157.505C39.2044 141.66 21.3849 202.454 58.9684 196.318Z" fill="black" fill-opacity="0.15"/>
<path d="M152.034 149.771C148.539 146.663 143.873 147.431 139.69 149.303L138.891 149.378C133.593 150.295 129.893 153.647 127.514 158.29C124.8 163.588 127.644 168.587 131.641 171.994C136.158 175.813 142.293 177.423 148.111 177.18C152.833 176.974 158.726 172.893 159.172 167.8C159.73 161.304 156.83 154.096 152.034 149.771Z" fill="#5F3913"/>
<path d="M238.272 172.5C237.659 171.096 236.785 170.178 235.8 169.504L235.614 169.373L234.963 168.943C232.547 167.52 228.754 167.726 226.393 168.119C220.538 169.111 216.281 172.294 216.504 178.753C216.708 184.987 223.754 186.073 228.438 184.763C232.937 183.471 240.931 178.341 238.272 172.5Z" fill="#5F3913"/>
<path d="M212.99 147.992C207.283 139.137 194.53 127.773 183.023 131.91C180.811 132.734 178.692 133.783 176.628 134.943C175.699 135.13 174.769 135.411 173.84 135.898C162.091 142.114 149.766 155.013 143.669 166.883C129.485 194.498 180.848 195.078 195.962 193.374C202.059 192.682 224.627 190.491 226.17 182.029C228.624 168.736 219.645 158.327 212.99 147.992Z" fill="#8A5D3B"/>
<path d="M184.399 193.936C177.279 193.936 168.784 193.374 161.218 191.708C161.403 191.558 161.571 191.409 161.738 191.221C163.541 189.068 162.705 183.901 161.534 181.598C159.768 178.116 157.481 175.72 153.689 174.765C153.094 174.615 152.499 174.559 151.923 174.559C151.476 174.559 151.03 174.596 150.584 174.671C150.268 173.679 149.785 172.724 149.134 171.825C147.758 169.916 146.123 167.744 144.301 165.703C147.498 159.843 152.183 153.796 157.481 148.46C157.239 149.621 157.053 150.801 156.979 151.999C155.808 168.512 168.449 178.322 183.339 181.486C186.648 182.197 190.013 182.572 193.285 182.572C206.019 182.572 217.266 176.805 219.013 162.146C219.218 160.349 219.162 158.645 218.957 156.96C223.847 164.524 227.899 172.518 226.189 181.973C226.189 181.991 226.189 182.01 226.17 182.029C225.947 183.227 225.315 184.294 224.367 185.249C218.586 191.072 201.204 192.775 195.962 193.374C193.155 193.693 189.065 193.936 184.399 193.936Z" fill="#7E5131"/>
<g clip-path="url(#clip0_26_762)">
<path d="M107.234 73.8046C107.083 75.3753 106.78 76.9353 106.744 78.5126C106.63 83.5379 108.483 88.2446 112.242 91.5819C114.575 93.6539 117.245 95.3406 119.426 97.5739C121.486 99.6833 123.067 102.258 124.018 105.05C124.21 101.505 125.176 98.0046 126.827 94.8619C129.091 90.5539 132.691 86.7179 133.246 81.8819C133.935 75.8819 128.466 71.6526 128.804 66.1486C128.97 63.4393 129.991 59.9886 130.85 57.3966C132.426 52.6352 134.562 47.8393 134.168 42.8379C133.715 37.0686 130.056 32.3379 127.106 27.5992C124.684 23.7086 121.575 20.1419 121.087 15.4526C120.658 11.3259 121.614 6.75392 119.304 3.30726C116.456 -0.940743 111.084 -0.766086 107.219 1.96325C102.554 5.25658 100.609 11.8139 101.477 17.2819C102.066 20.9979 103.895 24.5793 103.522 28.3233C103.145 32.1153 100.564 35.0433 99.5329 38.6046C96.7637 48.1686 100.691 56.3739 105.308 64.4579C106.76 66.9979 107.444 69.9619 107.303 72.8846C107.288 73.1913 107.264 73.4993 107.234 73.8046" fill="#71A82C"/>
<path d="M106.948 81.5898L106.922 81.4156C106.871 81.0699 106.82 80.7241 106.793 80.3725C107.292 80.6725 107.776 80.9645 108.243 81.2472L111.568 83.2002C113.153 84.1311 114.99 85.21 117.29 86.5605C118.845 87.4729 119.997 88.1651 120.567 88.5581C121.142 88.105 122.529 87.1653 124.466 85.8537C124.592 85.7682 124.721 85.6811 124.852 85.5925C127.108 84.0645 130.03 82.0551 133.242 79.7431C133.284 80.1111 133.303 80.4858 133.301 80.8658C130.245 83.0085 127.441 84.8205 125.221 86.1658C123.086 87.4616 121.5 88.3385 120.751 88.6896C120.907 88.8064 120.981 88.8816 120.966 88.9112C120.947 88.9473 120.785 88.9084 120.499 88.8011C120.363 88.8558 120.287 88.874 120.275 88.8538C120.265 88.8372 120.29 88.8001 120.349 88.7433C119.679 88.4784 118.499 87.9317 116.964 87.1605C114.556 85.9525 111.281 84.1792 107.749 82.0765C107.571 81.9712 107.403 81.8682 107.234 81.7645C107.14 81.7066 107.045 81.6486 106.948 81.5898Z" fill="#638528"/>
<path d="M107.239 69.2464L107.237 69.2454C107.164 69.2 107.092 69.1549 107.018 69.1098C107.099 69.5232 107.165 69.9405 107.212 70.3592C110.083 72.1165 112.767 73.5632 114.765 74.5325C116.839 75.5392 118.171 76.0578 118.228 75.9432C118.298 75.8039 116.797 74.9276 114.437 73.55C112.527 72.4347 110.054 70.9906 107.395 69.3432C107.343 69.3108 107.291 69.2785 107.239 69.2464Z" fill="#638528"/>
<path d="M100.279 54.0352C100.43 54.4632 100.583 54.8913 100.75 55.3153C101.488 55.6779 102.242 56.0446 103.025 56.4153C106.563 58.0873 109.825 59.4766 112.214 60.4086C114.604 61.3406 116.117 61.8273 116.167 61.7073C116.219 61.5806 114.799 60.8713 112.484 59.7806L110.143 58.6838C107.291 57.3479 105.258 56.3957 103.437 55.5419C102.896 55.2845 102.334 55.016 101.737 54.7311L101.717 54.7216C101.26 54.5033 100.783 54.2753 100.279 54.0352Z" fill="#638528"/>
<path d="M98.9727 41.0667C99.0093 40.8324 99.0458 40.5981 99.0952 40.3616C100.011 40.8176 100.96 41.2936 101.936 41.7883C108.903 45.323 114.454 48.3816 114.333 48.619C114.212 48.8576 108.466 46.1843 101.499 42.6496C100.617 42.2016 99.7583 41.763 98.9302 41.3349C98.9448 41.2455 98.9588 41.1561 98.9727 41.0667Z" fill="#638528"/>
<path d="M103.54 26.6458C103.564 27.0631 103.559 27.4818 103.535 27.9031L103.758 28.0944C103.911 28.2262 104.065 28.3587 104.221 28.4925C108.945 32.5418 112.915 35.6605 113.089 35.4578C113.262 35.2565 109.573 31.8098 104.85 27.7605C104.405 27.3778 103.97 27.0085 103.54 26.6458Z" fill="#638528"/>
<path d="M102.975 14.6622C102.411 14.2488 101.863 13.8461 101.326 13.4515C101.299 13.8381 101.285 14.2248 101.284 14.6101C101.65 14.8848 102.022 15.1621 102.404 15.4408C107.712 19.3435 112.304 22.0861 112.444 21.8688C112.565 21.6839 109.771 19.6386 105.913 16.8158L105.912 16.8146C104.985 16.1369 103.998 15.4144 102.975 14.6622Z" fill="#638528"/>
<path d="M112.336 22.7166C112.247 22.6126 113.355 21.5085 115.179 19.7672C117.256 17.7843 118.841 16.2703 120.178 14.9935L120.999 14.2099C121.018 14.6259 121.044 15.0406 121.087 15.4486C119.027 17.3712 117.131 19.0339 115.633 20.2779C113.688 21.8926 112.421 22.8152 112.336 22.7166Z" fill="#638528"/>
<path d="M125.188 24.6806C125.104 24.5529 125.019 24.4252 124.934 24.2979L122.487 26.2372C120.695 27.657 118.683 29.2507 116.191 31.2246C113.75 33.1552 112.257 34.3766 112.337 34.4872C112.414 34.5926 114.049 33.5659 116.599 31.7726C118.954 30.1166 122.083 27.7926 125.471 25.1072C125.376 24.9652 125.282 24.8229 125.188 24.6806Z" fill="#638528"/>
<path d="M114.018 47.7952C113.939 47.6819 115.567 46.4045 118.204 44.3539C120.842 42.3045 124.474 39.4645 128.412 36.2352C129.336 35.4765 130.233 34.7325 131.102 34.0058C131.159 34.1059 131.216 34.2053 131.274 34.3046C131.378 34.4832 131.481 34.6615 131.579 34.8432C130.755 35.5458 129.905 36.2592 129.025 36.9818C125.071 40.2232 121.357 42.9898 118.61 44.9032C115.861 46.8192 114.092 47.9005 114.018 47.7952Z" fill="#638528"/>
<path d="M120.143 57.2166C117.349 59.5499 115.641 61.0232 115.725 61.1299C115.805 61.2325 117.661 59.9499 120.568 57.7512C123.475 55.5526 127.425 52.4272 131.69 48.8579C132.47 48.2046 133.226 47.5645 133.969 46.9299C134.041 46.4699 134.088 46.0072 134.128 45.5446C133.18 46.3414 132.258 47.1174 131.343 47.8884L131.07 48.1179C127.82 50.8232 124.561 53.5366 120.143 57.2166Z" fill="#638528"/>
<path d="M121.313 72.5026C123.278 71.2428 125.96 69.524 128.849 67.5193C128.886 67.8739 128.943 68.2246 129.02 68.5713C126.211 70.4873 123.575 72.0646 121.594 73.1339C119.493 74.2699 118.136 74.8606 118.075 74.7486C118.006 74.6223 119.275 73.8093 121.313 72.5026Z" fill="#638528"/>
<path d="M113.507 79.7875C113.159 79.4163 112.81 79.0449 112.476 78.6619C112.296 78.4579 112.121 78.2485 111.951 78.0352C110.34 76.0045 109.301 73.5179 109.034 70.9392C108.182 62.7365 106.77 54.8005 99.8357 49.3459C98.7656 48.5042 97.5599 47.8785 96.3561 47.2538C94.6555 46.3713 92.9587 45.4907 91.6529 44.0059C90.2489 42.4107 89.5231 40.4002 88.7939 38.3799C88.3796 37.2322 87.9642 36.0814 87.4226 35.0019C85.2216 30.6179 80.4352 26.9032 75.3753 26.9419C71.183 26.9739 67.2264 29.6232 67.371 34.1526C67.4537 36.7326 68.9824 38.8804 70.5169 41.0364C71.1671 41.9501 71.8184 42.8652 72.3612 43.8152C73.9951 46.6756 74.0941 49.8749 74.1936 53.0864C74.2203 53.9483 74.247 54.8112 74.3034 55.6685C74.354 56.4368 74.3921 57.2139 74.4304 57.9948C74.6381 62.2299 74.8515 66.5811 77.0925 70.2859C78.9936 73.428 82.0658 75.5789 85.1043 77.7063C85.7418 78.1527 86.3779 78.598 87.0013 79.0512C88.9581 80.4726 91.4753 82.4299 92.9945 84.2939C94.4696 86.1033 94.8397 88.3883 95.2163 90.7137C95.6278 93.2547 96.0472 95.8441 97.9248 97.9139C99.9305 100.125 102.74 101.238 105.558 102.354C106.81 102.85 108.064 103.347 109.25 103.941C112.062 105.35 114.565 107.37 116.534 109.823C115.777 107.322 115.585 104.651 115.978 102.069C116.223 100.459 116.688 98.8986 117.154 97.3369C117.479 96.246 117.804 95.1546 118.054 94.0459C119.036 89.7019 117.938 85.3565 115.261 81.7979C114.726 81.0868 114.117 80.4373 113.507 79.7875Z" fill="#6FC42D"/>
<path d="M123.581 78.1492C123.735 77.6672 123.888 77.1853 124.025 76.6992C124.098 76.4365 124.167 76.1725 124.228 75.9072C124.809 73.3805 124.676 70.6885 123.809 68.2458C121.048 60.4752 118.907 52.7032 122.819 44.7965C123.423 43.5761 124.242 42.4923 125.06 41.4102C126.215 39.8818 127.368 38.3568 127.908 36.4552C128.488 34.4116 128.278 32.2845 128.068 30.1476C127.948 28.9328 127.827 27.7148 127.852 26.5072C127.952 21.6018 130.674 16.1898 135.258 14.0472C139.056 12.2725 143.768 12.9605 145.586 17.1112C146.622 19.4762 146.166 22.072 145.709 24.6778C145.515 25.783 145.321 26.8899 145.24 27.9818C144.996 31.2669 146.283 34.1972 147.575 37.1388C147.922 37.9282 148.269 38.7184 148.587 39.5165C148.872 40.2316 149.172 40.9492 149.473 41.6705C151.109 45.5832 152.789 49.6027 152.36 53.9112C151.997 57.5657 150.149 60.8278 148.322 64.0541C147.938 64.7323 147.555 65.4089 147.187 66.0872C146.033 68.2138 144.602 71.0632 144.033 73.3992C143.48 75.6672 144.13 77.889 144.79 80.1501C145.512 82.621 146.248 85.1389 145.444 87.8152C144.585 90.6745 142.527 92.8881 140.463 95.1085C139.547 96.0948 138.629 97.0824 137.814 98.1285C135.882 100.611 134.493 103.513 133.77 106.574C133.377 103.99 132.401 101.498 130.935 99.3352C130.021 97.9876 128.929 96.7783 127.837 95.5681C127.074 94.7236 126.311 93.8786 125.608 92.9858C122.854 89.4872 121.974 85.0912 122.86 80.7285C123.037 79.8531 123.309 79.0011 123.581 78.1492Z" fill="#6FC42D"/>
<path d="M110.753 96.1895C110.825 96.2001 110.862 96.2138 110.863 96.2309C110.865 96.2518 110.801 96.2782 110.675 96.3089C110.524 96.5343 110.427 96.646 110.395 96.6298C110.369 96.6163 110.383 96.5236 110.435 96.3591C109.715 96.4928 108.12 96.6804 105.914 96.8509C103.622 97.0296 100.667 97.1736 97.3602 97.2109C97.1628 96.9376 96.9826 96.6576 96.8232 96.3722C100.329 96.3762 103.471 96.3122 105.884 96.2469L106.296 96.2358C108.368 96.1798 109.852 96.1396 110.5 96.1689C110.707 95.591 111.179 94.4981 111.827 93.0391L115.595 84.5404C115.735 84.213 115.879 83.8769 116.027 83.5327L116.186 83.1618C116.346 83.4251 116.486 83.6959 116.626 83.9671L116.704 84.1178C116.659 84.2209 116.617 84.3223 116.574 84.4235L116.574 84.4249C116.51 84.5757 116.447 84.7265 116.379 84.8818C114.922 88.2205 113.481 91.1884 112.372 93.3018C111.665 94.65 111.098 95.6531 110.753 96.1895Z" fill="#689C2D"/>
<path d="M110.206 75.1711C110.362 75.5111 110.53 75.8445 110.712 76.1711C109.553 78.9191 108.368 81.3458 107.431 83.0765C106.458 84.8725 105.767 85.9338 105.667 85.8805C105.546 85.8157 106.172 84.4131 107.157 82.207C107.956 80.4166 108.991 78.0969 110.055 75.5338L110.206 75.1711Z" fill="#689C2D"/>
<path d="M107.27 60.8392C107.383 61.2245 107.493 61.6125 107.592 62.0045C107.248 62.6472 106.895 63.3005 106.523 63.9698C104.84 67.0018 103.21 69.6872 101.971 71.5925C100.733 73.4979 99.8945 74.6298 99.7967 74.5685C99.694 74.5045 100.35 73.2605 101.453 71.2805L102.52 69.3725C103.91 66.889 104.894 65.1291 105.775 63.5552L107.27 60.8392Z" fill="#689C2D"/>
<path d="M101.507 50.8245C101.361 50.6768 101.215 50.5289 101.059 50.3858C100.635 51.1871 100.199 52.0191 99.7517 52.8804C96.5621 59.0231 94.1471 64.0924 94.3564 64.2004C94.5663 64.3098 97.322 59.4178 100.511 53.2738C100.915 52.4964 101.305 51.7364 101.681 51.0004C101.622 50.942 101.564 50.8832 101.507 50.8245Z" fill="#689C2D"/>
<path d="M90.7739 42.8085C90.9718 43.1218 91.1922 43.4205 91.4266 43.7112L91.3968 43.8347C91.3447 44.0513 91.2923 44.2692 91.2379 44.4898C89.9297 49.8445 88.6827 54.1405 88.4531 54.0845C88.2234 54.0285 89.0985 49.6418 90.4067 44.2872C90.5302 43.7832 90.6526 43.2912 90.7739 42.8085Z" fill="#689C2D"/>
<path d="M84.9907 33.8912C85.1828 33.3019 85.3693 32.7285 85.5516 32.1672C85.7713 32.4312 85.9808 32.7032 86.1808 32.9792C86.0589 33.3659 85.9339 33.7579 85.8043 34.1552C83.9991 39.7072 82.1109 44.0525 81.8969 43.9699C81.7137 43.8987 82.6751 40.9653 84 36.9223C84.3134 35.9663 84.647 34.9482 84.9907 33.8912Z" fill="#689C2D"/>
<path d="M82.4129 44.5232C82.4233 44.4032 81.0556 44.1805 78.8436 43.8698C76.0536 43.4765 73.9954 43.1867 72.2678 42.9433L71.7837 42.8752C71.9842 43.1858 72.179 43.4965 72.3598 43.8125C74.8353 44.1325 77.0593 44.3498 78.7801 44.4712C81.0145 44.6298 82.403 44.6378 82.4129 44.5232Z" fill="#689C2D"/>
<path d="M74.1752 52.5358C74.1705 52.4139 74.1658 52.292 74.1616 52.17C76.9023 52.3007 79.8752 52.442 84.0335 52.6394C86.7878 52.7687 88.493 52.8754 88.4924 52.9967C88.4924 53.1127 86.7846 53.218 84.022 53.2447C81.4726 53.2687 78.0195 53.2127 74.193 53.03C74.1878 52.8653 74.1815 52.7005 74.1752 52.5358Z" fill="#689C2D"/>
<path d="M94.157 63.4445C94.1554 63.3219 92.3232 63.2432 89.3664 63.1299C86.4092 63.0179 82.3273 62.8486 77.8248 62.5592C76.768 62.4899 75.7373 62.4179 74.7373 62.3432C74.747 62.4362 74.7559 62.5291 74.7648 62.622C74.7831 62.8129 74.8014 63.0038 74.8264 63.1939C75.7821 63.2726 76.7622 63.3472 77.7696 63.4125C82.2898 63.7045 86.392 63.7765 89.3586 63.7352C92.3258 63.6939 94.1581 63.5579 94.157 63.4445Z" fill="#689C2D"/>
<path d="M94.6154 73.3898C97.832 73.6258 99.822 73.8044 99.8174 73.9244C99.8127 74.0404 97.8143 74.0751 94.5856 73.9938C91.3575 73.9124 86.9002 73.7044 81.9862 73.3378C81.0878 73.2711 80.2116 73.2004 79.3496 73.1284C79.0602 72.8338 78.7878 72.5258 78.52 72.2124C79.4093 72.2815 80.2792 72.3483 81.1418 72.4146L81.1636 72.4163L81.165 72.4164L82.0496 72.4844L86.0455 72.7722C88.5815 72.9548 91.3173 73.1518 94.6154 73.3898Z" fill="#689C2D"/>
<path d="M101.675 84.9977C99.6093 85.1061 96.7891 85.254 93.6709 85.3032C93.827 85.5778 93.9666 85.8605 94.0906 86.1485C97.1021 86.0779 99.8141 85.8512 101.793 85.5978C103.892 85.3298 105.174 85.0538 105.16 84.9418C105.144 84.8157 103.814 84.8855 101.675 84.9977Z" fill="#689C2D"/>
<path d="M128.321 23.1429C128.727 23.5709 129.142 24.0083 129.569 24.4576C130.326 25.2549 131.058 26.0221 131.745 26.7433C134.692 29.8342 136.834 32.0803 136.699 32.223C136.542 32.391 132.967 29.2816 128.949 25.047C128.66 24.743 128.379 24.4429 128.103 24.1456C128.164 23.811 128.237 23.4763 128.321 23.1429Z" fill="#689C2D"/>
<path d="M128.186 34.9968C128.142 35.3634 128.072 35.7288 127.985 36.0915C128.099 36.2325 128.213 36.3729 128.329 36.5149L128.491 36.7141C131.976 40.9848 134.95 44.3261 135.133 44.1768C135.316 44.0261 132.639 40.4434 129.154 36.1728C128.826 35.7701 128.504 35.3794 128.186 34.9968Z" fill="#689C2D"/>
<path d="M121.946 46.8553C122.015 46.6578 122.083 46.4598 122.163 46.2618C122.89 46.8018 123.643 47.3658 124.416 47.9498C129.939 52.1231 134.3 55.6591 134.158 55.8485C134.015 56.0365 129.423 52.8058 123.901 48.6325C123.201 48.1045 122.521 47.5871 121.866 47.0845L121.898 46.9945L121.946 46.8553Z" fill="#689C2D"/>
<path d="M121.055 58.3698C121.119 58.7672 121.186 59.1645 121.265 59.5605C121.852 59.9925 122.452 60.4298 123.076 60.8752C125.9 62.8885 128.527 64.6098 130.465 65.7965C132.403 66.9832 133.646 67.6445 133.708 67.5472C133.773 67.4458 132.646 66.6045 130.799 65.2912C127.486 62.9472 125.396 61.4685 123.572 60.1792C122.807 59.6285 121.987 59.0392 121.055 58.3698Z" fill="#689C2D"/>
<path d="M136.471 32.9459C136.41 32.8419 137.549 32.0526 139.412 30.8206C141.059 29.7295 142.404 28.8395 143.562 28.0731L145.357 26.8846C145.309 27.2513 145.267 27.6152 145.24 27.9793C143.143 29.3326 141.229 30.4859 139.728 31.3352C137.779 32.4406 136.53 33.0459 136.471 32.9459Z" fill="#689C2D"/>
<path d="M147.344 36.6078L147.251 36.3917L147.21 36.2976C145.586 37.1691 143.869 38.09 141.805 39.1973L138.501 40.9696C136.07 42.2709 134.577 43.1016 134.63 43.2109C134.68 43.3136 136.267 42.6749 138.772 41.5109C141.084 40.4349 144.177 38.8989 147.552 37.0869C147.482 36.9275 147.413 36.7676 147.344 36.6078Z" fill="#689C2D"/>
<path d="M134.012 55.0791C133.96 54.9684 135.581 54.1084 138.201 52.7337C140.822 51.3591 144.434 49.4511 148.374 47.2524C149.298 46.7351 150.197 46.2258 151.068 45.7284C151.102 45.8258 151.138 45.9228 151.173 46.0197C151.235 46.1909 151.297 46.3618 151.354 46.5337C150.525 47.0177 149.672 47.5071 148.791 47.9991C144.836 50.2071 141.165 52.0378 138.469 53.2764C135.772 54.5164 134.06 55.1818 134.012 55.0791Z" fill="#689C2D"/>
<path d="M124.864 72.8338L124.571 72.5698C124.577 72.9444 124.569 73.3178 124.545 73.6911C126.774 75.6725 128.888 77.3538 130.478 78.5125C132.13 79.7151 133.21 80.3765 133.278 80.2845C133.36 80.174 132.189 79.1756 130.348 77.6059C128.857 76.3341 126.925 74.6873 124.864 72.8338Z" fill="#689C2D"/>
<path d="M122.556 83.4432L122.559 83.3627L122.562 83.2587C122.572 82.9588 122.581 82.6586 122.612 82.3566C122.979 82.68 123.336 82.9938 123.682 83.2969L123.739 83.3472C125.567 84.9139 127.613 86.6686 130.797 89.3966C132.01 90.436 132.906 91.2198 133.342 91.6521C133.914 91.3469 135.271 90.7447 137.164 89.9043C137.288 89.8493 137.414 89.7934 137.542 89.7364C139.749 88.7564 142.612 87.4617 145.774 85.9497C145.753 86.2764 145.711 86.6057 145.651 86.9377C142.65 88.3271 139.921 89.4684 137.774 90.2951C135.71 91.09 134.189 91.6063 133.481 91.7956C133.599 91.9221 133.653 91.9996 133.634 92.0233C133.612 92.0515 133.477 91.992 133.244 91.8534C133.117 91.8798 133.048 91.8838 133.04 91.8644C133.034 91.8484 133.062 91.8199 133.122 91.7794C132.58 91.4434 131.636 90.7818 130.418 89.8686C128.508 88.4379 125.93 86.3793 123.178 83.9926C123.043 83.8762 122.915 83.7623 122.787 83.6479C122.711 83.5803 122.634 83.5119 122.556 83.4432Z" fill="#689C2D"/>
<path d="M137.878 64.2539C135.076 65.8512 133.357 66.8685 133.413 66.9752C133.467 67.0778 135.286 66.2499 138.165 64.7859C141.044 63.3245 144.977 61.2178 149.256 58.7725C150.038 58.3258 150.798 57.8845 151.546 57.4485C151.681 57.0579 151.794 56.6632 151.901 56.2645L151.033 56.7636L151.029 56.7661C150.288 57.1927 149.558 57.6123 148.832 58.0298C145.574 59.8805 142.308 61.7365 137.878 64.2539Z" fill="#689C2D"/>
<path d="M133.331 79.2192C133.29 79.0984 134.523 78.5883 136.504 77.7684C138.415 76.9774 141.023 75.8981 143.857 74.6019C143.834 74.9165 143.829 75.2312 143.842 75.5459C141.093 76.7765 138.547 77.7392 136.652 78.3619C134.642 79.0232 133.366 79.3272 133.331 79.2192Z" fill="#689C2D"/>
<path d="M123.404 127.074C123.542 127.022 123.178 125.689 122.4 123.319C121.629 120.947 120.401 117.557 118.79 113.402C115.574 105.09 110.707 93.7606 104.616 81.5912C98.5143 69.4272 92.3523 58.7485 87.619 51.1979C85.2544 47.4205 83.2736 44.4059 81.8346 42.3685C80.4028 40.3272 79.5528 39.2379 79.4278 39.3166C79.2038 39.4602 81.1323 42.8501 84.3607 48.5253L84.3623 48.528C84.9703 49.5968 85.6244 50.7467 86.319 51.9712C90.7059 59.6965 96.6293 70.4405 102.703 82.5499C108.767 94.6645 113.829 105.841 117.392 113.979C117.958 115.269 118.487 116.481 118.98 117.608L118.98 117.609C121.594 123.594 123.155 127.168 123.404 127.074Z" fill="#557C2A"/>
<path d="M129.072 125.389C129.215 125.351 128.961 123.811 128.38 121.065C127.622 117.554 126.793 113.71 125.873 109.447C123.76 99.6432 121.03 86.0632 118.618 70.9606C116.219 55.8552 114.595 42.0992 113.558 32.1245C113.22 28.8632 112.907 25.8438 112.615 23.0282L112.333 20.3032C112.031 17.5112 111.794 15.9699 111.647 15.9779C111.499 15.9859 111.456 17.5432 111.502 20.3566C111.539 23.1699 111.721 27.2352 112.051 32.2539C112.705 42.2886 114.097 56.1312 116.506 71.2965C118.927 86.4605 121.904 100.051 124.4 109.793C125.645 114.665 126.735 118.586 127.574 121.271C128.404 123.961 128.929 125.427 129.072 125.389Z" fill="#557C2A"/>
<path d="M134.914 114.666C135.129 121.186 135.258 125.079 134.993 125.102C134.846 125.114 134.601 123.754 134.284 121.281C133.959 118.807 133.609 115.218 133.275 110.774C132.6 101.887 132.118 89.5672 132.381 75.9605C132.654 62.3552 133.621 50.0632 134.644 41.2098C135.153 36.7832 135.644 33.2098 136.067 30.7525C136.481 28.2938 136.779 26.9445 136.926 26.9619C137.19 26.9944 136.907 30.8873 136.435 37.4047C136.346 38.6298 136.251 39.9475 136.151 41.3498C135.515 50.2112 134.792 62.4592 134.519 76.0032C134.258 89.5472 134.499 101.814 134.785 110.694C134.83 112.106 134.874 113.433 134.914 114.666Z" fill="#557C2A"/>
<path d="M159.978 203.279C159.81 198.731 159.419 194.249 159.308 190.195C158.898 175.175 157.82 160.175 156.131 145.245C155.024 135.467 151.936 125.353 142.306 121.03C132.901 116.809 119.549 120.765 113.001 128.198C106.072 136.063 109.561 148.083 112.11 157.065C115.923 170.501 120.621 183.687 126.212 196.487C129.097 203.093 132.219 209.595 135.573 215.975C139.424 223.302 148.554 238.007 155.892 226.113C159.865 219.674 160.276 211.374 159.978 203.279" fill="#F36827"/>
<path d="M147.283 124.239C146.882 123.884 146.458 123.548 146.021 123.222C144.764 123.582 143.424 123.95 142.029 124.304C134.589 126.238 128.39 127.118 128.434 127.534C128.458 127.903 134.819 127.65 142.385 125.686C144.137 125.239 145.781 124.742 147.283 124.239Z" fill="#CE581E"/>
<path d="M138.712 221.374C138.452 220.973 138.201 220.574 137.958 220.177C139.825 219.833 141.892 219.402 144.062 218.846C148.633 217.707 152.578 216.287 155.121 215.372C156.958 214.711 158.063 214.314 158.141 214.477C158.324 214.785 152.468 218.217 144.411 220.229C142.404 220.742 140.476 221.113 138.712 221.374Z" fill="#CE581E"/>
<path d="M142.92 207.727C145.103 207.153 146.776 206.714 146.921 207.038C147.083 207.386 145.11 208.631 142.361 209.347C139.615 210.074 137.285 209.958 137.255 209.575C137.222 209.223 138.891 208.784 141.072 208.212C141.372 208.133 141.682 208.051 141.999 207.967C142.312 207.886 142.618 207.806 142.915 207.728L142.917 207.727L142.918 207.727L142.92 207.727Z" fill="#CE581E"/>
<path d="M143.133 191.234C143.034 190.912 141.192 191.196 138.717 191.579L138.716 191.579C138.231 191.654 137.722 191.733 137.198 191.811C136.676 191.892 136.169 191.967 135.686 192.039C133.205 192.409 131.357 192.685 131.358 193.023C131.353 193.407 134.087 193.731 137.412 193.221C140.738 192.722 143.252 191.599 143.133 191.234Z" fill="#CE581E"/>
<path d="M136.949 161.377C138.862 160.743 140.06 160.346 140.152 160.537C140.329 160.861 135.984 163.415 130.013 164.967C124.049 166.55 119.01 166.459 119.005 166.09C118.991 165.879 120.231 165.636 122.209 165.248C124.143 164.868 126.784 164.35 129.651 163.588C132.523 162.844 135.078 161.997 136.949 161.377Z" fill="#CE581E"/>
<path d="M136.412 142.857C138.383 142.568 139.796 142.36 139.893 142.653C140.022 143.013 137.71 144.138 134.605 144.554C131.503 144.983 128.974 144.518 129.002 144.137C129.017 143.829 130.436 143.65 132.414 143.402C133.034 143.323 133.709 143.239 134.413 143.141C135.118 143.047 135.792 142.948 136.411 142.857L136.412 142.857Z" fill="#CE581E"/>
<path d="M156.627 150.074C156.61 149.909 156.593 149.744 156.576 149.58C156.556 149.382 156.536 149.184 156.515 148.986C153.309 150.17 148.991 151.695 144.116 153.038C138.067 154.739 132.589 155.76 129.163 156.398C126.847 156.83 125.469 157.086 125.487 157.261C125.504 157.443 127.666 157.443 131.133 157.054C134.598 156.669 139.362 155.838 144.498 154.411C149.283 153.077 153.509 151.469 156.627 150.074Z" fill="#CE581E"/>
<path d="M121.29 137.546C125.611 136.512 128.601 135.796 128.687 136.098C128.785 136.429 123.116 138.629 115.767 140.313C113.315 140.858 110.991 141.221 108.976 141.426L108.971 141.305C108.956 140.932 108.941 140.558 108.942 140.186C110.874 139.866 113.095 139.446 115.459 138.921C117.551 138.441 119.53 137.968 121.288 137.547L121.29 137.546Z" fill="#CE581E"/>
<path d="M158.406 171.119C158.395 170.954 158.386 170.789 158.376 170.623C158.365 170.425 158.354 170.227 158.34 170.029C155.771 171.089 152.194 172.494 148.097 173.659C143.206 175.089 138.756 175.831 136.004 176.29C134.196 176.592 133.12 176.771 133.131 176.943C133.116 177.297 140.191 177.45 148.491 175.03C152.495 173.889 155.931 172.395 158.406 171.119Z" fill="#CE581E"/>
<path d="M159.609 196.325C157.048 197.454 153.885 198.738 150.369 199.898C145.841 201.389 141.585 202.279 138.472 202.605C135.357 202.942 133.416 202.821 133.409 202.646C133.401 202.497 134.283 202.34 135.8 202.071C136.51 201.945 137.358 201.795 138.32 201.609C141.342 201.034 145.462 200.011 149.925 198.543C153.338 197.417 156.46 196.255 159.046 195.292L159.539 195.109C159.549 195.285 159.559 195.459 159.569 195.634C159.582 195.863 159.595 196.092 159.609 196.325Z" fill="#CE581E"/>
<path d="M126.909 186.846C125.42 187.113 124.021 187.331 122.825 187.517L122.492 187.569C122.585 187.802 122.68 188.035 122.775 188.268C122.838 188.421 122.901 188.575 122.962 188.729C124.194 188.669 125.628 188.525 127.157 188.251C131.628 187.47 135.003 185.939 134.871 185.583C134.783 185.325 133.194 185.638 130.853 186.101C129.693 186.33 128.348 186.595 126.909 186.846Z" fill="#CE581E"/>
<path d="M155.892 226.112C159.865 219.674 160.277 211.374 159.978 203.279C160.277 211.374 159.865 219.672 155.892 226.112ZM159.298 189.843C158.881 174.94 157.807 160.058 156.131 145.244C157.807 160.058 158.881 174.94 159.298 189.843ZM142.306 121.03C142.285 121.022 142.265 121.012 142.244 121.003C142.265 121.012 142.286 121.022 142.306 121.03Z" fill="#FABE95"/>
<path d="M149.692 230.597C148.86 230.597 148.029 230.398 147.208 230.042C146.854 226.565 146.832 223.059 146.87 219.554C153.63 217.53 158.305 214.751 158.141 214.477C158.129 214.453 158.093 214.441 158.036 214.441C157.296 214.441 152.869 216.375 146.889 218.089C146.903 217.118 146.918 216.147 146.93 215.178C146.961 212.499 146.958 209.817 146.921 207.134C146.933 207.097 146.933 207.065 146.921 207.038C146.92 207.037 146.92 207.035 146.919 207.034C146.89 205.017 146.841 202.995 146.771 200.977C147.939 200.661 149.144 200.302 150.369 199.898C153.885 198.738 157.047 197.454 159.608 196.325C159.745 198.593 159.892 200.927 159.978 203.279C160.277 211.374 159.865 219.674 155.892 226.113C153.91 229.326 151.797 230.597 149.692 230.597V230.597ZM146.718 199.542C146.406 191.663 145.772 183.787 144.771 175.973C145.968 175.714 147.215 175.402 148.491 175.03C152.495 173.889 155.931 172.395 158.406 171.119C158.382 170.757 158.365 170.393 158.34 170.029C155.771 171.089 152.194 172.494 148.096 173.659C146.895 174.011 145.72 174.321 144.591 174.594C143.721 168.098 142.596 161.645 141.185 155.265C142.266 155.009 143.373 154.725 144.498 154.411C149.283 153.077 153.509 151.469 156.627 150.074C156.589 149.711 156.554 149.349 156.515 148.986C153.309 150.17 148.991 151.695 144.116 153.038C143.015 153.347 141.933 153.635 140.88 153.901C140.096 150.462 139.23 147.045 138.275 143.654C139.34 143.251 139.961 142.843 139.893 142.653C139.86 142.553 139.673 142.511 139.365 142.511C139.033 142.511 138.561 142.559 137.984 142.634C136.51 137.502 134.835 132.437 132.941 127.446C135.444 127.17 138.778 126.623 142.385 125.686C144.137 125.239 145.781 124.742 147.283 124.239C146.882 123.885 146.458 123.549 146.021 123.222C144.764 123.582 143.425 123.95 142.029 124.305C138.378 125.254 135.025 125.949 132.563 126.461C131.675 124.161 130.74 121.879 129.757 119.615C131.084 119.421 132.416 119.319 133.734 119.319C136.719 119.319 139.633 119.843 142.244 121.003C142.265 121.013 142.285 121.022 142.306 121.03C151.936 125.353 155.025 135.467 156.131 145.245C157.807 160.058 158.881 174.941 159.299 189.843C159.302 189.961 159.305 190.078 159.308 190.195C159.351 191.775 159.437 193.421 159.536 195.11C156.859 196.106 153.556 197.346 149.925 198.543C148.832 198.903 147.759 199.235 146.718 199.542" fill="#F2582B"/>
<path d="M138.275 143.654C138.179 143.314 138.082 142.973 137.984 142.634C138.561 142.559 139.033 142.511 139.365 142.511C139.673 142.511 139.86 142.553 139.893 142.653C139.961 142.843 139.34 143.251 138.275 143.654" fill="#D34A1F"/>
<path d="M146.889 218.089C146.882 218.577 146.876 219.065 146.87 219.554C153.63 217.53 158.304 214.751 158.14 214.477C158.128 214.453 158.093 214.441 158.036 214.441C157.712 214.441 156.68 214.812 155.121 215.373C153.12 216.093 150.25 217.126 146.889 218.089Z" fill="#D34A1F"/>
<path d="M146.771 200.977C146.754 200.498 146.737 200.021 146.718 199.542C147.759 199.235 148.832 198.903 149.925 198.543C153.336 197.419 156.457 196.256 159.042 195.294L159.536 195.11C159.56 195.513 159.583 195.918 159.608 196.325C157.048 197.454 153.885 198.738 150.369 199.898C149.144 200.302 147.939 200.661 146.771 200.977Z" fill="#D34A1F"/>
<path d="M144.591 174.594C144.653 175.055 144.712 175.511 144.771 175.973C145.968 175.714 147.215 175.402 148.491 175.03C152.495 173.889 155.931 172.395 158.406 171.119C158.395 170.954 158.386 170.789 158.376 170.624C158.365 170.425 158.354 170.227 158.34 170.029C155.771 171.089 152.194 172.494 148.097 173.659C146.895 174.011 145.721 174.321 144.591 174.594Z" fill="#D34A1F"/>
<path d="M141.186 155.265C141.086 154.811 140.983 154.354 140.88 153.901C141.933 153.635 143.015 153.347 144.116 153.038C148.991 151.695 153.309 150.17 156.515 148.986C156.536 149.184 156.556 149.381 156.576 149.579L156.577 149.58C156.593 149.745 156.61 149.909 156.627 150.074C153.51 151.469 149.283 153.077 144.498 154.411C143.373 154.725 142.266 155.009 141.186 155.265Z" fill="#D34A1F"/>
<path d="M132.941 127.446C132.816 127.118 132.689 126.787 132.563 126.461L132.659 126.441C135.111 125.931 138.425 125.242 142.029 124.305C143.424 123.95 144.764 123.582 146.021 123.222C146.458 123.549 146.882 123.885 147.283 124.239C145.781 124.742 144.137 125.239 142.385 125.686C138.778 126.623 135.444 127.17 132.941 127.446Z" fill="#D34A1F"/>
<path d="M127.317 177.566C125.238 177.565 123.39 173.602 122.554 172.105C121.498 170.21 120.535 168.263 119.669 166.275C119.94 166.301 120.289 166.315 120.705 166.315C122.525 166.315 125.628 166.039 129.135 165.19C129.497 167.333 129.799 169.483 129.996 171.65C130.141 173.249 130.184 174.995 129.248 176.298C128.597 177.202 127.947 177.566 127.317 177.566V177.566ZM119.479 165.837C117.101 160.266 115.481 154.373 114.689 148.369C114.385 146.063 114.244 143.175 114.686 140.543C115.043 140.471 115.403 140.394 115.766 140.313C119.131 139.542 122.142 138.663 124.41 137.905C124.621 138.543 124.759 139.235 124.806 139.965C125.171 145.607 126.331 151.157 127.485 156.714C126.199 156.965 125.473 157.134 125.487 157.261C125.493 157.335 125.854 157.379 126.512 157.379C126.818 157.379 127.188 157.37 127.617 157.35C128.062 159.491 128.501 161.635 128.889 163.787C124.5 164.905 120.763 165.455 119.479 165.837V165.837ZM115.021 139.018C115.24 138.225 115.526 137.474 115.893 136.793C117.015 134.71 118.457 133.841 119.852 133.841C121.496 133.841 123.076 135.047 123.999 136.902C121.695 137.443 118.715 138.175 115.459 138.921C115.312 138.954 115.166 138.986 115.021 139.018Z" fill="#F6891D"/>
<path d="M126.512 157.379C125.855 157.379 125.494 157.335 125.487 157.26C125.473 157.134 126.199 156.964 127.485 156.714C127.53 156.926 127.573 157.138 127.617 157.35C127.188 157.37 126.818 157.379 126.512 157.379" fill="#E57318"/>
<path d="M119.669 166.275C119.94 166.301 120.289 166.315 120.705 166.315C122.525 166.315 125.628 166.039 129.135 165.19C129.055 164.722 128.974 164.254 128.889 163.787C126.324 164.44 123.981 164.9 122.221 165.245C120.97 165.491 120.013 165.678 119.479 165.837C119.543 165.983 119.605 166.129 119.669 166.275Z" fill="#E57318"/>
<path d="M115.021 139.018C114.885 139.511 114.775 140.023 114.687 140.543C115.043 140.471 115.404 140.394 115.767 140.312C119.131 139.542 122.142 138.663 124.41 137.904C124.294 137.552 124.156 137.218 123.999 136.902C123.183 137.093 122.282 137.309 121.315 137.541C119.55 137.963 117.562 138.439 115.459 138.92C115.326 138.951 115.193 138.98 115.06 139.009L115.021 139.018Z" fill="#E57318"/>
</g>
<path d="M59.9739 177.359C55.8284 172.978 51.4226 173.428 47.2957 175.581C46.1431 175.787 45.0091 176.067 43.9681 176.423C40.12 177.771 27.5719 184.118 33.8553 189.884C37.1456 192.88 41.4213 192.898 45.6412 193.198C50.2329 193.516 56.5162 193.554 60.7919 191.738C68.5624 188.405 64.2868 181.909 59.9739 177.359Z" fill="#5F3913"/>
<path d="M50.2328 193.367C48.6155 193.367 47.054 193.292 45.6412 193.198C41.4213 192.898 37.1456 192.88 33.8552 189.884C33.5392 189.585 33.2603 189.285 33.0373 188.986C33.2603 189.285 33.5392 189.585 33.8552 189.884C37.1456 192.88 41.4213 192.898 45.6412 193.198C47.054 193.292 48.6155 193.367 50.2328 193.367C53.895 193.367 57.8361 192.992 60.7919 191.738C63.9335 190.39 65.1047 188.518 65.1047 186.477C65.1047 188.518 63.9335 190.39 60.7919 191.738C57.8361 192.992 53.895 193.367 50.2328 193.367ZM32.1821 185.878C32.2007 185.765 32.2193 185.653 32.2379 185.559C32.2193 185.672 32.2007 185.765 32.1821 185.878ZM59.9739 177.359C59.8252 177.191 59.6765 177.041 59.5278 176.91C59.6765 177.041 59.8252 177.191 59.9739 177.359Z" fill="#748535"/>
<path d="M50.2331 193.366C48.6157 193.366 47.0542 193.291 45.6414 193.198C41.4215 192.898 37.1458 192.879 33.8554 189.884C33.5394 189.584 33.2606 189.285 33.0375 188.985C32.2567 187.955 32.015 186.907 32.1824 185.877C32.2009 185.765 32.2195 185.671 32.2381 185.559C35.1381 189.341 42.4068 191.138 48.6343 191.138C52.2036 191.138 55.4568 190.558 57.3158 189.397C62.428 186.252 60.4389 179.044 56.1818 174.663C57.3158 175.131 58.4312 175.842 59.528 176.909C59.6767 177.04 59.8254 177.19 59.9741 177.359C62.5395 180.073 65.1049 183.481 65.1049 186.476C65.1049 188.517 63.9338 190.389 60.7921 191.737C57.8363 192.992 53.8953 193.366 50.2331 193.366Z" fill="#532F11"/>
<path d="M161.533 181.598C159.767 178.116 157.481 175.719 153.688 174.765C149.766 173.791 145.806 176.412 142.479 178.284C141.754 178.509 141.047 178.79 140.397 179.183C137.069 181.224 137.088 184.949 139.727 187.608C142.553 190.435 147.293 190.36 151.011 190.865C153.911 191.259 159.358 194.067 161.738 191.221C163.541 189.068 162.704 183.901 161.533 181.598Z" fill="#5F3913"/>
<path d="M111.077 159.554C108.772 159.405 100.072 161.296 100.778 164.909L100.871 165.077L100.091 166.014C97.6368 170.488 100.964 176.011 105.761 176.498C108.363 176.76 111.728 176.18 114.126 175.15C116.598 174.083 117.77 173.016 118.253 170.245C118.978 165.976 115.669 159.817 111.077 159.554Z" fill="#5F3913"/>
<path d="M91.6511 156.84C84.9587 154.144 77.783 160.415 73.6189 166.313C70.9048 169.046 68.7298 172.323 67.4285 175.524C60.9407 191.438 101.857 189.94 105.724 176.179C107.88 168.485 97.8972 159.33 91.6511 156.84Z" fill="#744B27"/>
<path d="M148.833 171.387C145.115 166.238 139.556 159.161 132.734 158.338C127.77 157.72 123.03 163.374 119.182 167.399C115.148 169.945 111.541 172.622 108.772 177.003C106.801 180.149 103.362 188.854 108.047 191.663C114.256 195.351 122.379 196.605 129.481 195.838C134.965 195.239 142.345 193.554 146.081 189.098C149.929 184.53 152.811 176.891 148.833 171.387Z" fill="#744B27"/>
<path d="M105.63 176.479C105.668 176.385 105.686 176.292 105.723 176.179C106.058 174.962 106.095 173.708 105.891 172.454C106.095 173.708 106.058 174.962 105.723 176.179C105.686 176.292 105.668 176.385 105.63 176.479Z" fill="#543010"/>
<path d="M82.2814 186.982C73.9903 186.982 66.7217 184.361 66.7403 178.726C66.7403 177.752 66.9448 176.685 67.4281 175.524C67.7441 174.757 68.0973 173.989 68.5063 173.221C72.1127 178.67 82.0955 180.729 89.5128 180.729C91.1859 180.729 92.7102 180.617 94.0301 180.429C101.689 179.287 103.883 172.098 102.451 165.34C104.199 167.567 105.5 170.02 105.89 172.454C106.095 173.708 106.058 174.963 105.723 176.18C105.686 176.292 105.667 176.385 105.63 176.479C103.437 183.256 92.134 186.982 82.2814 186.982Z" fill="#67401F"/>
<path d="M125.392 196.044C119.406 196.044 113.085 194.658 108.047 191.663C106.318 190.633 105.686 188.798 105.705 186.72C105.705 183.2 107.527 178.988 108.772 177.003C109.609 175.693 110.538 174.569 111.505 173.521C111.319 175.431 111.431 177.34 111.951 179.287C113.922 186.383 121.097 188.368 127.845 188.368C130.225 188.368 132.567 188.124 134.594 187.75C136.322 187.45 138.051 186.87 139.687 186.046C139.762 186.121 139.836 186.215 139.929 186.289C141.583 187.937 143.907 188.536 146.268 188.873C146.212 188.948 146.138 189.023 146.082 189.098C142.346 193.554 134.965 195.239 129.481 195.838C128.143 195.969 126.786 196.044 125.392 196.044Z" fill="#67401F"/>
<defs>
<clipPath id="clip0_26_762">
<rect width="93" height="178" fill="white" transform="translate(67)"/>
</clipPath>
</defs>
</svg>
