<svg width="260" height="167" viewBox="0 0 260 167" fill="none" xmlns="http://www.w3.org/2000/svg">
<path d="M237.27 151.441C178.378 147.845 169.455 165.826 123.054 165.826C98.0696 165.826 87.362 169.422 42.7464 164.028C-32.2077 155.038 23.1156 146.047 14.1924 142.452C-9.00769 137.058 -5.43845 124.471 37.3925 115.481C244.409 72.3282 296.163 155.038 237.27 151.441Z" fill="black" fill-opacity="0.15"/>
<path d="M58.9684 150.311C96.5519 144.172 103.453 155.67 133.248 152.734C149.292 151.153 156.402 152.888 184.701 146.447C212.037 142.016 248.356 128.819 174.949 111.482C39.2044 95.6309 21.3849 156.449 58.9684 150.311Z" fill="black" fill-opacity="0.15"/>
<path d="M152.034 103.745C148.539 100.636 143.873 101.404 139.69 103.277L138.891 103.352C133.593 104.27 129.893 107.622 127.514 112.267C124.8 117.568 127.644 122.569 131.641 125.977C136.158 129.798 142.293 131.409 148.111 131.165C152.833 130.959 158.726 126.876 159.172 121.782C159.73 115.283 156.83 108.072 152.034 103.745Z" fill="#5F3913"/>
<path d="M238.272 126.483C237.659 125.078 236.785 124.161 235.8 123.486L235.614 123.355L234.963 122.925C232.547 121.501 228.754 121.707 226.393 122.1C220.538 123.093 216.281 126.277 216.504 132.739C216.708 138.976 223.754 140.062 228.438 138.751C232.937 137.459 240.931 132.327 238.272 126.483Z" fill="#5F3913"/>
<g clip-path="url(#clip0_19_1915)">
<path d="M132.787 117.726C133.45 124.034 134.479 130.315 135.962 136.499L138.787 135.792C137.268 129.765 136.182 123.622 135.455 117.428C134.006 105.037 134.026 92.4685 135.196 80.0205C136.368 67.5759 138.747 55.2184 142.508 43.2963L140.833 42.747C136.878 54.7628 134.323 67.2175 132.983 79.7961C131.644 92.3713 131.468 105.101 132.787 117.726Z" fill="#29A143"/>
<path d="M199.392 48.0664C194.645 55.4996 189.761 63.0836 182.818 68.4969C175.871 73.9069 166.346 76.818 158.131 73.6826C157.534 73.4548 156.948 73.1968 156.362 72.9388C155.539 73.1398 155.539 70.8318 155.795 70.0211C159.31 59.0639 169.751 51.7881 180.426 47.6309C187.222 44.9846 192.566 45.497 199.392 48.0664Z" fill="#248C3A"/>
<path d="M170.311 101.57C165.123 99.9525 159.823 98.2809 155.468 95.0114C151.114 91.7454 147.819 86.5196 148.322 81.0795C148.355 80.6842 148.412 80.2889 148.469 79.897C148.212 79.4347 149.581 79.0562 150.104 79.0763C157.177 79.3744 163.211 84.4293 167.439 90.1374C170.131 93.772 170.707 97.0582 170.311 101.57Z" fill="#248C3A"/>
<path d="M75.9141 103.75C83.2269 101.02 90.7196 98.2533 98.5189 98.136C106.321 98.0188 114.627 101.064 118.798 107.693C119.102 108.175 119.381 108.675 119.661 109.17C120.351 109.472 119.125 111.11 118.512 111.545C110.206 117.438 98.932 117.006 89.1471 114.232C82.9171 112.463 79.3989 109.234 75.9141 103.75Z" fill="#248C3A"/>
<path d="M144.175 52.2703C146.73 57.0874 149.329 62.0284 150.138 67.4283C150.945 72.8282 149.632 78.8747 145.471 82.3887C145.168 82.6433 144.851 82.8844 144.535 83.1223C144.395 83.6315 143.155 82.9347 142.799 82.5495C137.981 77.3338 137.228 69.4751 138.218 62.427C138.848 57.9416 140.737 55.1981 144.175 52.2703Z" fill="#1F7A32"/>
<path d="M115.44 36.3216C120.967 38.9144 126.607 41.5841 130.952 45.8819C135.296 50.1798 138.171 56.4943 136.792 62.4603C136.692 62.8991 136.569 63.3279 136.449 63.7566C136.662 64.306 135.083 64.5204 134.503 64.4166C126.687 63.0063 120.74 56.4675 116.909 49.473C114.467 45.0178 114.32 41.2827 115.44 36.3216Z" fill="#248C3A"/>
<path d="M129.599 88.9479C133.747 87.7855 137.772 86.181 141.626 84.2247C145.488 82.2684 149.176 79.9637 152.727 77.4614C156.279 74.959 159.7 72.2591 163.059 69.4821C166.413 66.7051 169.712 63.8477 172.993 60.9802C169.785 63.9348 166.567 66.876 163.278 69.7434C159.99 72.6142 156.632 75.408 153.124 78.0175C149.619 80.6236 145.958 83.0456 142.1 85.1325C138.242 87.2194 134.184 88.9614 129.979 90.2611L129.599 88.9479Z" fill="#29A143"/>
<path d="M133.7 118.822C132.97 118.654 132.337 118.433 131.691 118.202C131.048 117.971 130.415 117.723 129.788 117.465C128.532 116.946 127.296 116.39 126.083 115.76C125.48 115.438 124.881 115.103 124.298 114.701L123.865 114.376L123.452 113.981L122.775 113.264C121.842 112.336 120.843 111.462 119.743 110.725C118.647 109.991 117.495 109.328 116.272 108.816C115.049 108.306 113.78 107.888 112.477 107.626C111.171 107.378 109.842 107.248 108.503 107.268C107.17 107.311 105.841 107.496 104.538 107.821C105.824 107.439 107.153 107.198 108.496 107.097C109.842 107.02 111.198 107.094 112.537 107.291C113.873 107.499 115.186 107.871 116.462 108.337C117.735 108.812 118.951 109.442 120.113 110.152C121.279 110.866 122.352 111.727 123.365 112.651L124.105 113.368L124.434 113.656L124.814 113.921C125.357 114.259 125.944 114.557 126.537 114.842C127.733 115.401 128.969 115.894 130.215 116.349C130.838 116.574 131.467 116.791 132.094 116.986C132.72 117.183 133.366 117.374 133.953 117.478L133.7 118.822Z" fill="#29A143"/>
<path d="M126.877 85.5716C126.744 81.4782 127.693 76.0414 130.105 74.2392C132.268 72.6245 134.38 73.8472 134.4 73.8606L134.21 73.6764L136.166 72.0986C135.523 71.2913 131.908 69.7537 128.613 72.2158C125.531 74.5172 122.346 80.0645 122.509 85.0122C122.509 85.0122 122.733 85.6955 124.738 85.9501C126.744 86.2047 126.877 85.5716 126.877 85.5716Z" fill="#29A143"/>
<path d="M132.697 91.5746C130.971 85.9546 129.187 80.212 125.699 75.4944C122.215 70.7768 116.639 67.2069 110.835 67.7519C110.413 67.788 109.992 67.8495 109.573 67.9108C109.08 67.6329 108.676 69.1164 108.698 69.683C109.016 77.346 114.409 83.8828 120.499 88.4632C124.377 91.3797 127.883 92.0041 132.697 91.5746Z" fill="#248C3A"/>
<path d="M146.317 0C149.282 7.72135 152.287 15.6303 152.517 23.901C152.747 32.1751 149.668 41.0254 142.769 45.5376C142.266 45.8659 141.746 46.1673 141.23 46.4721C140.926 47.2091 139.187 45.9329 138.724 45.2864C132.427 36.5601 132.727 24.5978 135.502 14.1832C137.272 7.55054 140.61 3.77525 146.317 0Z" fill="#248C3A"/>
<path d="M140.024 46.6062C140.867 41.7791 141.633 36.9319 142.309 32.0746C142.639 29.646 142.946 27.2107 143.199 24.7721C143.312 23.5527 143.425 22.33 143.492 21.1073C143.568 19.8846 143.592 18.6586 143.529 17.4292C143.638 18.6519 143.662 19.8846 143.632 21.1106C143.612 22.3434 143.542 23.5694 143.475 24.7954C143.315 27.2475 143.099 29.6963 142.859 32.1417C142.366 37.0324 141.783 41.9097 141.12 46.7804L140.024 46.6062Z" fill="#29A143"/>
</g>
<path d="M212.99 101.966C207.283 93.107 194.53 81.7381 183.023 85.8773C180.811 86.7014 178.692 87.7503 176.628 88.9115C175.699 89.0988 174.769 89.3798 173.84 89.8667C162.091 96.0849 149.766 108.99 143.669 120.864C129.485 148.49 180.848 149.071 195.962 147.366C202.059 146.673 224.627 144.482 226.17 136.016C228.624 122.718 219.645 112.305 212.99 101.966Z" fill="#8A5D3B"/>
<path d="M184.399 147.928C177.279 147.928 168.784 147.367 161.218 145.7C161.403 145.55 161.571 145.4 161.738 145.213C163.541 143.059 162.705 137.889 161.534 135.586C159.768 132.102 157.481 129.705 153.689 128.749C153.094 128.599 152.499 128.543 151.923 128.543C151.476 128.543 151.03 128.581 150.584 128.656C150.268 127.663 149.785 126.708 149.134 125.809C147.758 123.898 146.123 121.726 144.301 119.684C147.498 113.822 152.183 107.772 157.481 102.434C157.239 103.596 157.053 104.776 156.979 105.974C155.808 122.494 168.449 132.308 183.339 135.473C186.648 136.185 190.013 136.56 193.285 136.56C206.019 136.56 217.266 130.791 219.013 116.126C219.218 114.328 219.162 112.623 218.957 110.938C223.847 118.504 227.899 126.502 226.189 135.96C226.189 135.979 226.189 135.998 226.17 136.016C225.947 137.215 225.315 138.283 224.367 139.238C218.586 145.063 201.204 146.767 195.962 147.367C193.155 147.685 189.065 147.928 184.399 147.928Z" fill="#7E5131"/>
<path d="M59.9739 131.345C55.8284 126.962 51.4226 127.411 47.2957 129.565C46.1431 129.771 45.0091 130.052 43.9681 130.408C40.12 131.757 27.5719 138.106 33.8553 143.875C37.1456 146.871 41.4213 146.89 45.6412 147.19C50.2329 147.508 56.5162 147.546 60.7919 145.729C68.5624 142.395 64.2868 135.896 59.9739 131.345Z" fill="#5F3913"/>
<path d="M50.2328 147.358C48.6155 147.358 47.054 147.283 45.6412 147.19C41.4213 146.89 37.1456 146.871 33.8552 143.875C33.5392 143.575 33.2603 143.275 33.0373 142.976C33.2603 143.275 33.5392 143.575 33.8552 143.875C37.1456 146.871 41.4213 146.89 45.6412 147.19C47.054 147.283 48.6155 147.358 50.2328 147.358C53.895 147.358 57.8361 146.984 60.7919 145.729C63.9335 144.38 65.1047 142.507 65.1047 140.466C65.1047 142.507 63.9335 144.38 60.7919 145.729C57.8361 146.984 53.895 147.358 50.2328 147.358ZM32.1821 139.867C32.2007 139.754 32.2193 139.642 32.2379 139.548C32.2193 139.661 32.2007 139.754 32.1821 139.867ZM59.9739 131.345C59.8252 131.176 59.6765 131.026 59.5278 130.895C59.6765 131.026 59.8252 131.176 59.9739 131.345Z" fill="#748535"/>
<path d="M50.2331 147.358C48.6157 147.358 47.0542 147.283 45.6414 147.189C41.4215 146.89 37.1458 146.871 33.8554 143.874C33.5394 143.575 33.2606 143.275 33.0375 142.975C32.2567 141.945 32.015 140.896 32.1824 139.866C32.2009 139.754 32.2195 139.66 32.2381 139.548C35.1381 143.331 42.4068 145.129 48.6343 145.129C52.2036 145.129 55.4568 144.548 57.3158 143.387C62.428 140.241 60.4389 133.03 56.1818 128.647C57.3158 129.115 58.4312 129.827 59.528 130.895C59.6767 131.026 59.8254 131.176 59.9741 131.344C62.5395 134.06 65.1049 137.469 65.1049 140.465C65.1049 142.507 63.9338 144.38 60.7921 145.728C57.8363 146.983 53.8953 147.358 50.2331 147.358Z" fill="#532F11"/>
<path d="M161.533 135.585C159.767 132.102 157.481 129.704 153.688 128.749C149.766 127.775 145.806 130.397 142.479 132.27C141.754 132.495 141.047 132.776 140.397 133.169C137.069 135.211 137.088 138.938 139.727 141.597C142.553 144.426 147.293 144.351 151.011 144.856C153.911 145.25 159.358 148.059 161.738 145.212C163.541 143.058 162.704 137.889 161.533 135.585Z" fill="#5F3913"/>
<path d="M111.077 113.533C108.772 113.383 100.072 115.275 100.778 118.889L100.871 119.058L100.091 119.994C97.6368 124.471 100.964 129.996 105.761 130.483C108.363 130.745 111.728 130.165 114.126 129.134C116.598 128.067 117.77 126.999 118.253 124.227C118.978 119.957 115.669 113.795 111.077 113.533Z" fill="#5F3913"/>
<path d="M91.6511 110.817C84.9587 108.12 77.783 114.394 73.6189 120.294C70.9048 123.028 68.7298 126.306 67.4285 129.509C60.9407 145.429 101.857 143.93 105.724 130.164C107.88 122.466 97.8972 113.308 91.6511 110.817Z" fill="#744B27"/>
<path d="M148.833 125.37C145.115 120.219 139.556 113.139 132.734 112.315C127.77 111.697 123.03 117.354 119.182 121.38C115.148 123.928 111.541 126.606 108.772 130.989C106.801 134.135 103.362 142.844 108.047 145.654C114.256 149.344 122.379 150.599 129.481 149.831C134.965 149.231 142.345 147.546 146.081 143.088C149.929 138.518 152.811 130.876 148.833 125.37Z" fill="#744B27"/>
<path d="M105.63 130.464C105.668 130.37 105.686 130.277 105.723 130.164C106.058 128.947 106.095 127.692 105.891 126.437C106.095 127.692 106.058 128.947 105.723 130.164C105.686 130.277 105.668 130.37 105.63 130.464Z" fill="#543010"/>
<path d="M82.2814 140.971C73.9903 140.971 66.7217 138.349 66.7403 132.712C66.7403 131.738 66.9448 130.67 67.4281 129.509C67.7441 128.741 68.0973 127.973 68.5063 127.205C72.1127 132.655 82.0955 134.716 89.5128 134.716C91.1859 134.716 92.7102 134.603 94.0301 134.416C101.689 133.274 103.883 126.081 102.451 119.32C104.199 121.549 105.5 124.002 105.89 126.437C106.095 127.692 106.058 128.947 105.723 130.164C105.686 130.277 105.667 130.371 105.63 130.464C103.437 137.244 92.134 140.971 82.2814 140.971Z" fill="#67401F"/>
<path d="M125.392 150.037C119.406 150.037 113.085 148.651 108.047 145.654C106.318 144.624 105.686 142.788 105.705 140.709C105.705 137.188 107.527 132.974 108.772 130.989C109.609 129.678 110.538 128.554 111.505 127.505C111.319 129.415 111.431 131.326 111.951 133.274C113.922 140.372 121.097 142.357 127.845 142.357C130.225 142.357 132.567 142.114 134.594 141.739C136.322 141.44 138.051 140.859 139.687 140.035C139.762 140.11 139.836 140.204 139.929 140.278C141.583 141.927 143.907 142.526 146.268 142.863C146.212 142.938 146.138 143.013 146.082 143.088C142.346 147.546 134.965 149.231 129.481 149.831C128.143 149.962 126.786 150.037 125.392 150.037Z" fill="#67401F"/>
<defs>
<clipPath id="clip0_19_1915">
<rect width="124" height="122" fill="white" transform="translate(76)"/>
</clipPath>
</defs>
</svg>
