<svg width="260" height="128" viewBox="0 0 260 128" fill="none" xmlns="http://www.w3.org/2000/svg">
<path d="M237.27 112.441C178.378 108.845 169.455 126.826 123.054 126.826C98.0696 126.826 87.362 130.422 42.7464 125.028C-32.2077 116.038 23.1156 107.047 14.1924 103.452C-9.00769 98.0575 -5.43845 85.4713 37.3925 76.4806C244.409 33.3282 296.163 116.038 237.27 112.441Z" fill="black" fill-opacity="0.15"/>
<path d="M58.9684 111.311C96.5519 105.172 103.453 116.67 133.248 113.734C149.292 112.153 156.402 113.888 184.701 107.447C212.037 103.016 248.356 89.8195 174.949 72.4823C39.2044 56.6309 21.3849 117.449 58.9684 111.311Z" fill="black" fill-opacity="0.15"/>
<path d="M152.034 64.7453C148.539 61.6362 143.873 62.4041 139.69 64.2771L138.891 64.352C133.593 65.2697 129.893 68.6223 127.514 73.2673C124.8 78.5677 127.644 83.5685 131.641 86.9773C136.158 90.7981 142.293 92.4088 148.111 92.1654C152.833 91.9593 158.726 87.8763 159.172 82.7819C159.73 76.2827 156.83 69.0718 152.034 64.7453Z" fill="#5F3913"/>
<path d="M238.272 87.4832C237.659 86.0784 236.785 85.1607 235.8 84.4864L235.614 84.3553L234.963 83.9245C232.547 82.5011 228.754 82.7071 226.393 83.1004C220.538 84.0931 216.281 87.2771 216.504 93.7388C216.708 99.9758 223.754 101.062 228.438 99.751C232.937 98.4587 240.931 93.3268 238.272 87.4832Z" fill="#5F3913"/>
<g clip-path="url(#clip0_26_199)">
<path d="M112.092 12.3999C111.848 13.0159 111.623 13.6198 111.417 14.1985C110.051 18.0478 109.099 22.0679 108.455 26.1025C107.592 31.5025 109.828 34.3425 110.592 39.5652C111.257 44.1132 109.268 48.6158 108.871 53.2038C108.229 60.6305 111.643 67.8212 114.684 74.3266C115.696 76.4932 116.561 78.5865 117.115 80.9332C118.169 85.4132 116.543 87.5506 115.289 91.6852C114.039 95.8092 115.713 100.312 118.248 103.744C120.837 107.251 124.059 110.204 126.683 113.665C128.732 116.371 131.728 121.881 130.855 125.513C132.892 117.044 136.516 109.425 139.628 101.439C142.211 94.8105 147.443 89.8092 149.349 82.7318C151.151 76.0452 150.297 68.7452 147.559 62.6012C145.675 58.3772 142.847 54.5372 141.828 50.0092C140.016 41.9518 144.284 33.6385 143.668 25.3892C142.928 15.4852 136.729 2.44519 126.303 0.289186C118.967 -1.22548 114.535 6.24786 112.092 12.3999" fill="#71A82C"/>
<path d="M109.225 30.0348C113.424 33.2561 117.321 36.0388 120.162 38.0281C121.814 39.1868 123.088 40.0761 123.862 40.6495C124.5 40.0308 125.854 38.8975 127.862 37.5548C130.789 35.6028 134.937 33.1495 139.513 30.4108C140.961 29.5508 142.361 28.7268 143.705 27.9401C143.692 28.3148 143.673 28.6895 143.647 29.0641C142.471 29.7708 141.249 30.5014 139.988 31.2508C136.805 33.1121 133.37 35.1215 128.217 38.1361C126.225 39.3281 124.82 40.3081 124.069 40.8014C124.497 41.1254 124.722 41.3201 124.696 41.3641C124.67 41.4081 124.349 41.2681 123.8 40.9761C123.585 41.1108 123.462 41.1721 123.44 41.1454C123.422 41.1254 123.497 41.0268 123.629 40.8841C122.777 40.4241 121.462 39.6548 119.792 38.6041C116.848 36.7561 112.869 34.0494 108.65 30.8121L108.448 30.6548C108.382 30.2228 108.332 29.7788 108.305 29.3215C108.611 29.5588 108.913 29.7948 109.225 30.0348" fill="#689C2D"/>
<path d="M111.425 49.5956C115.236 52.2156 118.722 54.5303 121.246 56.2117C123.769 57.8917 125.321 58.9543 125.252 59.073C125.188 59.1863 123.513 58.333 120.892 56.797C118.272 55.2637 114.714 53.0317 110.89 50.4023C110.412 50.073 109.94 49.745 109.477 49.4197C109.548 49.0797 109.621 48.7383 109.696 48.3983C110.262 48.793 110.837 49.1903 111.425 49.5956Z" fill="#689C2D"/>
<path d="M127.718 90.2716C128.19 89.6916 129.724 88.1316 132.028 85.9183C134.886 83.1716 138.909 79.4569 143.449 75.4689C145.685 73.5049 147.837 71.6609 149.816 69.9969C149.877 70.3463 149.912 70.6996 149.961 71.0516C147.813 72.9303 145.918 74.5862 144.068 76.2036C140.754 79.1262 137.334 82.1423 132.476 86.4276C130.098 88.5196 128.448 89.9383 127.83 90.3756L127.852 90.4143L127.76 90.4263L127.552 90.5303L127.616 90.3996C126.602 90.1503 122.426 88.4063 117.154 86.0329C117.228 85.7169 117.297 85.3983 117.344 85.0716C122.772 87.6023 126.957 89.6996 127.718 90.2716" fill="#689C2D"/>
<path d="M125.639 25.3493C125.769 25.4933 125.841 25.5907 125.822 25.6133C125.737 25.72 124.063 24.464 121.385 22.4027C116.945 19.0093 113.962 16.7293 111.265 14.6667C111.318 14.512 111.362 14.3533 111.417 14.1986C111.473 14.04 111.542 13.868 111.601 13.7066C115.673 16.776 119.26 19.684 121.806 21.864C123.752 23.5293 125.094 24.7586 125.601 25.304C125.838 24.8466 131.408 20.988 138.375 16.4613C139.289 15.868 140.183 15.292 141.047 14.7373C141.169 15.0333 141.303 15.3253 141.416 15.624C140.599 16.1627 139.752 16.716 138.883 17.28C131.967 21.7747 126.216 25.2733 125.639 25.3493" fill="#689C2D"/>
<path d="M129.032 55.2839C126.594 57.3212 125.057 58.5506 124.969 58.4493C124.884 58.3506 126.264 56.9385 128.593 54.7652C130.921 52.5919 134.202 49.6626 137.912 46.5306C139.142 45.4932 140.321 44.5199 141.468 43.5826C141.436 44.0039 141.416 44.4239 141.401 44.8426C140.357 45.7252 139.416 46.5199 138.516 47.2786C136.074 49.3386 133.326 51.6586 129.032 55.2839Z" fill="#689C2D"/>
<path d="M128.264 68.0242C130.916 65.4576 134.678 62.1015 138.846 58.3722C140.417 56.9735 141.937 55.6308 143.37 54.3735C143.504 54.6642 143.637 54.9535 143.778 55.2415C142.417 56.4709 140.973 57.7655 139.47 59.1029C136.504 61.7029 133.356 64.4616 128.722 68.5242C126.93 70.1042 125.86 71.5069 125.293 72.2749C126.241 72.7855 126.773 73.1095 126.742 73.1749C126.712 73.2429 126.094 73.0335 125.044 72.6122C124.904 72.8015 124.817 72.9095 124.789 72.8922C124.762 72.8842 124.796 72.7535 124.88 72.5469C122.269 71.4922 117.17 69.2282 111.242 66.4749C111.081 66.0509 110.934 65.6215 110.784 65.1922C117.082 68.1362 122.461 70.7656 125.065 72.1522C125.505 71.2816 126.496 69.7402 128.264 68.0242" fill="#689C2D"/>
<path d="M126.508 21.2009C126.393 21.1796 126.011 22.877 125.413 25.9783C125.131 27.5316 124.912 29.449 124.605 31.673C124.407 33.9036 124.117 36.4476 124.016 39.269C123.707 44.909 123.768 51.645 124.255 59.0877C124.719 66.533 125.617 74.6796 126.648 83.2009C128.687 100.23 130.737 115.666 130.123 126.841C129.856 132.421 129.017 136.878 128.249 139.906C127.468 142.934 126.855 144.565 126.989 144.618C127.043 144.64 127.248 144.254 127.591 143.494C127.947 142.741 128.379 141.59 128.879 140.086C129.851 137.076 130.885 132.57 131.307 126.914C132.233 115.566 130.349 100.017 128.315 83.0009C127.285 74.4836 126.344 66.3757 125.797 58.9797C125.231 51.5877 125.047 44.9116 125.203 39.3116C125.228 36.5103 125.432 33.9823 125.54 31.7583C125.756 29.545 125.879 27.6276 126.061 26.0703C126.456 22.9583 126.621 21.2223 126.508 21.2009" fill="#557C2A"/>
<path d="M189.33 37.4252C189.338 38.0172 189.334 38.5919 189.321 39.1413C189.238 42.7853 188.756 46.4399 188.013 50.0066C187.02 54.7812 184.256 56.4279 181.964 60.5332C179.966 64.1079 180.196 68.4973 179.07 72.4439C177.25 78.8359 172.126 83.7279 167.53 88.1706C166 89.6492 164.614 91.1159 163.41 92.8919C161.11 96.2852 161.788 98.5879 161.521 102.433C161.253 106.269 158.43 109.483 155.23 111.528C151.962 113.616 148.342 115.041 145.06 117.083C142.494 118.677 138.252 122.305 137.828 125.609C138.816 117.903 138.214 110.392 138.156 102.743C138.106 96.3919 135.336 90.5466 135.992 84.0399C136.613 77.8932 139.638 72.0879 143.869 67.8493C146.777 64.9359 150.35 62.6452 152.634 59.2012C156.7 53.0719 155.781 44.7786 158.912 38.1053C162.669 30.0946 171.968 21.2239 181.336 22.7773C187.926 23.8706 189.246 31.5172 189.33 37.4252" fill="#6FC42D"/>
<path d="M186.124 53.0335C181.605 54.3681 177.477 55.4348 174.48 56.1802C172.736 56.6135 171.393 56.9455 170.566 57.1735C170.232 56.4548 169.464 55.0761 168.217 53.3121C166.397 50.7468 163.721 47.3722 160.78 43.6215C159.846 42.4415 158.941 41.3042 158.072 40.2188C157.964 40.5335 157.86 40.8522 157.764 41.1722C158.52 42.1402 159.305 43.1401 160.117 44.1681C162.178 46.7414 164.401 49.5175 167.737 53.6828C169.017 55.3162 169.877 56.5828 170.346 57.2348C169.886 57.3668 169.637 57.4575 169.646 57.5028C169.653 57.5468 169.965 57.5335 170.516 57.4668C170.652 57.6481 170.733 57.7388 170.761 57.7228C170.781 57.7121 170.75 57.6068 170.686 57.4455C171.542 57.3348 172.881 57.1161 174.605 56.7788C177.644 56.1841 181.816 55.2068 186.356 53.8668L186.574 53.8001C186.766 53.4615 186.949 53.1081 187.117 52.7361C186.786 52.8348 186.46 52.9348 186.124 53.0335" fill="#689C2D"/>
<path d="M178.088 68.6199C174.082 69.5772 170.445 70.3866 167.809 70.9759C165.174 71.5666 163.546 71.9519 163.565 72.0732C163.584 72.1879 165.249 72.0159 167.918 71.5773C170.588 71.1413 174.258 70.4252 178.277 69.4639C178.78 69.3426 179.277 69.2212 179.766 69.0985C179.814 68.7919 179.862 68.4853 179.908 68.1773C179.31 68.3239 178.706 68.4706 178.088 68.6199" fill="#689C2D"/>
<path d="M151.616 97.2666C151.408 96.6306 150.625 94.8386 149.408 92.2559C147.899 89.0506 145.727 84.6653 143.209 79.8853C141.969 77.5319 140.763 75.3052 139.643 73.2839C139.48 73.5546 139.34 73.8386 139.187 74.1159C140.38 76.3693 141.433 78.3572 142.461 80.2999C144.293 83.7972 146.185 87.4079 148.872 92.5372C150.189 95.0425 151.115 96.7546 151.489 97.3172L151.46 97.3426L151.533 97.3812L151.673 97.5345L151.661 97.4052C152.584 97.5226 156.616 97.4106 161.76 97.1266C161.797 96.8399 161.843 96.5532 161.907 96.2666C156.583 96.6306 152.432 97.0332 151.616 97.2666" fill="#689C2D"/>
<path d="M173.94 43.8613C173.786 43.94 173.694 43.9974 173.702 44.0214C173.741 44.1387 175.533 43.6293 178.417 42.7733C183.192 41.372 186.398 40.4307 189.3 39.58C189.305 39.4334 189.318 39.288 189.321 39.1414C189.325 38.9907 189.321 38.8253 189.324 38.6707C184.96 39.92 181.049 41.1907 178.237 42.1893C176.089 42.9507 174.58 43.544 173.986 43.836C173.933 43.3787 170.518 38.3774 166.152 32.3694C165.578 31.5814 165.017 30.8147 164.473 30.076C164.277 30.2827 164.073 30.484 163.884 30.6947C164.394 31.4067 164.924 32.14 165.469 32.888C169.804 38.852 173.482 43.6133 173.94 43.8613" fill="#689C2D"/>
<path d="M161.62 67.7039C163.004 70.1839 163.893 71.7013 164 71.6439C164.101 71.5893 163.4 69.9706 162.149 67.4119C160.9 64.8546 159.096 61.3613 157 57.5613C156.304 56.3026 155.63 55.1132 154.973 53.9652C154.866 54.3252 154.75 54.6813 154.629 55.0359C155.218 56.1053 155.752 57.0706 156.258 57.9906C157.638 60.4906 159.192 63.3052 161.62 67.7039" fill="#689C2D"/>
<path d="M158.218 78.561C156.824 75.5716 154.754 71.5676 152.466 67.1223C151.601 65.4543 150.761 63.8476 149.965 62.341C149.762 62.5396 149.56 62.7383 149.352 62.933C150.096 64.393 150.888 65.9356 151.714 67.5316C153.361 70.6503 155.106 73.9583 157.678 78.8303C158.669 80.721 159.116 82.233 159.344 83.0543C158.392 83.1757 157.848 83.2743 157.852 83.3396C157.856 83.4063 158.436 83.429 159.445 83.4156C159.501 83.6183 159.54 83.7356 159.568 83.7303C159.593 83.733 159.606 83.6129 159.602 83.4143C162.112 83.3729 167.076 83.125 172.886 82.7356C173.156 82.4343 173.413 82.1223 173.676 81.8156C167.494 82.2436 162.181 82.7063 159.574 83.025C159.482 82.1596 159.148 80.557 158.218 78.561" fill="#689C2D"/>
<path d="M174.531 40.1264C174.207 40.0584 173.214 46.209 169.815 55.605C166.578 65.0597 160.531 77.489 153.342 90.9823C146.247 104.506 139.75 116.868 136.938 126.629C135.505 131.481 134.947 135.569 134.814 138.388C134.693 141.213 134.895 142.768 134.986 142.764C135.127 142.762 135.146 141.209 135.465 138.442C135.797 135.68 136.519 131.706 138.073 126.981C141.114 117.494 147.727 105.297 154.829 91.7637C162.021 78.2663 167.961 65.6277 170.939 55.9877C171.746 53.6023 172.307 51.389 172.845 49.4663C173.29 47.5157 173.711 45.8463 173.963 44.461C174.438 41.685 174.646 40.1477 174.531 40.1264" fill="#557C2A"/>
<path d="M74.2465 31.5412C74.1865 32.1506 74.1398 32.7412 74.1052 33.3065C73.8692 37.0639 74.0438 40.8612 74.4945 44.5892C75.0972 49.5812 77.7959 51.4972 79.7932 55.9026C81.5332 59.7399 80.9118 64.2359 81.7212 68.3879C83.0318 75.1079 87.8732 80.5506 92.2105 85.4892C93.6558 87.1332 94.9518 88.7519 96.0345 90.6759C98.1011 94.3505 97.2025 96.6639 97.1398 100.643C97.0771 104.609 99.6985 108.141 102.811 110.5C105.989 112.911 109.587 114.667 112.785 117.029C115.284 118.873 119.329 122.947 119.476 126.38C119.136 118.372 120.415 110.693 121.149 102.828C121.757 96.2999 125.123 90.5079 125.019 83.7625C124.92 77.3879 122.318 71.1732 118.34 66.4759C115.602 63.2465 112.129 60.6039 110.081 56.8773C106.438 50.2479 108.113 41.7892 105.48 34.6732C102.319 26.1319 93.5318 16.2626 83.7585 17.1119C76.8825 17.7092 74.8518 25.4706 74.2465 31.5412" fill="#6FC42D"/>
<path d="M76.1714 47.8547C80.7034 49.5893 84.8568 51.016 87.8741 52.0226C89.6301 52.6093 90.9821 53.0573 91.8128 53.3586C92.2208 52.6453 93.1314 51.2879 94.5687 49.5733C96.6661 47.0799 99.7154 43.8226 103.073 40.2C104.137 39.0586 105.167 37.9626 106.157 36.9146C106.241 37.248 106.319 37.5827 106.39 37.9213C105.527 38.8547 104.633 39.8213 103.706 40.8146C101.359 43.2973 98.8287 45.9747 95.0301 49.9933C93.5687 51.5707 92.574 52.804 92.034 53.4386C92.4954 53.6106 92.7434 53.7239 92.7314 53.7706C92.7194 53.8146 92.3994 53.776 91.8394 53.664C91.6834 53.8386 91.5914 53.9253 91.5647 53.908C91.5434 53.8946 91.5847 53.788 91.6661 53.628C90.7954 53.4466 89.4368 53.1133 87.6928 52.628C84.6194 51.7746 80.4127 50.4347 75.8607 48.6933L75.6408 48.6066C75.4728 48.2439 75.3168 47.8653 75.1768 47.4693C75.5074 47.5973 75.8354 47.7253 76.1714 47.8547" fill="#689C2D"/>
<path d="M83.0692 64.5307C87.1052 65.8373 90.7772 66.96 93.4358 67.7773C96.0945 68.5947 97.7358 69.1227 97.7052 69.2467C97.6758 69.3627 95.9785 69.052 93.2705 68.388C90.5625 67.7253 86.8492 66.6946 82.7998 65.384C82.2932 65.22 81.7932 65.0546 81.2998 64.8893C81.2772 64.5706 81.2558 64.252 81.2358 63.932C81.8372 64.1293 82.4465 64.3293 83.0692 64.5307" fill="#689C2D"/>
<path d="M107.782 96.1186C108.053 95.4826 109.016 93.7013 110.494 91.1413C112.33 87.964 114.949 83.6266 117.958 78.9106C119.441 76.5893 120.878 74.3946 122.209 72.4039C122.352 72.6959 122.472 73 122.605 73.2973C121.178 75.52 119.921 77.4799 118.693 79.3959C116.5 82.8479 114.236 86.4106 111.021 91.4733C109.445 93.9453 108.344 95.632 107.908 96.18L107.936 96.2093L107.858 96.2426L107.7 96.3893L107.724 96.2573C106.764 96.3053 102.626 95.868 97.3598 95.164C97.3452 94.8666 97.3252 94.5666 97.2852 94.2666C102.729 95.068 106.964 95.8133 107.782 96.1186" fill="#689C2D"/>
<path d="M89.5132 39.3935C89.6652 39.4869 89.7532 39.5535 89.7425 39.5775C89.6932 39.6948 87.8945 39.0282 85.0038 37.9162C80.2145 36.0922 76.9972 34.8682 74.0879 33.7602C74.0959 33.6095 74.0945 33.4575 74.1052 33.3068C74.1145 33.1521 74.1319 32.9829 74.1439 32.8242C78.5239 34.4575 82.4345 36.0775 85.2398 37.3295C87.3825 38.2855 88.8825 39.0162 89.4678 39.3642C89.5625 38.8975 93.5159 34.0255 98.5359 28.1948C99.1945 27.4295 99.8398 26.6855 100.465 25.9695C100.648 26.1975 100.84 26.4201 101.016 26.6535C100.428 27.3441 99.8199 28.0562 99.1932 28.7828C94.2079 34.5708 90.0052 39.1749 89.5132 39.3935" fill="#689C2D"/>
<path d="M100.09 64.9053C98.4491 67.3467 97.3997 68.836 97.2971 68.7693C97.1957 68.7053 98.0611 67.096 99.5718 64.564C101.081 62.0333 103.245 58.584 105.736 54.8426C106.562 53.6026 107.36 52.4333 108.137 51.304C108.214 51.684 108.304 52.06 108.397 52.4333C107.696 53.4867 107.064 54.436 106.46 55.3426C104.82 57.804 102.974 60.576 100.09 64.9053Z" fill="#689C2D"/>
<path d="M102.634 76.3463C104.333 73.3837 106.814 69.4303 109.558 65.041C110.596 63.393 111.601 61.809 112.552 60.321C112.742 60.5424 112.934 60.7623 113.132 60.9783C112.237 62.4223 111.286 63.945 110.296 65.521C108.328 68.5984 106.241 71.861 103.168 76.6676C101.982 78.5343 101.389 80.053 101.082 80.8797C102.05 81.081 102.602 81.2263 102.592 81.2917C102.582 81.361 101.984 81.3383 100.946 81.2437C100.87 81.4477 100.821 81.565 100.792 81.5583C100.766 81.5583 100.762 81.433 100.785 81.2303C98.2065 80.9877 93.1224 80.3343 87.1784 79.469C86.9278 79.137 86.6904 78.797 86.4478 78.4583C92.7678 79.3943 98.1931 80.2956 100.848 80.8316C101.018 79.9476 101.504 78.3263 102.634 76.3463" fill="#689C2D"/>
<path d="M89.2331 35.504C89.1171 35.516 89.1984 37.1107 89.4464 40C89.5838 41.4427 89.8718 43.192 90.1598 45.2334C90.5438 47.2534 90.9291 49.572 91.5491 52.088C92.6944 57.1467 94.4518 63.0773 96.7638 69.5227C99.0571 75.976 101.916 82.9347 104.988 90.1893C111.109 104.691 116.841 117.78 119.126 127.785C120.304 132.772 120.693 136.913 120.786 139.777C120.868 142.644 120.748 144.24 120.889 144.253C120.946 144.26 121.034 143.868 121.15 143.111C121.28 142.356 121.374 141.232 121.44 139.779C121.548 136.875 121.334 132.633 120.286 127.531C118.252 117.271 112.649 104.027 106.534 89.536C103.464 82.2854 100.576 75.3747 98.2171 68.9934C95.8411 62.6187 93.9838 56.7787 92.7024 51.8027C90.0384 41.8627 89.5651 35.464 89.2331 35.504" fill="#557C2A"/>
</g>
<path d="M212.99 62.966C207.283 54.107 194.53 42.7381 183.023 46.8773C180.811 47.7014 178.692 48.7503 176.628 49.9115C175.699 50.0988 174.769 50.3798 173.84 50.8667C162.091 57.0849 149.766 69.9896 143.669 81.8641C129.485 109.49 180.848 110.071 195.962 108.366C202.059 107.673 224.627 105.482 226.17 97.0163C228.624 83.7184 219.645 73.3047 212.99 62.966Z" fill="#8A5D3B"/>
<path d="M184.399 108.928C177.279 108.928 168.784 108.366 161.218 106.7C161.403 106.55 161.571 106.4 161.738 106.213C163.541 104.059 162.705 98.8893 161.534 96.5856C159.768 93.1019 157.481 90.7045 153.689 89.7493C153.094 89.5995 152.499 89.5433 151.923 89.5433C151.476 89.5433 151.03 89.5808 150.584 89.6557C150.268 88.663 149.785 87.7078 149.134 86.8088C147.758 84.8984 146.123 82.7258 144.301 80.6842C147.498 74.8219 152.183 68.7722 157.481 63.4343C157.239 64.5956 157.053 65.7755 156.979 66.9742C155.808 83.4937 168.449 93.3079 183.339 96.4732C186.648 97.185 190.013 97.5596 193.285 97.5596C206.019 97.5596 217.266 91.7909 219.013 77.1256C219.218 75.3276 219.162 73.6232 218.957 71.9375C223.847 79.5043 227.899 87.5018 226.189 96.9602C226.189 96.9789 226.189 96.9977 226.17 97.0164C225.947 98.2151 225.315 99.2827 224.367 100.238C218.586 106.063 201.204 107.767 195.962 108.367C193.155 108.685 189.065 108.928 184.399 108.928Z" fill="#7E5131"/>
<path d="M59.9739 92.3446C55.8284 87.9619 51.4226 88.4114 47.2957 90.5653C46.1431 90.7713 45.0091 91.0522 43.9681 91.4081C40.12 92.7566 27.5719 99.1059 33.8553 104.875C37.1456 107.871 41.4213 107.89 45.6412 108.19C50.2329 108.508 56.5162 108.546 60.7919 106.729C68.5624 103.395 64.2868 96.8959 59.9739 92.3446Z" fill="#5F3913"/>
<path d="M50.2328 108.358C48.6155 108.358 47.054 108.283 45.6412 108.19C41.4213 107.89 37.1456 107.871 33.8552 104.875C33.5392 104.575 33.2603 104.275 33.0373 103.976C33.2603 104.275 33.5392 104.575 33.8552 104.875C37.1456 107.871 41.4213 107.89 45.6412 108.19C47.054 108.283 48.6155 108.358 50.2328 108.358C53.895 108.358 57.8361 107.984 60.7919 106.729C63.9335 105.38 65.1047 103.507 65.1047 101.466C65.1047 103.507 63.9335 105.38 60.7919 106.729C57.8361 107.984 53.895 108.358 50.2328 108.358ZM32.1821 100.867C32.2007 100.754 32.2193 100.642 32.2379 100.548C32.2193 100.661 32.2007 100.754 32.1821 100.867ZM59.9739 92.3447C59.8252 92.1761 59.6765 92.0262 59.5278 91.8951C59.6765 92.0262 59.8252 92.1761 59.9739 92.3447Z" fill="#748535"/>
<path d="M50.2331 108.358C48.6157 108.358 47.0542 108.283 45.6414 108.189C41.4215 107.89 37.1458 107.871 33.8554 104.874C33.5394 104.575 33.2606 104.275 33.0375 103.975C32.2567 102.945 32.015 101.896 32.1824 100.866C32.2009 100.754 32.2195 100.66 32.2381 100.548C35.1381 104.331 42.4068 106.129 48.6343 106.129C52.2036 106.129 55.4568 105.548 57.3158 104.387C62.428 101.241 60.4389 94.0298 56.1818 89.6471C57.3158 90.1153 58.4312 90.8271 59.528 91.8946C59.6767 92.0257 59.8254 92.1756 59.9741 92.3441C62.5395 95.0599 65.1049 98.4687 65.1049 101.465C65.1049 103.507 63.9338 105.38 60.7921 106.728C57.8363 107.983 53.8953 108.358 50.2331 108.358Z" fill="#532F11"/>
<path d="M161.533 96.5852C159.767 93.1015 157.481 90.7041 153.688 89.7489C149.766 88.775 145.806 91.3971 142.479 93.2701C141.754 93.4948 141.047 93.7758 140.397 94.1691C137.069 96.2106 137.088 99.9378 139.727 102.597C142.553 105.426 147.293 105.351 151.011 105.856C153.911 106.25 159.358 109.059 161.738 106.212C163.541 104.058 162.704 98.889 161.533 96.5852Z" fill="#5F3913"/>
<path d="M111.077 74.5327C108.772 74.3828 100.072 76.2745 100.778 79.8893L100.871 80.0579L100.091 80.9944C97.6368 85.4707 100.964 90.9959 105.761 91.4829C108.363 91.7451 111.728 91.1645 114.126 90.1344C116.598 89.0668 117.77 87.9992 118.253 85.2272C118.978 80.9569 115.669 74.7949 111.077 74.5327Z" fill="#5F3913"/>
<path d="M91.6511 71.8167C84.9587 69.1196 77.783 75.394 73.6189 81.2938C70.9048 84.0283 68.7298 87.306 67.4285 90.5087C60.9407 106.429 101.857 104.93 105.724 91.1643C107.88 83.4664 97.8972 74.3077 91.6511 71.8167Z" fill="#744B27"/>
<path d="M148.833 86.3698C145.115 81.2192 139.556 74.1394 132.734 73.3153C127.77 72.6972 123.03 78.3536 119.182 82.3804C115.148 84.9276 111.541 87.606 108.772 91.9887C106.801 95.1352 103.362 103.844 108.047 106.654C114.256 110.344 122.379 111.599 129.481 110.831C134.965 110.231 142.345 108.546 146.081 104.088C149.929 99.5179 152.811 91.8763 148.833 86.3698Z" fill="#744B27"/>
<path d="M105.63 91.4639C105.668 91.3702 105.686 91.2766 105.723 91.1642C106.058 89.9468 106.095 88.6919 105.891 87.437C106.095 88.6919 106.058 89.9468 105.723 91.1642C105.686 91.2766 105.668 91.3702 105.63 91.4639Z" fill="#543010"/>
<path d="M82.2814 101.971C73.9903 101.971 66.7217 99.3493 66.7403 93.7117C66.7403 92.7378 66.9448 91.6702 67.4281 90.5089C67.7441 89.741 68.0973 88.9731 68.5063 88.2052C72.1127 93.6555 82.0955 95.7158 89.5128 95.7158C91.1859 95.7158 92.7102 95.6034 94.0301 95.4161C101.689 94.2736 103.883 87.0814 102.451 80.3201C104.199 82.5489 105.5 85.0025 105.89 87.4373C106.095 88.6922 106.058 89.9471 105.723 91.1645C105.686 91.2769 105.667 91.3705 105.63 91.4641C103.437 98.2442 92.134 101.971 82.2814 101.971Z" fill="#67401F"/>
<path d="M125.392 111.037C119.406 111.037 113.085 109.651 108.047 106.654C106.318 105.624 105.686 103.788 105.705 101.709C105.705 98.1881 107.527 93.9739 108.772 91.9886C109.609 90.6775 110.538 89.5538 111.505 88.5049C111.319 90.4153 111.431 92.3257 111.951 94.2736C113.922 101.372 121.097 103.357 127.845 103.357C130.225 103.357 132.567 103.114 134.594 102.739C136.322 102.44 138.051 101.859 139.687 101.035C139.762 101.11 139.836 101.204 139.929 101.278C141.583 102.927 143.907 103.526 146.268 103.863C146.212 103.938 146.138 104.013 146.082 104.088C142.346 108.546 134.965 110.231 129.481 110.831C128.143 110.962 126.786 111.037 125.392 111.037Z" fill="#67401F"/>
<defs>
<clipPath id="clip0_26_199">
<rect width="116" height="83" fill="white" transform="translate(74)"/>
</clipPath>
</defs>
</svg>
