<svg width="362" height="88" viewBox="0 0 362 88" fill="none" xmlns="http://www.w3.org/2000/svg">
<path d="M191.955 86.8138V34.5125H226.654V43.6294H203.035V56.0919H224.351V65.2088H203.035V86.8138H191.955Z" fill="#924221"/>
<path d="M244.617 87.5544C242.109 87.5544 239.874 87.1202 237.913 86.2519C235.951 85.3666 234.398 84.0642 233.255 82.3447C232.13 80.6081 231.567 78.4459 231.567 75.8581C231.567 73.6789 231.967 71.8486 232.769 70.3675C233.571 68.8863 234.663 67.6945 236.045 66.7922C237.426 65.8898 238.996 65.2088 240.753 64.7491C242.527 64.2895 244.387 63.966 246.331 63.7787C248.617 63.5404 250.46 63.319 251.859 63.1147C253.257 62.8934 254.272 62.5699 254.904 62.1443C255.535 61.7187 255.85 61.0887 255.85 60.2545V60.1013C255.85 58.4839 255.339 57.2325 254.315 56.3472C253.309 55.4619 251.876 55.0193 250.016 55.0193C248.054 55.0193 246.493 55.4534 245.333 56.3217C244.173 57.173 243.406 58.2455 243.03 59.5394L232.948 58.7222C233.46 56.3387 234.467 54.2787 235.968 52.5421C237.469 50.7885 239.405 49.4435 241.777 48.5071C244.165 47.5537 246.928 47.077 250.067 47.077C252.251 47.077 254.341 47.3324 256.337 47.8432C258.35 48.3539 260.132 49.1456 261.685 50.2182C263.254 51.2908 264.491 52.6698 265.395 54.3553C266.299 56.0238 266.751 58.0242 266.751 60.3567V86.8138H256.413V81.3742H256.106C255.475 82.6 254.631 83.6811 253.573 84.6175C252.515 85.5369 251.244 86.2604 249.76 86.7882C248.276 87.299 246.562 87.5544 244.617 87.5544ZM247.739 80.0463C249.342 80.0463 250.758 79.7313 251.986 79.1014C253.215 78.4544 254.179 77.5861 254.878 76.4965C255.577 75.4069 255.927 74.1726 255.927 72.7935V68.6309C255.586 68.8522 255.117 69.0565 254.52 69.2438C253.94 69.414 253.283 69.5758 252.549 69.729C251.816 69.8652 251.082 69.9929 250.349 70.1121C249.615 70.2142 248.95 70.3079 248.353 70.393C247.073 70.5803 245.956 70.8782 245.001 71.2868C244.045 71.6954 243.303 72.2487 242.774 72.9468C242.246 73.6278 241.981 74.479 241.981 75.5005C241.981 76.9817 242.519 78.1139 243.593 78.8971C244.685 79.6632 246.067 80.0463 247.739 80.0463Z" fill="#924221"/>
<path d="M275.208 86.8138V47.5878H285.777V54.4319H286.186C286.902 51.9973 288.105 50.1586 289.794 48.9157C291.483 47.6559 293.428 47.0259 295.628 47.0259C296.174 47.0259 296.763 47.06 297.394 47.1281C298.025 47.1962 298.579 47.2898 299.057 47.409V57.0623C298.545 56.9091 297.837 56.7729 296.933 56.6537C296.029 56.5345 295.202 56.4749 294.451 56.4749C292.848 56.4749 291.415 56.8239 290.152 57.522C288.907 58.203 287.917 59.1564 287.184 60.3822C286.467 61.608 286.109 63.0211 286.109 64.6215V86.8138H275.208Z" fill="#924221"/>
<path d="M304.693 86.8138V47.5878H315.082V54.5085H315.543C316.362 52.2101 317.726 50.3969 319.637 49.069C321.548 47.741 323.833 47.077 326.495 47.077C329.19 47.077 331.485 47.7495 333.378 49.0945C335.272 50.4225 336.534 52.2271 337.165 54.5085H337.575C338.376 52.2612 339.827 50.465 341.925 49.12C344.04 47.758 346.539 47.077 349.422 47.077C353.09 47.077 356.067 48.2433 358.353 50.5757C360.656 52.8911 361.807 56.177 361.807 60.4333V86.8138H350.932V62.5784C350.932 60.3992 350.352 58.7648 349.192 57.6752C348.032 56.5856 346.582 56.0408 344.842 56.0408C342.863 56.0408 341.319 56.6707 340.21 57.9306C339.101 59.1734 338.547 60.8163 338.547 62.8594V86.8138H327.979V62.3486C327.979 60.4248 327.424 58.8925 326.316 57.7518C325.224 56.6111 323.782 56.0408 321.991 56.0408C320.78 56.0408 319.688 56.3472 318.716 56.9601C317.76 57.556 317.001 58.3988 316.438 59.4884C315.875 60.561 315.594 61.8208 315.594 63.268V86.8138H304.693Z" fill="#924221"/>
<path d="M0.807129 86.8135V34.5121H21.79C25.6454 34.5121 28.861 35.0825 31.437 36.2232C34.0129 37.3639 35.9491 38.9472 37.2456 40.9732C38.5421 42.9822 39.1904 45.2976 39.1904 47.9195C39.1904 49.9625 38.781 51.7586 37.9621 53.3079C37.1433 54.8402 36.0174 56.1001 34.5844 57.0875C33.1685 58.058 31.5478 58.7475 29.7225 59.1561V59.6668C31.7184 59.752 33.5864 60.3138 35.3265 61.3523C37.0836 62.3909 38.508 63.8465 39.5998 65.7193C40.6916 67.575 41.2375 69.7883 41.2375 72.3591C41.2375 75.1342 40.5466 77.6114 39.1648 79.7906C37.8 81.9528 35.7785 83.6638 33.1002 84.9237C30.4219 86.1835 27.121 86.8135 23.1974 86.8135H0.807129ZM11.8871 77.7731H20.9199C24.0077 77.7731 26.2595 77.1857 27.6754 76.011C29.0913 74.8192 29.7993 73.2359 29.7993 71.261C29.7993 69.8138 29.4496 68.5369 28.7501 67.4303C28.0507 66.3237 27.0527 65.4554 25.7562 64.8255C24.4768 64.1955 22.95 63.8806 21.1758 63.8806H11.8871V77.7731ZM11.8871 56.398H20.1011C21.6194 56.398 22.9671 56.1341 24.1441 55.6063C25.3383 55.0615 26.2765 54.2954 26.9589 53.3079C27.6583 52.3205 28.0081 51.1372 28.0081 49.7582C28.0081 47.8684 27.3342 46.3446 25.9865 45.1869C24.6559 44.0292 22.7623 43.4504 20.3058 43.4504H11.8871V56.398Z" fill="#15B946"/>
<path d="M73.4474 70.1118V47.5875H84.3483V86.8135H73.8824V79.6884H73.473C72.5859 81.9868 71.1103 83.8341 69.0461 85.2301C66.999 86.6262 64.4999 87.3242 61.5486 87.3242C58.9215 87.3242 56.61 86.7283 54.614 85.5366C52.6181 84.3448 51.0572 82.6508 49.9313 80.4546C48.8224 78.2583 48.2595 75.6279 48.2424 72.5634V47.5875H59.1433V70.6225C59.1603 72.9379 59.783 74.7682 61.0112 76.1131C62.2395 77.4581 63.8857 78.1306 65.9499 78.1306C67.2635 78.1306 68.4917 77.8327 69.6347 77.2368C70.7776 76.6239 71.6988 75.7216 72.3983 74.5298C73.1148 73.338 73.4645 71.8654 73.4474 70.1118Z" fill="#15B946"/>
<path d="M125.77 58.773L115.791 59.3859C115.62 58.5347 115.253 57.7685 114.69 57.0875C114.127 56.3895 113.385 55.8362 112.464 55.4276C111.56 55.0019 110.477 54.7891 109.214 54.7891C107.525 54.7891 106.101 55.1466 104.941 55.8617C103.781 56.5597 103.201 57.4961 103.201 58.6709C103.201 59.6072 103.576 60.3989 104.327 61.0459C105.077 61.6928 106.365 62.2121 108.191 62.6037L115.304 64.0338C119.126 64.8169 121.974 66.0768 123.851 67.8134C125.728 69.5499 126.666 71.8313 126.666 74.6575C126.666 77.2283 125.907 79.4841 124.388 81.425C122.887 83.3659 120.823 84.8811 118.196 85.9707C115.586 87.0433 112.575 87.5796 109.163 87.5796C103.96 87.5796 99.8146 86.4985 96.7269 84.3363C93.6562 82.1571 91.8564 79.1947 91.3276 75.4492L102.049 74.8873C102.373 76.4707 103.158 77.6795 104.403 78.5137C105.649 79.3309 107.244 79.7395 109.189 79.7395C111.099 79.7395 112.635 79.3735 113.795 78.6414C114.972 77.8923 115.569 76.9304 115.586 75.7556C115.569 74.7682 115.151 73.9595 114.332 73.3295C113.513 72.6826 112.251 72.1888 110.545 71.8483L103.738 70.4948C99.8999 69.7287 97.0424 68.4007 95.1659 66.5109C93.3065 64.6212 92.3768 62.2121 92.3768 59.2838C92.3768 56.764 93.0591 54.5933 94.4239 52.7716C95.8057 50.9499 97.7419 49.5454 100.233 48.5579C102.74 47.5704 105.674 47.0767 109.035 47.0767C113.999 47.0767 117.906 48.1238 120.755 50.2179C123.621 52.312 125.293 55.1637 125.77 58.773Z" fill="#15B946"/>
<path d="M144.431 64.1359V86.8135H133.53V34.5121H144.124V54.5082H144.584C145.471 52.1928 146.904 50.3796 148.883 49.0687C150.862 47.7407 153.344 47.0767 156.33 47.0767C159.059 47.0767 161.439 47.6726 163.469 48.8644C165.516 50.0391 167.103 51.7331 168.228 53.9464C169.371 56.1426 169.934 58.773 169.917 61.8375V86.8135H159.016V63.7784C159.034 61.3608 158.419 59.4796 157.174 58.1346C155.946 56.7896 154.223 56.1171 152.005 56.1171C150.521 56.1171 149.207 56.432 148.064 57.062C146.939 57.6919 146.051 58.6113 145.403 59.8201C144.772 61.0118 144.448 62.4504 144.431 64.1359Z" fill="#15B946"/>
<path d="M105.265 31.6472C105.911 28.0944 103.819 25.6539 101.098 23.62C97.7892 21.1282 93.5709 20.7968 90.4595 18.5796C85.5435 15.0896 92.0709 5.51098 85.4147 1.76304C81.6826 -0.32518 76.4947 0.389691 73.7369 3.59463C71.5942 6.0913 70.651 10.5322 70.5404 13.7546C70.4102 17.3227 72.3521 20.7854 70.9929 24.3471C70.1453 26.5764 68.2731 28.1199 66.1423 29.3443C66.3784 27.728 67.7236 21.1625 65.7641 20.3026L64.7376 21.2611C64.141 23.6194 63.5688 26.0236 62.9816 28.4288C62.8144 27.4417 62.5016 26.5061 61.9692 25.6518C61.1001 24.2502 59.7601 23.2387 58.7321 21.9655C57.7269 20.7436 56.8175 19.0284 56.4443 17.4989C55.9479 15.4735 56.533 13.3763 56.6532 11.2912L56.5091 9.42755C55.9293 6.53944 53.8095 3.54745 51.3335 2.23794C50.4289 1.75992 49.4278 1.47852 48.4148 1.32247C44.5107 0.693313 40.9749 3.6586 40.3463 7.41856C39.9192 9.93693 40.7702 12.4971 41.8707 14.8103C42.9312 17.0812 43.8996 19.1489 42.7026 21.5338C41.4262 24.0777 40.213 25.2949 40.9892 28.4882C41.2158 29.4179 41.5401 30.3652 42.1183 31.1313C43.6169 33.1893 46.5359 33.8041 49.049 33.3658C51.4648 32.9353 53.7416 32.0132 55.9764 31.0836C57.1224 30.6077 58.2534 30.1056 59.4053 29.6622C60.4118 29.2696 61.0467 29.6604 61.7177 30.5719L62.2419 31.4298C60.8315 37.0104 59.2537 42.5598 56.9463 47.7434C56.3344 49.1221 55.4546 50.5433 55.0321 51.9806C54.4321 54.0243 55.152 55.9544 57.5493 55.9201C59.7632 55.887 60.6672 53.911 61.0912 52.0593C61.9872 48.1218 63.1668 44.2738 64.0972 40.3448C64.7588 37.5532 65.2879 34.709 65.7351 31.8701C69.4706 30.6714 73.6775 30.8009 77.2886 32.4118C80.9136 34.0257 82.9222 36.8308 86.8733 38.2125C92.8782 40.3207 101.04 41.3535 104.241 34.6679C104.766 33.558 105.098 32.57 105.265 31.6472Z" fill="#15B946"/>
</svg>
