<svg width="248" height="211" viewBox="0 0 248 211" fill="none" xmlns="http://www.w3.org/2000/svg">
<path d="M247.55 118.452C250.01 104.906 242.047 95.6014 231.689 87.8467C219.094 78.3463 203.036 77.0827 191.192 68.6291C172.478 55.3226 197.326 18.802 171.988 4.51218C157.781 -3.44964 138.033 -0.724033 127.535 11.4955C119.378 21.0146 115.788 37.9466 115.366 50.2327C114.871 63.8369 122.263 77.0391 117.089 90.619C113.863 99.1189 106.736 105.004 98.6244 109.672C99.5234 103.51 104.644 78.477 97.1849 75.1985L93.2771 78.8531C91.0064 87.8444 88.828 97.0109 86.5929 106.181C85.9565 102.418 84.7657 98.8508 82.7388 95.5934C79.4307 90.2496 74.3295 86.3932 70.4162 81.5387C66.5899 76.8798 63.1282 70.3402 61.7076 64.5087C59.8179 56.7866 62.045 48.7905 62.5029 40.8406L61.954 33.7348C59.7469 22.7233 51.6779 11.3156 42.2524 6.32283C38.809 4.50028 34.9979 3.42738 31.1419 2.83241C16.2805 0.433591 2.82058 11.7394 0.427834 26.0751C-1.19791 35.677 2.04162 45.4382 6.23058 54.2578C10.2675 62.9163 13.9542 70.7995 9.39736 79.8927C4.53868 89.5919 -0.0796262 94.2328 2.87525 106.408C3.7376 109.953 4.97242 113.565 7.17321 116.485C12.8779 124.332 23.9895 126.676 33.556 125.005C42.7522 123.363 51.4191 119.848 59.9263 116.303C64.2888 114.489 68.5941 112.575 72.9792 110.884C76.8103 109.387 79.2273 110.877 81.7814 114.353L83.7769 117.624C78.408 138.901 72.4017 160.059 63.6183 179.823C61.289 185.079 57.94 190.498 56.3317 195.978C54.0478 203.77 56.7882 211.129 65.9139 210.998C74.3413 210.872 77.7828 203.338 79.3965 196.278C82.8072 181.265 87.2979 166.594 90.8394 151.614C93.3579 140.97 95.3721 130.126 97.0744 119.302C111.294 114.732 127.308 115.226 141.055 121.368C154.854 127.521 162.5 138.216 177.54 143.484C200.399 151.522 231.467 155.46 243.654 129.969C245.653 125.738 246.914 121.971 247.55 118.452Z" fill="#54990F" fill-opacity="0.1"/>
<path d="M164.564 83.6982C156.323 78.9225 148.138 79.019 139.287 80.5046C130.557 81.9689 126.033 76.9789 119.16 72.5238C112.831 68.4222 103.885 67.5207 96.5377 67.6205C83.3854 67.8021 73.2074 78.3777 68.2305 89.7402C66.2263 94.3163 65.2283 99.2719 64.6213 104.231C63.4924 113.453 63.7133 123.018 66.8709 131.756C70.6518 142.22 78.5442 150.957 88.0923 156.67C97.6388 162.382 108.754 165.184 119.865 165.731C135.69 166.506 152.113 162.452 164.86 152.374C176.851 142.894 185.239 124.69 182.762 109.131C181.067 98.4899 173.886 89.1021 164.564 83.6982Z" fill="#D61E25"/>
<path d="M80.1966 133.292C81.759 134.997 84.6663 137.52 86.9077 137.52C88.1446 137.52 89.1802 136.749 89.6727 134.645C90.2825 132.039 89.3826 129.185 88.5109 126.421C88.0239 124.876 87.5457 123.36 87.3446 121.93C86.8227 118.23 87.0044 114.487 87.185 110.765C87.2105 110.239 87.236 109.714 87.2595 109.19C87.4574 104.769 87.109 97.631 81.3271 97.1991C81.1668 97.186 81.0097 97.1811 80.8559 97.1811C75.29 97.1811 73.8601 104.871 73.5083 110.314C73.4265 111.567 73.4036 112.701 73.3987 113.594C73.3644 121.105 75.038 127.664 80.1966 133.292Z" fill="#EE2545"/>
<path d="M83.4884 89.6519C84.2737 90.9395 85.473 91.4876 86.7066 91.4876C88.84 91.4876 91.0716 89.8466 91.4168 87.5626C91.8357 84.8026 89.8069 82.9097 87.433 82.9097C86.6657 82.9097 85.864 83.1076 85.095 83.5363C83.0401 84.6831 82.2614 87.6412 83.4884 89.6519Z" fill="#EE2545"/>
<path d="M164.564 83.6985C164.497 83.6609 164.43 83.6216 164.363 83.5839C164.43 83.6216 164.497 83.6609 164.564 83.6985Z" fill="#F89FAA"/>
<path d="M123.651 165.823C122.388 165.823 121.123 165.791 119.865 165.731C108.754 165.184 97.6388 162.382 88.0923 156.67C86.1519 155.509 84.3032 154.193 82.5215 152.793C91.4904 150.71 100.749 149.39 109.715 147.301C126.095 143.484 143.306 135.559 150.018 120.139C154.464 109.921 153.453 98.1219 150.626 87.3452C149.941 84.734 149.118 82.1637 148.233 79.6131C148.417 79.6115 148.599 79.6098 148.782 79.6098C154.075 79.6098 159.209 80.6455 164.363 83.5838C164.43 83.6215 164.497 83.6608 164.564 83.6984C173.886 89.1023 181.067 98.4901 182.762 109.131C183.056 110.985 183.199 112.876 183.197 114.785C183.189 128.903 175.422 144.024 164.86 152.374C153.126 161.652 138.28 165.824 123.651 165.823Z" fill="#C31E25"/>
<path d="M162.6 100.434C161.391 95.7119 159.067 92.3809 155.585 89.184C153.358 87.1373 149.186 80.4703 145.859 80.4278C153.29 80.521 160.721 80.616 168.15 80.7092C158.944 73.3273 146.637 69.9488 134.954 71.5946C138.226 63.6466 139.728 54.9755 139.318 46.391C136.726 46.2601 134.134 46.1309 131.543 46C133.428 53.7108 132.943 62.8515 130.494 70.3791C122.445 64.1685 111.935 61.2383 101.832 62.3901C108.129 66.8255 114.755 71.2723 122.343 72.591C110.673 72.5681 99.1619 78.651 92.6045 88.3038C102.701 90.4716 113.53 89.0499 122.725 84.3495C120.154 95.1443 122.298 106.975 128.488 116.184C135.677 107.573 138.835 95.7316 136.886 84.6848C142.058 93.8157 152.117 99.9755 162.6 100.434Z" fill="#1CAB47"/>
</svg>
